<?xml version="1.0" encoding="utf-8"?>
<!-- Generator: Adobe Illustrator 16.0.0, SVG Export Plug-In . SVG Version: 6.00 Build 0)  -->
<!DOCTYPE svg PUBLIC "-//W3C//DTD SVG 1.1//EN" "http://www.w3.org/Graphics/SVG/1.1/DTD/svg11.dtd">
<svg version="1.1" id="Layer_1" xmlns="http://www.w3.org/2000/svg" xmlns:xlink="http://www.w3.org/1999/xlink" x="0px" y="0px"
	 width="130px" height="130px" viewBox="0 0 130 130" enable-background="new 0 0 130 130" xml:space="preserve">
<g>
	<circle fill="#2980DE" cx="65" cy="64.999" r="64"/>
	<g>
		<g>
			<path fill="#FFFFFF" d="M19.904,79.863c0.271-18.081,14.962-32.632,33.1-32.665c18.138,0.033,32.829,14.584,33.101,32.665h3.341
				c-0.244-19.925-16.46-36.003-36.442-36.005c-19.984,0.002-36.199,16.08-36.441,36.005H19.904z"/>
		</g>
		<g>
			<path fill="#FFFFFF" d="M63.321,79.863c0.263-12.854,10.716-23.18,23.628-23.204c12.912,0.024,23.365,10.35,23.628,23.204h3.353
				c-0.243-14.701-12.225-26.543-26.98-26.543c-14.757,0-26.738,11.842-26.981,26.543H63.321z"/>
		</g>
		<g>
			<path fill="#FFFFFF" d="M19.414,79.863c0.792-7.718,7.298-13.729,15.224-13.741c7.923,0.013,14.427,6.023,15.219,13.741h3.341
				c-0.795-9.565-8.794-17.081-18.561-17.083c-9.772,0.002-17.771,7.518-18.567,17.083H19.414z"/>
		</g>
		<g>
			<path fill="#FFFFFF" d="M52.863,79.863c0.747-4.324,4.499-7.612,9.037-7.62c4.537,0.008,8.291,3.296,9.036,7.62h3.38
				c-0.771-6.178-6.028-10.958-12.416-10.96c-6.387,0.002-11.642,4.782-12.414,10.96H52.863z"/>
		</g>
		<g>
			<path fill="#FFFFFF" d="M21.737,79.863c0.713-3.087,3.468-5.388,6.772-5.394c3.304,0.006,6.058,2.307,6.771,5.394h3.395
				c-0.757-4.943-5.012-8.732-10.166-8.735c-5.153,0.003-9.41,3.792-10.164,8.735H21.737z"/>
		</g>
		<g>
			<path fill="#FFFFFF" d="M88.358,79.863c0.238-3.631,3.243-6.5,6.933-6.508c3.692,0.008,6.695,2.877,6.933,6.508h3.342
				c-0.239-5.477-4.738-9.846-10.274-9.848c-5.535,0.002-10.035,4.371-10.273,9.848H88.358z"/>
		</g>
	</g>
</g>
</svg>
