<?xml version="1.0" encoding="utf-8"?>
<!-- Generator: Adobe Illustrator 16.0.0, SVG Export Plug-In . SVG Version: 6.00 Build 0)  -->
<!DOCTYPE svg PUBLIC "-//W3C//DTD SVG 1.1//EN" "http://www.w3.org/Graphics/SVG/1.1/DTD/svg11.dtd">
<svg version="1.1" id="Layer_1" xmlns="http://www.w3.org/2000/svg" xmlns:xlink="http://www.w3.org/1999/xlink" x="0px" y="0px"
	 width="130px" height="130px" viewBox="0 0 130 130" enable-background="new 0 0 130 130" xml:space="preserve">
<circle fill="#2980DE" cx="65" cy="64.999" r="64"/>
<g>
	<g opacity="0.3" enable-background="new    ">
		<rect x="63" y="47" fill="#FFFFFF" width="22" height="36"/>
	</g>
	<g>
		<path fill="#FFFFFF" d="M86.146,84.672H46.501c-0.829,0-1.5-0.672-1.5-1.5v-36.34c0-0.829,0.671-1.5,1.5-1.5h39.646
			c0.828,0,1.5,0.671,1.5,1.5v36.34C87.646,84,86.975,84.672,86.146,84.672z M48.001,81.672h36.646v-33.34H48.001V81.672z"/>
	</g>
	<g>
		<path fill="#FFFFFF" d="M63.02,83.025c-0.829,0-1.5-0.672-1.5-1.5V47.591c0-0.829,0.671-1.5,1.5-1.5s1.5,0.671,1.5,1.5v33.935
			C64.52,82.354,63.849,83.025,63.02,83.025z"/>
	</g>
	<g>
		<path fill="#FFFFFF" d="M45.178,66.829H24.697c-0.829,0-1.5-0.672-1.5-1.5c0-0.829,0.671-1.5,1.5-1.5h20.481
			c0.829,0,1.5,0.671,1.5,1.5C46.678,66.157,46.007,66.829,45.178,66.829z"/>
	</g>
	<g>
		<path fill="#FFFFFF" d="M24.036,79.162c-0.829,0-1.5-0.672-1.5-1.5V53.657c0-0.829,0.671-1.5,1.5-1.5s1.5,0.671,1.5,1.5v24.005
			C25.536,78.49,24.865,79.162,24.036,79.162z"/>
	</g>
	<g>
		<path fill="#FFFFFF" d="M105.746,66.829H86.145c-0.828,0-1.5-0.672-1.5-1.5c0-0.829,0.672-1.5,1.5-1.5h19.602
			c0.828,0,1.5,0.671,1.5,1.5C107.246,66.157,106.574,66.829,105.746,66.829z"/>
	</g>
	<g>
		<path fill="#FFFFFF" d="M105.964,79.162c-0.828,0-1.5-0.672-1.5-1.5V53.657c0-0.829,0.672-1.5,1.5-1.5s1.5,0.671,1.5,1.5v24.005
			C107.464,78.49,106.792,79.162,105.964,79.162z"/>
	</g>
</g>
</svg>
