<?xml version="1.0" encoding="utf-8"?>
<!-- Generator: Adobe Illustrator 16.0.0, SVG Export Plug-In . SVG Version: 6.00 Build 0)  -->
<!DOCTYPE svg PUBLIC "-//W3C//DTD SVG 1.1//EN" "http://www.w3.org/Graphics/SVG/1.1/DTD/svg11.dtd">
<svg version="1.1" id="Layer_1" xmlns="http://www.w3.org/2000/svg" xmlns:xlink="http://www.w3.org/1999/xlink" x="0px" y="0px"
	 width="130px" height="130px" viewBox="0 0 130 130" enable-background="new 0 0 130 130" xml:space="preserve">
<circle fill="#2980DE" cx="65" cy="65" r="64"/>
<g>
	<path fill-rule="evenodd" clip-rule="evenodd" fill="#FFFFFF" d="M75.662,41.625c5.532-7.04,19.169-3.406,18.399,7.49
		c10.403-1.046,13.572,14.784,6.452,20.144c2.939,12.673-3.741,22.134-17.922,19.109c-3.097,4.524-8.152,9.477-15.77,8.522
		c-3.958-0.498-6.835-2.843-9.079-5.683c-7.073,6.221-19.279,0.651-17.443-10.33c-16.971,3.341-20.126-24.687-4.54-26.855
		c-7.381-9.661,3.667-23.59,13.618-17.045c1.27,0.834,2.074,2.076,3.108,3.618c2.55-4.363,6.892-8.314,13.38-7.489
		C70.696,33.719,74.184,37.284,75.662,41.625z"/>
</g>
</svg>
