<?xml version="1.0" encoding="utf-8"?>
<!-- Generator: Adobe Illustrator 16.0.0, SVG Export Plug-In . SVG Version: 6.00 Build 0)  -->
<!DOCTYPE svg PUBLIC "-//W3C//DTD SVG 1.1//EN" "http://www.w3.org/Graphics/SVG/1.1/DTD/svg11.dtd">
<svg version="1.1" id="Layer_1" xmlns="http://www.w3.org/2000/svg" xmlns:xlink="http://www.w3.org/1999/xlink" x="0px" y="0px"
	 width="130px" height="130px" viewBox="0 0 130 130" enable-background="new 0 0 130 130" xml:space="preserve">
<g>
	<circle fill="#2980DE" cx="65" cy="64.999" r="64"/>
	<g>
		<g opacity="0.5">
			<path fill-rule="evenodd" clip-rule="evenodd" fill="#FFFFFF" d="M38.229,43.212c0.347,0.12,0.017,0.235-0.222,0.226
				c7.483,1.919,18.436,3.45,29.78,2.687c0.096,1.195,1.604,1.594,2.687,1.121c1.244,1.001,2.657,0.856,4.702,1.117
				c-0.963,0.753-2.256,1.177-2.685,2.47c0.603,0.8,0.87-0.609,1.567-0.456c0.915-0.066-0.037,0.315,0.224,0.898
				c1.296-0.029,2.253-1.386,3.581-2.015c-0.546,1.017,0.713,1.303,1.121,2.015c2.17-0.697,3.155-1.034,4.703-0.223
				c-0.163,2.315,2.754,2.022,1.571,4.701c0.187,0.657,0.559-0.291,1.115,0c1.273,1.663,0.2,2.881-0.448,4.706
				c2.688,1.048,6.45-1.255,6.941-4.48c1.598,0.003,2.52-0.022,3.583-0.896c-0.415-4.318,3.356-3.737,6.27-4.925
				c1.652-1.481,0.454-6.774,4.032-5.597c0.156,1.858,0.887,3.139,2.239,3.802c-0.248,1.322-1.713,1.421-1.789,2.912
				c-2.032-0.002-2.048,1.94-2.241,4.256c0.204,0.196,1.268,0.641,1.346,0.222c0.304,0.836-0.739,2.248-2.02,2.244
				c-0.774,0.937-1.562,1.868-3.133,2.011c0.667,2.651-1.176,3.348-0.45,6.048c-2.417,0.991-0.213,3.904,0.45,5.15
				c-0.61,1.928-3.287,1.786-3.358,4.254c-0.635,0.03-1.172,0.144-1.787,0.672c-0.337,1.685-1.255,2.787-2.691,3.358
				c-0.174,1.416-0.872,2.579-0.672,4.031c0.266,1.949,2.188,3.032,2.463,5.149c1.103,1.383,2.046,3.007,1.567,5.374
				c-0.402-0.025-0.474,0.276-0.897,0.222c-2.296-1.768-4.883-3.543-4.702-7.163c-1.204-0.437-1.404-1.878-2.909-2.015
				c-0.854,0.119-0.954,0.986-1.793,1.121c-1.608-2.812-4.759-0.1-7.39-0.676c-0.343,0.637-0.467,1.622-0.226,2.243
				c-2.821,1.111-2.892-0.3-5.594-0.224c-3.582-2.083-5.789,2.204-8.737,2.909c-0.96,1.426-0.945,2.952-0.221,4.704
				c-1.81-0.094-1.967-0.83-3.806-1.122c-0.319-1.397-0.431-3.004-1.797-3.356c-0.354-2.335-1.408-3.965-3.803-4.254
				c-0.8,0.317-1.093,1.146-1.567,1.789c-2.283-0.326-2.395-2.115-2.688-3.135c-0.398-1.39-2.076-1.587-2.687-3.359
				c-0.766,0.333-1.779-0.067-2.688-0.224c-0.723-0.198-0.464,0.58-0.897,0.672c-5.451,0.523-7.269-2.585-10.971-3.812
				c0.093-0.465-0.154-0.589-0.226-0.893c-1.778-0.142-2.588,0.087-4.029-0.446c0.017-3.154-2.346-3.993-4.703-5.376
				c-0.043-4.313-2.719-7.715-2.017-12.091c-1.907-1.666,1.78-3.379,0.226-5.15c1.62-4.021,3.915-6.189,3.582-12.315
				c1.053,0.066,1.316,0.92,2.688,0.672c0.276-0.724-0.724-0.174-0.448-0.897c0.477,0.104,0.428-0.319,0.448-0.673
				C31.769,41.56,35.356,43.656,38.229,43.212z"/>
		</g>
		<circle fill-rule="evenodd" clip-rule="evenodd" fill="#FFFFFF" cx="37.883" cy="57.149" r="9.823"/>
		<path fill-rule="evenodd" clip-rule="evenodd" fill="#FFFFFF" d="M70.96,57.056c0,2.775-2.25,5.031-5.03,5.031
			c-2.778,0-5.029-2.255-5.029-5.031c0-2.779,2.251-5.031,5.029-5.031C68.71,52.024,70.96,54.276,70.96,57.056z"/>
		<circle fill-rule="evenodd" clip-rule="evenodd" fill="#FFFFFF" cx="74.019" cy="71.122" r="2.567"/>
		<path fill-rule="evenodd" clip-rule="evenodd" fill="#FFFFFF" d="M65.47,73.87c0,4.548-3.685,8.234-8.233,8.234
			c-4.545,0-8.231-3.687-8.231-8.234c0-4.544,3.687-8.231,8.231-8.231C61.785,65.639,65.47,69.326,65.47,73.87z"/>
		<path fill-rule="evenodd" clip-rule="evenodd" fill="#FFFFFF" d="M95.551,70.069c0,3.537-2.867,6.404-6.406,6.404
			c-3.532,0-6.4-2.867-6.4-6.404s2.868-6.402,6.4-6.402C92.684,63.667,95.551,66.532,95.551,70.069z"/>
	</g>
</g>
</svg>
