<?xml version="1.0" encoding="utf-8"?>
<!-- Generator: Adobe Illustrator 16.0.0, SVG Export Plug-In . SVG Version: 6.00 Build 0)  -->
<!DOCTYPE svg PUBLIC "-//W3C//DTD SVG 1.1//EN" "http://www.w3.org/Graphics/SVG/1.1/DTD/svg11.dtd">
<svg version="1.1" id="Layer_1" xmlns="http://www.w3.org/2000/svg" xmlns:xlink="http://www.w3.org/1999/xlink" x="0px" y="0px"
	 width="130px" height="130px" viewBox="0 0 130 130" enable-background="new 0 0 130 130" xml:space="preserve">
<circle fill="#2980DE" cx="65" cy="64.999" r="64"/>
<g>
	<rect x="27.644" y="31.647" fill="#FFFFFF" width="74.713" height="5.23"/>
	<rect x="27.644" y="38.815" opacity="0.7" fill="#FFFFFF" width="13.168" height="13.167"/>
	<rect x="43.018" y="38.815" opacity="0.7" fill="#FFFFFF" width="13.167" height="13.167"/>
	<rect x="58.392" y="38.815" opacity="0.7" fill="#FFFFFF" width="13.168" height="13.167"/>
	<rect x="73.767" y="38.815" opacity="0.7" fill="#FFFFFF" width="13.168" height="13.167"/>
	<rect x="89.142" y="38.815" opacity="0.7" fill="#FFFFFF" width="13.167" height="13.167"/>
	<text transform="matrix(1 0 0 1 32.7988 47.8799)" fill="#2980DE" font-family="'TimesNewRomanPS-BoldMT'" font-size="6.7243">1</text>
	<text transform="matrix(1 0 0 1 47.9277 47.8799)" fill="#2980DE" font-family="'TimesNewRomanPS-BoldMT'" font-size="6.7243">2</text>
	<text transform="matrix(1 0 0 1 63.4307 47.8799)" fill="#2980DE" font-family="'TimesNewRomanPS-BoldMT'" font-size="6.7243">3</text>
	<text transform="matrix(1 0 0 1 78.5615 47.8799)" fill="#2980DE" font-family="'TimesNewRomanPS-BoldMT'" font-size="6.7243">4</text>
	<text transform="matrix(1 0 0 1 93.876 47.8799)" fill="#2980DE" font-family="'TimesNewRomanPS-BoldMT'" font-size="6.7243">5</text>
	<rect x="27.644" y="54.225" opacity="0.7" fill="#FFFFFF" width="13.168" height="13.17"/>
	<rect x="43.018" y="54.225" opacity="0.7" fill="#FFFFFF" width="13.167" height="13.17"/>
	<rect x="58.392" y="54.225" opacity="0.7" fill="#FFFFFF" width="13.168" height="13.17"/>
	<rect x="73.767" y="54.225" opacity="0.7" fill="#FFFFFF" width="13.168" height="13.17"/>
	<rect x="89.142" y="54.225" opacity="0.7" fill="#FFFFFF" width="13.167" height="13.17"/>
	<text transform="matrix(1 0 0 1 32.7988 63.291)" fill="#2980DE" font-family="'TimesNewRomanPS-BoldMT'" font-size="6.7243">6</text>
	<text transform="matrix(1 0 0 1 47.9277 63.291)" fill="#2980DE" font-family="'TimesNewRomanPS-BoldMT'" font-size="6.7243">7</text>
	<text transform="matrix(1 0 0 1 63.4307 63.291)" fill="#2980DE" font-family="'TimesNewRomanPS-BoldMT'" font-size="6.7243">8</text>
	<text transform="matrix(1 0 0 1 79.3203 63.1992)" fill="#2980DE" font-family="'TimesNewRomanPS-BoldMT'" font-size="6.7243">9</text>
	<text transform="matrix(1 0 0 1 92.1709 63.0791)" fill="#2980DE" font-family="'TimesNewRomanPS-BoldMT'" font-size="6.7243">10</text>
	<rect x="27.644" y="69.774" opacity="0.7" fill="#FFFFFF" width="13.168" height="13.169"/>
	<rect x="43.018" y="69.774" opacity="0.7" fill="#FFFFFF" width="13.167" height="13.169"/>
	<rect x="58.392" y="69.774" opacity="0.7" fill="#FFFFFF" width="13.168" height="13.169"/>
	<rect x="73.767" y="69.774" opacity="0.7" fill="#FFFFFF" width="13.168" height="13.169"/>
	<rect x="89.142" y="69.774" opacity="0.7" fill="#FFFFFF" width="13.167" height="13.169"/>
	<text transform="matrix(1 0 0 1 31.3857 78.7354)" fill="#2980DE" font-family="'TimesNewRomanPS-BoldMT'" font-size="6.7243">11</text>
	<text transform="matrix(1 0 0 1 46.293 78.6533)" fill="#2980DE" font-family="'TimesNewRomanPS-BoldMT'" font-size="6.7243">12</text>
	<text transform="matrix(1 0 0 1 61.5859 78.7012)" fill="#2980DE" font-family="'TimesNewRomanPS-BoldMT'" font-size="6.7243">13</text>
	<text transform="matrix(1 0 0 1 77.0664 78.4668)" fill="#2980DE" font-family="'TimesNewRomanPS-BoldMT'" font-size="6.7243">14</text>
	<text transform="matrix(1 0 0 1 92.1025 78.6523)" fill="#2980DE" font-family="'TimesNewRomanPS-BoldMT'" font-size="6.7243">15</text>
	<rect x="27.644" y="85.186" opacity="0.7" fill="#FFFFFF" width="13.168" height="13.167"/>
	<rect x="43.018" y="85.186" opacity="0.7" fill="#FFFFFF" width="13.167" height="13.167"/>
	<rect x="58.392" y="85.186" opacity="0.7" fill="#FFFFFF" width="13.168" height="13.167"/>
	<rect x="73.767" y="85.186" opacity="0.7" fill="#FFFFFF" width="13.168" height="13.167"/>
	<rect x="89.142" y="85.186" opacity="0.7" fill="#FFFFFF" width="13.167" height="13.167"/>
	<text transform="matrix(1 0 0 1 30.416 93.876)" fill="#2980DE" font-family="'TimesNewRomanPS-BoldMT'" font-size="6.7243">16</text>
	<text transform="matrix(1 0 0 1 46.1074 94.0635)" fill="#2980DE" font-family="'TimesNewRomanPS-BoldMT'" font-size="6.7243">17</text>
	<text transform="matrix(1 0 0 1 61.4229 94.0635)" fill="#2980DE" font-family="'TimesNewRomanPS-BoldMT'" font-size="6.7243">18</text>
	<text transform="matrix(1 0 0 1 77.1133 94.0635)" fill="#2980DE" font-family="'TimesNewRomanPS-BoldMT'" font-size="6.7243">19</text>
	<text transform="matrix(1 0 0 1 92.499 94.2275)" fill="#2980DE" font-family="'TimesNewRomanPS-BoldMT'" font-size="6.7243">20</text>
</g>
</svg>
