<?xml version="1.0" encoding="utf-8"?>
<!-- Generator: Adobe Illustrator 16.0.0, SVG Export Plug-In . SVG Version: 6.00 Build 0)  -->
<!DOCTYPE svg PUBLIC "-//W3C//DTD SVG 1.1//EN" "http://www.w3.org/Graphics/SVG/1.1/DTD/svg11.dtd">
<svg version="1.1" id="Layer_1" xmlns="http://www.w3.org/2000/svg" xmlns:xlink="http://www.w3.org/1999/xlink" x="0px" y="0px"
	 width="130px" height="130px" viewBox="0 0 130 130" enable-background="new 0 0 130 130" xml:space="preserve">
<g>
	<circle fill="#2980DE" cx="65" cy="64.999" r="64"/>
	<g>
		<rect x="25.831" y="48.208" fill="#FFFFFF" width="7.31" height="37.426"/>
		<rect x="54.545" y="57.13" fill="#FFFFFF" width="7.311" height="21.068"/>
		<rect x="97.466" y="42.259" fill="#FFFFFF" width="7.312" height="24.042"/>
		<rect x="83.171" y="57.13" fill="#FFFFFF" width="7.311" height="34.948"/>
		<rect x="69.121" y="47.712" fill="#FFFFFF" width="7.311" height="12.145"/>
		<rect x="40.206" y="62.583" fill="#FFFFFF" width="7.31" height="8.674"/>
		<line fill="none" stroke="#FFFFFF" stroke-width="1.5" x1="29.486" y1="49.941" x2="29.486" y2="35.565"/>
		<line fill="none" stroke="#FFFFFF" stroke-width="1.5" x1="29.486" y1="91.584" x2="29.486" y2="81.171"/>
		<line fill="none" stroke="#FFFFFF" stroke-width="1.5" x1="43.861" y1="85.263" x2="43.861" y2="40.834"/>
		<line fill="none" stroke="#FFFFFF" stroke-width="1.5" x1="58.201" y1="76.525" x2="58.201" y2="84.333"/>
		<line fill="none" stroke="#FFFFFF" stroke-width="1.5" x1="58.201" y1="59.052" x2="58.201" y2="52.67"/>
		<line fill="none" stroke="#FFFFFF" stroke-width="1.5" x1="72.776" y1="42.879" x2="72.776" y2="96.229"/>
		<line fill="none" stroke="#FFFFFF" stroke-width="1.5" x1="86.827" y1="95.301" x2="86.827" y2="33.77"/>
		<line fill="none" stroke="#FFFFFF" stroke-width="1.5" x1="101.121" y1="37.86" x2="101.121" y2="75.596"/>
	</g>
</g>
</svg>
