<?xml version="1.0" encoding="utf-8"?>
<!-- Generator: Adobe Illustrator 16.0.0, SVG Export Plug-In . SVG Version: 6.00 Build 0)  -->
<!DOCTYPE svg PUBLIC "-//W3C//DTD SVG 1.1//EN" "http://www.w3.org/Graphics/SVG/1.1/DTD/svg11.dtd">
<svg version="1.1" id="Layer_1" xmlns="http://www.w3.org/2000/svg" xmlns:xlink="http://www.w3.org/1999/xlink" x="0px" y="0px"
	 width="130px" height="130px" viewBox="0 0 130 130" enable-background="new 0 0 130 130" xml:space="preserve">
<g>
	<circle fill="#2980DE" cx="65" cy="64.999" r="64"/>
	<g>
		<g>
			<polygon fill="#FFFFFF" stroke="#2980DE" points="68.464,49.325 68.819,48.734 68.749,48.449 68.559,48.426 68.204,48.545 
				67.92,48.237 68.251,47.739 68.464,47.55 67.873,47.054 68.016,46.415 68.299,45.965 68.251,45.516 66.974,45.114 65.744,43.528 
				64.963,43.149 64.607,43.386 62.478,43.149 61.887,43.646 61.342,43.101 61.248,43.197 60.963,43.433 60.348,43.292 
				58.976,42.321 58.312,42.748 58.029,42.51 56.894,42.108 56.255,42.487 54.907,42.841 53.936,41.966 53.581,43.741 
				52.895,44.096 52.635,44.521 52.99,46.013 53.793,48.638 55.189,50.958 56.397,51.833 56.705,53.159 56.752,53.561 
				57.083,53.465 58.881,52.779 60.064,52.709 61.201,54.223 60.703,54.815 60.657,54.909 61.201,55.051 62.289,55.051 
				62.478,54.507 62.88,54.365 63.329,54.743 64.015,54.412 64.347,54.412 64.607,53.916 65.034,53.513 65.034,52.473 
				66.478,51.644 67.92,51.478 67.565,50.437 68.536,49.822 			"/>
		</g>
		<g>
			<polygon fill="#FFFFFF" stroke="#2980DE" points="104.644,40.333 103.578,40.049 101.047,40.287 100.501,41.02 100.052,41.564 
				99.319,41.516 98.633,41.706 96.267,40.973 96.147,41.824 95.794,41.824 95.604,42.108 95.272,42.108 95.106,42.297 95.132,42.7 
				95.816,42.96 96.243,43.883 97.096,43.244 97.402,43.386 98.065,43.244 98.136,43.386 97.971,43.741 98.539,44.072 
				98.539,44.285 98.326,44.57 98.278,45.824 97.189,47.384 97.285,48 97.45,49.231 98.088,49.231 98.23,49.775 97.898,50.437 
				97.213,52.709 96.74,53.75 96.361,55.785 97.096,56.329 97.733,57.323 97.876,57.819 98.729,58.316 98.821,59.192 99.414,59.879 
				99.579,59.642 100.597,59.524 101.591,59.145 101.638,58.601 102.419,57.536 101.731,56.684 101.542,55.832 101.945,53.561 
				101.802,51.577 101.757,51.1 102.276,49.231 102.607,46.84 102.727,45.326 104.099,43.528 105.354,40.878 			"/>
		</g>
		<g opacity="0.5">
			<polygon fill="#FFFFFF" stroke="#2980DE" points="99.556,39.339 98.821,39.15 97.898,39.694 97.285,39.694 95.912,39.883 
				95.32,39.198 94.137,39.08 93.782,39.553 92.906,39.15 90.683,36.382 90.328,36.382 88.907,35.791 88.009,36.618 87.56,36.737 
				85.785,35.933 84.508,35.933 84.2,36.382 83.3,36.643 82.614,35.482 81.738,35.293 80.935,35.436 80.059,35.672 80.153,37.163 
				79.916,38.157 80.153,38.464 79.821,38.984 79.964,39.6 79.516,39.932 79.562,40.499 79.277,41.067 80.153,42.155 80.343,42.748 
				79.964,43.456 79.964,44.001 79.516,44.521 79.516,45.658 80.271,46.249 80.343,46.698 80.414,47.291 81.028,47.408 
				81.479,48.165 82.874,48.875 84.151,49.467 84.436,49.75 83.963,50.059 84.27,50.603 85.003,50.698 85.926,51.786 86.542,51.952 
				86.636,52.235 86.141,52.543 86.045,53.181 85.95,53.655 86.519,53.655 86.991,54.128 87.772,54.365 87.962,55.098 
				88.458,55.264 89.145,55.193 89.595,54.01 89.737,53.868 90.872,54.601 92.103,54.601 92.291,54.46 93.096,55.146 93.356,55.051 
				93.522,54.199 93.734,54.128 95.132,55.359 96.007,55.832 96.361,55.785 96.74,53.75 97.213,52.709 97.898,50.437 98.23,49.775 
				98.088,49.231 97.45,49.231 97.285,48 97.189,47.384 98.278,45.824 98.326,44.57 98.539,44.285 98.539,44.072 97.971,43.741 
				98.136,43.386 98.065,43.244 97.402,43.386 97.096,43.244 96.243,43.883 95.816,42.96 95.132,42.7 95.106,42.297 95.272,42.108 
				95.604,42.108 95.794,41.824 96.147,41.824 96.267,40.973 98.633,41.706 99.319,41.516 100.052,41.564 100.501,41.02 
				101.047,40.287 			"/>
		</g>
		<g opacity="0.5">
			<path fill="#FFFFFF" stroke="#2980DE" d="M21.732,73.271l0.449,0.142l0.166-0.191l-0.663-0.354L21.732,73.271z M23.578,70.501
				l-0.402-0.496l-0.238-0.495l-0.521-0.285l-0.189,0.285l0.639,0.71l0.686,0.472L23.578,70.501z M47.523,57.181v-0.899l0.284-0.639
				l-0.474-0.851l-0.567-0.048l-0.425-0.544V54.01l-0.143-0.143l-0.709,0.355l-1.325-0.757l-0.261-2.082l-0.143-0.142l-0.638,0.355
				l-0.876,0.236l-0.899,0.804l-0.993,0.142l-0.048-0.757l-0.733,0.023l-0.213-1.135l-0.591-0.308l-0.451,0.734l-1.562,0.142
				l-1.939,0.451l-0.544-0.143l-0.143-0.212l-1.492,0.117l-0.07,0.261l0.095,1.419l-0.403,1.04l0.498,1.373l0.284,1.586
				l-0.142,0.401l-0.189-0.046l-1.088,0.472l-0.663,1.989l-1.727-0.734l-1.137,0.639l-2.058,1.135l-1.278,0.332l-0.592,0.45
				l-0.307,1.135l-2.746,1.137l-0.166,0.401l-0.402,0.144l-0.332,0.308l0.45,0.352l0.094,0.379l-0.212,0.309l0.095,0.094
				l0.567,0.331l0.662-0.26l0.758,0.448l0.922-0.778l0.899-0.19l3.218,1.467l-0.403,0.095l-2.058-0.972l-1.538-0.069l-0.403,0.354
				l0.095,0.993l-0.497,0.238l0.07,0.069l0.782,0.144l0.993,0.497l0.427,0.779l-0.64-0.047l-0.26,0.994l-0.616,0.804l-0.166,0.473
				l2.438,2.724l0.449,1.348l1.373,0.923l0.686,0.307l1.68,0.97l0.284-0.282l0.307,0.332l0.403,0.188V77.86l0.78-0.166l0.78-0.565
				l0.971,0.14l-0.023,0.426l1.585,0.072l0.449-0.072l0.498-1.607l-0.143-1.279l0.378-0.354l-0.827-1.632l-0.403-0.427l0.544-0.45
				l0.096-0.093l-2.366-2.581l1.278,0.285l1.821-0.19l0.449-0.686l0.687-0.355l2.531,0.047l0.544-0.379l0.332-0.686l0.45-0.071
				l0.591-1.773l0.355-0.781l0.26-1.491v-1.017l0.379-0.095l0.946,0.332l2.081-1.728v-0.355l0.521-0.236l0.616-1.042l0.093-0.496
				l0.593-0.403l0.07-0.332L47.523,57.181z"/>
		</g>
		<g opacity="0.75">
			<polygon fill="#FFFFFF" stroke="#2980DE" points="54.338,40.287 53.936,39.883 54.338,39.292 54.48,38.89 53.793,38.204 
				53.676,37.258 54.22,36.618 54.22,36.429 53.699,36.335 53.817,35.719 53.889,35.341 53.155,33.85 52.54,33.472 51.57,32.384 
				51.096,32.005 49.795,33.306 47.24,34.347 45.82,34.561 44.022,35.436 42.792,36.571 42.128,36.879 41.182,39.009 41.395,39.435 
				42.934,39.528 43.454,39.789 43.076,39.932 43.217,41.256 43.62,41.966 43.123,42.321 43.169,42.652 43.714,42.841 
				43.903,44.829 43.927,45.469 44.022,46.344 45.489,46.344 46.294,47.693 46.979,48.379 47.24,49.231 48.352,48.331 
				49.227,48.071 49.795,47.599 50.647,47.739 51.57,47.408 52.256,46.461 52.99,46.013 52.635,44.521 52.895,44.096 53.581,43.741 
				53.936,41.966 54.622,41.469 			"/>
		</g>
		<g opacity="0.75">
			<polygon fill="#FFFFFF" stroke="#2980DE" points="97.213,60.92 97.143,60.731 97.591,59.642 98.184,59.286 98.821,59.192 
				98.729,58.316 97.876,57.819 97.733,57.323 97.096,56.329 96.361,55.785 96.007,55.832 95.132,55.359 93.734,54.128 
				93.522,54.199 93.356,55.051 93.096,55.146 92.291,54.46 92.103,54.601 90.872,54.601 89.737,53.868 89.595,54.01 89.145,55.193 
				88.458,55.264 88.294,55.69 87.962,55.738 87.606,56.282 87.156,56.329 86.874,57.323 86.613,58.458 86.045,58.742 
				85.288,58.506 84.508,58.908 84.436,59.428 85.405,59.689 85.146,60.778 84.648,60.872 84.555,61.014 84.956,61.369 
				84.956,62.008 85.596,62.174 86.021,63.309 85.69,63.64 85.785,64.184 85.501,64.516 85.57,65.013 85.192,65.417 85.099,65.961 
				84.508,66.103 84.27,66.504 84.508,66.717 84.151,67.143 84.27,67.593 84.814,67.853 85.146,68.04 85.57,68.325 85.69,68.277 
				85.785,68.537 84.91,69.059 84.91,69.318 85.24,69.65 85.099,69.957 85.501,70.267 85.69,70.36 85.785,71.732 85.405,72.018 
				85.478,72.49 85.855,72.631 85.95,72.915 85.24,73.271 85.192,73.625 86.141,74.808 86.423,74.808 86.825,75.424 87.323,75.258 
				87.866,74.643 88.507,74.738 88.742,75.046 89.737,74.761 91.463,73.082 91.416,72.631 91.559,72.252 91.724,71.78 
				91.701,71.449 92.671,69.745 93.734,69.059 93.994,68.325 93.806,67.096 93.994,66.504 95.912,65.417 96.172,64.422 
				97.213,63.545 97.308,63.001 98.23,61.63 98.278,61.227 97.994,60.778 			"/>
		</g>
		<g opacity="0.5">
			<polygon fill="#FFFFFF" stroke="#2980DE" points="85.478,72.49 85.405,72.018 85.785,71.732 85.69,70.36 85.501,70.267 
				85.099,69.957 85.24,69.65 84.91,69.318 84.91,69.059 85.785,68.537 85.69,68.277 85.57,68.325 85.146,68.04 84.814,67.853 
				84.27,67.593 84.151,67.143 84.508,66.717 84.27,66.504 84.508,66.103 85.099,65.961 85.192,65.417 85.57,65.013 85.501,64.516 
				85.785,64.184 85.69,63.64 86.021,63.309 85.596,62.174 84.956,62.008 84.956,61.369 84.555,61.014 84.648,60.872 85.146,60.778 
				85.405,59.689 84.436,59.428 83.749,59.879 83.3,59.428 82.922,59.239 82.638,59.428 82.094,59.239 81.691,59.002 81.881,58.601 
				81.645,58.506 81.384,58.672 81.052,58.672 81.099,58.151 80.65,57.772 81.052,57.251 80.011,56.14 79.704,55.264 78.663,55.004 
				78.189,55.336 77.527,55.193 77.385,55.453 77.74,55.95 77.455,56.116 75.634,55.95 75.278,56.376 74.688,56.187 74.214,56.495 
				73.456,56.731 72.558,56.471 71.374,54.909 70.144,53.916 69.954,52.875 68.914,51.691 67.92,51.478 66.478,51.644 
				65.034,52.473 65.034,53.513 64.607,53.916 64.347,54.412 65.034,54.649 65.506,55.098 65.886,56.637 65.057,57.915 
				65.341,58.388 65.034,59.05 64.845,59.002 64.064,59.192 63.898,59.547 65.246,61.322 64.253,61.866 64.347,62.174 
				64.655,62.765 64.513,64.184 65.341,65.273 66.098,68.681 66.287,70.36 66.287,71.236 67.565,72.087 68.299,71.686 
				68.889,72.018 69.34,71.732 69.884,72.277 70.192,72.087 71.091,71.236 71.966,72.49 72.604,73.531 73.931,74.217 74.144,75.779 
				73.788,76.466 73.931,76.938 73.883,77.269 74.285,77.412 74.568,77.86 75.421,77.528 76.557,77.601 76.841,77.907 
				77.883,76.938 77.787,76.631 77.645,76.134 78,75.779 78.567,76.228 78.781,75.779 79.112,75.708 79.277,76.039 79.516,76.087 
				79.728,75.496 80.271,75.589 80.461,75.874 80.365,76.087 80.604,76.394 80.555,76.678 81.028,77.269 82.282,73.057 
				83.68,72.774 83.82,72.679 85.192,73.625 85.24,73.271 85.95,72.915 85.855,72.631 			"/>
		</g>
		<g opacity="0.5">
			<polygon fill="#FFFFFF" stroke="#2980DE" points="62.572,83.753 62.193,83.586 62.004,82.523 62.383,82.048 62.88,81.269 
				62.761,79.683 62.691,79.114 62.619,78.667 62.004,77.601 61.058,76.915 60.112,75.684 59.26,75.684 58.147,75.874 
				56.562,75.684 55.972,75.329 55.806,75.448 55.758,75.992 55.024,76.181 54.48,75.803 53.842,75.943 53.155,76.844 
				51.311,76.631 50.197,76.938 49.749,77.86 48.849,77.72 48.352,78.761 48.305,79.73 48.305,80.181 48.991,81.104 49.132,81.622 
				48.943,82.001 48.446,82.048 48.305,83.493 47.333,84.037 46.885,84.771 47.997,85.362 47.902,85.457 48.116,86.308 
				48.375,86.403 49.038,85.86 50.126,85.86 50.647,86.592 51.073,86.592 51.333,86.783 51.311,87.137 51.311,87.493 51.972,87.753 
				52.564,88.674 52.114,90.095 52.114,90.474 52.54,90.898 52.564,91.229 52.658,91.324 53.487,91.396 53.487,91.774 
				54.125,92.841 55.426,92.675 56.562,93.667 58.929,93.028 59.615,92.721 59.709,91.893 60.207,91.089 60.585,89.764 
				61.556,88.484 61.484,87.753 61.626,87.681 62.075,87.989 62.336,87.918 62.525,87.442 62.619,86.687 62.691,86.095 
				62.336,84.984 62.761,84.534 			"/>
		</g>
		<g opacity="0.35">
			<polygon fill="#FFFFFF" stroke="#2980DE" points="66.098,68.681 65.341,65.273 64.513,64.184 64.655,62.765 64.347,62.174 
				64.253,61.866 65.246,61.322 63.898,59.547 64.064,59.192 64.845,59.002 65.034,59.05 65.341,58.388 65.057,57.915 
				65.886,56.637 65.506,55.098 65.034,54.649 64.347,54.412 64.015,54.412 63.329,54.743 62.88,54.365 62.478,54.507 
				62.289,55.051 61.201,55.051 60.657,54.909 60.703,54.815 61.201,54.223 60.064,52.709 58.881,52.779 57.083,53.465 
				56.752,53.561 56.705,53.159 56.397,51.833 55.189,50.958 53.793,48.638 52.99,46.013 52.256,46.461 51.57,47.408 50.647,47.739 
				49.795,47.599 49.227,48.071 48.352,48.331 47.24,49.231 48.163,50.46 48.446,51.739 48.305,52.235 47.619,52.732 46.956,53.229 
				47.333,54.792 47.808,55.643 47.523,56.282 47.523,57.181 47.997,57.819 47.927,58.151 47.333,58.554 47.24,59.05 46.624,60.091 
				46.103,60.328 46.103,60.683 44.022,62.41 43.076,62.079 42.696,62.174 42.696,63.191 42.437,64.682 42.082,65.463 41.49,67.236 
				41.939,67.758 43.572,68.608 43.927,70.005 44.116,70.005 45.75,69.578 45.82,69.366 46.103,69.179 46.53,69.46 47.24,70.598 
				48.754,72.3 48.707,73.91 50.173,74.808 51.215,75.992 51.311,76.631 53.155,76.844 53.842,75.943 54.48,75.803 55.024,76.181 
				55.758,75.992 55.806,75.448 55.972,75.329 56.562,75.684 58.147,75.874 59.26,75.684 60.112,75.684 60.869,74.643 
				62.525,74.194 62.785,73.72 62.856,72.396 63.211,71.945 64.204,71.589 65.152,70.811 65.886,70.645 66.287,70.786 66.287,70.36 
							"/>
		</g>
		<g>
			<path fill="#FFFFFF" stroke="#2980DE" d="M51.215,75.992l-1.042-1.185l-1.467-0.897l0.047-1.61l-1.514-1.702l-0.71-1.138
				l-0.427-0.281l-0.283,0.188l-0.071,0.212l-1.634,0.427h-0.189l-0.355-1.396l-1.633-0.851l-0.449-0.521l-0.45,0.071l-0.332,0.686
				l-0.544,0.379l-2.531-0.047l-0.687,0.355l-0.449,0.686l-1.821,0.19l-1.278-0.285l2.366,2.581l-0.096,0.093l-0.544,0.45
				l0.403,0.427l0.827,1.632l-0.378,0.354l0.143,1.279l-0.498,1.607l-0.449,0.072l-1.585-0.072l0.023-0.426l-0.971-0.14l-0.78,0.565
				l0.236,0.854l-0.426,0.188l-0.354,0.568v0.566h0.213l0.733,0.854l0.048,2.224l-0.308,0.426l-0.189-0.166l-0.189,0.166l0.046,0.45
				l-0.26,0.307l-0.354,0.545l0.117,1.135l0.64-0.329l2.555,1.773l1.065,1.704l0.166,0.663h0.615l1.468,0.497l0.26,0.732
				l0.497,0.757l1.822,0.663l0.78-0.285l0.616-0.731l0.52-0.403l0.9-0.047l0.639-0.71l0.212-1.799l0.875-0.663l0.947-1.135
				l1.135-1.728l0.449-0.733l0.971-0.544l0.141-1.445l0.497-0.047l0.189-0.379l-0.141-0.519l-0.687-0.923v-0.45l0.047-0.97
				l0.498-1.041l0.899,0.141l0.449-0.923l1.113-0.307L51.215,75.992z M31.338,83.446l0.166-0.545l-0.449-0.638l-1.468-1.398v0.522
				l1.585,2.246L31.338,83.446z M30.771,79.59l-0.095-0.098l-0.473-0.213l-0.756-0.446l-0.544,0.165l-0.048-0.165l0.095-0.166
				l-0.142-0.119l-0.212-0.047l-0.189,0.448l0.497,0.402l0.402-0.047l1.135,0.498L30.771,79.59z"/>
		</g>
		<g>
			<path fill="#FFFFFF" stroke="#2980DE" d="M48.163,50.46l-0.922-1.229l-0.261-0.853l-0.685-0.686l-0.805-1.349h-1.467
				l-0.095-0.875l-0.023-0.64l-0.189-1.988l-0.545-0.189l-0.046-0.332l0.497-0.355l-0.403-0.709l-0.141-1.325l-0.663,0.283
				L39.975,41.8l-0.355-0.07l-0.615,0.189l-1.917-0.663l-1.821,0.095l-2.508-0.686l-0.663,0.26l-0.426,0.64l-0.401-0.095l0.07-0.544
				l-0.283-0.591l-0.521-1.49l0.283-0.285l0.048-0.497l-0.284-0.638l-1.514-0.236l-0.355,0.472l-0.686,0.119l-0.544-0.261
				l-0.686-0.189l-1.137-0.355l-0.284,0.214l0.71,1.325l-0.143,0.78l0.402,1.775l1.585,2.083l0.072,1.68l0.402,0.497l0.047,1.135
				l-0.236,0.096l-0.212,0.685l0.449,0.995l0.805,1.324l0.331,0.119l0.095,0.236l-0.142,0.189h-0.284l-0.473,0.451l0.473,1.301
				l0.734,0.166l0.378-0.425l1.135-0.45l1.135,0.544l1.492-0.117l0.143,0.212l0.544,0.143l1.939-0.451l1.562-0.142l0.451-0.734
				l0.591,0.308l0.213,1.135l0.733-0.023l0.048,0.757l0.993-0.142l0.899-0.804l0.876-0.236l0.638-0.355l0.143,0.142l0.261,2.082
				l1.325,0.757l0.709-0.355l0.143,0.143v0.189l0.425,0.544l0.567,0.048l-0.378-1.562l0.663-0.497l0.686-0.497l0.141-0.496
				L48.163,50.46z M25.944,46.864l0.143,0.284l0.26-0.094l-0.024-0.119L25.944,46.864z M26.441,46.461l0.355,0.332l0.094-0.142
				l-0.166-0.189H26.441z"/>
		</g>
		<g>
			<polygon fill="#FFFFFF" stroke="#2980DE" points="87.962,55.098 87.772,54.365 86.991,54.128 86.519,53.655 85.95,53.655 
				86.045,53.181 86.141,52.543 86.636,52.235 86.542,51.952 85.926,51.786 85.003,50.698 84.27,50.603 83.963,50.059 84.436,49.75 
				84.151,49.467 82.874,48.875 81.479,48.165 81.028,47.408 80.414,47.291 80.343,46.698 80.271,46.249 79.516,45.658 
				79.516,44.521 79.964,44.001 79.964,43.456 80.343,42.748 80.153,42.155 79.277,41.067 79.562,40.499 79.516,39.932 79.964,39.6 
				79.821,38.984 80.153,38.464 79.916,38.157 80.153,37.163 80.059,35.672 80.935,35.436 81.738,35.293 81.738,35.057 
				81.406,34.654 80.461,34.347 79.112,33.234 78.189,33.164 78,32.88 78.071,32.477 77.645,31.886 77.455,31.484 77.74,30.703 
				77.622,30.277 77.883,29.472 77.74,29.07 77.455,29.142 76.841,29.71 76.32,31.129 75.8,31.649 74.568,31.886 73.41,31.792 
				73.456,33.519 73.078,33.921 73.103,34.892 72.227,35.837 71.966,36.831 72.155,37.281 72.155,37.518 72.511,38.062 
				72.415,38.701 72.061,38.843 71.753,39.339 70.713,39.292 70.617,39.553 69.244,40.144 69.151,41.469 69.884,41.919 
				69.672,42.204 69.292,42.155 68.796,42.297 69.009,42.865 68.7,43.197 68.653,43.528 68.819,43.694 69.292,43.622 69.387,43.788 
				68.251,45.516 68.299,45.965 68.016,46.415 67.873,47.054 68.464,47.55 68.251,47.739 67.92,48.237 68.204,48.545 68.559,48.426 
				68.749,48.449 68.819,48.734 68.464,49.325 68.536,49.822 67.565,50.437 67.92,51.478 68.914,51.691 69.954,52.875 
				70.144,53.916 71.374,54.909 72.558,56.471 73.456,56.731 74.214,56.495 74.688,56.187 75.278,56.376 75.634,55.95 
				77.455,56.116 77.74,55.95 77.385,55.453 77.527,55.193 78.189,55.336 78.663,55.004 79.704,55.264 80.011,56.14 81.052,57.251 
				80.65,57.772 81.099,58.151 81.052,58.672 81.384,58.672 81.645,58.506 81.881,58.601 81.691,59.002 82.094,59.239 
				82.638,59.428 82.922,59.239 83.3,59.428 83.749,59.879 84.436,59.428 84.508,58.908 85.288,58.506 86.045,58.742 86.613,58.458 
				86.874,57.323 87.156,56.329 87.606,56.282 87.962,55.738 88.294,55.69 88.458,55.264 			"/>
		</g>
		<g opacity="0.75">
			<polygon fill="#FFFFFF" stroke="#2980DE" points="79.466,88.722 78.781,88.484 78.473,88.036 78.378,87.255 76.414,86.948 
				75.729,87.493 75.374,87.442 74.568,87.442 74.924,86.095 74.828,85.575 73.291,83.942 72.604,82.901 72.913,81.032 
				73.195,79.399 72.7,77.625 73.103,77.031 73.788,76.466 74.144,75.779 73.931,74.217 72.604,73.531 71.966,72.49 71.091,71.236 
				70.192,72.087 69.884,72.277 69.34,71.732 68.889,72.018 68.299,71.686 67.565,72.087 66.287,71.236 66.287,70.786 
				65.886,70.645 65.152,70.811 64.204,71.589 63.211,71.945 62.856,72.396 62.785,73.72 62.525,74.194 60.869,74.643 
				60.112,75.684 61.058,76.915 62.004,77.601 62.619,78.667 62.691,79.114 62.761,79.683 62.88,81.269 62.383,82.048 
				62.004,82.523 62.193,83.586 62.572,83.753 62.761,84.534 62.336,84.984 62.691,86.095 62.619,86.687 62.525,87.442 
				62.336,87.918 62.075,87.989 61.626,87.681 61.484,87.753 61.556,88.484 60.585,89.764 60.207,91.089 59.709,91.893 
				59.615,92.721 58.929,93.028 59.473,93.431 59.567,94.163 59.922,94.566 60.112,95.111 59.828,96.484 60.253,96.719 
				60.253,97.476 60.657,96.932 61.745,96.531 62.1,96.909 62.525,96.932 63.329,96.437 63.52,95.774 63.898,95.184 63.922,94.639 
				64.465,93.976 65.199,93.266 65.482,94.307 66.028,94.307 66.523,94.804 66.713,95.986 67.21,96.531 68.204,93.5 68.819,93.95 
				70.239,92.531 71.091,94.448 71.872,93.879 72.203,93.407 72.463,93.359 72.889,93.431 72.913,93.667 73.148,93.811 
				73.434,93.667 74.214,94.448 74.498,95.111 74.971,94.804 75.609,93.811 76.059,93.714 76.201,93.407 77.693,92.271 
				77.74,91.939 78.143,91.702 78.143,91.442 78.781,90.945 78.757,90.663 			"/>
		</g>
		<g opacity="0.5">
			<polygon fill="#FFFFFF" stroke="#2980DE" points="73.103,34.892 73.078,33.921 73.456,33.519 73.41,31.792 72.415,31.697 
				71.47,31.886 71.423,31.744 71.658,31.508 71.327,31.2 70.382,31.98 69.104,31.058 68.371,31.484 67.968,31.247 67.684,31.484 
				67.66,31.886 64.891,31.98 64.56,31.578 63.069,31.649 62.431,32.288 62.193,31.413 61.721,31.153 59.662,30.703 59.165,31.034 
				58.929,30.892 58.881,30.655 59.473,30.064 59.118,29.663 57.84,29.756 56.705,30.254 56.42,30.064 56.302,29.236 54.244,28.432 
				52.752,28.526 52.469,28.692 52.351,29.308 53.534,30.56 53.534,30.751 53.392,30.798 52.303,30.443 51.57,31.508 51.096,32.005 
				51.57,32.384 52.54,33.472 53.155,33.85 53.889,35.341 53.817,35.719 53.699,36.335 54.22,36.429 54.22,36.618 53.676,37.258 
				53.793,38.204 54.48,38.89 54.338,39.292 53.936,39.883 54.338,40.287 54.622,41.469 53.936,41.966 54.907,42.841 56.255,42.487 
				56.894,42.108 58.029,42.51 58.312,42.748 58.976,42.321 60.348,43.292 60.963,43.433 61.248,43.197 61.342,43.101 
				61.887,43.646 62.478,43.149 64.607,43.386 64.963,43.149 65.744,43.528 66.974,45.114 68.251,45.516 69.387,43.788 
				69.292,43.622 68.819,43.694 68.653,43.528 68.7,43.197 69.009,42.865 68.796,42.297 69.292,42.155 69.672,42.204 69.884,41.919 
				69.151,41.469 69.244,40.144 70.617,39.553 70.713,39.292 71.753,39.339 72.061,38.843 72.415,38.701 72.511,38.062 
				72.155,37.518 72.155,37.281 71.966,36.831 72.227,35.837 			"/>
		</g>
		<g opacity="0.35">
			<polygon fill="#FFFFFF" stroke="#2980DE" points="101.922,84.439 101.591,83.896 100.361,82.948 100.006,81.766 99.366,81.125 
				98.539,81.032 98.35,80.725 98.278,80.346 100.123,78.31 99.579,76.915 98.278,76.134 97.898,75.543 98.088,74.051 
				97.591,73.438 97.498,72.466 96.243,72.23 93.806,72.868 93.191,73.507 92.859,74.217 93.049,74.854 93.451,75.046 
				93.522,75.258 92.315,76.275 90.966,76.726 90.825,76.371 91.061,75.874 91.818,75.496 91.961,73.816 91.463,73.082 
				89.737,74.761 88.742,75.046 88.507,74.738 87.866,74.643 87.323,75.258 86.825,75.424 86.423,74.808 86.141,74.808 
				85.192,73.625 83.82,72.679 83.68,72.774 82.282,73.057 81.028,77.269 80.555,76.678 80.604,76.394 80.365,76.087 80.461,75.874 
				80.271,75.589 79.728,75.496 79.516,76.087 79.277,76.039 79.112,75.708 78.781,75.779 78.567,76.228 78,75.779 77.645,76.134 
				77.787,76.631 77.883,76.938 76.841,77.907 76.557,77.601 75.421,77.528 74.568,77.86 74.285,77.412 73.883,77.269 
				73.931,76.938 73.788,76.466 73.103,77.031 72.7,77.625 73.195,79.399 72.913,81.032 72.604,82.901 73.291,83.942 74.828,85.575 
				74.924,86.095 74.568,87.442 75.374,87.442 75.729,87.493 76.414,86.948 78.378,87.255 78.473,88.036 78.781,88.484 
				79.466,88.722 78.757,90.663 78.781,90.945 78.143,91.442 78.143,91.702 77.74,91.939 77.693,92.271 76.201,93.407 
				76.059,93.714 75.609,93.811 74.971,94.804 74.498,95.111 75.066,97.004 75.609,97.027 76.012,98.305 76.699,98.589 
				76.841,99.844 77.455,99.631 77.883,99.985 78.237,100.532 78.473,100.532 78.521,100.129 78.663,99.751 79.112,99.656 
				79.798,99.985 80.365,99.393 81.313,99.891 81.596,100.176 81.834,99.56 82.874,99.56 83.205,100.317 83.324,100.436 
				83.68,100.034 84.436,99.891 85.052,99.347 85.501,99.489 86.021,99.274 86.329,100.436 86.542,100.579 86.968,100.247 
				87.275,100.414 87.369,100.482 87.677,100.176 88.056,100.342 88.294,100.86 88.554,100.767 89.358,101.549 89.949,101.17 
				89.877,101.075 89.642,100.579 90.02,100.223 90.375,100.886 90.493,100.86 90.636,100.342 90.636,99.985 90.186,98.707 
				89.83,98.755 89.452,98.66 89.239,98.802 89.097,98.707 88.104,97.619 88.198,97.476 88.647,97.525 88.554,96.932 88.695,96.909 
				89.877,96.932 90.138,96.531 89.737,95.868 90.115,94.755 90.47,94.732 90.966,94.448 91.181,94.495 91.416,93.857 91.51,93.619 
				92.74,92.744 92.671,92.531 93.096,92.13 93.782,91.939 95.036,91.158 95.225,90.119 95.106,89.954 94.326,90 94.184,89.716 
				94.682,88.603 95.723,89.337 96.503,89.266 97.591,88.391 98.136,87.824 99.651,87.94 100.147,87.824 100.715,86.783 
				101.377,86.354 101.922,85.811 101.757,85.172 			"/>
		</g>
	</g>
</g>
</svg>
