<?xml version="1.0" encoding="utf-8"?>
<!-- Generator: Adobe Illustrator 16.0.0, SVG Export Plug-In . SVG Version: 6.00 Build 0)  -->
<!DOCTYPE svg PUBLIC "-//W3C//DTD SVG 1.1//EN" "http://www.w3.org/Graphics/SVG/1.1/DTD/svg11.dtd">
<svg version="1.1" id="Layer_1" xmlns="http://www.w3.org/2000/svg" xmlns:xlink="http://www.w3.org/1999/xlink" x="0px" y="0px"
	 width="130px" height="130px" viewBox="0 0 130 130" enable-background="new 0 0 130 130" xml:space="preserve">
<circle fill="#2980DE" cx="65" cy="64.999" r="64"/>
<g>
	<path opacity="0.5" fill="#FFFFFF" d="M99.855,49.169c-0.105-0.277-0.202-0.553-0.275-0.835c-0.43-0.465-0.798-0.965-1.064-1.526
		c-0.003-0.004-0.005-0.005-0.005-0.011c-0.547-0.938-0.889-1.934-1.027-2.98c-1.218-0.983-2.048-2.331-2.49-3.811
		c-2.179-0.48-3.759-1.77-4.724-3.432c-0.377,0.396-0.756,0.825-1.118,1.334c-9.101,12.711-31.979,22.213-47.768-0.805
		c-0.365-0.529-0.713-1.026-1.05-1.502c-0.831,1.381-2.094,2.489-3.774,3.083c-0.533,1.421-1.444,2.681-2.728,3.567
		c0.035,0.127,0.059,0.203,0.059,0.203s-0.079-0.004-0.191-0.014c-0.441,1.999-1.554,3.819-3.34,4.934
		c-0.194,0.888-0.528,1.738-0.988,2.511c0.002,0.169-0.006,0.339-0.015,0.509c0.418,0.248,0.851,0.497,1.323,0.76
		c19.067,10.639,55.53,9.098,69.044,3.212c0.192-0.084,0.37-0.176,0.55-0.266C99.685,52.548,99.546,50.812,99.855,49.169z"/>
	<path opacity="0.3" fill="#FFFFFF" d="M63.463,28.273c1.336,21.142-10.304,38.938-35.06,40.409l-0.937-7.357l2.066-6.006
		c27.296,9.901,29.436-3.699,31.921-26.646L63.463,28.273z"/>
	<path opacity="0.75" fill="#FFFFFF" d="M88.75,93.974c-15.654-13.111-28.634-56.87-27.429-65.3l-1.874-1.738l-0.534,2.274
		c-1.071,2.41,13.511,65.032,17.26,71.319l7.225-2.407L88.75,93.974z"/>
	<path opacity="0.6" fill="#FFFFFF" d="M56.773,29.701c5.086,17.485,14.542,36.575,44.691,43.979l0.715-6.602
		c-22.658,0.445-39.517-15.522-43.622-38.271h-2.408L56.773,29.701z"/>
	<path opacity="0.5" fill="#FFFFFF" d="M99.413,79.211c-31.4-16.147-68.508-0.27-68.508-0.27l1.962,6.512l3.658,3.394
		c0,0,12.132-29.617,59.412-2.589L99.413,79.211z"/>
	<circle fill="none" stroke="#FFFFFF" stroke-width="3" cx="65" cy="65" r="38.202"/>
</g>
</svg>
