<?xml version="1.0" encoding="utf-8"?>
<!-- Generator: Adobe Illustrator 16.0.0, SVG Export Plug-In . SVG Version: 6.00 Build 0)  -->
<!DOCTYPE svg PUBLIC "-//W3C//DTD SVG 1.1//EN" "http://www.w3.org/Graphics/SVG/1.1/DTD/svg11.dtd">
<svg version="1.1" id="Layer_1" xmlns="http://www.w3.org/2000/svg" xmlns:xlink="http://www.w3.org/1999/xlink" x="0px" y="0px"
	 width="130px" height="130px" viewBox="0 0 130 130" enable-background="new 0 0 130 130" xml:space="preserve">
<circle fill="#2980DE" cx="65" cy="64.999" r="64"/>
<g>
	<circle fill="#FFFFFF" cx="65" cy="65" r="40.134"/>
	<circle fill="#2980DE" cx="57.473" cy="75.359" r="24.538"/>
	<circle fill="#2980DE" cx="81.03" cy="44.604" r="12.105"/>
	<circle fill="#2980DE" cx="57.312" cy="38.386" r="9.489"/>
	<circle fill="#2980DE" cx="92.565" cy="66.604" r="9.242"/>
	<circle fill="#FFFFFF" cx="84.141" cy="41.167" r="6.053"/>
	<circle fill="#FFFFFF" cx="76.613" cy="49.51" r="3.6"/>
	<circle fill="#FFFFFF" cx="73.668" cy="41.821" r="2.945"/>
	<path fill="#FFFFFF" d="M87.412,51.473c0,1.626-1.321,2.944-2.944,2.944c-1.629,0-2.946-1.318-2.946-2.944s1.317-2.945,2.946-2.945
		C86.091,48.528,87.412,49.847,87.412,51.473z"/>
	<circle fill="#FFFFFF" cx="57.473" cy="36.096" r="5.726"/>
	<circle fill="#FFFFFF" cx="57.31" cy="44.438" r="1.636"/>
	<circle fill="#FFFFFF" cx="52.402" cy="42.966" r="1.309"/>
	<circle fill="#FFFFFF" cx="62.381" cy="42.803" r="0.981"/>
	<circle fill="#FFFFFF" cx="95.917" cy="63.906" r="2.782"/>
	<circle fill="#FFFFFF" cx="95.098" cy="70.939" r="2.78"/>
	<circle fill="#FFFFFF" cx="88.229" cy="68.65" r="2.78"/>
	<circle fill="#FFFFFF" cx="89.538" cy="61.943" r="2.455"/>
	<circle fill="#FFFFFF" cx="63.363" cy="68.65" r="13.21"/>
	<circle fill="#FFFFFF" cx="47.003" cy="85.008" r="7.811"/>
	<circle fill="#FFFFFF" cx="42.259" cy="69.959" r="5.889"/>
	<circle fill="#FFFFFF" cx="63.036" cy="90.244" r="6.708"/>
	<circle fill="#2980DE" cx="86.266" cy="39.04" r="1.635"/>
	<circle fill="#2980DE" cx="67.126" cy="64.723" r="6.054"/>
	<circle fill="#2980DE" cx="44.877" cy="87.301" r="3.435"/>
	<circle fill="#2980DE" cx="63.854" cy="92.699" r="2.782"/>
	<circle fill="#2980DE" cx="40.787" cy="68.486" r="2.29"/>
	<circle fill="#2980DE" cx="58.455" cy="73.721" r="4.417"/>
	<circle fill="#2980DE" cx="55.837" cy="64.56" r="2.618"/>
	<circle fill="#2980DE" cx="67.452" cy="75.357" r="2.945"/>
</g>
</svg>
