<?xml version="1.0" encoding="utf-8"?>
<!-- Generator: Adobe Illustrator 16.0.0, SVG Export Plug-In . SVG Version: 6.00 Build 0)  -->
<!DOCTYPE svg PUBLIC "-//W3C//DTD SVG 1.1//EN" "http://www.w3.org/Graphics/SVG/1.1/DTD/svg11.dtd">
<svg version="1.1" id="Layer_1" xmlns="http://www.w3.org/2000/svg" xmlns:xlink="http://www.w3.org/1999/xlink" x="0px" y="0px"
	 width="130px" height="130px" viewBox="0 0 130 130" enable-background="new 0 0 130 130" xml:space="preserve">
<g>
	<circle fill="#2980DE" cx="65" cy="64.999" r="64"/>
	<g>
		<path fill-rule="evenodd" clip-rule="evenodd" fill="#FFFFFF" d="M58.637,22.045c0.053,0,0.104,0,0.155,0
			c0.099,0.561,0.295,1.026,0.305,1.679c0.817,0.021,2.118-0.646,2.596,0c-0.599,0.17-1.693,0.644-2.292,0.306
			c0.009,0.667-2.131,0.242-2.443,1.071c-2.625-0.169-6.209,1.894-9.011,3.358c-3.287,1.72-6.048,3.075-7.792,5.65
			c-1.419-0.026-4.239,4.045-5.498,5.501c-0.32,0.372-0.388,0.289-0.764,1.07c-0.221-0.068,0.016-0.134,0-0.306
			c-0.611,0.197,0.042,0.317,0,0.764c-1.755,0.996-3.345,5.103-4.583,7.637c-0.007,0.259,0.114,0.396,0.306,0.458
			c-1.346,0.786-1.724,3.743-2.139,5.956c-0.862-1.154,1.014-2.765,0.46-4.122c0.232-0.471,1.1-1.795,0.61-1.987
			c0.839-1.25,1.316-2.858,2.139-4.122c0.031-0.493-0.546-0.374-0.765-0.613c1.195-1.678,0.849-3.03,2.292-4.433
			c-0.122-0.334-0.535-0.38-0.764-0.61c0.386-0.783,1.133-1.205,1.374-2.137c0.417,0.095,0.717,0.304,0.918,0.611
			c0.123-0.617,1.536-1.062,1.527-1.679c-0.007-0.41-1.07-0.882-1.07-1.069c-0.002-0.57,1.825-1.264,1.832-1.832
			c0.006-0.275-0.789-0.629-0.762-0.766c0.345-1.757,3.346-1.749,4.124-3.36c0.353-0.046,0.17,0.444,0.457,0.459
			c0.685-0.487,1.411-0.931,1.987-1.528c0.434,0.278,0.586,0.838,0.915,1.223c0.791-0.281,1.277-0.865,2.139-1.071
			c-0.454-0.768-0.883-1.56-1.375-2.291c0.546-0.678,1.663-0.78,2.292-1.376c0.41-0.104,0.295,0.316,0.458,0.46
			c0.782-0.338,1.425-0.817,2.291-1.068c-0.023,0.379,0.241,0.473,0.306,0.764c0.875-0.246,1.57-0.671,2.444-0.918
			c0.081,0.48,0.268,0.855,0.459,1.223c1.455-0.48,2.879-0.99,4.429-1.375c0.287-0.29-0.091-0.277,0-0.764
			C56.975,22.52,58.059,22.535,58.637,22.045z"/>
		<path fill-rule="evenodd" clip-rule="evenodd" fill="#FFFFFF" d="M100.492,52.594c0.366,0.062,0.334-0.278,0.764-0.151
			c0.688,2.108,1.98,3.621,2.444,5.956c0.681,0.121,0.916-0.204,1.529-0.151c-0.269,0.539,0.107,1.57,0.149,2.289
			c1.038-0.134,1.984-0.359,3.209-0.306c-0.114,1.032,0.246,1.59,0.152,2.598c-0.306,0-0.611,0-0.916,0
			c-0.101,1.78,0.706,2.655,0.46,4.582c-0.027,0.333,0.539,0.069,0.764,0.153c-0.073,0.896-0.268,1.67-0.308,2.596
			c-0.8-0.015-1.374-0.254-2.29-0.151c-0.414,1.472-1.19,2.577-1.529,4.126c0.101,0.202,0.327,0.281,0.61,0.303
			c-0.586,0.265-1.052,1.983-0.61,2.292c0.065,0.252-0.567-0.013-0.611-0.153c-0.553,0.363-0.495,1.336-0.915,1.832
			c0.481,0.387,1.166,0.564,1.835,0.766c-0.248,0.873-0.672,1.571-0.92,2.445c-0.379,0.022-0.472-0.242-0.761-0.309
			c-0.481,0.486-0.588,1.348-1.069,1.833c0.374,0.337,0.779,0.646,1.373,0.766c-0.271,0.849-0.962,1.277-1.07,2.29
			c-0.247,0.043-0.262-0.145-0.457-0.152c-0.861,1.655-1.856,2.229-2.749,3.816c-0.575-0.288-1.034-0.694-1.528-1.066
			c-0.534,0.533-0.987,1.15-1.375,1.832c-0.474-0.239-0.8-0.624-1.223-0.916c-0.819,0.147-0.819,1.113-1.525,1.375
			c0.086,0.22,0.237,0.372,0.458,0.459c-0.99,0.805-2.261,1.636-3.514,2.596c0.153,0.305,0.266,0.652,0.61,0.764
			c-0.491,0.522-1.02,1.019-1.681,1.375c-0.07,0.48,0.19,0.622,0.46,0.762c-0.485,0.539-1.95,0.901-1.834,1.529
			c-1.692-0.319-2.377,1.759-4.124,2.289c-0.352,0.049-0.168-0.439-0.456-0.456c-0.736,0.129-1.101,0.632-1.836,0.762
			c0.135,0.634,0.48,1.051,0.612,1.682c-0.733,0.337-1.66,0.479-2.139,1.069c-0.345-0.316-0.477-0.847-0.61-1.373
			c-0.628,0.339-1.563,0.37-1.985,0.914c-0.42-0.191-0.396-0.825-0.458-1.375c-0.738,0.182-1.46,0.375-2.139,0.612
			c0.419,1.311,0.701,2.762,1.068,4.126c-0.867,0.15-1.68,0.354-2.444,0.61c0.069,0.597,0.224,1.905,0.459,1.831
			c-0.769,0.76-3.441,0.937-5.499,0.917c-0.241-1.388,0.004-3.264-0.307-4.581c-1.434,0.193-3.652-0.395-4.583,0.303
			c-0.342-0.065-0.061-0.751-0.153-1.069c-0.402-0.082-1.993-0.808-1.986,0.154c-0.54-0.375-1.57-0.263-2.292-0.458
			c-0.257,0.302-0.168,0.954-0.306,1.373c-0.855-0.109-1.587-0.344-2.442-0.457c-0.066-0.318,0.104-0.403,0.151-0.612
			c-0.698-0.269-1.539-0.394-2.292-0.608c0.062-0.55,0.199-1.025,0.307-1.528c-0.466-0.399-1.367-0.364-1.833-0.762
			c-0.255,0.202-0.236,0.677-0.458,0.914c-0.435-0.584-1.386-0.652-1.985-1.068c-0.245,0.213-0.391,0.525-0.458,0.916
			c-1.96-0.543-2.523-1.546-4.279-2.291c0.132-0.123,0.091-0.419,0.306-0.459c-0.596-0.323-1.45-1.191-1.985-1.067
			c-0.351-0.12,0.264-0.537,0.306-0.767c-0.488-0.479-1.193-0.742-1.682-1.219c-0.983,1.714-1.485,1.66-2.9,0
			c-0.214-0.254-1.133-1.942-1.985-1.683c0.158-0.401,0.604-0.513,0.764-0.916c-0.535-0.422-1.179-1.886-1.833-1.222
			c-0.205-0.298-1.013-1.871-1.68-1.681c-0.229-0.238,0.691-0.624,0.916-0.916c-0.455-0.038-0.92-1.019-1.375-1.527
			c-0.357,0.051-0.658,0.157-0.764,0.459c-0.609-0.562-0.962-1.38-1.528-1.988c0.777-0.743-0.408-1.434-0.61-2.14
			c-0.54,0.024-0.683,0.44-1.222,0.46c-0.296-0.8-0.508-2.234-1.376-1.986c-0.364-1.621-1.619-2.352-1.985-3.969
			c-0.047-0.207-0.383-0.127-0.613-0.153c0.177-0.681-0.616-1.592-0.763-2.442c0.274,0.016,0.323-0.189,0.612-0.154
			c-0.269-0.697-0.396-1.538-0.612-2.289c0.508-0.156,1.05-0.276,1.527-0.46c-0.146-2.009-1.244-2.121-1.222-4.277
			c-0.613-0.105-0.872,0.146-1.373,0.151c0.104-0.97-0.259-1.47-0.155-2.441c-0.458,0-0.915,0-1.374,0
			c0.094-1.013-0.268-1.566-0.154-2.599c0.408,0,0.814,0,1.222,0c-0.105-0.972,0.258-1.472,0.153-2.444c0.307,0,0.61,0,0.916,0
			c-0.117-0.829,0.242-1.183,0.153-1.985c-0.168-0.39-0.82-0.299-1.376-0.305c0.022-0.797,0.52-1.921,0.307-2.447
			c0.064-0.337,0.81-0.116,0.916,0c0.465-0.5,0.401-1.533,0.611-2.287c0.407,0,0.873-0.059,1.07,0.152
			c-0.562,3.387-1.191,7.211-0.763,11.301c0.104,1.006,0.489,3.377,0.458,4.737c0.889,0.625,0.466,3.784,1.68,4.584
			c0.261,3.094,2.493,6.489,3.512,8.398c0.124-0.078,0.249-0.16,0.459-0.151c-0.003,0.148-0.187,0.117-0.305,0.151
			c3.287,5.486,7.665,10.1,12.677,12.678c0.253,0.944,2.231,0.896,2.138,1.68c1.187-0.07,3.599,2.118,6.11,2.139
			c4.457,2.488,13.305,2.556,19.555,1.683c0.082-0.435,1.637-0.72,2.441-0.458c-1.256-0.438,3.919-1.069,3.974-1.834
			c0.141-0.112,0.613-0.005,1.067-0.152c2.313-1.306,5.198-2.035,6.721-4.124c0.969-0.121,3.771-2.24,5.351-3.973
			c1.739-1.91,4.093-4.596,5.189-6.415c1.083-1.797,1.644-4.289,2.749-5.96c0.026-0.033,0.234,0.208,0.307,0.154
			c-0.212-0.499,0.322-2.137,0.764-1.985c0.147-2.412,1.367-5.204,1.681-8.247c0.173-1.694,0.092-3.116,0-4.889
			c-0.04-0.771,0.056-1.509,0-2.291c-0.123-1.698-0.664-3.148-0.765-4.735c-0.135-2.129-1.624-4.78-2.749-7.178
			c-0.899-1.916-1.637-3.725-2.75-5.346c-1.698-2.481-4.571-5.531-6.874-7.484c-0.648-0.555-1.263-0.677-1.984-1.221
			c-0.038-0.031,0.227-0.258,0.152-0.309c-0.394-0.266-1.103-0.184-1.373-0.609c0.066-0.224,0.134,0.016,0.303,0
			c-0.278-0.522-0.633,0.095-0.61-0.611c-2.586-0.45-6.572-3.852-10.691-4.276c-0.411-0.043-0.655-0.095-1.069,0.153
			c-1.983-0.727-4.769-1.383-7.179-1.07c-0.62,0.081-0.808,0.25-1.221,0.153c-1.016-0.238-2.785,0.366-3.67,0
			c-0.315,0.06-6.986,2.037-7.332,2.138c-0.084,0.026-0.417,0.33-0.459,0c-0.416,0.521-0.977,0.667-1.527,0.613
			c-1.99,1.471-6.432,3.144-8.553,5.957c-2.026,0.99-3.618,3.702-5.346,5.497c-0.013,0.218-0.024,0.433,0.153,0.461
			c-1.09,0.144-2.9,4.664-3.666,5.956c-0.17,0.284,0.021,0.265-0.305,0.153c0.301,0.104-0.038,0.852,0.305,0.917
			c-1.001-0.068-0.927,2.883-1.68,3.055c-0.21,3.312-1.834,7.948-0.61,11.915c-0.326,2.736,0.422,5.672,1.527,7.483
			c-0.088,1.189,0.776,2.812,1.375,4.125c0.772,1.689,1.686,3.053,2.597,4.429c1.119,1.69,2.43,2.895,3.818,4.277
			c0.513,0.511,0.604,0.978,1.07,1.374c1.109,0.951,3.203,2.174,4.125,2.904c-0.166-0.129,0.281,0.65,0.916,0.457
			c0.382,1.035,1.733,1.005,2.292,1.374c0.031,0.022-0.219,0.27-0.152,0.305c0.024,0.016,0.366-0.267,0.459-0.15
			c0.012,0.016-0.207,0.282-0.154,0.304c0.029,0.011,0.369-0.265,0.459-0.153c0.009,0.014-0.2,0.293-0.154,0.305
			c0.722,0.225,2.8,0.569,3.054,1.224c0.465,0.065,2.926,0.369,3.82,0.763c0.001,0.004-0.187,0.3-0.152,0.308
			c5.922,1.286,14.506,0.278,18.484-1.834c4.614-1.209,10.057-5.632,12.981-9.317c1.087-1.365,1.71-3.007,2.597-4.276
			c0.034-0.046,0.14-0.478,0.459-0.153c-0.069-0.137-0.134-0.272-0.305-0.305c3.257-5.047,3.916-10.952,3.664-18.482
			c-0.609-1.638-1.128-3.428-1.221-5.195c-0.114,0.8-0.972-1.65-1.222-2.136c-0.807-1.565-0.992-2.474-1.222-3.056
			c-0.898-0.829-1.361-2.182-2.139-3.208c-0.625-0.826-4.146-4.859-5.194-5.348c-0.377-0.173-0.284-0.009-0.762-0.457
			c-2.099-1.962-6.145-3.499-9.776-4.582c-0.297,0.213-0.229,0.791-0.458,1.07c0.131,0.529,0.988,0.333,1.222,0.763
			c0.307-0.203,0.338-0.677,0.458-1.071c0.631,0.134,1.048,0.48,1.681,0.611c-0.379,0.946-0.714,1.935-1.223,2.751
			c1.861,1.252,3.911,0.608,5.65,2.139c-0.054,0.2-0.27,0.24-0.304,0.458c0.219,0.439,0.734,0.59,1.067,0.917
			c-0.151,0.303-0.263,0.65-0.607,0.762c0.218,0.44,0.731,0.59,1.066,0.918c-0.689,0.203-0.617,1.341,0.306,1.527
			c0.065,0.014,0.37-0.265,0.308-0.306c0.717,0.441,0.699,1.236,1.221,0.917c-0.006,0.278,0.297,0.838,0.61,1.221
			c0.57-0.142,0.701-0.725,1.375-0.763c0.019,0.646,0.451,0.871,0.764,1.223c-0.429,0.437-0.927,0.806-1.528,1.066
			c-0.16,0.672,0.518,0.503,0.458,1.071c0.495-0.117,0.903-0.318,1.223-0.611c0.342,0.423,0.595,0.934,0.765,1.529
			c-0.567,0.092-0.896,0.428-1.376,0.61c0.127,0.38,0.42,0.6,0.459,1.07c0.137-0.119,0.346-0.165,0.61-0.152
			c-0.34,0.385,0.333,0.679,0.307,1.221c0.467,0.108,0.449-0.265,0.917-0.154c-0.252,0.328,0.19,0.94,0.305,1.375
			c0.274,0.018,0.323-0.186,0.61-0.155c0.022,0.488,0.347,0.674,0.306,1.225c0.531,0.122,0.589-0.229,1.069-0.153
			c0.044,0.618,0.262,1.061,0.309,1.68c-0.613,0.103-1.096,0.333-1.836,0.303c0.577,0.965-0.21,1.485,0.152,2.445
			c-0.025,0.332,0.541,0.072,0.765,0.154c0,0.457,0,0.915,0,1.375c1.172,0.355,3.002,0.051,4.43,0.152
			c0.097,0.513-0.196,1.418,0.151,1.68c-0.046,0.208-0.381,0.128-0.61,0.154c0.087,0.694-0.271,0.95-0.152,1.68
			c-0.667,0.105-0.86-0.26-1.529-0.153c-0.264,0.347-0.326,0.896-0.303,1.528c-0.355-0.049-0.59,0.021-0.765,0.151
			c0.088,0.498-0.104,0.711-0.154,1.069c0.026,0.181,0.28,0.128,0.459,0.152c-0.42,1.478-0.265,1.816-0.916,3.21
			c-0.368,0.062-0.332-0.28-0.765-0.154c-0.312,0.246-0.385,0.734-0.61,1.07c0.1,0.203,0.328,0.284,0.61,0.306
			c-0.093,0.567-0.428,0.892-0.61,1.376c0.112,0.143,0.279,0.229,0.459,0.303c-0.205-0.047-1.218,1.272-0.611,1.525
			c-0.346,0.039-0.774,0.834-1.071,1.378c-0.317-0.09-0.492-0.321-0.762-0.458c-0.763,0.663-1.12,1.73-1.834,2.443
			c-0.31-0.045-0.3-0.413-0.609-0.458c-0.538-0.026-0.502,0.516-0.918,0.611c0.013,0.446,0.35,0.566,0.61,0.764
			c-0.814-0.33-1.278,1.919-1.68,0.762c-0.999,0.632-1.48,1.644-2.139,1.987c-0.327,0.171-0.098-0.181-0.458-0.153
			c-0.706,0.055-1.249,1.222-2.289,1.375c-0.042,0.447,0.345,0.469,0.306,0.917c-0.609-0.363-2.202,0.684-2.75,1.373
			c-0.218-0.291-0.356-0.66-0.459-1.067c-0.414,0.248-1.297,0.024-1.224,0.763c-0.203-0.1-0.282-0.326-0.305-0.611
			c-0.352,0.205-0.867,0.256-1.221,0.457c-0.02,0.278,0.188,0.324,0.153,0.613c-0.338-0.227-1.094,0.147-1.528,0.305
			c0.121,0.287,0.256,0.56,0.308,0.915c-1.245,0.032-1.77,0.783-2.905,0.92c-0.12,0.881,0.223,1.304,0.152,2.135
			c-0.526-0.415-1.091,0.154-1.831,0c0.111-0.721-0.171-1.047-0.152-1.679c-0.629-0.119-0.786,0.236-1.375,0.153
			c0,0.764,0,1.525,0,2.291c-0.611,0-1.226,0-1.835,0c0-0.712,0-1.424,0-2.138c-0.252-0.166-1.092-0.523-1.375-0.153
			c-0.34-0.065-0.12-0.81,0-0.915c-0.999-0.225-2.013-0.432-3.055-0.614c0.235-0.846-0.759-0.459-1.068-0.761
			c-0.487,0.328-0.432,1.197-0.611,1.832c-0.481-0.182-1.153-0.171-1.528-0.457c-0.269,0.137-0.279,0.535-0.458,0.762
			c-0.284-0.332-1.183-0.845-1.528-0.611c-0.313-0.273,0.514-0.697,0.306-1.374c-0.735-0.539-1.703-0.842-2.597-1.224
			c-0.5,0.471-0.556,1.381-1.07,1.833c-0.746,0.081-1.104-1.025-1.68-0.609c-0.217-0.376,0.552-1.073,0.764-1.526
			c-0.254-0.413-0.776-0.548-1.07-0.918c-0.314,0.041-0.304,0.41-0.458,0.612c-0.182-0.046-0.579-0.616-0.764-0.154
			c-0.321-0.043,0.221-0.406-0.153-0.609c-0.901,0.191-1.528-0.951-2.138-0.919c-0.185-0.394,0.874-0.85,1.069-1.371
			c-1.126-1.188-1.749-2.313-2.903-3.668c-0.123,0.132-0.419,0.091-0.458,0.306c-0.476-0.191-0.746-1.385-1.07-1.222
			c-0.328-0.29,0.632-0.583,0.917-0.767c-0.352-0.411-0.312-1.215-0.917-1.373c0.102-0.205,0.327-0.282,0.612-0.306
			c-0.809-2.089-1.849-3.127-2.291-5.499c-0.567-0.107-0.655,0.264-1.224,0.156c0.254-0.299-0.03-0.987-0.152-1.377
			c-1.145,0.026-1.908,0.436-2.901,0.609c-0.071-0.69-0.275-1.251-0.306-1.983c0.481,0.074,0.539-0.275,1.068-0.154
			c0.086-0.696-0.271-0.95-0.151-1.68c0.575,0.117,0.729-0.188,1.221-0.152c0.083-0.593-0.272-0.747-0.153-1.374
			c-0.666,0.097-1.726-0.2-2.138,0.15c-0.232-0.528-0.276-1.25-0.307-1.985c0.51,0,1.019,0,1.528,0
			c0.35-0.259,0.057-1.165,0.154-1.681c0.203,0,0.407,0,0.61,0c-0.117-0.575,0.188-0.726,0.153-1.222
			c-0.281-0.226-0.726-0.291-1.221-0.303c0.24-0.329,0.52-1.406,0.304-1.682c0.096-0.326,0.941-0.142,1.07,0
			c0.667-1.59,1.407-2.913,1.681-4.428c0.018-0.105-0.319-0.192-0.306-0.459c0.062-1.344,0.708-1.456,1.069-2.901
			c0.744,0.422,0.566-0.809,1.068-1.071c-0.227-0.381-0.685-0.535-1.068-0.764c0.253-0.509,0.51-1.017,0.764-1.527
			c0.473,0.24,0.972,0.453,1.374,0.764c0.407-0.153,0.502-0.616,0.764-0.917c-0.726-0.744-0.032-1.292,0.611-1.835
			c-0.246-0.208-0.484-0.431-0.764-0.608c0.432-1.042,1.222-1.995,1.986-0.764c0.451-0.21,0.618-0.707,1.069-0.915
			c-0.539-0.633-0.972-1.371-1.681-1.836c1.078-1.014,1.48-1.77,2.75-2.595c0.429,0.436,0.853,0.876,1.068,1.528
			c0.508-0.259,0.97-0.558,1.376-0.918c0.392,0.016,0.217,0.598,0.611,0.612c0.575-0.036,0.646-0.577,1.222-0.612
			c-0.066-0.292-0.329-0.384-0.306-0.763c0.292,0.258,1.514-0.458,1.375-0.611c0.168-0.445,0.495,0.195,0.458,0.46
			c0.667,0.057,0.783-0.438,1.373-0.46c-0.273-0.997-0.794-1.752-1.07-2.747c0.737-0.131,1.098-0.637,1.834-0.766
			c-0.019,0.274,0.188,0.321,0.153,0.609c0.567-0.193,1.039-0.487,1.679-0.609c-0.018,0.274,0.188,0.321,0.152,0.609
			c2.264-0.37,4.223-0.877,6.876-0.762c0,0.203,0,0.406,0,0.609c0.456,0,0.917,0,1.376,0c0.207-0.046,0.126-0.381,0.15-0.609
			c2.125,0.56,4.602,0.555,6.417,1.068c0.367-0.086,0.338-0.577,0.458-0.916c0.617,0.146,1.215,0.311,1.832,0.457
			c0.042,0.25-0.146,0.264-0.153,0.459c1.086,0.058,2.594,1.247,3.208,0.764c0.324,0.05-0.022,0.665-0.151,0.766
			c0.262,0.312,1.508,1.159,1.525,0.304c0.329,0.385,0.806,0.622,1.224,0.917c0.817-0.15,0.798-1.137,1.222-1.679
			c1.069,0.662,2.166,1.294,3.208,1.986c-0.132,0.121-0.092,0.418-0.308,0.457c0.289,0.476,0.937,0.591,1.224,1.069
			c0.189-0.066,0.314-0.196,0.305-0.458c0.397,0.372,0.986,1.35,1.376,1.223c-0.259,0.129,2.164,2.89,2.291,2.9
			c-0.036-0.003,0.656-0.59,0.61-0.61c0.324,0.15,0.54,1.685,1.225,1.374c-0.194,0.47,0.063,1.585,0.914,1.833
			c-0.042,0.314-0.406,0.307-0.612,0.458c0.169,0.545,0.65,0.775,0.765,1.375c0.596-0.167,1.104-0.422,1.528-0.764
			c0.51,0.354,0.39,1.339,1.067,1.526c-0.12,0.388-0.629,0.389-0.915,0.613c0.254,0.508,0.511,1.016,0.764,1.526
			c0.393-0.218,0.967-0.254,1.221-0.61c0.016,0.478,0.535,1.406,0.767,2.139c-0.646,0.167-1.255,0.375-1.836,0.61
			c0.462,0.964,0.742,2.111,1.069,3.205c0.361-0.046,0.576-0.24,1.069-0.149c-0.432,0.173-0.228,1.681,0.459,1.679
			c-0.199,0.36-0.826,0.294-1.221,0.459c0.046,0.613-0.079,1.401,0.459,1.526c-0.952,0.75,0.099,2.773,0.457,3.666
			c-0.047,0.206-0.382,0.126-0.61,0.152c0.146,0.467-0.327,1.549,0.304,1.528c-0.515,0.3-0.796,0.834-0.764,1.681
			c0.732,0.542,2.176,0.373,3.209,0.612c0.106,0.766-0.261,1.062-0.154,1.831c0.27,0.242,0.813,0.203,1.225,0.306
			c-0.067,0.8-0.394,1.341-0.46,2.142c-0.482,0.074-0.54-0.277-1.069-0.154c-0.159,0.361-0.821,1.639-0.306,1.68
			c-0.433,0.47-0.946-0.269-1.528-0.15c-0.356,0.304-0.253,1.067-0.61,1.371c1,0.58,2.178,0.979,3.361,1.375
			c-0.038,0.193-0.304,0.157-0.305,0c-0.544,0.375-0.651,1.186-0.918,1.834c-0.526-0.137-0.952-0.373-1.374-0.612
			c-0.557,0.549-0.254,1.046-0.916,1.527c0.313,0.504,1.045,0.586,1.528,0.919c-0.232,0.736-0.868,1.068-0.919,1.983
			c-0.786-0.292-0.899,1.043-1.373,1.529c-0.441-0.057-0.362-0.141-0.765-0.459c-0.43,0.536-0.901,1.035-1.222,1.68
			c-0.202-0.053-0.241-0.269-0.46-0.304c-0.423,0.337-0.675,0.852-1.067,1.219c1.276,1.135,0.427,1.531-0.303,2.75
			c-1.178-0.424-1.192,1.034-1.836,1.225c-0.252,0.073-0.35-0.584-0.763-0.611c-0.517-0.038-0.623,0.766-1.224,0.916
			c0.057,0.454,0.267,0.754,0.61,0.916c-0.464,0.557-1.178,0.859-1.68,1.374c-0.622-0.343-0.752-1.182-1.374-1.525
			c-0.653,0.059-0.749,0.675-1.375,0.763c-0.039,0.546,0.459,0.559,0.459,1.067c-1.179,0.937-2.379,0.9-3.515,1.835
			c-0.291-0.32-0.491-0.729-0.609-1.223c-0.637,0.077-0.892,0.535-1.529,0.611c0.205,0.863,0.548,1.592,0.764,2.444
			c-0.599,0.315-1.666,0.165-1.831,0.916c-0.284-0.021-0.095-0.519-0.307-0.61c-0.603,0.262-1.171,0.558-1.832,0.764
			c-0.139-0.525-0.378-0.945-0.457-1.526c-1.291,0.339-2.069,1.19-3.666,1.219c0.126-0.431-0.217-0.395-0.154-0.762
			c-0.728-0.118-0.982,0.238-1.68,0.151c-0.106,0.667,0.259,0.861,0.154,1.529c-0.618-0.429-1.306,0.161-2.14,0
			c0.118-0.782-0.215-1.11-0.154-1.832c-1.349-0.068-2.181,0.266-3.36,0c-0.248,0.818-0.312,1.826-0.306,2.9
			c-0.483-0.039-1.759-0.703-1.988,0c-0.112-0.904-1.273-0.761-2.138-0.918c-0.066-0.318,0.105-0.404,0.153-0.609
			c-0.562-0.103-1.16-0.164-1.679-0.306c-0.269,0.036-0.349,0.261-0.306,0.612c-1.372-0.159-2.967-0.903-3.971-0.918
			c-0.369-0.528,0.365-1.259,0.458-1.833c-0.356-0.206-1.499-1.072-1.679-0.457c-0.274-0.696-1.141-0.796-1.833-1.069
			c0.378-0.729-0.821-0.671-1.222-1.069c-0.405-0.048-0.396,0.318-0.459,0.61c-1.434-0.95-2.192-0.731-3.514-1.834
			c0.132-0.121,0.092-0.417,0.307-0.456c-2.176-1.587-4.331-2.449-5.652-5.194c-0.135,0.067-0.272,0.134-0.306,0.304
			c-1.397-1.47-2.647-2.53-3.665-4.581c-0.69,0.33-1.398,0.641-1.986,1.069c0.047-0.539-0.51-1.429-0.917-1.984
			c0.455-0.411,1.14-0.593,1.68-0.919c-0.324-0.54-0.506-1.223-0.917-1.68c0.044-0.313,0.409-0.303,0.611-0.459
			c-0.232-0.48-0.509-0.916-0.611-1.525c-0.216-0.013-0.434-0.025-0.458,0.152c-0.458-1.324-0.542-2.32-0.916-3.97
			c-0.581,0.08-0.955,0.368-1.682,0.306c0.194-0.717-0.874-2.054,0.154-2.142c-0.304-0.612,0.215-2.048-0.917-1.832
			c0.007-0.808-0.176-1.764-0.153-2.138c0.019-0.338,0.647-0.067,0.916-0.155c0.106-0.766-0.258-1.063-0.152-1.833
			c-0.559,0-1.121,0-1.68,0c0.202-1.546-0.09-2.642,0.152-4.122c-0.209-0.3-0.936-0.084-1.222-0.306
			c0.084-0.682,0.151-1.377,0.307-1.986c-0.223-0.236-0.597-0.322-1.07-0.306c0.598-0.419,0.535-1.501,0.763-2.292
			c1.289,0.189,2.343,0.613,3.666,0.764c0.672-1.155,0.387-2.345,1.069-3.512c-0.247-0.312-0.735-0.385-1.069-0.611
			c0.443-0.326,0.818-1.52,0.764-1.833c0.292-0.476,0.664,0.239,1.069,0.152c0.383-0.383,0.434-1.096,0.764-1.528
			c-0.423-0.34-0.933-0.595-1.527-0.764c0.656-1.229,1.14-2.626,1.985-3.667c0.025-0.583-0.623-0.495-0.916-0.764
			c0.222-0.696,1.203-1.439,1.069-1.985c0.562,0.104,1.54-1.238,1.528-1.68c0.256-0.197,0.821,0.597,1.221,0.764
			c0.581-0.236,0.643-0.987,1.222-1.222c-0.01-0.448-0.35-0.568-0.611-0.764c0.396-0.725,1.258-0.983,1.527-1.833
			c0.352,0.516,0.882,0.851,1.223,1.374c0.661-0.204,0.958-0.771,1.527-1.067c-0.038-0.474-0.426-0.593-0.612-0.918
			c0.464-0.554,1.181-0.858,1.681-1.374c0.537,0.176,0.562,0.866,1.069,1.071c0.649-0.221,1.026-0.707,1.527-1.071
			c0.451,0.653,1.117-0.569,1.833-0.613c-0.168-0.594-0.422-1.104-0.762-1.526c0.311-0.653,1.452-0.48,1.679-1.222
			c0.314,0.043,0.305,0.408,0.459,0.613c1.148-0.631,2.438-1.129,3.665-1.681c0.126-0.433-0.214-0.395-0.151-0.764
			c0.65-0.213,1.393-0.338,1.984-0.609c-0.219-0.699-0.581-1.252-0.611-2.141c0.8-0.164,1.49-0.445,2.291-0.608
			c0.068,0.795,0.392,1.336,0.458,2.137c0.695-0.173,1.375-0.359,2.14-0.458c0,0.201,0,0.405,0,0.611
			c1.479-0.102,2.502-0.656,4.126-0.611c0.115-0.832-0.246-1.186-0.155-1.986c0.814,0,1.631,0,2.446,0c0,0.764,0,1.526,0,2.292
			c0.261,0.35,1.166,0.055,1.679,0.152c0.343-0.424,0.316-1.212,0.307-1.988c0.971-0.105,1.472,0.26,2.443,0.153
			c0.087,0.697-0.271,0.951-0.153,1.682c0.226,0.487,1.24,0.184,1.68,0.457c0.207-0.103,0.286-0.325,0.308-0.611
			c0.798,0.066,1.339,0.392,2.137,0.459c0.048,0.354-0.023,0.584-0.151,0.763c1.781,0.777,3.872,0.938,5.651,1.986
			c0.392-0.525,0.696-1.138,0.917-1.833c0.694,0.221,1.308,0.525,1.831,0.917c0.316-0.043,0.307-0.408,0.459-0.611
			c1.435,1.37,4.125,2.132,5.957,3.358c-0.445,0.729-0.899,1.447-1.527,1.989c0.417,0.45,0.931,0.799,1.373,1.224
			c0.385,0.023,0.48-0.237,0.613-0.458c1.916,2.738,5.351,4.484,7.025,8.095c0.506-0.414,1.165-0.67,1.683-1.07
			c0.358,0.002-0.058,0.418-0.306,0.305c0.56,1.422,1.491,2.48,2.137,3.818c-0.307,0.559-1.176,0.557-1.681,0.917
			C99.338,50.184,100.146,51.156,100.492,52.594z M50.39,80.086c-0.211-0.244-0.433-0.479-0.611-0.761
			c-0.417-0.114-0.309,0.305-0.61,0.306c-0.506-1.119-1.634-0.689-1.986-1.986c0.227-0.182,0.683-0.131,0.61-0.61
			c-0.454-0.749-0.377-1.095-0.61-1.985c-0.23-0.028-0.564,0.055-0.611-0.153c0.701-0.005-0.226-0.435,0-0.918
			c-1.482,0.248-2.453,1.011-3.82,1.377c-0.589-1.636-1.075-2.497-1.069-4.126c-0.438-0.031-0.775,0.039-0.915,0.308
			c0.711,2.672,2.975,6.503,3.665,7.789c2.46,3.088,6.894,7.518,11.303,8.708c-0.282-0.197-1.063-0.293-0.611-0.766
			c-0.492-0.118-0.902-0.318-1.222-0.61c0.288-0.375,0.576-0.747,0.612-1.378c-0.444-0.115-0.879-0.238-1.069-0.607
			c0.3-0.464,0.614-0.913,0.916-1.375c-0.483-0.128-0.775-0.445-1.068-0.764c0.212-0.039,0.172-0.338,0.303-0.459
			c-0.321-0.187-0.595-0.422-0.915-0.609c-0.728,1.121-1.514,2.439-2.598,0.915c0.938-0.544-0.283-1.3-0.609-1.375
			C49.843,80.765,50.148,80.458,50.39,80.086z M49.168,43.582c-0.198,0.172-0.167,0.506-0.458,0.764
			c-1.235,1.084-3.646,2.985-3.973,4.888c-1.484,0.732-2.995,4.066-2.902,5.5c-0.218-0.061-0.259-0.183-0.46,0
			c-1.122,3.125-1.624,6.74-1.679,10.386c0.024-0.179-0.027-0.433,0.152-0.456c0.097,0.716-0.253,1.883,0.306,2.136
			c-0.667,0.508,0.238,1.971,0.154,2.903c0.358-0.049,0.572-0.242,1.067-0.153c0.036-0.646-0.234-0.985-0.304-1.527
			c0.529,0.122,0.586-0.229,1.068-0.153c0.132-0.549-0.431-1.183-0.151-1.374c1.197,0.076,2.159-0.082,3.207-0.154
			c-0.072-1.259,0.183-2.129,0.306-3.512c-0.647-0.166-1.515-0.114-1.986-0.458c0.018-0.657,0.397-1.208-0.305-1.377
			c0.231-0.886,0.76-1.479,0.917-2.442c-0.439,0.032-0.776-0.039-0.917-0.304c0.206-0.356,0.252-0.87,0.458-1.224
			c-0.592-0.221-1.221-0.408-1.679-0.764c0.646-0.961,0.488-1.921,1.375-2.748c0.479,0.179,0.808,0.513,1.375,0.611
			c0.34-0.934,0.64-1.907,1.375-2.444c0.334,0.174,0.506,0.51,0.916,0.611c0.142-0.418,0.47-0.652,0.612-1.07
			c-0.305-0.154-0.652-0.264-0.765-0.612c0.628-0.571,0.973-1.49,1.68-0.46c0.622-2.309,1.474,0.349,2.292,0.307
			c1.143-0.058-0.133-1.635,1.375-1.831c0.027-0.538-0.517-0.502-0.612-0.916c0.437,0.324,0.851-0.394,1.222-0.614
			c-0.815-0.711-1.318-1.737-1.985-2.596c0.509-0.254,0.827-0.699,1.375-0.916c0.227,0.383,0.38,0.842,0.764,1.07
			c1.039-0.864,2.408-1.076,3.819-1.832c0.05,0.356,0.155,0.657,0.458,0.762c0.292-0.268,0.795-0.324,1.222-0.458
			c-0.063,0.369,0.279,0.333,0.151,0.765c0.349-0.112,0.781-0.139,1.07-0.307c0.001-0.815-0.37-1.26-0.458-1.985
			c1.089-0.082,1.708-0.634,2.902-0.612c0.084,0.477,0.125,0.996,0.306,1.376c0.979-0.042,1.365-0.671,2.448-0.613
			c0.059-0.725-0.274-1.051-0.154-1.835c0.408,0.46,1.452-0.3,1.681,0c0,0.665,0,1.328,0,1.989c0.548-0.013,1.243,0.124,1.375-0.306
			c0,0.306,0,0.611,0,0.916c0.53-0.123,0.588,0.228,1.068,0.155c0.128-1.503,0.199-3.06,0.612-4.281
			c0.463,0.2,1.223,0.099,1.527,0.459c0.124,0.431-0.216,0.397-0.154,0.764c0.433,0.13,0.942,0.177,1.375,0.303
			c0.202-0.814,0.41-1.623,0.61-2.442c-1.805-0.435-4.721-0.573-6.414-0.608c0.229,0.022,0.562-0.057,0.61,0.15
			C58.965,37.203,53.296,39.977,49.168,43.582z M61.386,44.497c-2.965,0.258-6.142,3.059-8.399,4.89
			c-0.881,0.715-1.458,1.778-2.291,2.444c-0.887,0.709-2.683,3.738-2.75,5.498c-1.215,0.75-0.791,3.854-1.527,4.584
			c0.527,1.102-0.313,3.571,0.458,4.427c-0.714,0.273,0.264,1.784,0,2.14c1.017,3.401,2.489,6.813,5.499,9.624
			c-0.17-0.066-0.793-0.674-0.458-0.308c0.559,0.275,0.958,1.088,1.069,1.07c0.081-0.218-0.596-0.374-0.154-0.459
			c1.18,1.111,2.23,2.389,3.361,2.139c0.019,0.576,0.278,0.518,0.306,0.764c0.162-0.077,2.786,0.825,3.207,1.378
			c0.103-0.525,1.602,0.072,0.917,0.303c1.078-0.528,2.687,0.931,3.666,0c1.453,0.896,4.129-0.228,5.041,0
			c-0.116-0.035-0.3-0.003-0.304-0.152c1.72-0.207,2.483-0.331,3.359-1.22c1.453-0.034,2.575-1.258,3.515-1.987
			c0.903-0.699,2.61-1.296,2.751-2.749c1.49-0.65,3.325-4.268,3.514-7.028c1.203-1.575,0.416-5.849,0.303-7.484
			c-0.033,0.118-0.003,0.301-0.152,0.305c-0.185-0.459-0.012-0.9-0.15-1.222c-0.684-1.625-1.942-4.759-3.361-5.65
			c-0.254-0.734-1.73-2.324-2.75-2.291c-0.176-1.01-3.735-2.533-5.04-2.749c-1.443-0.243-3.034-0.381-4.737-0.308
			c0-1.628,0-3.256,0-4.886c0.158,0.35,1.093-0.075,1.224,0.305c0,0.815,0,1.629,0,2.443c0.837-0.213,1.682,0.454,1.986-0.151
			c0.109,0.466-0.265,0.448-0.156,0.915c0.469,0.127,0.779,0.018,0.919,0.153c0.009,0.211-0.073,0.336-0.153,0.458
			c0.983,0.162,0.628,0.714,1.528,0.916c-0.021-0.379,0.079-0.633,0.305-0.763c0.286,0.121,0.559,0.255,0.916,0.303
			c0.065-0.647,0.269-1.156,0.61-1.524c0.84,0.245,1.21,0.848,2.14,0.61c-0.464,0.541,0.699,0.431,0.764,0.914
			c-0.5,0.522-0.8,1.24-1.224,1.836c0.184,0.075,0.348,0.162,0.46,0.306c0.834-0.241,1.293-2.319,1.986-0.918
			c0.479,0.072,0.4-0.411,0.764-0.457c-0.066,0.577,0.324,0.694,0.609,0.917c0.525-0.321-0.072-0.575,0.154-0.764
			c0.945,1.088,1.312,0.462,2.139,1.833c-0.375,0.336-1.003,0.423-1.071,1.068c0.215,0.038,0.176,0.336,0.307,0.458
			c0.642-0.172,0.909-0.723,1.526-0.915c-0.421,0.421,0.139,0.637,0.156,1.07c0.467-0.043,0.685-0.333,1.066-0.458
			c-0.432,0.476,0.211,0.805,0.306,1.221c-0.473,0.137-0.712,0.512-1.222,0.61c-0.082,0.592,0.389,0.628,0.457,1.07
			c-0.286,0.222-0.793,0.225-0.915,0.612c0.206,0.1,0.284,0.326,0.308,0.611c0.285,0.032,0.334-0.174,0.607-0.154
			c0.119,0.34,0.091,0.827,0.459,0.917c0.295-0.219,0.664-0.355,1.069-0.459c-0.345,0.331,0.129,0.519,0,1.07
			c0.881-0.219,0.331,0.99,0.916,1.069c0.897-0.377,2.027-0.518,3.055-0.763c-0.106,0.666,0.26,0.858,0.153,1.526
			c-0.756,0.009-1.345,0.181-1.984,0.304c-0.112,0.47,0.155,0.56,0.153,0.918c0.268,0.088,0.896-0.186,0.915,0.153
			c-0.74,0.061,0.033,0.746-0.153,1.221c-0.589-0.029-1.124-0.004-1.528,0.155c0,0.303,0,0.609,0,0.915
			c0.316,0.092,1.003-0.188,1.069,0.152c-0.014,0.526-0.077,1.098,0.308,1.223c-0.52-0.041-1.237,0.119-1.528-0.154
			c0.075,0.484-0.274,0.542-0.152,1.07c0.784-0.02,1.505,0.023,1.985,0.308c-0.102,0.406-0.062,0.953-0.305,1.221
			c-0.52-0.144-1.12-0.205-1.681-0.306c-0.34,0.982-0.02,1.039-0.458,2.139c0.394,0.017,0.729,0.085,0.916,0.306
			c-0.809,0.752-1.195,0.995-1.681,1.987c-0.319-0.091-0.436-0.382-0.915-0.308c-0.358,0.887,0.067,1.044-0.459,1.988
			c0.229,0.177,0.624,0.189,0.762,0.454c-0.744,0.74-1.168,0.859-1.831,1.683c-0.062-0.195-0.196-0.312-0.457-0.307
			c-0.555,0.816,0.28,1.278-0.612,1.832c0.944,1.267,1.25,1.226-0.152,2.139c-0.197-0.261-0.316-0.599-0.764-0.609
			c-0.19,0.32-0.445,0.573-0.764,0.763c-0.43-0.333-0.412-1.117-1.222-1.068c-0.034,0.168-0.17,0.238-0.306,0.306
			c0.399,1.023,1.214,1.639,1.681,2.597c-0.425,0.237-0.95,0.376-1.224,0.764c-0.424-0.251-1.654,0.304-2.443,0.611
			c-0.279-0.385-0.318-1.007-0.765-1.221c-0.099,0.203-0.327,0.282-0.609,0.303c-0.036,0.29,0.172,0.338,0.152,0.61
			c-0.48-0.402-0.809,0.325-1.375,0.308c-0.021-0.284-0.101-0.513-0.305-0.611c-0.065,0.345-0.839-0.024-0.765,0.456
			c0.267,0.295,0.324,0.798,0.457,1.225c-0.933,0.134-1.716,0.422-2.597,0.611c-0.124-0.487-0.095-1.127-0.303-1.53
			c-0.435-0.125-0.398,0.217-0.765,0.154c-0.168,0.734,0.472,1.454,0,1.985c-0.059-0.738-0.748,0.038-1.222-0.152
			c0.118-0.935-0.199-1.427-0.153-2.293c-0.306,0-0.612,0-0.916,0c-0.092,0.319,0.187,1.004-0.154,1.07
			c-1.079,0.317-1.804-1.122-2.292,0c0-0.202,0-0.406,0-0.61c-0.468,0.11-0.45-0.264-0.916-0.154
			c-0.225,2.019-0.756,3.728-0.918,5.804c0.294,0.252,1.282,0.266,1.375-0.15c4.743,1.206,9.885-1.046,12.528-1.985
			c2.457-1.47,6.286-3.685,7.635-6.262c0.907-0.691,1.934-1.896,2.446-2.752c0.134-0.227,1.047-1.864,0.459-1.831
			c1.129-0.058,0.822-2.137,1.525-2.137c0.293-1.161,0.857-4.104,1.375-5.043c0.84-8.403-2.696-15.256-4.888-17.871
			c-0.026,0.177-0.24,0.167-0.459,0.153c0.012-0.196,0.198-0.212,0.153-0.458c-2.334-2.25-4.854-5.123-8.247-5.805
			c-1.729-1.414-6.661-2.49-9.777-1.681c-1.334-0.654-3.927,0.035-4.891,0.766C61.393,44.78,61.378,44.5,61.386,44.497z
			 M58.637,89.407c0.028-0.179,0.243-0.168,0.46-0.154c0.194-1.278,0.741-2.211,0.917-3.514c-0.357-0.05-0.632-0.184-0.917-0.303
			c-0.542,1.088-0.801,2.457-1.375,3.512C58.348,88.942,58.619,89.182,58.637,89.407z"/>
	</g>
</g>
</svg>
