<?xml version="1.0" encoding="utf-8"?>
<!-- Generator: Adobe Illustrator 16.0.0, SVG Export Plug-In . SVG Version: 6.00 Build 0)  -->
<!DOCTYPE svg PUBLIC "-//W3C//DTD SVG 1.1//EN" "http://www.w3.org/Graphics/SVG/1.1/DTD/svg11.dtd">
<svg version="1.1" id="Layer_1" xmlns="http://www.w3.org/2000/svg" xmlns:xlink="http://www.w3.org/1999/xlink" x="0px" y="0px"
	 width="130px" height="130px" viewBox="0 0 130 130" enable-background="new 0 0 130 130" xml:space="preserve">
<circle fill="#2980DE" cx="65" cy="65" r="64"/>
<g>
	<g opacity="0.4">
		<path fill-rule="evenodd" clip-rule="evenodd" fill="#FFFFFF" d="M57.896,86.756c0.646,0.421,0.397,2.577,0,3.036
			C56.372,89.502,56.79,87.13,57.896,86.756z"/>
		<path fill-rule="evenodd" clip-rule="evenodd" fill="#FFFFFF" d="M57.564,90.093c2.109,0.316,0.649,2.07,0.987,3.943
			c-1.03-0.332-0.929-0.196-1.312,0.612c-1.786-0.394,0.246-2.8-1.312-3.641C56.067,90.317,57.724,91.051,57.564,90.093z"/>
		<path fill-rule="evenodd" clip-rule="evenodd" fill="#FFFFFF" d="M67.397,95.554c-0.6,1.106,0.07,1.811-0.326,2.732
			c-1.626-0.415-3-1.064-4.263-1.817C63.727,95.244,65.685,96.358,67.397,95.554z"/>
		<path fill-rule="evenodd" clip-rule="evenodd" fill="#FFFFFF" d="M85.432,100.106c-1.008,1.365-3.285,0.665-4.919,0.302
			C81.021,99.3,83.581,100.551,85.432,100.106z"/>
		<path fill-rule="evenodd" clip-rule="evenodd" fill="#FFFFFF" d="M89.363,28.188c0.676,0.698,1.709,1.048,3.28,0.916
			c-0.662,1.31-3.747,1.119-3.935,3.638c0.47,0.875,1.583,1.176,2.296,1.823c-0.08,0.939-0.91,1.184-1.315,1.816
			c0.209,1.433,1.49,1.865,1.647,3.34c-1.623,0.895-0.535,2.994,0.645,3.647c-0.113,0.398-0.571,0.475-0.645,0.906
			c0.436,0.907,1.473,1.259,2.293,1.819c-2.38,4.077-6.903,6.159-12.787,6.983c-1.421-0.304-1.949-1.434-3.603-1.514
			c0.439-1.726,0.218-3.06-0.335-4.555c1.81-2.271,4.149-4.058,6.882-5.459c-0.268-3.752-6.59-2.047-6.882,0.3
			c-0.013,0.129,0.581,0.73,0.657,0.607c-1.666,2.859-8.706,3.92-6.882,8.495c0.562,0.999,1.89,1.288,2.618,2.127
			c-0.713,1.524-1.436,2.345-3.602,3.029c0.271,2.485-0.542,3.956-1.313,5.468c-0.916-0.624-2.932-0.247-2.625,1.207
			c-0.516,0.031-1.25-0.142-1.306,0.312c-1.411-2.674-3.448-6.767-4.263-9.712c-1.546,2.565-5.899,5.682-8.198,2.421
			c-0.058-0.758,0.732-0.735,0.981-1.211c-0.074-0.386-0.975-0.398-0.981,0c-0.184-0.648,0.544-1.358,0.981-2.125
			c-0.043-0.675-0.827,0.392-1.639,0c0.095-0.355,1.445-1.259,0-1.211c0.311-1.363,2.37-0.83,3.609-0.605
			c-0.021-0.902-2.816-0.811-3.286-0.299c-0.698-0.461,0.243-0.746-0.323-1.519c0.781,0.254,1.516-0.435,0.323-0.304
			c1.242-0.477,1.553-1.81,3.612-1.518c-0.234-0.283-0.594-0.46-0.981-0.609c2.284-0.701,4.722-1.192,6.883-2.425
			c-0.277-0.526-1.285,0.809-1.967,0.915c-0.975-0.93,1.094-2.88,1.967-2.132c0.673-0.484,0.258-1.988,1.97-1.515
			c-0.854-1.138,0.181-2.535,1.964-2.729c-0.052-0.355-0.6-0.256-0.98-0.309c0.888-1.497,2.179-2.629,3.928-3.332
			c0.135-0.73-1.487,0.163-0.98-0.91c1.629,1.183,0.968-1.431,1.638,0c1.421-0.435,0.133-1.688,1.972-0.915
			c-0.212-0.311-0.756-0.313-0.658-0.909c0.292-0.235,0.741-0.327,1.312-0.298c-0.199-0.272-0.394-0.546,0-0.612
			c-0.083-0.384-0.651-0.307-0.654,0c-1.156-0.888,1.168-2.226,1.635-0.91c0.919-0.296-0.477-0.812,0.335-1.214
			c0.793,0.641,0.691,0.43,1.961,0.304c-0.52,1.408,0.156-0.372,0.981-0.304c0.102,0.489-0.311,0.516-0.326,0.912
			c1.411-0.147,1.438-2.03,2.951-1.216c-0.139-0.371-0.415-0.624-0.978-0.612c-0.062-0.856,2.013,0.257,1.961-0.603
			c0.307,0.222,0.497,0.555,0.654,0.917c1.344-1.088,2.81-2.064,4.264-3.04c1.712,0.816-1.45,1.171-0.978,2.725
			c1.021-0.455,1.184-1.728,2.29-2.121c0.439,0.095,0.271,0.764,0.325,1.214c1.67,0.229,0.644-2.038,2.626-1.514
			c0.133,0.731-0.603,0.659-0.332,1.514c1.128-1.413,2.963-0.532,4.593,0C92.373,28.472,90.54,28.704,89.363,28.188z"/>
		<path fill-rule="evenodd" clip-rule="evenodd" fill="#FFFFFF" d="M38.549,70.673c-0.766,0.463-2.349-0.488-3.941-0.906
			c0.615-0.382,3.246-1.667,1.313-2.431c0.255-0.783,1.048-1.054,2.295-0.906c0.179-0.443-0.384-1.573,0.333-1.518
			c-0.609-0.39-1.442-1.365-0.658-2.132c-0.587-0.198-1.432,0.496-2.625,0c0.028-0.988,0.935-1.156,0.655-2.421
			c-0.71-0.06-1.042,0.25-0.981,0.904c-0.562,0.295,0.23-1.585,0.326-2.121c-0.114-0.424-0.578-0.025-0.658,0.304
			c-1.094-1.081,1.042-3.437,1.313-5.16c0.679-0.178,2.157,0.376,2.295-0.301c1.236,0.97-1.063,1.221-0.98,2.12
			c0.35,0.696,2.062,0.125,2.951,0.307c-0.295,1.858-1.331,2.847-1.971,3.643c2.761,0.178,1.999,3.613,4.264,4.243
			c-0.283,1.479,0.94,1.565,0.654,3.038c0.178,0.342,1.577-0.23,2.296,0.304c0.283,1.778-0.879,2.216-1.639,3.033
			c0.102,0.414,0.818,0.251,1.307,0.301c-1.556,2.855-6.959,0.073-8.195,2.733c-1.159-1.468-1.992,0.738-3.277,0
			C34.983,72.437,36.462,71.271,38.549,70.673z"/>
		<path fill-rule="evenodd" clip-rule="evenodd" fill="#FFFFFF" d="M81.169,92.215c-0.681-0.179-1.059-0.631-1.64-0.904
			c-0.82,0.391,0.099,1.703,0.658,1.819c-0.489,0.169-0.514,0.188-0.986,0.906c0.451,0.698,1.639,0.714,1.968,1.518
			c0.15,1.247-0.695-0.119-1.64,0.309c0.631,0.616,0.753,1.243-0.328,0.606c-0.237,0.929,0.562,0.887,0.328,1.817
			c-1.386-0.113-1.429-0.775-2.624-0.913c0.719-1.337-1.202-3.21-0.323-3.638c-1.447-0.871-3.243-2.047-2.297-4.243
			c-1.214-3.532-7.162-2.679-7.872-6.678c-0.878-0.217-0.629,0.625-0.977,0.908c-0.532-0.421-0.842-1.05-0.983-1.823
			c-0.766,0.098-1.362,0.369-1.97,0.606c1.354,2.694,1.948,6.086,6.226,6.068c0.104,2.229,2.964,1.909,3.941,3.339
			c-0.461,0.785-1.699-0.218-2.302-0.301c-0.265,0.062-0.326,0.301-0.651,0.301c-0.13,1.026,0.562,1.3,0.983,1.822
			c-1.125,0.479-1.131,1.991-2.629,2.127c0.059-0.866,0.605-1.272,0.657-2.127c-1.672-4.013-8-3.726-9.177-8.193
			c-0.258-0.875-1.589-0.761-2.293-1.219c-1.54,0.905-3.102,1.789-4.589,2.737c-2.183-0.176-4.387-1.743-5.905,0
			c0.237,1.209,0.237,1.221,0,2.432c-1.854,0.705-5.431,2.716-3.609,4.852c-1.005,1.392-2.812,2.048-3.605,3.644
			c-1.537-0.639-5.379,0.612-5.902,0.904c-1.027-1.574-2.188-2.094-4.918-1.519c0.064-1.707-0.058-2.965-0.98-3.029
			c0.648-2.156,1.58-3.35,0.98-6.369c-0.034-0.2-0.572-1.148-0.648-0.914c1.149-3.15,7.522-0.394,11.794-0.91
			c2.02-3.081,1.365-4.544-0.326-7.283c-1.528-0.707-4.11-0.444-4.264-2.426c2.521-0.848,3.009-0.098,5.244,0
			c-0.052-0.859-0.596-1.266-0.655-2.129c1.344-0.019,1.559,0.992,3.28,0.614c0.104-0.396,0.449-1.35,1.964-1.22
			c0.332-0.742,0.117-0.647,0.332-1.819c2.77-0.368,5.395-0.871,5.57-3.64c1.297-0.487,0.12,1.303,0.99,1.207
			c1.292-0.318-0.086-0.915,0-1.815c1.792-0.617,3.892-0.225,4.918-0.905c-0.135-2.017-0.67-4.15-1.306-5.772
			c0.538-0.501,1.567-0.562,1.961-1.21c-0.298-0.825-1.208,0.249-1.306,0.607c-0.842-1.202,2.422-1.185,2.619-2.428
			c1.276,0.368-0.556,2.505,0.98,3.031c-0.316,0.824-0.916,1.378-1.638,1.818c0.406,0.638,2.336-0.129,1.638,1.518
			c-0.624-0.126-1.407-0.107-1.306-0.905c-0.359,0.074-0.228,0.601-0.655,0.601c1.027,0.688,0.802,0.095,0.323,1.222
			c0.286,0.614,2.281,0.312,1.312,1.214c1.571-0.169,2.478-0.944,3.608-1.518c0.676,0.484,2.1,0.282,2.296,1.207
			c2.176-0.611,4.085-1.477,6.225-2.124c0.719-0.046,1.042,0.255,0.989,0.917c2.336,0.657,2.323-0.993,2.616-1.214
			c1.012-0.784,1.113,0.447,1.639-0.606c0.568-1.131-1.248-4.964,1.647-5.161c1.263,0.042,1.284,1.227,2.29,1.516
			c1.813-0.102,0.922-1.525,1.31-2.427c-0.102-0.409-0.817-0.255-1.31-0.301c-0.179-0.444,0.385-1.574-0.33-1.515
			c1.129-1.814,5.401-0.848,7.216-1.218c-0.763,1.778-0.892,5.338,0.654,7.588c1.995-0.066,1.66,0.847,3.599,0.301
			c0.241,2.479,1.864,3.467,3.287,5.461c-0.774-0.007-0.965,0.526-1.971,0.304c0.363,0.574,0.422,1.43,0.658,2.127
			c0.956-0.432,1.961-0.817,3.602-0.608c0.435,4.558,6.77,3.655,9.837,5.769c-0.931,0.649-0.544,1.613-0.325,2.722
			c-2.855,0.999-5.032,2.628-8.195,3.343c-0.043,1.927,1.835,1.281,2.951,1.515c-1.325,0.903-3.565,0.953-4.922,1.817
			c-0.421-0.613-0.209-1.824-1.312-1.817c0.283-0.439,0.495-0.961,1.312-0.906c-0.52-0.53-1.472-0.656-2.618-0.608
			c-0.031-0.832,0.541-0.613,0-1.211c-2.939,1.093-6.658,5.22-6.557,9.099c-2.288-0.927-2.155,0.573-2.626,1.817
			c-1.847-0.149-2.333-0.165-3.934,0.312c0.145,0.264,0.289,0.537,0.657,0.604C81.82,92.461,80.929,90.887,81.169,92.215z"/>
		<path fill-rule="evenodd" clip-rule="evenodd" fill="#FFFFFF" d="M27.068,68.248c0.621,0.058,1.026-1.061,1.641-1.818
			c0.059-0.662-0.264-0.974-0.98-0.914c0.329-1.132,0.701-0.792,0.332-2.123c1.174,0.107,1.574,0.466,2.616,0
			c-1.07-0.859-0.019-0.838,0.332-1.82c1.35-0.241,1.679,0.466,2.951,0.301c0.452,0.387,0.138,1.484,0.98,1.519
			c-0.424,0.52-0.676,1.191-1.638,1.214c0.857,1.251,0.012,3.131-0.329,4.243c-2.539-0.326-2.908,1.353-5.244,1.217
			C27.05,69.498,27.348,68.49,27.068,68.248z"/>
	</g>
	<path fill-rule="evenodd" clip-rule="evenodd" fill="#FFFFFF" d="M38.11,91.749c0,1.389-1.124,2.506-2.51,2.506
		c-1.38,0-2.49-1.117-2.49-2.506c0-1.37,1.11-2.485,2.49-2.485C36.986,89.264,38.11,90.379,38.11,91.749z"/>
	<path fill-rule="evenodd" clip-rule="evenodd" fill="#FFFFFF" d="M56.759,76.439c0,1.385-1.129,2.498-2.493,2.498
		c-1.388,0-2.507-1.113-2.507-2.498c0-1.383,1.119-2.499,2.507-2.499C55.63,73.94,56.759,75.057,56.759,76.439z"/>
	<path fill-rule="evenodd" clip-rule="evenodd" fill="#FFFFFF" d="M85.473,79.377c0,1.385-1.128,2.498-2.492,2.498
		c-1.389,0-2.508-1.113-2.508-2.498c0-1.382,1.119-2.498,2.508-2.498C84.345,76.879,85.473,77.995,85.473,79.377z"/>
	<path fill-rule="evenodd" clip-rule="evenodd" fill="#FFFFFF" d="M43.012,69.336c0,1.389-1.125,2.506-2.507,2.506
		c-1.373,0-2.493-1.117-2.493-2.506c0-1.371,1.12-2.494,2.493-2.494C41.888,66.842,43.012,67.965,43.012,69.336z"/>
	<path fill-rule="evenodd" clip-rule="evenodd" fill="#FFFFFF" d="M85.604,62.729c0,1.371-1.124,2.488-2.508,2.488
		c-1.378,0-2.492-1.118-2.492-2.488c0-1.39,1.114-2.511,2.492-2.511C84.479,60.218,85.604,61.338,85.604,62.729z"/>
	<path fill-rule="evenodd" clip-rule="evenodd" fill="#FFFFFF" d="M67.5,48.597c0,1.375-1.119,2.501-2.505,2.501
		c-1.372,0-2.495-1.126-2.495-2.501c0-1.376,1.123-2.493,2.495-2.493C66.381,46.104,67.5,47.221,67.5,48.597z"/>
	<line fill="none" stroke="#FFFFFF" stroke-width="2" x1="40.512" y1="69.342" x2="35.61" y2="91.76"/>
	<line fill="none" stroke="#FFFFFF" stroke-width="2" x1="54.259" y1="76.439" x2="82.973" y2="79.377"/>
	<line fill="none" stroke="#FFFFFF" stroke-width="2" x1="65" y1="48.601" x2="83.104" y2="62.717"/>
</g>
</svg>
