<?xml version="1.0" encoding="utf-8"?>
<!-- Generator: Adobe Illustrator 16.0.0, SVG Export Plug-In . SVG Version: 6.00 Build 0)  -->
<!DOCTYPE svg PUBLIC "-//W3C//DTD SVG 1.1//EN" "http://www.w3.org/Graphics/SVG/1.1/DTD/svg11.dtd">
<svg version="1.1" id="Layer_1" xmlns="http://www.w3.org/2000/svg" xmlns:xlink="http://www.w3.org/1999/xlink" x="0px" y="0px"
	 width="130px" height="130px" viewBox="0 0 130 130" enable-background="new 0 0 130 130" xml:space="preserve">
<g>
	<circle fill="#2980DE" cx="65" cy="64.999" r="64"/>
	<g>
		<path fill-rule="evenodd" clip-rule="evenodd" fill="#FFFFFF" d="M104.549,95.062c-25.391,0.336-51.405,0.048-77.036,0.144
			c2.357-0.66,4.854-1.183,6.468-2.587c6.778-8.291,10.249-22.421,12.791-35.5c1.056-5.427,2.219-11.146,3.45-17.104
			c0.91-4.408,3.315-17.666,9.197-13.941c2.773,1.755,4.147,6.313,5.317,10.493c2.367,8.437,4.145,16.46,6.325,25.008
			c0.897,3.521,2.319,8.788,4.312,11.355c0.603,0.773,1.854,1.855,2.729,2.156c1.741,0.594,3.724-0.137,5.461,0.286
			c2.951,0.717,4.761,4.194,6.323,7.042c1.487,2.708,3.231,6.051,5.032,8.191C97.185,93.307,99.561,94.872,104.549,95.062z"/>
	</g>
</g>
</svg>
