<?xml version="1.0" encoding="utf-8"?>
<!-- Generator: Adobe Illustrator 16.0.0, SVG Export Plug-In . SVG Version: 6.00 Build 0)  -->
<!DOCTYPE svg PUBLIC "-//W3C//DTD SVG 1.1//EN" "http://www.w3.org/Graphics/SVG/1.1/DTD/svg11.dtd">
<svg version="1.1" id="Layer_1" xmlns="http://www.w3.org/2000/svg" xmlns:xlink="http://www.w3.org/1999/xlink" x="0px" y="0px"
	 width="130px" height="130px" viewBox="0 0 130 130" enable-background="new 0 0 130 130" xml:space="preserve">
<g>
	<circle fill="#2980DE" cx="65" cy="65" r="64"/>
	<g>
		<circle fill="#FFFFFF" cx="32.759" cy="44.552" r="6.953"/>
		<circle fill="#FFFFFF" cx="32.759" cy="65.003" r="6.953"/>
		<circle fill="#FFFFFF" cx="32.759" cy="85.454" r="6.953"/>
		<circle fill="#FFFFFF" cx="54.301" cy="44.552" r="6.953"/>
		<circle fill="#FFFFFF" cx="54.301" cy="65.003" r="6.953"/>
		<circle fill="#FFFFFF" cx="54.301" cy="85.454" r="6.953"/>
		<circle fill="#FFFFFF" cx="75.844" cy="44.552" r="6.953"/>
		<circle opacity="0.5" fill="#FFFFFF" cx="75.844" cy="65.003" r="6.953"/>
		<circle opacity="0.5" fill="#FFFFFF" cx="75.844" cy="85.454" r="6.953"/>
		<path fill="none" stroke="#FFFFFF" d="M104.133,44.552c0,3.728-3.019,6.749-6.749,6.749c-3.727,0-6.748-3.021-6.748-6.749
			s3.021-6.749,6.748-6.749C101.114,37.804,104.133,40.824,104.133,44.552z"/>
		<path fill="none" stroke="#FFFFFF" d="M104.133,65.003c0,3.728-3.019,6.749-6.749,6.749c-3.727,0-6.748-3.021-6.748-6.749
			c0-3.729,3.021-6.749,6.748-6.749C101.114,58.254,104.133,61.275,104.133,65.003z"/>
		<path fill="none" stroke="#FFFFFF" d="M104.133,85.454c0,3.728-3.019,6.749-6.749,6.749c-3.727,0-6.748-3.021-6.748-6.749
			c0-3.729,3.021-6.75,6.748-6.75C101.114,78.704,104.133,81.725,104.133,85.454z"/>
	</g>
</g>
</svg>
