<?xml version="1.0" encoding="utf-8"?>
<!-- Generator: Adobe Illustrator 16.0.0, SVG Export Plug-In . SVG Version: 6.00 Build 0)  -->
<!DOCTYPE svg PUBLIC "-//W3C//DTD SVG 1.1//EN" "http://www.w3.org/Graphics/SVG/1.1/DTD/svg11.dtd">
<svg version="1.1" id="Layer_1" xmlns="http://www.w3.org/2000/svg" xmlns:xlink="http://www.w3.org/1999/xlink" x="0px" y="0px"
	 width="130px" height="130px" viewBox="0 0 130 130" enable-background="new 0 0 130 130" xml:space="preserve">
<g>
	<circle fill="#2980DE" cx="65" cy="64.999" r="64"/>
	<g>
		<circle fill="#FFFFFF" cx="45.259" cy="67.536" r="5.482"/>
		<line fill="none" stroke="#FFFFFF" x1="19.641" y1="67.534" x2="70.878" y2="67.534"/>
		<line fill="none" stroke="#FFFFFF" x1="45.26" y1="99.415" x2="45.26" y2="35.654"/>
		<path fill="#FFFFFF" d="M89.414,42.761c0,3.026-2.453,5.48-5.481,5.48s-5.481-2.455-5.481-5.48c0-3.03,2.453-5.484,5.481-5.484
			S89.414,39.731,89.414,42.761z"/>
		<line fill="none" stroke="#FFFFFF" x1="68.141" y1="42.76" x2="99.727" y2="42.76"/>
		<line fill="none" stroke="#FFFFFF" x1="83.933" y1="56.987" x2="83.933" y2="28.53"/>
		<line fill="none" stroke="#FFFFFF" x1="41.667" y1="98.902" x2="48.715" y2="98.902"/>
		<line fill="none" stroke="#FFFFFF" x1="41.667" y1="35.466" x2="48.715" y2="35.466"/>
		<line fill="none" stroke="#FFFFFF" x1="80.41" y1="28.418" x2="87.456" y2="28.418"/>
		<line fill="none" stroke="#FFFFFF" x1="67.999" y1="46.283" x2="67.999" y2="39.235"/>
		<line fill="none" stroke="#FFFFFF" x1="100.109" y1="46.283" x2="100.109" y2="39.235"/>
		<line fill="none" stroke="#FFFFFF" x1="19.444" y1="71.06" x2="19.444" y2="64.013"/>
		<line fill="none" stroke="#FFFFFF" x1="70.741" y1="71.06" x2="70.741" y2="64.013"/>
		<line fill="none" stroke="#FFFFFF" x1="80.41" y1="57.494" x2="87.456" y2="57.494"/>
		<circle fill="#FFFFFF" cx="90.587" cy="87.796" r="5.482"/>
		<line fill="none" stroke="#FFFFFF" x1="72.892" y1="87.794" x2="108.281" y2="87.794"/>
		<line fill="none" stroke="#FFFFFF" x1="90.586" y1="97.929" x2="90.586" y2="77.66"/>
		<line fill="none" stroke="#FFFFFF" x1="87.063" y1="77.369" x2="94.111" y2="77.369"/>
		<line fill="none" stroke="#FFFFFF" x1="72.695" y1="91.319" x2="72.695" y2="84.271"/>
		<line fill="none" stroke="#FFFFFF" x1="108.328" y1="91.319" x2="108.328" y2="84.271"/>
		<line fill="none" stroke="#FFFFFF" x1="87.063" y1="98.418" x2="94.111" y2="98.418"/>
	</g>
</g>
</svg>
