<?xml version="1.0" encoding="utf-8"?>
<!-- Generator: Adobe Illustrator 16.0.0, SVG Export Plug-In . SVG Version: 6.00 Build 0)  -->
<!DOCTYPE svg PUBLIC "-//W3C//DTD SVG 1.1//EN" "http://www.w3.org/Graphics/SVG/1.1/DTD/svg11.dtd">
<svg version="1.1" id="Layer_1" xmlns="http://www.w3.org/2000/svg" xmlns:xlink="http://www.w3.org/1999/xlink" x="0px" y="0px"
	 width="130px" height="130px" viewBox="0 0 130 130" enable-background="new 0 0 130 130" xml:space="preserve">
<g>
	<circle fill="#2980DE" cx="65" cy="64.999" r="64"/>
	<g>
		<g opacity="0.4">
			<path fill-rule="evenodd" clip-rule="evenodd" fill="#FFFFFF" d="M57.592,85.96c0.665,0.435,0.413,2.657,0,3.131
				C56.021,88.789,56.455,86.345,57.592,85.96z"/>
			<path fill-rule="evenodd" clip-rule="evenodd" fill="#FFFFFF" d="M57.254,89.402c2.179,0.328,0.667,2.13,1.014,4.068
				c-1.061-0.347-0.954-0.204-1.353,0.625c-1.836-0.406,0.261-2.882-1.351-3.754C55.704,89.638,57.418,90.389,57.254,89.402z"/>
			<path fill-rule="evenodd" clip-rule="evenodd" fill="#FFFFFF" d="M67.396,95.035c-0.62,1.139,0.073,1.868-0.339,2.814
				c-1.676-0.43-3.096-1.095-4.394-1.876C63.61,94.716,65.629,95.858,67.396,95.035z"/>
			<path fill-rule="evenodd" clip-rule="evenodd" fill="#FFFFFF" d="M85.987,99.728c-1.042,1.409-3.386,0.687-5.071,0.313
				C81.442,98.891,84.084,100.181,85.987,99.728z"/>
			<path fill-rule="evenodd" clip-rule="evenodd" fill="#FFFFFF" d="M90.042,25.575c0.697,0.713,1.763,1.081,3.381,0.939
				c-0.681,1.35-3.862,1.15-4.056,3.755c0.488,0.903,1.625,1.207,2.367,1.876c-0.081,0.969-0.939,1.214-1.354,1.876
				c0.21,1.475,1.534,1.919,1.692,3.442c-1.672,0.918-0.548,3.082,0.674,3.755c-0.12,0.411-0.594,0.491-0.674,0.937
				c0.457,0.932,1.523,1.3,2.363,1.878c-2.447,4.202-7.115,6.348-13.181,7.197c-1.468-0.312-2.01-1.477-3.72-1.565
				c0.462-1.777,0.232-3.154-0.338-4.693c1.866-2.339,4.275-4.179,7.098-5.632c-0.28-3.865-6.796-2.104-7.098,0.312
				c-0.016,0.135,0.6,0.759,0.676,0.628c-1.722,2.948-8.976,4.044-7.099,8.76c0.583,1.024,1.948,1.324,2.705,2.19
				c-0.74,1.573-1.482,2.418-3.72,3.128c0.287,2.561-0.558,4.074-1.353,5.632c-0.939-0.642-3.023-0.25-2.703,1.253
				c-0.536,0.025-1.291-0.153-1.354,0.312c-1.45-2.76-3.547-6.979-4.393-10.012c-1.597,2.643-6.084,5.861-8.452,2.503
				c-0.059-0.784,0.756-0.76,1.013-1.252c-0.076-0.397-1.008-0.411-1.013,0c-0.19-0.674,0.562-1.404,1.013-2.19
				c-0.049-0.698-0.851,0.406-1.689,0c0.095-0.367,1.489-1.3,0-1.251c0.323-1.406,2.441-0.858,3.718-0.625
				c-0.024-0.935-2.901-0.837-3.38-0.312c-0.725-0.472,0.243-0.767-0.337-1.565c0.802,0.258,1.557-0.442,0.337-0.314
				c1.275-0.488,1.589-1.866,3.719-1.563c-0.248-0.293-0.615-0.475-1.015-0.626c2.353-0.724,4.874-1.231,7.099-2.503
				c-0.283-0.543-1.328,0.832-2.028,0.94c-1.004-0.957,1.124-2.962,2.028-2.19c0.696-0.505,0.265-2.051,2.028-1.566
				c-0.88-1.17,0.19-2.617,2.028-2.814c-0.054-0.367-0.616-0.265-1.015-0.314c0.919-1.548,2.25-2.717,4.057-3.44
				c0.134-0.749-1.541,0.172-1.015-0.94c1.681,1.227,1.002-1.47,1.69,0c1.466-0.445,0.132-1.733,2.028-0.938
				c-0.219-0.319-0.777-0.324-0.676-0.939c0.301-0.242,0.763-0.335,1.352-0.312c-0.207-0.278-0.406-0.559,0-0.625
				c-0.083-0.396-0.671-0.316-0.676,0c-1.19-0.915,1.205-2.295,1.69-0.938c0.948-0.308-0.491-0.835,0.339-1.252
				c0.824,0.656,0.719,0.447,2.028,0.313c-0.541,1.452,0.161-0.38,1.013-0.313c0.096,0.506-0.319,0.539-0.339,0.939
				c1.449-0.15,1.485-2.093,3.043-1.251c-0.147-0.387-0.433-0.643-1.014-0.628c-0.056-0.886,2.083,0.262,2.028-0.625
				c0.314,0.23,0.512,0.569,0.676,0.939c1.386-1.117,2.894-2.121,4.394-3.13c1.77,0.848-1.498,1.211-1.012,2.815
				c1.06-0.479,1.226-1.784,2.365-2.189c0.458,0.097,0.28,0.785,0.339,1.251c1.718,0.234,0.661-2.101,2.703-1.564
				c0.138,0.755-0.616,0.681-0.338,1.564c1.161-1.459,3.058-0.55,4.731,0C93.143,25.867,91.261,26.101,90.042,25.575z"/>
			<path fill-rule="evenodd" clip-rule="evenodd" fill="#FFFFFF" d="M37.648,69.378c-0.792,0.476-2.417-0.505-4.057-0.938
				c0.629-0.395,3.347-1.713,1.352-2.502c0.257-0.808,1.081-1.088,2.367-0.939c0.185-0.455-0.395-1.616,0.338-1.564
				c-0.621-0.403-1.488-1.402-0.676-2.189c-0.605-0.21-1.478,0.502-2.704,0c0.019-1.027,0.962-1.197,0.675-2.505
				c-0.736-0.056-1.075,0.257-1.012,0.939c-0.584,0.296,0.239-1.639,0.337-2.189c-0.121-0.439-0.596-0.027-0.677,0.312
				c-1.134-1.114,1.072-3.539,1.352-5.32c0.701-0.185,2.222,0.388,2.367-0.312c1.276,1.001-1.097,1.259-1.013,2.19
				c0.359,0.71,2.124,0.12,3.041,0.313c-0.306,1.917-1.37,2.938-2.028,3.755c2.846,0.181,2.06,3.726,4.396,4.379
				c-0.292,1.521,0.967,1.608,0.675,3.13c0.181,0.349,1.629-0.241,2.366,0.313c0.292,1.834-0.911,2.284-1.689,3.127
				c0.104,0.426,0.846,0.26,1.352,0.313c-1.61,2.945-7.176,0.074-8.452,2.816c-1.196-1.519-2.058,0.761-3.38,0
				C33.976,71.194,35.496,69.993,37.648,69.378z"/>
			<path fill-rule="evenodd" clip-rule="evenodd" fill="#FFFFFF" d="M81.594,91.593c-0.703-0.183-1.094-0.656-1.691-0.938
				c-0.843,0.4,0.099,1.755,0.676,1.875c-0.502,0.173-0.524,0.195-1.014,0.94c0.467,0.716,1.686,0.735,2.029,1.564
				c0.154,1.284-0.722-0.127-1.691,0.312c0.649,0.636,0.773,1.278-0.338,0.626c-0.245,0.956,0.583,0.919,0.338,1.876
				c-1.426-0.118-1.476-0.8-2.704-0.938c0.738-1.378-1.246-3.313-0.337-3.754c-1.494-0.9-3.341-2.114-2.367-4.381
				c-1.252-3.64-7.386-2.761-8.113-6.885c-0.909-0.215-0.653,0.647-1.015,0.94c-0.539-0.438-0.863-1.079-1.014-1.878
				c-0.789,0.104-1.396,0.376-2.028,0.625c1.4,2.772,2.012,6.273,6.423,6.259c0.109,2.299,3.06,1.966,4.058,3.441
				c-0.472,0.812-1.75-0.229-2.368-0.312c-0.273,0.059-0.335,0.312-0.676,0.312c-0.128,1.058,0.587,1.335,1.015,1.878
				c-1.154,0.493-1.16,2.053-2.704,2.189c0.056-0.887,0.619-1.306,0.676-2.189c-1.728-4.139-8.249-3.841-9.464-8.448
				c-0.264-0.904-1.637-0.782-2.367-1.252c-1.588,0.928-3.192,1.843-4.732,2.816c-2.246-0.18-4.521-1.799-6.085,0
				c0.248,1.244,0.248,1.258,0,2.503c-1.909,0.734-5.603,2.807-3.718,5.006c-1.033,1.441-2.899,2.113-3.717,3.754
				c-1.585-0.654-5.553,0.64-6.085,0.939c-1.06-1.628-2.26-2.163-5.071-1.564c0.066-1.767-0.062-3.061-1.013-3.129
				c0.667-2.221,1.625-3.451,1.013-6.571c-0.04-0.204-0.588-1.18-0.676-0.938c1.188-3.248,7.76-0.404,12.169-0.939
				c2.076-3.173,1.403-4.685-0.337-7.508c-1.577-0.73-4.239-0.46-4.395-2.504c2.592-0.874,3.099-0.102,5.409,0
				c-0.057-0.888-0.62-1.304-0.677-2.19c1.376-0.021,1.601,1.021,3.38,0.627c0.107-0.405,0.458-1.392,2.029-1.252
				c0.336-0.765,0.111-0.667,0.337-1.878c2.858-0.38,5.56-0.903,5.747-3.754c1.33-0.501,0.118,1.351,1.015,1.251
				c1.336-0.333-0.087-0.948,0-1.876c1.846-0.638,4.008-0.232,5.07-0.938c-0.14-2.078-0.688-4.273-1.352-5.948
				c0.564-0.52,1.626-0.579,2.029-1.25c-0.306-0.849-1.245,0.263-1.352,0.625c-0.868-1.233,2.505-1.217,2.704-2.503
				c1.32,0.385-0.57,2.583,1.014,3.128c-0.326,0.848-0.948,1.418-1.69,1.88c0.418,0.653,2.405-0.141,1.69,1.562
				c-0.647-0.131-1.455-0.113-1.352-0.937c-0.367,0.076-0.23,0.621-0.676,0.625c1.061,0.711,0.836,0.093,0.338,1.252
				c0.298,0.64,2.354,0.33,1.353,1.25c1.62-0.168,2.555-0.972,3.718-1.564c0.698,0.502,2.167,0.288,2.366,1.251
				c2.245-0.635,4.212-1.526,6.423-2.19c0.739-0.057,1.076,0.257,1.016,0.939c2.416,0.673,2.401-1.019,2.702-1.252
				c1.041-0.804,1.146,0.46,1.691-0.625c0.584-1.164-1.286-5.12,1.689-5.32c1.308,0.043,1.334,1.27,2.368,1.565
				c1.868-0.105,0.956-1.569,1.352-2.503c-0.105-0.425-0.848-0.259-1.352-0.314c-0.187-0.453,0.395-1.616-0.34-1.562
				c1.165-1.867,5.567-0.872,7.438-1.253c-0.786,1.831-0.914,5.504,0.676,7.822c2.056-0.069,1.712,0.87,3.718,0.312
				c0.24,2.556,1.914,3.578,3.381,5.633c-0.797-0.006-0.995,0.54-2.028,0.313c0.375,0.591,0.432,1.477,0.679,2.189
				c0.988-0.44,2.019-0.841,3.716-0.625c0.441,4.702,6.975,3.767,10.143,5.944c-0.96,0.671-0.562,1.665-0.339,2.814
				c-2.948,1.028-5.19,2.704-8.45,3.441c-0.042,1.985,1.893,1.322,3.04,1.564c-1.362,0.929-3.672,0.983-5.069,1.878
				c-0.438-0.636-0.217-1.884-1.353-1.878c0.294-0.457,0.506-0.99,1.353-0.938c-0.54-0.542-1.521-0.678-2.703-0.627
				c-0.031-0.854,0.562-0.629,0-1.25c-3.032,1.133-6.864,5.382-6.762,9.386c-2.356-0.957-2.217,0.593-2.706,1.876
				c-1.906-0.159-2.406-0.175-4.054,0.314c0.149,0.278,0.294,0.559,0.676,0.626C82.264,91.844,81.347,90.224,81.594,91.593z"/>
			<path fill-rule="evenodd" clip-rule="evenodd" fill="#FFFFFF" d="M25.816,66.876c0.633,0.063,1.057-1.098,1.69-1.877
				c0.062-0.684-0.276-0.996-1.013-0.939c0.335-1.163,0.722-0.818,0.337-2.189c1.218,0.108,1.629,0.477,2.705,0
				c-1.104-0.885-0.021-0.864,0.338-1.878c1.392-0.245,1.734,0.48,3.042,0.312c0.471,0.399,0.147,1.534,1.015,1.566
				c-0.436,0.536-0.701,1.23-1.691,1.25c0.882,1.288,0.014,3.235-0.337,4.38c-2.622-0.34-3.002,1.394-5.409,1.252
				C25.793,68.164,26.103,67.127,25.816,66.876z"/>
		</g>
		<g>
			<g>
				<path fill="#FFFFFF" d="M38.575,68.698c20.373,10.715,30.169,12.008,30.169,12.008l-1.796,5.974l15.495-6.503L72.442,67.64
					l-1.362,5.379c0,0-16.233-0.22-31.58-6.835"/>
			</g>
		</g>
		<g>
			<g>
				<path fill="#FFFFFF" d="M39.819,68.899c1.981-5.03,21.567-7.683,21.567-7.683l0.711,3.017l3.71-6.035l-6.274-3.191l0.785,3.487
					c0,0-15.175,1.885-21.267,7.974"/>
			</g>
		</g>
		<g>
			<g>
				<path fill="#FFFFFF" d="M39.108,67.781c0.915-10.972,15.205-17.454,15.205-17.454l0.336,1.426l1.753-2.853l-2.965-1.507
					l0.371,1.647c0,0-12.885,5.166-15.062,17.592"/>
			</g>
		</g>
		<g>
			<g>
				<path fill="#FFFFFF" d="M38.635,67.482c-8.874,2.331-6.765,18.511-6.765,18.511l-3.649-0.325l5.39,6.407l5.914-5.851
					l-4.202-0.417c0,0-4.342-12.185,6.326-18.28"/>
			</g>
		</g>
	</g>
</g>
</svg>
