<?xml version="1.0" encoding="utf-8"?>
<!-- Generator: Adobe Illustrator 16.0.0, SVG Export Plug-In . SVG Version: 6.00 Build 0)  -->
<!DOCTYPE svg PUBLIC "-//W3C//DTD SVG 1.1//EN" "http://www.w3.org/Graphics/SVG/1.1/DTD/svg11.dtd">
<svg version="1.1" id="Layer_1" xmlns="http://www.w3.org/2000/svg" xmlns:xlink="http://www.w3.org/1999/xlink" x="0px" y="0px"
	 width="130px" height="130px" viewBox="0 0 130 130" enable-background="new 0 0 130 130" xml:space="preserve">
<g>
	<circle fill="#2980DE" cx="65" cy="65" r="64"/>
	<g>
		<path fill="#FFFFFF" d="M82.906,31.394c0,3.796-3.076,6.872-6.872,6.872H54.958c-3.795,0-6.872-3.076-6.872-6.872v-0.918
			c0-3.795,3.077-6.872,6.872-6.872h21.077c3.796,0,6.872,3.077,6.872,6.872V31.394z"/>
		<rect x="48.314" y="86.831" fill="#FFFFFF" width="34.36" height="15.12"/>
		<line fill="none" stroke="#FFFFFF" stroke-width="2" x1="65.648" y1="37.355" x2="65.648" y2="56.139"/>
		<polyline fill="none" stroke="#FFFFFF" stroke-width="2" points="51.677,63.24 39.303,63.24 39.303,94.395 50.298,94.395 		"/>
		<polygon fill="#2980DE" stroke="#FFFFFF" stroke-width="2" points="46.711,63.24 65.495,52.542 84.28,63.24 65.495,73.938 		"/>
	</g>
</g>
</svg>
