<?xml version="1.0" encoding="utf-8"?>
<!-- Generator: Adobe Illustrator 16.0.0, SVG Export Plug-In . SVG Version: 6.00 Build 0)  -->
<!DOCTYPE svg PUBLIC "-//W3C//DTD SVG 1.1//EN" "http://www.w3.org/Graphics/SVG/1.1/DTD/svg11.dtd">
<svg version="1.1" id="Layer_1" xmlns="http://www.w3.org/2000/svg" xmlns:xlink="http://www.w3.org/1999/xlink" x="0px" y="0px"
	 width="130px" height="130px" viewBox="0 0 130 130" enable-background="new 0 0 130 130" xml:space="preserve">
<g>
	<circle fill="#2980DE" cx="65" cy="64.999" r="64"/>
	<g>
		<line opacity="0.4" fill="none" stroke="#FFFFFF" stroke-width="0.5" x1="31.234" y1="33.177" x2="31.234" y2="96.965"/>
		<line opacity="0.4" fill="none" stroke="#FFFFFF" stroke-width="0.5" x1="39.675" y1="33.177" x2="39.675" y2="96.965"/>
		<line opacity="0.4" fill="none" stroke="#FFFFFF" stroke-width="0.5" x1="48.116" y1="33.177" x2="48.116" y2="96.965"/>
		<line opacity="0.4" fill="none" stroke="#FFFFFF" stroke-width="0.5" x1="56.559" y1="33.177" x2="56.559" y2="96.965"/>
		<line opacity="0.4" fill="none" stroke="#FFFFFF" stroke-width="0.5" x1="65" y1="33.177" x2="65" y2="96.965"/>
		<line opacity="0.4" fill="none" stroke="#FFFFFF" stroke-width="0.5" x1="73.441" y1="33.034" x2="73.441" y2="96.822"/>
		<line opacity="0.4" fill="none" stroke="#FFFFFF" stroke-width="0.5" x1="81.885" y1="33.034" x2="81.885" y2="96.822"/>
		<line opacity="0.4" fill="none" stroke="#FFFFFF" stroke-width="0.5" x1="90.325" y1="33.034" x2="90.325" y2="96.822"/>
		<line opacity="0.4" fill="none" stroke="#FFFFFF" stroke-width="0.5" x1="98.767" y1="33.034" x2="98.767" y2="96.822"/>
		<rect x="49.64" y="52.871" fill="#2980DE" stroke="#FFFFFF" stroke-width="0.25" width="11.623" height="4.975"/>
		<rect x="69.106" y="91.841" fill="#2980DE" stroke="#FFFFFF" stroke-width="0.25" width="18.376" height="4.974"/>
		<rect x="41.296" y="33.318" fill="#2980DE" stroke="#FFFFFF" stroke-width="0.25" width="4.868" height="4.975"/>
		<rect x="31.145" y="33.18" fill="#FFFFFF" width="11.129" height="5.252"/>
		<rect x="40.002" y="42.958" fill="#FFFFFF" width="13.854" height="5.252"/>
		<rect x="42.047" y="52.732" fill="#FFFFFF" width="8.09" height="5.252"/>
		<rect x="52.269" y="62.422" fill="#FFFFFF" width="23.08" height="5.252"/>
		<rect x="74.074" y="81.888" fill="#FFFFFF" width="22.058" height="5.254"/>
		<rect x="80.888" y="91.702" fill="#FFFFFF" width="17.969" height="5.251"/>
		<rect x="68.28" y="72.156" fill="#FFFFFF" width="16.948" height="5.25"/>
	</g>
</g>
</svg>
