<?xml version="1.0" encoding="utf-8"?>
<!-- Generator: Adobe Illustrator 21.0.0, SVG Export Plug-In . SVG Version: 6.00 Build 0)  -->
<svg version="1.1" id="Layer_1" xmlns="http://www.w3.org/2000/svg" xmlns:xlink="http://www.w3.org/1999/xlink" x="0px" y="0px"
	 viewBox="0 0 130 130" style="enable-background:new 0 0 130 130;" xml:space="preserve">
<style type="text/css">
	.st0{fill:#2980DE;}
	.st1{fill:#FFFFFF;}
</style>
<g>
	<circle class="st0" cx="65" cy="65" r="64"/>
	<g>
		<polygon class="st1" points="29.7,75.4 27.3,75.4 27.3,77.2 24.3,77.2 24.3,79.4 27.3,79.4 27.3,93.8 29.7,93.8 29.7,92.2 
			32.5,92.2 32.5,90 29.7,90 		"/>
		<polygon class="st1" points="48.5,67.4 46.1,67.4 46.1,68.3 43.2,68.3 43.2,70.5 46.1,70.5 46.1,78.9 48.5,78.9 48.5,77.1 
			51.5,77.1 51.5,74.9 48.5,74.9 		"/>
		<polygon class="st1" points="39,63.3 36.6,63.3 36.6,86.1 33.4,86.1 33.4,88.3 36.6,88.3 36.6,90.3 39,90.3 39,66.1 41.9,66.1 
			41.9,63.9 39,63.9 		"/>
		<polygon class="st1" points="69.5,37.5 67.1,37.5 67.1,40.7 63.9,40.7 63.9,42.9 67.1,42.9 67.1,64.5 69.5,64.5 69.5,60 72.5,60 
			72.5,57.8 69.5,57.8 		"/>
		<polygon class="st1" points="81.2,53.1 78.8,53.1 78.8,54.2 75.7,54.2 75.7,56.4 78.8,56.4 78.8,80.1 81.2,80.1 81.2,78.9 
			84.2,78.9 84.2,76.7 81.2,76.7 		"/>
		<polygon class="st1" points="105.7,87.5 102.7,87.5 102.7,71.6 100.4,71.6 100.4,72.8 97.2,72.8 97.2,75 100.4,75 100.4,90.5 
			102.7,90.5 102.7,89.7 105.7,89.7 		"/>
		<polygon class="st1" points="91.8,70 89.4,70 89.4,72.8 86.5,72.8 86.5,75 89.4,75 89.4,81.5 91.3,81.5 91.8,81.5 94.7,81.5 
			94.7,79.3 91.8,79.3 		"/>
		<polygon class="st1" points="58.3,26.3 56,26.3 56,66.5 52.8,66.5 52.8,68.7 56,68.7 56,75.1 58.3,75.1 58.3,32.3 61.3,32.3 
			61.3,30.1 58.3,30.1 		"/>
	</g>
</g>
</svg>
