<?xml version="1.0" encoding="utf-8"?>
<!-- Generator: Adobe Illustrator 16.0.0, SVG Export Plug-In . SVG Version: 6.00 Build 0)  -->
<!DOCTYPE svg PUBLIC "-//W3C//DTD SVG 1.1//EN" "http://www.w3.org/Graphics/SVG/1.1/DTD/svg11.dtd">
<svg version="1.1" id="Layer_1" xmlns="http://www.w3.org/2000/svg" xmlns:xlink="http://www.w3.org/1999/xlink" x="0px" y="0px"
	 width="130px" height="130px" viewBox="0 0 130 130" enable-background="new 0 0 130 130" xml:space="preserve">
<g>
	<circle fill="#2980DE" cx="65" cy="64.999" r="64"/>
	<g>
		<path opacity="0.5" fill-rule="evenodd" clip-rule="evenodd" fill="#FFFFFF" d="M80.158,54.783c-0.122,0-0.146,0.086-0.248,0.108
			c0.076-0.431-0.683-0.126-0.998-0.218c-0.299-1.334-0.251-2.979-1.374-3.595c0.383-0.249,1.03-0.265,1.123-0.761
			C79.622,51.401,80.075,52.93,80.158,54.783z"/>
		<path opacity="0.3" fill-rule="evenodd" clip-rule="evenodd" fill="#FFFFFF" d="M63.063,54.891
			c-0.204,1.278,0.702,2.131,0.623,2.941c-0.148,0.054-0.282,0.116-0.375,0.217c-0.075,0.008-0.148,0.017-0.123,0.11
			c-2.395,1.072-4.745,2.178-6.866,3.486c2.212-0.721,4.548-2.277,6.866-3.269c0.766,0.893,1.642,1.69,2.744,2.289
			c-2.156,3.311-4.406,6.54-6.489,9.913c2.048-2.313,3.591-5.07,5.24-7.734c1.351,0.748,2.927,1.297,5.119,1.307
			c0.157,2.951-0.321,6.454,0.25,9.043c-4.438-0.048-7.834-1.005-10.609-2.504c-0.375,0.327-0.741,0.659-0.748,1.308
			c-3.667-1.669-6.273-4.26-8.489-7.19c1.808-0.741,4.011-2.003,5.993-2.943c-1.305-1.873-2.085-4.209-2.249-7.081
			C56.749,55.027,60.059,54.826,63.063,54.891z"/>
		<path fill-rule="evenodd" clip-rule="evenodd" fill="#FFFFFF" d="M66.808,54.891c0.501-0.183,1.867-0.183,2.367,0
			C68.387,54.891,67.597,54.891,66.808,54.891z"/>
		<path opacity="0.5" fill-rule="evenodd" clip-rule="evenodd" fill="#FFFFFF" d="M83.281,54.783c0.123,0,0.25,0,0.373,0
			c-0.083,2.471-0.82,4.368-1.872,5.99c-0.086-0.004-0.136-0.015-0.126-0.108C81.811,59.27,83.8,57.32,83.281,54.783z"/>
		<path fill-rule="evenodd" clip-rule="evenodd" fill="#FFFFFF" d="M63.812,54.891c-0.359,0.153-0.634-0.297-0.749,0
			c-3.004-0.065-6.314,0.136-9.113-0.108c0.164,2.872,0.944,5.208,2.249,7.081c-1.982,0.94-4.185,2.202-5.993,2.943
			c2.216,2.931,4.822,5.521,8.489,7.19c0.007-0.648,0.373-0.98,0.748-1.308c2.774,1.499,6.171,2.456,10.609,2.504
			c-0.571-2.589-0.093-6.092-0.25-9.043c0.531,0.045,0.118,0.914,0.25,1.308c-0.188,0.288,0.3,0.613-0.127,0.982
			c2.884,0.043,4.871-0.689,6.741-1.527c0.04,0,0.084,0,0.124,0c1.267,1.729,2.291,3.666,3.62,5.339
			c3.291-1.338,5.443-3.67,7.365-6.21c-1.743-1.314-4.21-1.994-5.993-3.27c1.052-1.623,1.789-3.52,1.872-5.99
			c-0.123,0-0.25,0-0.373,0c-1.426,0.184-1.861,0.281-3.123,0c-0.083-1.853-0.536-3.382-1.497-4.465
			c-0.093,0.496-0.74,0.512-1.123,0.761c-0.551,0.316-1.115,0.624-1.746,0.871c-0.496-1.019-1.506-1.588-2.371-2.288
			c-0.494,0.051,0.152,0.47-0.376,0.545c-0.809-0.214-2.188-1.05-3.12-0.434c0.081-4.689-0.163-10.603,0.127-15.471
			c4.65,0.114,8.285,1.119,11.359,2.614c1.265-1.182,2.043-2.704,2.991-4.138c0.936-1.418,1.967-2.848,2.749-4.359
			c5.415,2.714,9.698,6.421,12.851,11.112c0.411,0.389-0.554,0.239-0.496,0.655c2.396,3.973,4.492,8.785,4.243,14.706
			c-2.248,0-4.493,0-6.741,0c-0.235,4.624-1.563,8.296-3.492,11.438c2.133,1.517,4.805,2.562,7.237,3.814
			c-3.187,4.771-7.634,8.444-12.855,11.439c1.856,3.392,4.321,6.251,6.114,9.697c-6.49,3.118-13.934,5.41-23.836,5.555
			c-0.291,3.594-0.044,7.661-0.124,11.438c-12.808-0.112-22.374-3.057-30.703-7.08c0.709-1.777,2.082-2.977,2.871-4.686
			c-1.791-1.457-3.972-2.394-5.866-3.704C30.808,88.96,25.951,84.25,22.25,78.641c3.767-1.832,7.587-3.619,11.107-5.662
			c-2.335-3.634-4.085-8.11-4.992-13.293c-0.278-1.598-0.81-3.517,0.125-5.012C39.942,54.817,52.934,54.386,63.812,54.891z"/>
		<path fill-rule="evenodd" clip-rule="evenodd" fill="#FFFFFF" d="M69.925,51.079c0.285,0.117,0.05,0.685,0.127,0.979
			c-0.713-0.004-1.303,0.1-1.623,0.436c-0.329-0.15-0.542-0.398-0.502-0.869c-0.77,0.269-1.31,0.74-1.619,1.414
			c-0.298-0.068-0.583-0.146-0.624-0.437c-0.426-0.079-0.204,0.403-0.5,0.437c-0.022-0.282,0.352-0.772,0.625-0.437
			c0.501-0.613,0.993-1.237,1.872-1.524c-0.021,0.273,0.191,0.34,0.374,0.435C68.606,51.308,69.088,51.036,69.925,51.079z"/>
		<path fill-rule="evenodd" clip-rule="evenodd" fill="#FFFFFF" d="M65.059,54.783c1.165-0.254,2.868-0.037,4.243-0.11
			c-0.812-0.632-1.921-1.008-2.869-1.524c1.075-0.034,2.057,0.96,3.118,1.306c-0.327-0.659-0.852-1.146-1.122-1.853
			c0.709,0.253,0.795,1.048,1.247,1.525c0.29-0.399,0.045-1.269,0.126-1.852c0.554,0.208,0.104,1.289,0.25,1.852
			c1.067-0.703,1.656-2.765,2.869-3.704c-0.766,1.363-1.668,2.612-2.495,3.922c1.871-0.69,3.274-1.79,5.24-2.397
			c-1.352,1.072-3.836,1.735-4.866,2.724c0.043,0.144,0.219,0.171,0.249,0.329c-0.084,0-0.166,0-0.249,0
			c0.329,0.4,1.071,0.445,1.374,0.871c0.025,0.086,0.123,0.106,0.123,0.218c-0.654-0.119-0.822-0.664-1.622-0.656
			c0.505,1.087,1.613,2.587,2.37,3.815c-0.121,0.001-0.096,0.132-0.124,0.216c-0.948-1.284-1.946-2.961-2.745-4.031
			c-0.291,2.615-0.044,5.705-0.124,8.499c-1.103-1.598,0.586-6.239-0.25-8.171c-0.083-0.194-0.231-0.014-0.373,0
			c0.16-0.173,0.164-0.437-0.127-0.216c-0.617-0.32-1.034,0.473-1.621,0.545c-0.057-0.275,0.83-0.278,0.5-0.437
			c0.22-0.353,0.855-0.34,0.994-0.763c-0.5-0.183-1.866-0.183-2.367,0C66.381,55.099,65.517,54.899,65.059,54.783z"/>
		<path opacity="0.5" fill-rule="evenodd" clip-rule="evenodd" fill="#FFFFFF" d="M69.925,49.772c0.933-0.616,2.312,0.22,3.12,0.434
			c0.528-0.075-0.118-0.494,0.376-0.545c0.865,0.7,1.875,1.27,2.371,2.288c-0.042,0-0.083,0-0.126,0
			c-1.966,0.607-3.369,1.707-5.24,2.397c0.827-1.31,1.729-2.559,2.495-3.922c-1.213,0.939-1.802,3.001-2.869,3.704
			c-0.146-0.562,0.304-1.644-0.25-1.852c-0.081,0.583,0.164,1.452-0.126,1.852c-0.452-0.477-0.538-1.272-1.247-1.525
			c0.271,0.707,0.795,1.193,1.122,1.853c-1.062-0.346-2.043-1.34-3.118-1.306c0.948,0.516,2.057,0.892,2.869,1.524
			c-1.375,0.073-3.078-0.144-4.243,0.11c-0.083,0-0.166,0-0.25,0c-0.074-0.757,0.233-1.179,0.375-1.744
			c0.296-0.034,0.074-0.516,0.5-0.437c0.041,0.29,0.326,0.369,0.624,0.437c0.31-0.674,0.85-1.145,1.619-1.414
			c-0.04,0.471,0.173,0.719,0.502,0.869c0.32-0.336,0.91-0.44,1.623-0.436c-0.077-0.294,0.158-0.862-0.127-0.979
			C69.925,50.642,69.925,50.206,69.925,49.772z"/>
		<path fill-rule="evenodd" clip-rule="evenodd" fill="#FFFFFF" d="M65.932,60.666c0.165,0.798-0.789,1.561-1.249,2.178
			c-1.648,2.664-3.191,5.421-5.24,7.734C61.526,67.205,63.775,63.976,65.932,60.666z"/>
		<path fill-rule="evenodd" clip-rule="evenodd" fill="#FFFFFF" d="M65.559,56.962c0.765-0.533,1.692-0.922,2.622-1.308
			c0.33,0.159-0.557,0.162-0.5,0.437c-0.66,0.33-1.317,0.665-1.997,0.979C65.579,57.09,65.565,57.027,65.559,56.962z"/>
		<path fill-rule="evenodd" clip-rule="evenodd" fill="#FFFFFF" d="M65.559,56.962c0.007,0.065,0.021,0.128,0.125,0.107
			c-0.54,0.257-0.992,0.587-1.623,0.763C64.337,57.346,64.9,57.111,65.559,56.962z"/>
		<path fill-rule="evenodd" clip-rule="evenodd" fill="#FFFFFF" d="M67.431,58.487c0.039,0,0.083,0,0.123,0
			c0.05,0.37-0.215,0.465-0.373,0.652c-0.163,0.039-0.197,0.193-0.373,0.219C67.004,59.057,67.102,58.669,67.431,58.487z"/>
		<path opacity="0.25" fill-rule="evenodd" clip-rule="evenodd" fill="#FFFFFF" d="M75.792,51.949
			c0.631-0.247,1.195-0.554,1.746-0.871c1.123,0.616,1.075,2.26,1.374,3.595c0,0.074,0,0.146,0,0.218
			c0.234,0.026,0.828,0.283,0.998,0c0.102-0.021,0.126-0.108,0.248-0.108c1.262,0.281,1.697,0.184,3.123,0
			c0.519,2.537-1.471,4.486-1.625,5.882c-0.01,0.093,0.04,0.104,0.126,0.108c1.783,1.276,4.25,1.956,5.993,3.27
			c-1.922,2.54-4.074,4.872-7.365,6.21c-1.329-1.674-2.354-3.61-3.62-5.339c-0.04,0-0.084,0-0.124,0
			c-0.145-0.226,0.057-0.409-0.377-0.544c0.183-0.24,0.672-0.216,0.751-0.544c-1.52,0.673-4.382,2.273-6.988,1.633
			c-0.132-0.394,0.281-1.263-0.25-1.308c-2.192-0.009-3.769-0.559-5.119-1.307c0.46-0.617,1.414-1.38,1.249-2.178
			c-1.102-0.599-1.978-1.396-2.744-2.289c0-0.072,0-0.143,0-0.217c-0.025-0.093,0.048-0.102,0.123-0.11
			c0.106,0.321,0.314-0.142,0.625,0c0.045-0.183-0.098-0.204-0.25-0.217c0.079-0.811-0.827-1.663-0.623-2.941
			c0.114-0.297,0.389,0.153,0.749,0c0.358-0.011,0.815,0.06,0.996-0.108c0.085,0,0.167,0,0.25,0
			c0.458,0.116,1.322,0.316,1.749,0.108c0.789,0,1.579,0,2.367,0c-0.139,0.423-0.774,0.41-0.994,0.763
			c-0.93,0.386-1.857,0.775-2.622,1.308c-0.659,0.149-1.222,0.384-1.498,0.871c0.631-0.176,1.083-0.506,1.623-0.763
			c0.68-0.313,1.337-0.648,1.997-0.979c0.587-0.072,1.004-0.865,1.621-0.545c-0.562,1.034-1.343,1.877-1.871,2.941
			c-0.329,0.183-0.427,0.57-0.623,0.871c-0.272,0.38-0.556,0.753-0.751,1.2c0.447-0.003,0.838-0.92,1.124-1.419
			c0.158-0.187,0.423-0.282,0.373-0.652c0.763-0.788,1.319-1.755,1.875-2.725c0.142-0.014,0.29-0.194,0.373,0
			c0.836,1.933-0.853,6.573,0.25,8.171c0.08-2.793-0.167-5.883,0.124-8.499c0.799,1.07,1.797,2.747,2.745,4.031
			c0.737,1.012,1.053,1.973,1.871,2.727c0.056,0.276,0.177,0.499,0.378,0.651c0.273,0.415,0.465,0.9,0.87,1.199
			c0.175-0.408-0.528-0.987-0.748-1.417c-0.077-0.296-0.247-0.509-0.5-0.653c-0.314-0.791-1.211-1.786-1.747-2.723
			c-0.757-1.228-1.865-2.729-2.37-3.815c0.8-0.007,0.968,0.538,1.622,0.656c0.758,0.356,1.422,0.795,2.248,1.09
			c1.988,1.058,3.966,2.129,6.113,3.047c-0.854,1.437-2.244,2.398-3.494,3.487c1.554-0.713,2.576-1.892,3.494-3.158
			c0.264-0.238,0.355,0.054,0.753,0c-0.117-0.193-0.236-0.379-0.625-0.33c-1.854-1.214-4.071-2.112-6.117-3.159
			c-0.787-0.437-1.535-0.911-2.495-1.197c-0.303-0.426-1.045-0.471-1.374-0.871c0.083,0,0.165,0,0.249,0
			c2.311-0.235,5.103-0.054,7.612-0.111c-2.128-0.5-5.316-0.077-7.861-0.218c1.03-0.989,3.515-1.652,4.866-2.724
			C75.709,51.949,75.75,51.949,75.792,51.949z"/>
		<path fill-rule="evenodd" clip-rule="evenodd" fill="#FFFFFF" d="M75.292,62.626c0.22,0.43,0.923,1.008,0.748,1.417
			c-0.405-0.299-0.597-0.785-0.87-1.199C75.146,62.717,75.196,62.649,75.292,62.626z"/>
		<path fill-rule="evenodd" clip-rule="evenodd" fill="#68DAFF" d="M74.792,61.973c0.253,0.144,0.423,0.357,0.5,0.653
			c-0.096,0.023-0.146,0.091-0.122,0.217c-0.201-0.152-0.322-0.375-0.378-0.651C74.974,62.142,74.78,62.095,74.792,61.973z"/>
		<path fill-rule="evenodd" clip-rule="evenodd" fill="#FFFFFF" d="M73.045,59.25c0.536,0.938,1.433,1.933,1.747,2.723
			c-0.012,0.122,0.182,0.168,0,0.22c-0.818-0.754-1.134-1.715-1.871-2.727C72.949,59.382,72.924,59.251,73.045,59.25z"/>
		<path fill-rule="evenodd" clip-rule="evenodd" fill="#FFFFFF" d="M74.545,57.181c-0.826-0.295-1.49-0.733-2.248-1.09
			c0-0.112-0.098-0.132-0.123-0.218c0.96,0.286,1.708,0.76,2.495,1.197C74.563,57.049,74.552,57.111,74.545,57.181z"/>
		<path fill-rule="evenodd" clip-rule="evenodd" fill="#FFFFFF" d="M74.669,57.069c2.046,1.047,4.264,1.944,6.117,3.159
			c-0.044,0-0.086,0-0.128,0c-2.147-0.918-4.125-1.99-6.113-3.047C74.552,57.111,74.563,57.049,74.669,57.069z"/>
		<path opacity="0.5" fill-rule="evenodd" clip-rule="evenodd" fill="#FFFFFF" d="M80.658,60.228c0.042,0,0.084,0,0.128,0
			c0.389-0.05,0.508,0.136,0.625,0.33c-0.397,0.054-0.489-0.238-0.753,0c-0.918,1.266-1.94,2.444-3.494,3.158
			C78.414,62.626,79.804,61.665,80.658,60.228z"/>
		<path fill-rule="evenodd" clip-rule="evenodd" fill="#FFFFFF" d="M70.8,54.673c2.545,0.141,5.733-0.283,7.861,0.218
			c-2.51,0.057-5.302-0.124-7.612,0.111C71.019,54.844,70.843,54.817,70.8,54.673z"/>
		<path fill-rule="evenodd" clip-rule="evenodd" fill="#FFFFFF" d="M63.188,58.16c0,0.075,0,0.145,0,0.217
			c-2.318,0.992-4.653,2.548-6.866,3.269C58.443,60.338,60.793,59.231,63.188,58.16z"/>
		<path fill-rule="evenodd" clip-rule="evenodd" fill="#FFFFFF" d="M69.302,55.546c0.291-0.221,0.287,0.043,0.127,0.216
			c-0.556,0.97-1.112,1.938-1.875,2.725c-0.04,0-0.084,0-0.123,0C67.959,57.423,68.74,56.58,69.302,55.546z"/>
		<path fill-rule="evenodd" clip-rule="evenodd" fill="#FFFFFF" d="M66.808,59.357c0.176-0.026,0.21-0.18,0.373-0.219
			c-0.286,0.499-0.677,1.416-1.124,1.419C66.252,60.11,66.535,59.737,66.808,59.357z"/>
		<path opacity="0.5" fill-rule="evenodd" clip-rule="evenodd" fill="#FFFFFF" d="M70.052,65.458c2.606,0.64,5.469-0.96,6.988-1.633
			c-0.079,0.329-0.568,0.304-0.751,0.544c0.434,0.135,0.232,0.318,0.377,0.544c-1.87,0.838-3.857,1.57-6.741,1.527
			C70.352,66.071,69.864,65.747,70.052,65.458z"/>
		<path fill-rule="evenodd" clip-rule="evenodd" fill="#FFFFFF" d="M79.91,54.891c-0.17,0.283-0.764,0.026-0.998,0
			c0-0.072,0-0.144,0-0.218C79.228,54.765,79.986,54.46,79.91,54.891z"/>
		<path fill-rule="evenodd" clip-rule="evenodd" fill="#FFFFFF" d="M63.687,57.833c0.152,0.014,0.295,0.034,0.25,0.217
			c-0.311-0.142-0.519,0.321-0.625,0C63.404,57.948,63.539,57.886,63.687,57.833z"/>
		<line fill="none" stroke="#2980DE" stroke-width="0.5" x1="69.812" y1="54.915" x2="32.515" y2="72.982"/>
		<line fill="none" stroke="#2980DE" stroke-width="0.5" x1="41.549" y1="96.854" x2="70.023" y2="54.916"/>
		<line fill="none" stroke="#2980DE" stroke-width="0.5" x1="69.812" y1="54.915" x2="70.393" y2="100.882"/>
		<line fill="none" stroke="#2980DE" stroke-width="0.5" x1="69.566" y1="54.732" x2="90.171" y2="84.583"/>
		<line fill="none" stroke="#2980DE" stroke-width="0.5" x1="69.566" y1="54.732" x2="95.664" y2="67.185"/>
		<line fill="none" stroke="#2980DE" stroke-width="0.5" x1="69.812" y1="54.915" x2="98.135" y2="55.098"/>
		<line fill="none" stroke="#2980DE" stroke-width="0.5" x1="69.935" y1="55.282" x2="101.34" y2="39.349"/>
		<line fill="none" stroke="#2980DE" stroke-width="0.5" x1="70.023" y1="54.916" x2="82.753" y2="34.679"/>
		<line fill="none" stroke="#2980DE" stroke-width="0.5" x1="70.023" y1="54.916" x2="64.807" y2="52.351"/>
		<line fill="none" stroke="#2980DE" stroke-width="0.5" x1="70.023" y1="54.916" x2="67.187" y2="50.52"/>
	</g>
</g>
</svg>
