<?xml version="1.0" encoding="utf-8"?>
<!-- Generator: Adobe Illustrator 21.0.0, SVG Export Plug-In . SVG Version: 6.00 Build 0)  -->
<svg version="1.1" id="Layer_1" xmlns="http://www.w3.org/2000/svg" xmlns:xlink="http://www.w3.org/1999/xlink" x="0px" y="0px"
	 viewBox="0 0 130 130" style="enable-background:new 0 0 130 130;" xml:space="preserve">
<style type="text/css">
	.st0{fill:#2980DE;}
	.st1{fill:#FFFFFF;}
</style>
<circle class="st0" cx="65" cy="65" r="64"/>
<path class="st1" d="M98.6,33.9c-1.1,0-2,0.9-2,2v6.5L67.2,42v-6.1c0-1.1-0.9-2-2-2s-2,0.9-2,2v6.5L49,44.9l-15.3-7.1v-2
	c0-1.1-0.9-2-2-2s-2,0.9-2,2v58.3c0,1.1,0.9,2,2,2s2-0.9,2-2v-2.7l29.5-1.2v3.9c0,1.1,0.9,2,2,2s2-0.9,2-2v-5.9l4.7-4.3l24.7,8.2
	v2.1c0,1.1,0.9,2,2,2s2-0.9,2-2V35.9C100.6,34.8,99.7,33.9,98.6,33.9z M33.7,48.5l15.2-2.8l14.3,6.6v3.1l-29.5-1.4V48.5z M63.2,73.5
	l-14.8-6.6l14.8-5.5V73.5z M67.2,56.2l29.5-2.3v6.4L91,65.5l-23.8-5.3V56.2z M96.6,61.3v5.4l-4.8-1.1L96.6,61.3z M96.6,53.1
	l-29.5,2.3v-2.7l29.5-4.2V53.1z M63.2,56.2v4.4l-15.7,5.9l-13.7-6.2v-5.5L63.2,56.2z M33.7,61.2l12.7,5.7l-12.7,4.8V61.2z
	 M33.7,72.4l13.7-5.1l15.8,7.1v6.5L33.7,82V72.4z M67.2,75.3L79,76.4l-7.3,6.7l-4.5-1.5V75.3z M67.2,74.5V60.9l23.1,5.2l-10.5,9.6
	L67.2,74.5z M91.2,66.3l5.5,1.2v9.7l-15.8-1.4L91.2,66.3z M96.6,43.1v4.7L67.2,52v-9.3L96.6,43.1z M63.2,43.1v8.4l-13-6L63.2,43.1z
	 M47.7,45.2l-14,2.5v-9L47.7,45.2z M33.7,90.7v-7.9l29.5-1.2v7.9L33.7,90.7z M67.2,87.2v-4.9l3.9,1.3L67.2,87.2z M72.5,83.3l7.5-6.9
	L96.6,78v13.3L72.5,83.3z"/>
</svg>
