<?xml version="1.0" encoding="utf-8"?>
<!-- Generator: Adobe Illustrator 16.0.0, SVG Export Plug-In . SVG Version: 6.00 Build 0)  -->
<!DOCTYPE svg PUBLIC "-//W3C//DTD SVG 1.1//EN" "http://www.w3.org/Graphics/SVG/1.1/DTD/svg11.dtd">
<svg version="1.1" id="Layer_1" xmlns="http://www.w3.org/2000/svg" xmlns:xlink="http://www.w3.org/1999/xlink" x="0px" y="0px"
	 width="130px" height="130px" viewBox="0 0 130 130" enable-background="new 0 0 130 130" xml:space="preserve">
<circle fill="#2980DE" cx="65" cy="65" r="64"/>
<g>
	<path fill-rule="evenodd" clip-rule="evenodd" fill="#FFFFFF" d="M35.829,43.092c0.359,0.124,0.017,0.244-0.23,0.234
		c7.765,1.991,19.128,3.58,30.9,2.789c0.099,1.239,1.663,1.653,2.785,1.163c1.293,1.039,2.758,0.888,4.879,1.159
		c-0.998,0.781-2.341,1.221-2.784,2.562c0.627,0.83,0.904-0.631,1.625-0.473c0.952-0.068-0.036,0.327,0.232,0.932
		c1.347-0.031,2.339-1.438,3.716-2.091c-0.566,1.055,0.742,1.352,1.166,2.091c2.25-0.723,3.271-1.073,4.877-0.232
		c-0.168,2.403,2.857,2.098,1.63,4.878c0.195,0.681,0.582-0.303,1.159,0c1.321,1.726,0.206,2.988-0.464,4.882
		c2.786,1.087,6.691-1.302,7.201-4.648c1.657,0.003,2.614-0.024,3.718-0.929c-0.431-4.481,3.48-3.877,6.504-5.11
		c1.714-1.538,0.471-7.029,4.185-5.807c0.162,1.927,0.918,3.257,2.324,3.945c-0.259,1.371-1.78,1.474-1.858,3.021
		c-2.11-0.003-2.123,2.013-2.324,4.416c0.212,0.203,1.313,0.665,1.396,0.23c0.314,0.867-0.767,2.333-2.095,2.328
		c-0.803,0.972-1.619,1.938-3.249,2.086c0.69,2.751-1.221,3.474-0.469,6.277c-2.51,1.027-0.22,4.049,0.469,5.342
		c-0.635,2.004-3.412,1.855-3.488,4.414c-0.657,0.033-1.214,0.15-1.854,0.699c-0.35,1.747-1.301,2.89-2.793,3.486
		c-0.177,1.467-0.902,2.674-0.697,4.18c0.275,2.022,2.27,3.147,2.558,5.342c1.143,1.435,2.123,3.12,1.627,5.578
		c-0.419-0.028-0.493,0.284-0.933,0.229c-2.382-1.833-5.064-3.675-4.877-7.432c-1.25-0.452-1.46-1.949-3.02-2.091
		c-0.886,0.123-0.991,1.023-1.86,1.163c-1.671-2.916-4.938-0.103-7.666-0.7c-0.357,0.661-0.485,1.681-0.236,2.326
		c-2.927,1.153-2.999-0.311-5.803-0.23c-3.718-2.162-6.008,2.286-9.065,3.016c-0.997,1.481-0.982,3.066-0.23,4.882
		c-1.878-0.097-2.041-0.861-3.949-1.162c-0.332-1.45-0.446-3.119-1.864-3.483c-0.368-2.423-1.46-4.114-3.945-4.415
		c-0.832,0.331-1.135,1.19-1.627,1.858c-2.369-0.342-2.485-2.195-2.79-3.254c-0.414-1.44-2.155-1.646-2.788-3.485
		c-0.795,0.345-1.846-0.07-2.789-0.23c-0.749-0.208-0.48,0.603-0.931,0.696c-5.656,0.543-7.542-2.684-11.382-3.954
		c0.096-0.485-0.161-0.612-0.235-0.929c-1.845-0.146-2.685,0.093-4.181-0.463c0.018-3.271-2.434-4.142-4.88-5.576
		c-0.044-4.477-2.822-8.003-2.093-12.546c-1.978-1.728,1.847-3.506,0.234-5.343c1.681-4.173,4.063-6.422,3.717-12.778
		c1.092,0.068,1.366,0.954,2.79,0.697c0.286-0.751-0.752-0.181-0.465-0.931c0.495,0.108,0.444-0.332,0.465-0.698
		C29.125,41.377,32.848,43.552,35.829,43.092z"/>
</g>
<circle fill-rule="evenodd" clip-rule="evenodd" fill="#2980DE" cx="32.375" cy="51.75" r="1.5"/>
<circle fill-rule="evenodd" clip-rule="evenodd" fill="#2980DE" cx="38.125" cy="51.75" r="1.5"/>
<circle fill-rule="evenodd" clip-rule="evenodd" fill="#2980DE" cx="43.25" cy="66.5" r="1.5"/>
<circle fill-rule="evenodd" clip-rule="evenodd" fill="#2980DE" cx="39.625" cy="56.25" r="1.5"/>
<circle fill-rule="evenodd" clip-rule="evenodd" fill="#2980DE" cx="45.875" cy="50.917" r="1.5"/>
<circle fill-rule="evenodd" clip-rule="evenodd" fill="#2980DE" cx="35.375" cy="54.75" r="1.5"/>
<circle fill-rule="evenodd" clip-rule="evenodd" fill="#2980DE" cx="27.625" cy="45.25" r="1.5"/>
<circle fill-rule="evenodd" clip-rule="evenodd" fill="#2980DE" cx="63.375" cy="50.917" r="1.5"/>
<circle fill-rule="evenodd" clip-rule="evenodd" fill="#2980DE" cx="68.625" cy="63.5" r="1.5"/>
<circle fill-rule="evenodd" clip-rule="evenodd" fill="#2980DE" cx="78.5" cy="73.5" r="1.5"/>
<circle fill-rule="evenodd" clip-rule="evenodd" fill="#2980DE" cx="61.25" cy="78.875" r="1.5"/>
<circle fill-rule="evenodd" clip-rule="evenodd" fill="#2980DE" cx="59.75" cy="89.791" r="1.5"/>
<circle fill-rule="evenodd" clip-rule="evenodd" fill="#2980DE" cx="72.75" cy="83.041" r="1.5"/>
<circle fill-rule="evenodd" clip-rule="evenodd" fill="#2980DE" cx="75" cy="58" r="1.5"/>
<circle fill-rule="evenodd" clip-rule="evenodd" fill="#2980DE" cx="95.666" cy="70.084" r="1.5"/>
<circle fill-rule="evenodd" clip-rule="evenodd" fill="#2980DE" cx="54.75" cy="56.5" r="1.5"/>
<circle fill-rule="evenodd" clip-rule="evenodd" fill="#2980DE" cx="25.25" cy="61.375" r="1.5"/>
<circle fill-rule="evenodd" clip-rule="evenodd" fill="#2980DE" cx="36.625" cy="76.5" r="1.5"/>
<circle fill-rule="evenodd" clip-rule="evenodd" fill="#2980DE" cx="46.25" cy="76.5" r="1.5"/>
<circle fill-rule="evenodd" clip-rule="evenodd" fill="#2980DE" cx="56.25" cy="69" r="1.5"/>
<circle fill-rule="evenodd" clip-rule="evenodd" fill="#2980DE" cx="69.25" cy="56.5" r="1.5"/>
<circle fill-rule="evenodd" clip-rule="evenodd" fill="#2980DE" cx="76.5" cy="63.5" r="1.5"/>
<circle fill-rule="evenodd" clip-rule="evenodd" fill="#2980DE" cx="84.625" cy="73.5" r="1.5"/>
<circle fill-rule="evenodd" clip-rule="evenodd" fill="#2980DE" cx="96.375" cy="61.375" r="1.5"/>
<circle fill-rule="evenodd" clip-rule="evenodd" fill="#2980DE" cx="102.875" cy="53.5" r="1.5"/>
<circle fill-rule="evenodd" clip-rule="evenodd" fill="#2980DE" cx="87.625" cy="76.5" r="1.5"/>
<circle fill-rule="evenodd" clip-rule="evenodd" fill="#2980DE" cx="87.625" cy="81.875" r="1.5"/>
</svg>
