<?xml version="1.0" encoding="utf-8"?>
<!-- Generator: Adobe Illustrator 16.0.0, SVG Export Plug-In . SVG Version: 6.00 Build 0)  -->
<!DOCTYPE svg PUBLIC "-//W3C//DTD SVG 1.1//EN" "http://www.w3.org/Graphics/SVG/1.1/DTD/svg11.dtd">
<svg version="1.1" id="Layer_1" xmlns="http://www.w3.org/2000/svg" xmlns:xlink="http://www.w3.org/1999/xlink" x="0px" y="0px"
	 width="130px" height="130px" viewBox="0 0 130 130" enable-background="new 0 0 130 130" xml:space="preserve">
<circle fill="#2980DE" cx="64.771" cy="64.993" r="64"/>
<g>
	<g>
		<path fill="#FFFFFF" d="M27.63,89.914c0.003-4.446,3.602-8.046,8.053-8.048l0,0c4.445,0.002,8.047,3.602,8.05,8.048l0,0
			c-0.002,4.446-3.605,8.051-8.05,8.051l0,0C31.232,97.965,27.633,94.36,27.63,89.914L27.63,89.914z M31.278,89.914
			c0.003,2.433,1.971,4.4,4.405,4.404l0,0c2.429-0.004,4.4-1.972,4.403-4.404l0,0c-0.002-2.431-1.974-4.4-4.403-4.405l0,0
			C33.25,85.514,31.282,87.483,31.278,89.914L31.278,89.914z"/>
	</g>
	<g>
		<path fill="#FFFFFF" d="M27.631,71.381c0.002-4.444,3.604-8.046,8.052-8.05l0,0c4.445,0.003,8.047,3.605,8.048,8.05l0,0
			c-0.001,4.45-3.604,8.049-8.048,8.052l0,0C31.235,79.432,27.633,75.831,27.631,71.381L27.631,71.381z M31.278,71.381
			c0.002,2.436,1.974,4.402,4.405,4.407l0,0c2.428-0.005,4.4-1.972,4.403-4.407l0,0c-0.002-2.429-1.975-4.401-4.403-4.404l0,0
			C33.252,66.979,31.281,68.953,31.278,71.381L31.278,71.381z"/>
	</g>
	<g>
		<path fill="#FFFFFF" d="M27.631,51.938c0.004-4.447,3.604-8.046,8.049-8.048l0,0c4.448,0.002,8.05,3.603,8.051,8.048l0,0
			c-0.001,4.448-3.604,8.05-8.051,8.053l0,0C31.235,59.989,27.635,56.387,27.631,51.938L27.631,51.938z M31.276,51.938
			c0.007,2.433,1.974,4.401,4.406,4.405l0,0c2.431-0.002,4.4-1.972,4.405-4.405l0,0c-0.003-2.429-1.974-4.399-4.405-4.405l0,0
			C33.25,47.54,31.283,49.509,31.276,51.938L31.276,51.938z"/>
	</g>
	<g>
		<path fill="#FFFFFF" d="M66.973,52.702c0.003-4.449,3.601-8.05,8.049-8.053l0,0c4.45,0.002,8.05,3.604,8.051,8.053l0,0
			c-0.001,4.445-3.601,8.047-8.051,8.047l0,0C70.573,60.749,66.976,57.147,66.973,52.702L66.973,52.702z M70.619,52.702
			c0.005,2.431,1.971,4.399,4.402,4.402l0,0c2.434-0.002,4.402-1.971,4.406-4.402l0,0c-0.004-2.432-1.973-4.401-4.406-4.405l0,0
			C72.591,48.301,70.624,50.27,70.619,52.702L70.619,52.702z"/>
	</g>
	<g>
		<path fill="#FFFFFF" d="M66.973,33.257c0.003-4.447,3.604-8.047,8.051-8.052l0,0c4.448,0.004,8.048,3.605,8.049,8.052l0,0
			c-0.001,4.448-3.601,8.048-8.049,8.05l0,0C70.576,41.305,66.976,37.705,66.973,33.257L66.973,33.257z M70.619,33.257
			c0.002,2.43,1.972,4.401,4.404,4.404l0,0c2.432-0.003,4.402-1.975,4.402-4.404l0,0c0-2.431-1.971-4.402-4.402-4.406l0,0
			C72.591,28.854,70.621,30.826,70.619,33.257L70.619,33.257z"/>
	</g>
	<g>
		<g>
			<path fill="#FFFFFF" d="M48.519,78.751c-0.711-0.713-0.711-1.87,0-2.579l0,0l10.328-10.329c0.711-0.71,1.867-0.71,2.58,0l0,0
				c0.711,0.712,0.711,1.864,0,2.58l0,0l-10.33,10.328c-0.355,0.355-0.824,0.533-1.29,0.533l0,0
				C49.34,79.284,48.873,79.106,48.519,78.751L48.519,78.751z"/>
		</g>
		<g>
			<path fill="#FFFFFF" d="M58.848,78.751L48.52,68.423c-0.711-0.716-0.711-1.87,0-2.58l0,0c0.711-0.71,1.866-0.71,2.579,0l0,0
				l10.331,10.329c0.711,0.71,0.711,1.867,0,2.579l0,0c-0.358,0.355-0.824,0.533-1.292,0.533l0,0
				C59.67,79.284,59.204,79.106,58.848,78.751L58.848,78.751z"/>
		</g>
	</g>
	<g>
		<g>
			<path fill="#FFFFFF" d="M48.519,58.7c-0.713-0.712-0.713-1.867,0-2.577l0,0l10.328-10.332c0.712-0.711,1.867-0.711,2.579,0l0,0
				c0.712,0.712,0.712,1.867,0,2.579l0,0L51.094,58.7c-0.354,0.355-0.82,0.533-1.286,0.533l0,0
				C49.341,59.233,48.873,59.055,48.519,58.7L48.519,58.7z"/>
		</g>
		<g>
			<path fill="#FFFFFF" d="M58.848,58.7L48.52,48.37c-0.712-0.711-0.712-1.867,0-2.579l0,0c0.712-0.711,1.868-0.711,2.575,0l0,0
				l10.332,10.332c0.712,0.709,0.712,1.865,0,2.577l0,0c-0.355,0.355-0.822,0.533-1.289,0.533l0,0
				C59.67,59.233,59.204,59.055,58.848,58.7L58.848,58.7z"/>
		</g>
	</g>
	<g>
		<g>
			<path fill="#FFFFFF" d="M48.519,38.799c-0.711-0.711-0.711-1.864,0-2.576l0,0l10.329-10.332c0.711-0.71,1.867-0.71,2.578,0l0,0
				c0.711,0.711,0.711,1.868,0,2.578l0,0L51.095,38.799c-0.354,0.357-0.821,0.535-1.289,0.535l0,0
				C49.341,39.334,48.873,39.156,48.519,38.799L48.519,38.799z"/>
		</g>
		<g>
			<path fill="#FFFFFF" d="M58.849,38.799L48.52,28.47c-0.711-0.71-0.711-1.867,0-2.578l0,0c0.711-0.71,1.867-0.71,2.577,0l0,0
				l10.33,10.332c0.711,0.711,0.711,1.864,0,2.576l0,0c-0.355,0.357-0.822,0.535-1.288,0.535l0,0
				C59.671,39.334,59.204,39.156,58.849,38.799L58.849,38.799z"/>
		</g>
	</g>
	<g>
		<g>
			<path fill="#FFFFFF" d="M88.467,97.586c-0.708-0.716-0.708-1.87,0-2.58l0,0l10.331-10.327c0.713-0.715,1.865-0.715,2.579,0l0,0
				c0.713,0.711,0.713,1.865,0,2.576l0,0L91.045,97.586c-0.354,0.353-0.819,0.532-1.286,0.532l0,0
				C89.29,98.119,88.823,97.939,88.467,97.586L88.467,97.586z"/>
		</g>
		<g>
			<path fill="#FFFFFF" d="M98.798,97.586L88.467,87.255c-0.708-0.713-0.708-1.867,0-2.576l0,0c0.713-0.715,1.869-0.715,2.578,0l0,0
				l10.332,10.327c0.713,0.712,0.713,1.865,0,2.58l0,0c-0.357,0.353-0.825,0.532-1.291,0.532l0,0
				C99.619,98.119,99.153,97.939,98.798,97.586L98.798,97.586z"/>
		</g>
	</g>
	<g>
		<g>
			<path fill="#FFFFFF" d="M88.467,78.753c-0.708-0.716-0.708-1.869,0-2.579l0,0l10.329-10.332c0.715-0.71,1.871-0.71,2.581,0l0,0
				c0.711,0.711,0.711,1.865,0,2.576l0,0L91.045,78.753c-0.354,0.355-0.819,0.532-1.286,0.532l0,0
				C89.291,79.285,88.823,79.109,88.467,78.753L88.467,78.753z"/>
		</g>
		<g>
			<path fill="#FFFFFF" d="M98.796,78.753L88.467,68.418c-0.708-0.713-0.708-1.865,0-2.576l0,0c0.716-0.71,1.87-0.71,2.578,0l0,0
				l10.332,10.332c0.711,0.711,0.711,1.864,0,2.579l0,0c-0.357,0.355-0.824,0.532-1.289,0.532l0,0
				C99.62,79.285,99.153,79.109,98.796,78.753L98.796,78.753z"/>
		</g>
	</g>
	<g>
		<g>
			<path fill="#FFFFFF" d="M88.467,59.307c-0.708-0.711-0.708-1.865,0-2.579l0,0L98.799,46.4c0.712-0.71,1.866-0.71,2.578,0l0,0
				c0.713,0.713,0.713,1.867,0,2.58l0,0l-10.33,10.328c-0.355,0.358-0.821,0.535-1.288,0.535l0,0
				C89.29,59.842,88.823,59.665,88.467,59.307L88.467,59.307z"/>
		</g>
		<g>
			<path fill="#FFFFFF" d="M98.799,59.307L88.467,48.979c-0.708-0.712-0.708-1.866,0-2.58l0,0c0.713-0.71,1.87-0.71,2.58,0l0,0
				l10.33,10.329c0.713,0.713,0.713,1.868,0,2.579l0,0c-0.357,0.358-0.824,0.535-1.289,0.535l0,0
				C99.62,59.842,99.154,59.665,98.799,59.307L98.799,59.307z"/>
		</g>
	</g>
</g>
</svg>
