<?xml version="1.0" encoding="utf-8"?>
<!-- Generator: Adobe Illustrator 16.0.0, SVG Export Plug-In . SVG Version: 6.00 Build 0)  -->
<!DOCTYPE svg PUBLIC "-//W3C//DTD SVG 1.1//EN" "http://www.w3.org/Graphics/SVG/1.1/DTD/svg11.dtd">
<svg version="1.1" id="Layer_1" xmlns="http://www.w3.org/2000/svg" xmlns:xlink="http://www.w3.org/1999/xlink" x="0px" y="0px"
	 width="130px" height="130px" viewBox="0 0 130 130" enable-background="new 0 0 130 130" xml:space="preserve">
<g>
	<circle fill="#2980DE" cx="65" cy="64.999" r="64"/>
	<g>
		<rect x="24.356" y="87.863" fill="#FFFFFF" width="38.017" height="6.422"/>
		<rect x="66.126" y="87.863" opacity="0.6" fill="#FFFFFF" width="39.518" height="6.422"/>
		<rect x="29.609" y="78.988" fill="#FFFFFF" width="32.764" height="6.421"/>
		<rect x="66.126" y="78.988" opacity="0.6" fill="#FFFFFF" width="35.017" height="6.421"/>
		<rect x="30.859" y="70.114" fill="#FFFFFF" width="31.514" height="6.421"/>
		<rect x="33.861" y="61.24" fill="#FFFFFF" width="28.512" height="6.421"/>
		<rect x="39.612" y="52.363" fill="#FFFFFF" width="22.761" height="6.421"/>
		<rect x="66.126" y="70.114" opacity="0.6" fill="#FFFFFF" width="31.834" height="6.421"/>
		<rect x="66.126" y="61.24" opacity="0.6" fill="#FFFFFF" width="26.445" height="6.421"/>
		<rect x="66.126" y="52.363" opacity="0.6" fill="#FFFFFF" width="25.467" height="6.421"/>
		<rect x="41.614" y="43.489" fill="#FFFFFF" width="20.759" height="6.421"/>
		<rect x="66.126" y="43.489" opacity="0.6" fill="#FFFFFF" width="20.814" height="6.421"/>
		<rect x="47.617" y="34.614" fill="#FFFFFF" width="14.756" height="6.421"/>
		<rect x="66.126" y="34.614" opacity="0.6" fill="#FFFFFF" width="16.161" height="6.421"/>
		<rect x="51.869" y="25.74" fill="#FFFFFF" width="10.504" height="6.42"/>
		<rect x="66.126" y="25.74" opacity="0.6" fill="#FFFFFF" width="11.51" height="6.42"/>
	</g>
</g>
</svg>
