<?xml version="1.0" encoding="utf-8"?>
<!-- Generator: Adobe Illustrator 16.0.0, SVG Export Plug-In . SVG Version: 6.00 Build 0)  -->
<!DOCTYPE svg PUBLIC "-//W3C//DTD SVG 1.1//EN" "http://www.w3.org/Graphics/SVG/1.1/DTD/svg11.dtd">
<svg version="1.1" id="Layer_1" xmlns="http://www.w3.org/2000/svg" xmlns:xlink="http://www.w3.org/1999/xlink" x="0px" y="0px"
	 width="130px" height="130px" viewBox="0 0 130 130" enable-background="new 0 0 130 130" xml:space="preserve">
<g>
	<circle fill="#2980DE" cx="65" cy="64.999" r="64"/>
	<g>
		<g>
			<circle fill="none" stroke="#FFFFFF" cx="65" cy="65.052" r="42.382"/>
		</g>
		<g>
			<text transform="matrix(1 0 0 1 66.6699 61.126)" fill="#FFFFFF" font-family="'MyriadPro-Regular'" font-size="4.4438">1</text>
			<text transform="matrix(1 0 0 1 66.6699 55.8281)" fill="#FFFFFF" font-family="'MyriadPro-Regular'" font-size="4.4438">2</text>
			<text transform="matrix(1 0 0 1 66.6699 50.5303)" fill="#FFFFFF" font-family="'MyriadPro-Regular'" font-size="4.4438">3</text>
			<text transform="matrix(1 0 0 1 66.6699 45.2324)" fill="#FFFFFF" font-family="'MyriadPro-Regular'" font-size="4.4438">4</text>
			<text transform="matrix(1 0 0 1 66.6699 39.9346)" fill="#FFFFFF" font-family="'MyriadPro-Regular'" font-size="4.4438">5</text>
			<text transform="matrix(1 0 0 1 66.6699 34.6367)" fill="#FFFFFF" font-family="'MyriadPro-Regular'" font-size="4.4438">6</text>
			<text transform="matrix(1 0 0 1 66.6699 29.3389)" fill="#FFFFFF" font-family="'MyriadPro-Regular'" font-size="4.4438">7</text>
		</g>
		<line fill="none" stroke="#FFFFFF" stroke-width="0.5" x1="65.165" y1="65.127" x2="65.165" y2="22.745"/>
		<g>
			<g>
				<line fill="none" stroke="#FFFFFF" stroke-width="0.5" x1="64.105" y1="59.83" x2="66.225" y2="59.83"/>
				<line fill="none" stroke="#FFFFFF" stroke-width="0.5" x1="64.105" y1="54.532" x2="66.225" y2="54.532"/>
				<line fill="none" stroke="#FFFFFF" stroke-width="0.5" x1="64.105" y1="49.234" x2="66.225" y2="49.234"/>
				<line fill="none" stroke="#FFFFFF" stroke-width="0.5" x1="64.105" y1="43.936" x2="66.225" y2="43.936"/>
				<line fill="none" stroke="#FFFFFF" stroke-width="0.5" x1="64.105" y1="38.638" x2="66.225" y2="38.638"/>
				<line fill="none" stroke="#FFFFFF" stroke-width="0.5" x1="64.105" y1="33.341" x2="66.225" y2="33.341"/>
				<line fill="none" stroke="#FFFFFF" stroke-width="0.5" x1="64.105" y1="28.043" x2="66.225" y2="28.043"/>
			</g>
		</g>
		<circle fill="none" stroke="#FFFFFF" stroke-width="0.25" cx="64.999" cy="65.052" r="37.253"/>
		<circle fill="none" stroke="#FFFFFF" stroke-width="0.25" cx="65" cy="64.942" r="31.699"/>
		<circle fill="none" stroke="#FFFFFF" stroke-width="0.25" cx="65" cy="64.944" r="26.701"/>
		<circle fill="none" stroke="#FFFFFF" stroke-width="0.25" cx="64.999" cy="64.938" r="21.367"/>
		<circle fill="none" stroke="#FFFFFF" stroke-width="0.25" cx="64.999" cy="64.941" r="15.923"/>
		<circle fill="none" stroke="#FFFFFF" stroke-width="0.25" cx="64.999" cy="64.832" r="10.813"/>
		<circle fill="none" stroke="#FFFFFF" stroke-width="0.25" cx="64.999" cy="64.944" r="5.332"/>
		<g>
			<line fill="none" stroke="#FFFFFF" stroke-width="0.5" x1="65.165" y1="65.127" x2="98.103" y2="38.456"/>
			<g>
				<g>
					<line fill="none" stroke="#FFFFFF" stroke-width="0.5" x1="68.615" y1="60.971" x2="69.949" y2="62.619"/>
					<line fill="none" stroke="#FFFFFF" stroke-width="0.5" x1="72.732" y1="57.638" x2="74.066" y2="59.285"/>
					<line fill="none" stroke="#FFFFFF" stroke-width="0.5" x1="76.849" y1="54.302" x2="78.183" y2="55.95"/>
					<line fill="none" stroke="#FFFFFF" stroke-width="0.5" x1="80.966" y1="50.969" x2="82.3" y2="52.616"/>
					<line fill="none" stroke="#FFFFFF" stroke-width="0.5" x1="85.084" y1="47.635" x2="86.417" y2="49.283"/>
					<line fill="none" stroke="#FFFFFF" stroke-width="0.5" x1="89.2" y1="44.302" x2="90.532" y2="45.949"/>
					<line fill="none" stroke="#FFFFFF" stroke-width="0.5" x1="93.317" y1="40.967" x2="94.651" y2="42.614"/>
				</g>
			</g>
		</g>
		<g>
			<line fill="none" stroke="#FFFFFF" stroke-width="0.5" x1="65.165" y1="65.127" x2="106.621" y2="73.942"/>
			<g>
				<g>
					<line fill="none" stroke="#FFFFFF" stroke-width="0.5" x1="70.566" y1="65.194" x2="70.126" y2="67.268"/>
					<line fill="none" stroke="#FFFFFF" stroke-width="0.5" x1="75.75" y1="66.296" x2="75.308" y2="68.369"/>
					<line fill="none" stroke="#FFFFFF" stroke-width="0.5" x1="80.93" y1="67.397" x2="80.491" y2="69.47"/>
					<line fill="none" stroke="#FFFFFF" stroke-width="0.5" x1="86.113" y1="68.498" x2="85.673" y2="70.569"/>
					<line fill="none" stroke="#FFFFFF" stroke-width="0.5" x1="91.296" y1="69.6" x2="90.854" y2="71.672"/>
					<line fill="none" stroke="#FFFFFF" stroke-width="0.5" x1="96.478" y1="70.7" x2="96.037" y2="72.774"/>
					<line fill="none" stroke="#FFFFFF" stroke-width="0.5" x1="101.658" y1="71.803" x2="101.22" y2="73.876"/>
				</g>
			</g>
		</g>
		<g>
			<line fill="none" stroke="#FFFFFF" stroke-width="0.5" x1="65.165" y1="65.127" x2="83.743" y2="103.224"/>
			<g>
				<g>
					<line fill="none" stroke="#FFFFFF" stroke-width="0.5" x1="68.44" y1="69.425" x2="66.536" y2="70.355"/>
					<line fill="none" stroke="#FFFFFF" stroke-width="0.5" x1="70.761" y1="74.188" x2="68.855" y2="75.117"/>
					<line fill="none" stroke="#FFFFFF" stroke-width="0.5" x1="73.085" y1="78.95" x2="71.18" y2="79.88"/>
					<line fill="none" stroke="#FFFFFF" stroke-width="0.5" x1="75.407" y1="83.71" x2="73.502" y2="84.64"/>
					<line fill="none" stroke="#FFFFFF" stroke-width="0.5" x1="77.729" y1="88.472" x2="75.825" y2="89.401"/>
					<line fill="none" stroke="#FFFFFF" stroke-width="0.5" x1="80.052" y1="93.234" x2="78.147" y2="94.165"/>
					<line fill="none" stroke="#FFFFFF" stroke-width="0.5" x1="82.374" y1="97.996" x2="80.469" y2="98.924"/>
				</g>
			</g>
		</g>
		<g>
			<line fill="none" stroke="#FFFFFF" stroke-width="0.5" x1="65.165" y1="65.127" x2="47.254" y2="103.54"/>
			<g>
				<g>
					<line fill="none" stroke="#FFFFFF" stroke-width="0.5" x1="63.886" y1="70.378" x2="61.966" y2="69.482"/>
					<line fill="none" stroke="#FFFFFF" stroke-width="0.5" x1="61.647" y1="75.178" x2="59.727" y2="74.284"/>
					<line fill="none" stroke="#FFFFFF" stroke-width="0.5" x1="59.408" y1="79.979" x2="57.487" y2="79.086"/>
					<line fill="none" stroke="#FFFFFF" stroke-width="0.5" x1="57.17" y1="84.781" x2="55.249" y2="83.888"/>
					<line fill="none" stroke="#FFFFFF" stroke-width="0.5" x1="54.931" y1="89.582" x2="53.01" y2="88.688"/>
					<line fill="none" stroke="#FFFFFF" stroke-width="0.5" x1="52.691" y1="94.387" x2="50.771" y2="93.489"/>
					<line fill="none" stroke="#FFFFFF" stroke-width="0.5" x1="50.453" y1="99.188" x2="48.532" y2="98.292"/>
				</g>
			</g>
		</g>
		<g>
			<line fill="none" stroke="#FFFFFF" stroke-width="0.5" x1="65.165" y1="65.127" x2="23.87" y2="74.663"/>
			<g>
				<g>
					<line fill="none" stroke="#FFFFFF" stroke-width="0.5" x1="60.242" y1="67.354" x2="59.765" y2="65.289"/>
					<line fill="none" stroke="#FFFFFF" stroke-width="0.5" x1="55.08" y1="68.545" x2="54.602" y2="66.481"/>
					<line fill="none" stroke="#FFFFFF" stroke-width="0.5" x1="49.918" y1="69.736" x2="49.442" y2="67.673"/>
					<line fill="none" stroke="#FFFFFF" stroke-width="0.5" x1="44.755" y1="70.928" x2="44.279" y2="68.864"/>
					<line fill="none" stroke="#FFFFFF" stroke-width="0.5" x1="39.593" y1="72.121" x2="39.117" y2="70.055"/>
					<line fill="none" stroke="#FFFFFF" stroke-width="0.5" x1="34.431" y1="73.31" x2="33.955" y2="71.246"/>
					<line fill="none" stroke="#FFFFFF" stroke-width="0.5" x1="29.27" y1="74.504" x2="28.792" y2="72.438"/>
				</g>
			</g>
		</g>
		<g>
			<line fill="none" stroke="#FFFFFF" stroke-width="0.5" x1="65.165" y1="65.127" x2="31.768" y2="39.037"/>
			<g>
				<g>
					<line fill="none" stroke="#FFFFFF" stroke-width="0.5" x1="60.337" y1="62.701" x2="61.643" y2="61.033"/>
					<line fill="none" stroke="#FFFFFF" stroke-width="0.5" x1="56.163" y1="59.442" x2="57.469" y2="57.77"/>
					<line fill="none" stroke="#FFFFFF" stroke-width="0.5" x1="51.988" y1="56.18" x2="53.293" y2="54.51"/>
					<line fill="none" stroke="#FFFFFF" stroke-width="0.5" x1="47.813" y1="52.917" x2="49.119" y2="51.247"/>
					<line fill="none" stroke="#FFFFFF" stroke-width="0.5" x1="43.639" y1="49.656" x2="44.944" y2="47.987"/>
					<line fill="none" stroke="#FFFFFF" stroke-width="0.5" x1="39.465" y1="46.393" x2="40.769" y2="44.724"/>
					<line fill="none" stroke="#FFFFFF" stroke-width="0.5" x1="35.289" y1="43.132" x2="36.594" y2="41.462"/>
				</g>
			</g>
		</g>
		<polygon opacity="0.6" fill="#FFFFFF" points="24.103,74.801 40.098,45.917 64.984,54.953 95.794,40.288 95.35,71.985 
			78.907,93.762 60.836,75.54 		"/>
	</g>
</g>
</svg>
