<?xml version="1.0" encoding="utf-8"?>
<!-- Generator: Adobe Illustrator 16.0.0, SVG Export Plug-In . SVG Version: 6.00 Build 0)  -->
<!DOCTYPE svg PUBLIC "-//W3C//DTD SVG 1.1//EN" "http://www.w3.org/Graphics/SVG/1.1/DTD/svg11.dtd">
<svg version="1.1" id="Layer_1" xmlns="http://www.w3.org/2000/svg" xmlns:xlink="http://www.w3.org/1999/xlink" x="0px" y="0px"
	 width="130px" height="130px" viewBox="0 0 130 130" enable-background="new 0 0 130 130" xml:space="preserve">
<circle fill="#2980DE" cx="65" cy="64.993" r="64"/>
<g>
	<path fill="#FFFFFF" d="M61.303,21.727c14.44,0.296,25.763,5.881,33.23,13.572c7.377,7.598,13.186,18.499,13.119,32.571
		c-1.207,0-2.413,0-3.62,0c-0.52-13.053-5.302-23.147-12.225-30.072c-6.863-6.864-17.2-12.073-30.505-12.228
		C60.97,24.768,60.894,22.519,61.303,21.727z"/>
	<path fill="#FFFFFF" d="M89.889,95.395c-1.067-0.739-1.747-1.862-2.815-2.601c6.409-6.984,10.774-16.124,9.969-28.172
		c-1.216-18.109-17.17-31.625-35.968-32.288c0.141-1.16-0.286-2.886,0.216-3.684c17.533,0.22,31.266,10.928,36.618,24.054
		C103.952,67.512,99.945,86.318,89.889,95.395z"/>
	<path fill="#FFFFFF" d="M60.64,35.613c19.617,0.957,31.975,13.625,33.11,31.444c0.631,9.898-3.785,18.511-8.954,24.157
		c-4.851,5.299-12.354,9.473-20.408,10.203c-13.058,1.187-20.973-3.733-27.279-9.786c0.541-1.194,1.61-1.861,2.499-2.71
		c5.269,4.157,9.941,7.829,17.493,8.539c17.076,1.603,31.105-10.412,32.485-25.614c1.004-11.069-3.56-19.894-9.372-24.989
		c-5.018-4.402-11.196-7.125-19.78-7.496C60.568,38.176,60.157,36.45,60.64,35.613z"/>
</g>
</svg>
