<?xml version="1.0" encoding="utf-8"?>
<!-- Generator: Adobe Illustrator 16.0.0, SVG Export Plug-In . SVG Version: 6.00 Build 0)  -->
<!DOCTYPE svg PUBLIC "-//W3C//DTD SVG 1.1//EN" "http://www.w3.org/Graphics/SVG/1.1/DTD/svg11.dtd">
<svg version="1.1" xmlns="http://www.w3.org/2000/svg" xmlns:xlink="http://www.w3.org/1999/xlink" x="0px" y="0px" width="130px"
	 height="130px" viewBox="0 0 130 130" enable-background="new 0 0 130 130" xml:space="preserve">
<g id="Layer_1">
	<circle fill="#2980DE" cx="65" cy="65" r="64"/>
</g>
<g id="Layer_4">
	
		<circle opacity="0.5" fill-rule="evenodd" clip-rule="evenodd" fill="none" stroke="#FFFFFF" stroke-width="0.5" stroke-miterlimit="10" cx="65" cy="65" r="46.038"/>
	
		<circle opacity="0.5" fill-rule="evenodd" clip-rule="evenodd" fill="none" stroke="#FFFFFF" stroke-width="0.5" stroke-miterlimit="10" cx="65" cy="65" r="32.041"/>
</g>
<g id="Layer_2">
	<line fill="none" stroke="#FFFFFF" stroke-width="5.5" stroke-miterlimit="10" x1="65" y1="65" x2="65" y2="19"/>
	<line fill="none" stroke="#FFFFFF" stroke-width="5.5" stroke-miterlimit="10" x1="65" y1="65" x2="65" y2="106"/>
	<line fill="none" stroke="#FFFFFF" stroke-width="5.5" stroke-miterlimit="10" x1="65" y1="65" x2="21" y2="65"/>
	<line fill="none" stroke="#FFFFFF" stroke-width="5.5" stroke-miterlimit="10" x1="65" y1="65" x2="93.75" y2="65"/>
	<line fill="none" stroke="#FFFFFF" stroke-width="5.5" stroke-miterlimit="10" x1="65" y1="65" x2="95.125" y2="34.875"/>
	<line fill="none" stroke="#FFFFFF" stroke-width="5.5" stroke-miterlimit="10" x1="65" y1="65" x2="94.75" y2="95.125"/>
	<line fill="none" stroke="#FFFFFF" stroke-width="5.5" stroke-miterlimit="10" x1="65" y1="65" x2="36.625" y2="36.625"/>
	<line fill="none" stroke="#FFFFFF" stroke-width="5.5" stroke-miterlimit="10" x1="65" y1="65" x2="34.167" y2="95.833"/>
	<line fill="none" stroke="#FFFFFF" stroke-width="5.5" stroke-miterlimit="10" x1="65" y1="65" x2="79.375" y2="29.75"/>
	<line fill="none" stroke="#FFFFFF" stroke-width="5.5" stroke-miterlimit="10" x1="65" y1="65" x2="101.5" y2="49.938"/>
	<line fill="none" stroke="#FFFFFF" stroke-width="5.5" stroke-miterlimit="10" x1="65" y1="65" x2="95.25" y2="77.625"/>
	<line fill="none" stroke="#FFFFFF" stroke-width="5.5" stroke-miterlimit="10" x1="65" y1="65" x2="79.375" y2="101.5"/>
	<line fill="none" stroke="#FFFFFF" stroke-width="5.5" stroke-miterlimit="10" x1="65" y1="65" x2="55.736" y2="87.669"/>
	<line fill="none" stroke="#FFFFFF" stroke-width="5.5" stroke-miterlimit="10" x1="65" y1="65" x2="34.167" y2="77.25"/>
	<line fill="none" stroke="#FFFFFF" stroke-width="5.5" stroke-miterlimit="10" x1="65" y1="65" x2="36.375" y2="53.25"/>
	<line fill="none" stroke="#FFFFFF" stroke-width="5.5" stroke-miterlimit="10" x1="65" y1="65" x2="51" y2="30.5"/>
</g>
<g id="Layer_3">
	
		<circle fill-rule="evenodd" clip-rule="evenodd" fill="#2980DE" stroke="#FFFFFF" stroke-width="2" stroke-miterlimit="10" cx="65" cy="65" r="14.214"/>
</g>
</svg>
