<?xml version="1.0" encoding="utf-8"?>
<!-- Generator: Adobe Illustrator 16.0.0, SVG Export Plug-In . SVG Version: 6.00 Build 0)  -->
<!DOCTYPE svg PUBLIC "-//W3C//DTD SVG 1.1//EN" "http://www.w3.org/Graphics/SVG/1.1/DTD/svg11.dtd">
<svg version="1.1" id="Layer_1" xmlns="http://www.w3.org/2000/svg" xmlns:xlink="http://www.w3.org/1999/xlink" x="0px" y="0px"
	 width="130px" height="130px" viewBox="0 0 130 130" enable-background="new 0 0 130 130" xml:space="preserve">
<g>
	<circle fill="#2980DE" cx="65" cy="64.999" r="64"/>
	<g>
		<path fill-rule="evenodd" clip-rule="evenodd" fill="#FFFFFF" d="M93.782,51.739c-0.732-0.289-0.125-2.827-0.319-3.611
			c-9.793,0.02-20.098-0.091-29.172,0.152c17.73,4.932,28.871,15.946,29.172,36.965c1.877,0.448,4.885-0.146,6.76,0.304
			c-0.076,1.301-1.454,2.025-2.309,2.74c-5.271,4.427-10.728,8.873-16.317,13.54c-0.831,0.692-2.322,1.945-2.967,1.977
			c-1.267,0.063-5.063-3.377-5.933-4.105c-4.662-3.909-10.183-7.515-14.842-11.411c-0.819-0.685-2.259-1.323-2.308-2.584
			c1.437-0.704,5.44-0.11,7.424-0.308c0.111-2.669-0.593-5.139-1.648-6.846c-4.735-7.651-21.538-4.397-33.127-5.021
			c-0.275-11.154-0.274-23.375,0-34.531c21.372-0.355,43.457-0.053,65.103-0.154c0.38-0.409,0.058-2.628,0.164-3.29
			c-0.006-0.261,0.123-0.394,0.331-0.458c1.052,0.874,2.821,2.71,4.052,4.065c0.567,0.628,1.803,1.77,2.51,2.432
			c0.474,0.44,1.604,1.471,1.65,1.825c0.137,1.099-3.076,4.027-3.773,4.741c-0.712,0.727-1.526,1.433-2.142,2.057
			C95.524,50.791,94.847,51.766,93.782,51.739z"/>
	</g>
</g>
</svg>
