<?xml version="1.0" encoding="utf-8"?>
<!-- Generator: Adobe Illustrator 16.0.0, SVG Export Plug-In . SVG Version: 6.00 Build 0)  -->
<!DOCTYPE svg PUBLIC "-//W3C//DTD SVG 1.1//EN" "http://www.w3.org/Graphics/SVG/1.1/DTD/svg11.dtd">
<svg version="1.1" id="Layer_1" xmlns="http://www.w3.org/2000/svg" xmlns:xlink="http://www.w3.org/1999/xlink" x="0px" y="0px"
	 width="130px" height="130px" viewBox="0 0 130 130" enable-background="new 0 0 130 130" xml:space="preserve">
<g>
	<circle fill="#2980DE" cx="65" cy="64.999" r="64"/>
	<g>
		<circle fill="#FFFFFF" cx="44.001" cy="84.212" r="2.034"/>
		<circle fill="#FFFFFF" cx="48.119" cy="74.604" r="2.034"/>
		<circle fill="#FFFFFF" cx="58.931" cy="85.229" r="2.034"/>
		<circle fill="#FFFFFF" cx="61.219" cy="68.604" r="2.034"/>
		<circle fill="#FFFFFF" cx="69.151" cy="76.077" r="2.033"/>
		<path fill="#FFFFFF" d="M91.775,82.634c0,1.124-0.912,2.036-2.034,2.036c-1.124,0-2.033-0.912-2.033-2.036
			c0-1.121,0.909-2.032,2.033-2.032C90.863,80.602,91.775,81.513,91.775,82.634z"/>
		<circle fill="#FFFFFF" cx="69.456" cy="56.401" r="2.034"/>
		<circle fill="#FFFFFF" cx="55.575" cy="51.979" r="2.034"/>
		<circle fill="#FFFFFF" cx="77.388" cy="63.875" r="2.034"/>
		<circle fill="#FFFFFF" cx="70.371" cy="63.57" r="2.034"/>
		<circle fill="#FFFFFF" cx="54.508" cy="63.875" r="2.034"/>
		<circle fill="#FFFFFF" cx="60.303" cy="76.229" r="2.034"/>
		<circle fill="#FFFFFF" cx="82.724" cy="42.98" r="2.034"/>
		<circle fill="#FFFFFF" cx="89.131" cy="54.418" r="2.034"/>
		<circle fill="#FFFFFF" cx="79.064" cy="52.131" r="2.034"/>
		<circle fill="#FFFFFF" cx="94.47" cy="44.047" r="2.034"/>
		<circle fill="#FFFFFF" cx="89.888" cy="35.965" r="2.034"/>
		<polyline fill="none" stroke="#FFFFFF" stroke-width="3" stroke-linecap="round" points="31.477,32.607 31.477,96.059 
			99.808,96.059 		"/>
	</g>
</g>
</svg>
