<?xml version="1.0" encoding="utf-8"?>
<!-- Generator: Adobe Illustrator 16.0.0, SVG Export Plug-In . SVG Version: 6.00 Build 0)  -->
<!DOCTYPE svg PUBLIC "-//W3C//DTD SVG 1.1//EN" "http://www.w3.org/Graphics/SVG/1.1/DTD/svg11.dtd">
<svg version="1.1" id="Layer_1" xmlns="http://www.w3.org/2000/svg" xmlns:xlink="http://www.w3.org/1999/xlink" x="0px" y="0px"
	 width="130px" height="130px" viewBox="0 0 130 130" enable-background="new 0 0 130 130" xml:space="preserve">
<g>
	<circle fill="#2980DE" cx="65" cy="64.999" r="64"/>
	<g>
		<rect x="22.535" y="43.18" fill="#FFFFFF" width="27.602" height="16.487"/>
		<rect x="70.23" y="43.18" fill="#FFFFFF" width="10.351" height="16.47"/>
		<rect x="50.543" y="43.731" fill="#2980DE" stroke="#FFFFFF" width="19.483" height="15.378"/>
		<rect x="80.172" y="43.731" fill="none" stroke="#FFFFFF" width="26.995" height="15.378"/>
		<line fill="none" stroke="#FFFFFF" x1="80.281" y1="48.566" x2="84.187" y2="43.792"/>
		<line fill="none" stroke="#FFFFFF" x1="80.18" y1="52.907" x2="87.688" y2="43.729"/>
		<line fill="none" stroke="#FFFFFF" x1="80.18" y1="57.249" x2="91.089" y2="43.916"/>
		<line fill="none" stroke="#FFFFFF" x1="82.615" y1="58.861" x2="94.895" y2="43.854"/>
		<line fill="none" stroke="#FFFFFF" x1="86.371" y1="58.861" x2="98.65" y2="43.854"/>
		<line fill="none" stroke="#FFFFFF" x1="90.022" y1="58.861" x2="102.302" y2="43.854"/>
		<line fill="none" stroke="#FFFFFF" x1="93.879" y1="58.861" x2="106.158" y2="43.854"/>
		<line fill="none" stroke="#FFFFFF" x1="97.733" y1="59.232" x2="107.172" y2="47.699"/>
		<line fill="none" stroke="#FFFFFF" x1="102.3" y1="58.861" x2="107.425" y2="52.598"/>
		<rect x="22.535" y="70.328" fill="#FFFFFF" width="16.034" height="16.505"/>
		<rect x="61.402" y="70.328" fill="#FFFFFF" width="32.878" height="16.487"/>
		<rect x="38.975" y="70.893" fill="#2980DE" stroke="#FFFFFF" width="22.832" height="15.375"/>
		<rect x="80.172" y="70.893" fill="none" stroke="#FFFFFF" width="26.995" height="15.375"/>
		<line fill="none" stroke="#FFFFFF" x1="80.281" y1="75.726" x2="84.187" y2="70.953"/>
		<line fill="none" stroke="#FFFFFF" x1="80.18" y1="80.067" x2="87.688" y2="70.888"/>
		<line fill="none" stroke="#FFFFFF" x1="80.18" y1="84.408" x2="91.089" y2="71.075"/>
		<line fill="none" stroke="#FFFFFF" x1="82.615" y1="86.021" x2="94.895" y2="71.015"/>
		<line fill="none" stroke="#FFFFFF" x1="86.371" y1="86.021" x2="98.65" y2="71.015"/>
		<line fill="none" stroke="#FFFFFF" x1="90.022" y1="86.021" x2="102.302" y2="71.015"/>
		<line fill="none" stroke="#FFFFFF" x1="93.879" y1="86.021" x2="106.158" y2="71.015"/>
		<line fill="none" stroke="#FFFFFF" x1="97.733" y1="86.394" x2="107.172" y2="74.86"/>
		<line fill="none" stroke="#FFFFFF" x1="102.3" y1="86.021" x2="107.425" y2="79.758"/>
	</g>
</g>
</svg>
