<?xml version="1.0" encoding="utf-8"?>
<!-- Generator: Adobe Illustrator 16.0.0, SVG Export Plug-In . SVG Version: 6.00 Build 0)  -->
<!DOCTYPE svg PUBLIC "-//W3C//DTD SVG 1.1//EN" "http://www.w3.org/Graphics/SVG/1.1/DTD/svg11.dtd">
<svg version="1.1" id="Layer_1" xmlns="http://www.w3.org/2000/svg" xmlns:xlink="http://www.w3.org/1999/xlink" x="0px" y="0px"
	 width="130px" height="130px" viewBox="0 0 130 130" enable-background="new 0 0 130 130" xml:space="preserve">
<g>
	<circle fill="#2980DE" cx="65" cy="64.999" r="64"/>
	<g>
		<line fill="none" stroke="#FFFFFF" stroke-width="0.5" x1="31.743" y1="28.181" x2="104" y2="28.181"/>
		<line fill="none" stroke="#FFFFFF" stroke-width="0.5" x1="46.822" y1="22.929" x2="46.822" y2="110.985"/>
		<text transform="matrix(1 0 0 1 35.7075 41.7959)" fill="#FFFFFF" font-family="'TimesNewRomanPSMT'" font-size="12.288">1</text>
		
			<text transform="matrix(1 0 0 1 50.4087 41.7959)" opacity="0.8" fill="#FFFFFF" font-family="'TimesNewRomanPSMT'" font-size="12.288">51</text>
		
			<text transform="matrix(1 0 0 1 65.3296 53.6445)" opacity="0.8" fill="#FFFFFF" font-family="'TimesNewRomanPSMT'" font-size="12.288">57</text>
		
			<text transform="matrix(1 0 0 1 50.4087 53.6445)" opacity="0.8" fill="#FFFFFF" font-family="'TimesNewRomanPSMT'" font-size="12.288">21</text>
		
			<text transform="matrix(1 0 0 1 80.2529 67.25)" opacity="0.8" fill="#FFFFFF" font-family="'TimesNewRomanPSMT'" font-size="12.288">51</text>
		
			<text transform="matrix(1 0 0 1 64.2319 67.25)" opacity="0.8" fill="#FFFFFF" font-family="'TimesNewRomanPSMT'" font-size="12.288">26</text>
		
			<text transform="matrix(1 0 0 1 49.5298 67.25)" opacity="0.8" fill="#FFFFFF" font-family="'TimesNewRomanPSMT'" font-size="12.288">18</text>
		
			<text transform="matrix(1 0 0 1 95.1758 78.6602)" opacity="0.8" fill="#FFFFFF" font-family="'TimesNewRomanPSMT'" font-size="12.288">51</text>
		
			<text transform="matrix(1 0 0 1 80.2529 78.6602)" opacity="0.8" fill="#FFFFFF" font-family="'TimesNewRomanPSMT'" font-size="12.288">26</text>
		
			<text transform="matrix(1 0 0 1 64.2319 78.6602)" opacity="0.8" fill="#FFFFFF" font-family="'TimesNewRomanPSMT'" font-size="12.288">18</text>
		
			<text transform="matrix(1 0 0 1 49.5298 78.6602)" opacity="0.8" fill="#FFFFFF" font-family="'TimesNewRomanPSMT'" font-size="12.288">01</text>
		
			<text transform="matrix(1 0 0 1 80.2529 91.6055)" opacity="0.8" fill="#FFFFFF" font-family="'TimesNewRomanPSMT'" font-size="12.288">26</text>
		
			<text transform="matrix(1 0 0 1 64.2319 91.6055)" opacity="0.8" fill="#FFFFFF" font-family="'TimesNewRomanPSMT'" font-size="12.288">18</text>
		
			<text transform="matrix(1 0 0 1 49.5298 91.6055)" opacity="0.8" fill="#FFFFFF" font-family="'TimesNewRomanPSMT'" font-size="12.288">01</text>
		
			<text transform="matrix(1 0 0 1 49.5298 104.332)" opacity="0.8" fill="#FFFFFF" font-family="'TimesNewRomanPSMT'" font-size="12.288">03</text>
		<text transform="matrix(1 0 0 1 35.7075 54.3271)" fill="#FFFFFF" font-family="'TimesNewRomanPSMT'" font-size="12.288">2</text>
		<text transform="matrix(1 0 0 1 35.7075 66.8594)" fill="#FFFFFF" font-family="'TimesNewRomanPSMT'" font-size="12.288">3</text>
		<text transform="matrix(1 0 0 1 35.7075 79.3926)" fill="#FFFFFF" font-family="'TimesNewRomanPSMT'" font-size="12.288">4</text>
		<text transform="matrix(1 0 0 1 35.7075 91.9229)" fill="#FFFFFF" font-family="'TimesNewRomanPSMT'" font-size="12.288">5</text>
		<text transform="matrix(1 0 0 1 35.7075 104.4561)" fill="#FFFFFF" font-family="'TimesNewRomanPSMT'" font-size="12.288">6</text>
	</g>
</g>
</svg>
