<?xml version="1.0" encoding="utf-8"?>
<!-- Generator: Adobe Illustrator 16.0.0, SVG Export Plug-In . SVG Version: 6.00 Build 0)  -->
<!DOCTYPE svg PUBLIC "-//W3C//DTD SVG 1.1//EN" "http://www.w3.org/Graphics/SVG/1.1/DTD/svg11.dtd">
<svg version="1.1" id="Layer_1" xmlns="http://www.w3.org/2000/svg" xmlns:xlink="http://www.w3.org/1999/xlink" x="0px" y="0px"
	 width="130px" height="130px" viewBox="0 0 130 130" enable-background="new 0 0 130 130" xml:space="preserve">
<g>
	<circle fill="#2980DE" cx="65" cy="64.999" r="64"/>
	<g>
		<path opacity="0.4" fill-rule="evenodd" clip-rule="evenodd" fill="#FFFFFF" d="M101.657,45.806c0.118-0.204,0.808-0.204,0.927,0
			C102.276,45.806,101.966,45.806,101.657,45.806z"/>
		<path fill-rule="evenodd" clip-rule="evenodd" fill="#FFFFFF" d="M112.179,64.812"/>
		<path fill-rule="evenodd" clip-rule="evenodd" fill="#FFFFFF" d="M40.043,58.313c0.309,0,0.618,0,0.925,0
			C40.851,58.517,40.16,58.517,40.043,58.313z"/>
		<path opacity="0.4" fill-rule="evenodd" clip-rule="evenodd" fill="#FFFFFF" d="M25.902,59.172c0.256-0.204,1.092-0.204,1.348,0
			C26.799,59.172,26.351,59.172,25.902,59.172z"/>
		<path fill-rule="evenodd" clip-rule="evenodd" fill="#FFFFFF" d="M97.113,59.417c0.143-0.281,0.641-0.045,0.926-0.123
			C97.895,59.575,97.396,59.339,97.113,59.417z"/>
		<path fill-rule="evenodd" clip-rule="evenodd" fill="#FFFFFF" d="M37.181,60.03c0.255-0.284,0.868-0.043,1.262-0.122
			C38.189,60.19,37.576,59.951,37.181,60.03z"/>
		<path fill-rule="evenodd" clip-rule="evenodd" fill="#FFFFFF" d="M40.21,60.03c0.173-0.282,0.699-0.044,1.012-0.122
			C41.051,60.189,40.523,59.952,40.21,60.03z"/>
		<path fill-rule="evenodd" clip-rule="evenodd" fill="#FFFFFF" d="M103.34,60.153c0-0.042,0-0.083,0-0.123
			c-0.237-0.101-0.217,0.173-0.42,0.123c-1.173-0.244,1.011-0.494,0.757,0C103.565,60.153,103.452,60.153,103.34,60.153z"/>
		<path fill-rule="evenodd" clip-rule="evenodd" fill="#FFFFFF" d="M38.612,60.153c0.338-0.285,1.037-0.042,1.514-0.123
			C39.789,60.314,39.09,60.072,38.612,60.153z"/>
		<path opacity="0.4" fill-rule="evenodd" clip-rule="evenodd" fill="#FFFFFF" d="M61.59,60.765c0.2-0.202,0.98-0.202,1.179,0
			C62.378,60.765,61.985,60.765,61.59,60.765z"/>
		<path fill-rule="evenodd" clip-rule="evenodd" fill="#FFFFFF" d="M61.423,60.765c0.056,0,0.112,0,0.167,0c0.395,0,0.788,0,1.179,0
			c0.056,0,0.111,0,0.169,0C62.626,60.97,61.734,60.97,61.423,60.765z"/>
		<path opacity="0.4" fill-rule="evenodd" clip-rule="evenodd" fill="#FFFFFF" d="M110.074,63.096
			c-0.236-0.274-0.706-0.849-0.588-1.227C109.725,62.215,109.93,62.612,110.074,63.096z"/>
		<path fill-rule="evenodd" clip-rule="evenodd" fill="#FFFFFF" d="M77.164,67.756c0.477-0.204,1.541-0.204,2.02,0
			C78.511,67.756,77.835,67.756,77.164,67.756z"/>
		<path fill-rule="evenodd" clip-rule="evenodd" fill="#FFFFFF" d="M65.798,72.293c0.173-0.282,0.701-0.044,1.012-0.123
			C66.639,72.451,66.11,72.214,65.798,72.293z"/>
		<path opacity="0.4" fill-rule="evenodd" clip-rule="evenodd" fill="#FFFFFF" d="M110.664,65.794
			c0.138,0.455-0.819,1.029-1.011,1.594c-0.031,0.094,0.16,1.063-0.167,0.368c-0.37,0.318,0.109,0.278,0,0.49
			c-0.132,0.254-0.475,0.012-0.085,0.245c-0.806,1.937-1.643,4.942-2.609,7.972c-1.051,3.288-2.153,8.4-5.219,7.969
			c-1.485-0.207-2.508-1.548-4.04-1.961c2.191,0.125,4.853,1.211,6.397-0.735c1.772-2.236,2.658-6.716,3.954-9.811
			c-1.683,2.812-2.258,8.603-5.301,9.075c-1.775,0.274-3.176-1.348-4.63-1.595c-2.378-0.405-4.598,1.745-6.566,2.942
			c0.205-0.455-0.651,0.226-0.757,0.492c-1.57,1.187-2.843,2.807-4.042,4.537c0.231-0.523,0.613-0.826,0.843-1.351
			c-0.344,0.399-0.652,0.849-0.924,1.351c-0.76,1.184-1.584,2.27-2.779,2.819c-0.029-0.356-0.875,0.075-1.179,0.124
			c-2.784-1.337-3.889-5.125-5.558-8.095c0.501,1.519,1.49,3.874,2.527,6.254c0.877,2.011,1.951,4.845,3.367,5.15
			c1.141,0.246,2.079-0.901,2.946-1.962c-0.104,0.258-0.243,0.461-0.419,0.613c0.891-0.745,1.856-2.442,2.691-3.68
			c-0.779,0.951-1.411,2.115-2.188,3.066c0.88-1.375,1.768-2.737,2.778-3.923c-0.104,0.255-0.244,0.461-0.42,0.613
			c0.183,0.016,0.637-0.623,0.839-0.981c2.056-1.955,4.414-3.465,7.072-4.537c-3.133,2.138-6.843,5.631-9.428,9.318
			c-1.089,1.553-2.95,4.6-4.796,2.576c-1.042-1.141-1.864-3.193-2.611-5.028c-0.747-1.837-1.523-3.749-2.272-5.519
			c-1.669-3.946-3.761-6.72-5.473-9.688c-1.287-0.575-2.056-2.017-3.282-1.962c-1.113,0.049-2.336,2.305-3.282,4.046
			c-1.192,2.198-2.149,4.431-3.452,5.887c-1.319,1.476-3.537,3.763-5.218,4.047c-3.414,0.578-4.311-4.854-5.554-8.462
			c-0.717-2.077-2.455-7.833-4.209-5.886c-1.502,1.669-2.223,5.966-3.115,9.319c-0.415,1.559-0.963,3.351-1.43,4.784
			c-0.743,2.274-1.782,5.426-3.537,3.063c-0.949-1.279-1.575-3.695-2.355-5.149c0.186-0.312,0.021-0.414-0.338-0.859
			c0.125-0.231-0.16-0.813-0.336-1.226c-0.702-1.647-1.829-3.885-2.945-4.904c-0.066-0.06-0.162,0.101-0.253,0
			c-0.139-0.153,0.11-0.24-0.504-0.246c-1.762-0.012-3.414,1.341-5.136,0.981c-1.951-0.406-3.418-3.353-4.713-5.396
			c-1.353-2.137-2.608-4.051-4.629-5.396c0-0.573,0-1.145,0-1.716c3.848-0.569,5.022-5.03,8.418-6.255
			c0.817,0.078,1.533,0.55,2.188,0.122c0.12-0.01,0.238-0.02,0.253,0.123c-0.199-0.002-0.249,0.211-0.505,0.123
			c2.443,1.648,4.61,3.289,6.566,6.621c0.825,1.407,1.542,3.056,2.356,4.661c0.849,1.674,2.538,5.289,4.376,4.169
			c2.152-1.312,3.182-5.626,5.05-7.48c0.246,0.068-0.129,0.191-0.084,0.367c2.771-3.878,5.034,4.234,7.744,4.783
			c2.208,0.446,3.795-3.323,5.051-5.273c0.884-1.372,1.666-2.743,3.113-3.311c0.316-0.125,0.646-0.35,1.01-0.123
			c0.077-0.788,4.57-0.148,5.39,0.245c0.276,0.134,0.527,0.463,0.589,0.613c-0.011-0.495-0.667-0.825-1.011-0.981
			c-0.155-0.43-0.544-0.512-0.674-0.981c-0.525-0.869-1.087-1.686-1.684-2.453c-1.39-1.325-2.293-4.501-4.461-4.536
			c-2.793-0.046-4.473,4.949-7.407,5.272c-1.933,0.213-3.895-1.505-6.145-1.104c-3.018,0.54-4.293,4.906-6.986,5.151
			c-1.571,0.142-2.873-1.387-3.958-2.575c-1-1.098-2.045-2.276-3.197-3.188c0.186-0.241,0.849,0.285,1.01-0.245
			c1.927-0.257,3.709-0.729,5.724-0.858c0.117,0.203,0.808,0.203,0.925,0c1.825,0.23,4.003,1.111,5.809,0.246
			c-2.397-2.026-3.408-6.073-5.303-8.83c1.953,2.061,2.764,6.846,5.303,8.461c0.265-0.059,0.191,0.377,0.504,0.245
			c0.006-0.189,0.175-0.352,0.421-0.491c0.328,0.068,0.869-0.615,1.096-1.104c-0.173,0.037-0.165,0.332-0.337,0.369
			c0.169-0.448,0.499-0.664,0.758-0.982c2.378-3.89,3.771-10.21,8.586-10.299c0.98-0.019,1.845,0.515,2.608,0.612
			c0.343,0.22,0.345,0.461,0.506,0.736c-0.315-0.043-0.982,0.032-0.843,0.245c0.346-0.135,0.741-0.191,1.012-0.123
			c1.124,0.285,1.129,1.588,1.766,1.717c-0.051,0.426-0.352-0.688-0.334,0c0.975,1.357,1.754,3.002,2.608,4.538
			c-0.148-0.232-0.26,0.167-0.336-0.247c0.855,1.938,1.777,5.13,3.452,7.236c1.896,2.391,5.354,6.08,7.321,1.839
			c0.507-0.861,1.312-2.577,1.178-3.556c1.95-7.464,2.853-16.447,5.304-23.177c-1.895,3.419-2.776,8.835-4.21,13.857
			c-1.348,4.729-3.367,10.957-7.827,10.301c-0.875-0.129-1.891-0.653-2.44-1.349c-0.159-0.198-0.51-0.621-0.336-0.859
			c1.728,3.514,5.745,1.848,7.49-0.612c3.502-4.941,4.426-16.725,7.241-21.583c0.315-0.426,1.726-1.67,2.523-0.245
			c0.542,1.01,1.529,2.024,1.683,3.188c1.202,1.682,2.021,4.576,3.45,6.376c1.007,1.268,2.208,2.326,3.452,3.433
			c1.173,1.046,2.587,2.353,3.955,2.576c2.759,0.447,5.034-3.204,7.241-0.613c2.291,2.691,3.175,8.259,5.134,11.404
			c0.052,0.006,0.101,0.019,0.085,0.122c-0.675-0.573-0.963-1.753-1.35-2.697c-1.089-2.674-2.296-6.925-4.039-8.829
			c-2.316-2.535-4.128,1.29-7.154,0.735c-1.418-0.259-2.82-1.567-4.039-2.698c-2.674-2.475-4.916-5.104-6.483-9.197
			c1.524,4.806,3.71,8.527,6.483,11.527c1.325,1.437,2.871,3.055,4.545,3.923c1.799,0.934,3.852,0.619,5.891,1.839
			c-0.023,0.167-0.211,0.103-0.338,0.123c0.153,0.155,0.784,0.242,0.844,0.123c2.541,1.857,4.122,5.112,6.566,7.112
			c0.443,0.359,0.012-0.032,0,0.369c0.645,0.364,1.205,0.489,1.767,0.735 M112.684,65.181 M89.959,47.154
			c0.072-0.357-0.539-0.766-0.676-1.225C89.211,46.286,89.823,46.694,89.959,47.154z M59.655,46.418
			c-4.944-1.516-7.4,3.248-8.837,7.236C52.879,49.954,55.487,47.05,59.655,46.418z M84.318,38.57c0.089,0.178,0.2,0.417,0.336,0.613
			c0.964,1.406-0.563-1.271-0.926-1.227c-0.117-0.009-0.321,0.028-0.168,0.123C83.906,38.109,84.004,38.497,84.318,38.57z
			 M86.002,41.637c-0.144-0.633-0.796-1.759-0.842-1.718C85.401,40.404,85.973,41.652,86.002,41.637z M81.203,41.39
			c0.016-0.511,0.459-1.041,0.336-1.349C81.471,40.476,81.041,41.025,81.203,41.39z M80.109,44.824
			c-0.373,1.77,0.228,0.079,0.083-0.123C80.188,44.777,80.182,44.848,80.109,44.824z M89.283,49.238
			c-0.503-0.949-1.271-2.798-1.514-3.31C88.108,47.115,88.963,48.838,89.283,49.238z M96.522,64.077
			c2.739,0.383,3.946-2.501,5.892-3.68c-1.983,0.821-3.556,2.731-5.471,2.331c-1.732-0.362-3.106-2.331-4.462-4.047
			c-2.307-2.921-3.964-5.18-5.808-8.583c-0.795-1.47-2.041-3.821-3.281-3.802c-1.127,0.017-1.886,2.255-2.359,3.678
			c-1.457,4.412-2.486,9.056-3.702,13.367c-0.049,0.175-0.303,0.721-0.084,0.858c-0.134,0.743,1.148-2.877,0.675-2.084
			c1.406-4.121,2.3-8.994,4.46-12.017c-0.172,0.442-0.499,0.661-0.673,1.103c0.246-0.28,0.89-1.198,0.841-1.103
			c-0.028,0-0.056,0-0.084,0c0.058-0.243,0.223-0.328,0.421-0.369c-0.398,0.394,0.432,0.068,0.674,0.123
			c1.763,0.401,2.967,3.738,4.124,5.764c1.25,2.188,2.714,3.387,3.871,5.028c-2.359-1.712-4.294,1.164-5.639,2.82
			c0.385-0.757-0.694,0.587-0.842,0.981c-1.349,1.998-3.279,3.153-5.892,3.312c-0.479-0.204-1.543-0.204-2.02,0
			c-0.285-0.079-0.783,0.157-0.926-0.123c0.703-0.289-0.423,0.069-0.506-0.245c-0.029-0.112,1.489-2.037,1.009-1.84
			c-0.116,0.307-0.238,0.291-0.337,0.368c0.067,0.027,0.099,0.104,0.085,0.245c-0.327,0.249-0.527,0.77-1.093,1.595
			c-1.39,1.915-3.779,0.111-4.714-1.227c-0.217-0.383-0.544-0.6-0.845-0.858c-0.213-0.134,0.386,0.443,0.506,0.613
			c-0.124,0.021-0.309-0.044-0.336,0.122c-0.321-0.185-0.802-0.137-1.094-0.367c0.047,0,0.096-0.1,0-0.123
			c-0.369,0.14-0.276-0.001-0.59-0.122c-1.153,0.05,0.071,0.048,0.337,0.367c0.02-0.096,0.07-0.142,0.17-0.122
			c1.455,1.212,2.595,2.678,3.956,4.414c1.177,1.508,2.48,3.083,3.366,4.659c1.045,1.867,1.943,4.32,2.86,6.377
			c0.801,1.789,1.969,5.34,3.704,5.273c1.571-0.059,3.07-4.037,3.871-5.885c0.998-2.304,1.971-5.419,3.703-6.255
			c1.962-0.945,4.619,1.341,6.146-0.123c0.011,0.349-0.614,0.402-0.339,0.735c0.113-0.409,0.494-0.427,0.59-0.858
			c1.467-1.533,2.458-4.13,3.62-6.744c1.41-3.169,2.854-7.152,6.062-6.377c-0.901-0.361-1.547-1.099-2.694-1.103
			c0.254-0.494-1.93-0.244-0.757,0c0.203,0.05,0.183-0.224,0.42-0.123c0,0.04,0,0.082,0,0.123c-2.596,0.835-3.685,4.523-6.901,4.046
			C96.489,64.192,96.538,64.181,96.522,64.077z M58.729,48.626c0.063-0.065,0.449-0.462,0.42-0.491
			C58.637,48.474,58.153,49.218,58.729,48.626z M78.848,50.588c0.101,0.073,0.51-1.668,0.336-1.595
			C79.099,49.566,78.931,50.015,78.848,50.588z M55.699,52.795c0.706-1.385,2.009-2.551,2.525-3.802
			C57.486,50.329,56.197,51.517,55.699,52.795z M91.388,52.549c-0.561-0.945-1.552-2.555-1.935-2.942
			C90.052,50.497,91.006,52.16,91.388,52.549z M89.536,53.163c-0.246-0.479-0.972-1.499-1.009-1.472
			C88.773,52.169,89.5,53.189,89.536,53.163z M77.835,55.37c0.148-0.74,0.637-2.241,0.508-2.574
			C78.234,53.595,77.733,55.079,77.835,55.37z M95.43,58.19c-1.047-1.13-2.153-2.7-3.031-4.046
			c-0.291-0.445-0.649-1.271-0.843-1.104C92.76,54.723,94.259,57.277,95.43,58.19z M53.174,54.88
			c-0.37,0.266-1.043,0.599-0.927,0.858c0.599-0.607,1.961-1.385,2.189-1.716C54.082,54.167,53.599,54.574,53.174,54.88z
			 M96.858,59.172c-0.096-0.089-0.59-0.412-0.588-0.245C96.545,59.17,97.131,59.419,96.858,59.172z M98.039,59.294
			c-0.285,0.078-0.783-0.158-0.926,0.123C97.396,59.339,97.895,59.575,98.039,59.294z M35.413,59.54
			c-0.445,0.152-0.861-0.376-1.177,0C34.619,59.433,35.409,59.893,35.413,59.54z M38.443,59.908
			c-0.394,0.079-1.007-0.162-1.262,0.122C37.576,59.951,38.189,60.19,38.443,59.908z M41.222,59.908
			c-0.313,0.078-0.838-0.16-1.012,0.122C40.523,59.952,41.051,60.189,41.222,59.908z M40.126,60.03
			c-0.478,0.081-1.176-0.162-1.514,0.123C39.09,60.072,39.789,60.314,40.126,60.03z M22.367,62.238
			c0.477-0.38,0.491-0.34,0.757-0.123c-0.046-0.001-0.096,0.1,0,0.123c0.149-0.329,0.328-0.117,0.168-0.491
			c-0.017,0.138-0.093,0.191-0.168,0.246c-0.211-0.215-0.058-0.203-0.167-0.491c-0.091-0.006-0.213,0.057-0.085,0.123
			C23.046,61.767,22.168,62.059,22.367,62.238z M30.194,63.341c0.021-0.23,0.139,0.07,0.169-0.123c-0.253-0.036-0.156-0.515,0-0.613
			c-0.005,0.13,0.04,0.31,0.084,0.122c-0.018-0.137-0.093-0.19-0.169-0.245C30.134,62.787,30.078,63.212,30.194,63.341z
			 M30.953,63.954c0.056,0,0.113,0,0.168,0c0-0.123,0.068-0.146,0.083-0.246c-0.286,0.091-0.139-0.451-0.336-0.49
			c0.081,0.229-0.252,0.41,0,0.49c0.017-0.094,0.002-0.242,0.084-0.245C30.945,63.799,31.092,63.71,30.953,63.954z M41.222,79.65
			c-2.005,2.056-3.504-2.166-4.546-4.538c-0.931-2.113-1.791-4.469-2.778-6.13c-1.709-2.883-5.114-5.029-8.585-4.661
			c-2.167,0.23-3.436,1.822-5.639,2.454c1.656,0.067,2.633-0.036,4.125,0.121c3.563,0.38,8.287,3.452,10.183,6.992
			c0.943,1.758,1.647,3.991,2.61,6.252c0.636,1.492,1.951,5.215,3.535,4.905c0.825-0.161,1.485-1.931,1.937-3.066
			c1.569-3.951,2.411-8.367,4.293-11.404c0-0.04,0-0.08,0-0.122c0.156,0.116,0.281-0.366,0.335,0
			c-1.097,1.409,0.264-0.338,0.675-0.367c-0.624,0.059-0.779,0.048-1.093,0.489c-1.684,2.046-2.58,5.239-4.042,7.604
			C41.86,78.619,41.524,79.109,41.222,79.65z M43.829,73.889c0-0.07-0.068-0.141-0.082,0c0.203,0.235,0.371-0.322,0.503-0.247
			c-0.243-0.068,0.13-0.191,0.084-0.368c-0.075-0.067-0.369-0.369-0.168-0.122c0,0.123,0.068,0.146,0.083,0.245
			C44.056,73.479,44.025,73.804,43.829,73.889z M42.736,76.831c0.081-0.146,0.446-0.846,0.421-0.982
			c-0.183-0.973-0.183,1.023-0.335,0.246C42.773,76.425,42.744,76.678,42.736,76.831z M42.063,77.812c0,0.068,0.068,0.138,0.084,0
			c-0.158-0.031,0.048-0.202-0.084-0.246c-0.313,0.577-0.505,1.153,0,0.613C41.953,78.178,41.956,77.839,42.063,77.812z
			 M38.864,79.037c0.026-0.287,0.26-0.273,0.337-0.49c-0.486,0.006,0.325-0.259,0-0.368c-0.006,0.075-0.014,0.145-0.086,0.123
			c-0.018-0.095-0.002-0.242-0.083-0.246c-0.068,1.33-0.163,0.095-0.589,0.123c0.046,0,0.096-0.1,0-0.123
			c-0.019,0.229-0.139-0.068-0.168,0.123c0.217,0.012,0.121,0.479,0.337,0.491c0.013-0.145-0.016-0.349,0.084-0.368
			c0.094,0.284-0.019,0.328,0.168,0.612C38.818,78.914,38.769,79.014,38.864,79.037z M31.794,66.161
			c-0.051-0.007-0.099-0.018-0.084-0.122c0.067-0.028,0.166-0.003,0.168-0.123c-0.095-0.027-0.13-0.136-0.168-0.245
			c0.152-0.141-0.237,0.075-0.169-0.244c-0.017,0.146-0.093,0.074-0.167,0c0.033,0.21-0.124,0.313,0,0.367
			c0.004-0.075,0.013-0.146,0.085-0.123c0.074,0.035,0.428,0.245,0.168,0.368c0-0.068-0.07-0.139-0.086,0
			C31.662,65.974,31.748,66.517,31.794,66.161z M31.626,64.689c0.475,0.009,0.178,0.599,0.252,0.492
			c0.119-0.03,0.142-0.202,0.252-0.245c-0.256,0.212,0.229,0.472,0,0.245c0-0.124,0.069-0.146,0.085-0.245
			c-0.126-0.144-0.346-0.152-0.422-0.369c0.047,0.001,0.096-0.099,0-0.123C31.792,64.607,31.648,64.557,31.626,64.689z
			 M30.194,64.936c-0.065-0.028-0.166-0.004-0.167-0.124c0.118,0.01,0.32-0.027,0.167-0.123c-0.243,0.267-0.484-0.222-0.589,0.247
			C29.852,64.618,30.019,65.253,30.194,64.936z M104.434,64.689c-0.95,0.609-0.971,0.68,0.17,0.123
			c0.063-0.027,0.167-0.002,0.167-0.123C104.661,64.689,104.548,64.689,104.434,64.689z M32.385,66.039
			c-0.193,0.278-0.492-0.259-0.338,0c0.162,0.253,0.265,0.595,0.421,0.857c-0.033-0.21,0.124-0.314,0-0.367
			c-0.004,0.075-0.012,0.145-0.083,0.123c0.059-0.335-0.168-0.247-0.168-0.491c0.224-0.182,0.403,0.139,0.251-0.245
			c0.153-0.035,0.538,0.394,0.336,0.123c-0.001-0.163-0.146-0.113-0.168-0.245c0.05-0.007,0.098-0.018,0.083-0.123
			C32.486,65.906,32.226,65.712,32.385,66.039z M18.831,66.896c0.21-0.158,0.35,0.36,0.42,0c-0.516-0.212,0.444,0.039,0.086-0.121
			C19.289,66.519,18.791,66.621,18.831,66.896z M63.862,69.595c-0.262,0.004,0.572,0.423,0.338,0
			c-0.268,0.322-0.064-0.164,0.084-0.245c-0.265-0.138-0.223,0.036-0.422-0.122C63.829,69.402,63.761,69.434,63.862,69.595z
			 M63.78,70.453c-0.166,0.06-0.433-0.422-0.253-0.123c0.258,0.17-0.341,0.728-0.084,0.492c0.126-0.185,0.355-0.22,0.419-0.492
			c-0.156-0.027,0.05-0.2-0.082-0.244C63.747,70.261,63.678,70.292,63.78,70.453z M48.376,70.944
			c0.256,0.583,0.835,1.291,0.841,1.84c0.122,0.271,0.205-0.154,0.252,0.121c0.009,0.139-0.122,0.191,0,0.246
			C49.732,72.586,48.436,71.028,48.376,70.944z M62.938,71.312c0.094,0.025,0.132,0.135,0.168,0.245
			c-0.047-0.001-0.097,0.099,0,0.123c0.203-0.245,0.144-0.9,0.084-0.736C63.276,71.293,62.84,71.185,62.938,71.312z M66.81,72.17
			c-0.311,0.079-0.838-0.159-1.012,0.123C66.11,72.214,66.639,72.451,66.81,72.17z M62.011,73.765
			c-0.051-0.007-0.098-0.018-0.083-0.123c0.259-0.276,0.484-0.603,0.673-0.98c0.086-0.257-0.395,0.6-0.59,0.735
			c-0.306,0.739-1.252,1.199-1.346,1.839C61.054,74.698,61.679,73.992,62.011,73.765z M54.099,81.121
			c-1.465-1.094-2.225-3.216-3.197-5.026c0.309,1.246,0.814,2.217,1.345,3.434c0.428,0.979,0.996,2.55,1.685,2.942
			c2.444,1.391,4.64-4.762,5.723-5.887C57.987,78.365,57.069,81.239,54.099,81.121z M55.446,75.849
			c-0.301-0.312,0.461-0.021,0.169-0.122c-0.283-0.048,0.264-0.696,0-0.368C55.313,75.295,55.188,76.117,55.446,75.849z
			 M53.174,75.849c-0.57,0.282,0.125,0.11,0.169,0c-0.192-0.135-0.618-0.562-0.758-0.368C52.667,75.768,53.042,75.631,53.174,75.849
			z M74.807,76.831c-0.286,0.241-0.083,0.241,0.085,0c0.145,0.209-0.125,0.481,0.251,0.49c0.044-0.383-0.55-0.898-0.421-0.614
			C74.772,76.713,74.821,76.726,74.807,76.831z M41.389,77.688c0.114-0.017,0.314,0.413,0.337,0.124
			c0.02-0.122,0.095-0.474,0.337-0.369c0.097-0.048,0.097-0.596,0-0.244c-0.024,0.29-0.224-0.142-0.337-0.123
			C41.71,77.42,41.453,77.41,41.389,77.688z M92.904,77.688c0.062,0.029,0.165,0.005,0.167,0.124c-0.192,0.168-0.315-0.316-0.337,0
			c0.157,0.029-0.049,0.203,0.085,0.244c0.023-0.19,0.185-0.084,0.252,0c0.107-0.307-0.042-0.384,0.084-0.49
			c0.121-0.065,0.206,0.479,0.255,0.122c-0.066-0.025-0.101-0.102-0.087-0.245C93.114,77.425,92.977,77.506,92.904,77.688z
			 M75.898,80.141c0.008,0.129,0.11,0.097,0.085-0.123c-0.357-0.516-0.905-1.35-1.009-1.839c-0.204,0.083-0.371-0.389-0.505-0.245
			C75.011,78.577,75.477,79.326,75.898,80.141z M91.639,79.528c0.177-0.229,0.319-0.318,0.422-0.368
			c-0.044-0.17,0.24-0.363-0.167-0.367C92.138,78.932,91.384,79.76,91.639,79.528z M89.959,80.878
			c-0.179-0.036,0.121-0.329-0.087-0.492c0.066-0.026,0.167-0.003,0.169-0.122C89.575,80.161,89.738,81.182,89.959,80.878z
			 M88.021,84.188c0.249-0.288,1.545-2.143,1.178-1.717c-0.283,0.33-0.405,0.578-0.757,1.104
			C88.084,84.108,87.795,84.453,88.021,84.188z M87.77,84.064c1.228-1.528-0.045-0.492,0,0.247
			c-0.298-0.067-0.206,0.433-0.508,0.367c0-0.069-0.066-0.14-0.082,0c0.111-0.019,0.312,0.412,0.337,0.122
			C87.253,84.538,88.077,84.419,87.77,84.064z M77.752,82.471c-0.297,0.068,0.296,0.37,0,0.122c0.47,0.174,0.49,0.337,0-0.367
			c0.047,0,0.096-0.1,0-0.123C77.585,82.355,77.585,82.218,77.752,82.471z M80.698,87.745c-0.074,0.033-0.368,0.331-0.168,0.367
			c-0.023-0.336,0.396,0.373,0.168,0c-0.17-0.251,0.038-0.241,0.084-0.491c-0.176-0.111-0.374-0.19-0.505-0.367
			c-0.019,0.095-0.002,0.241-0.085,0.244c-0.02-0.188-0.138-0.018-0.167,0.123c0.14,0.065,0.43,0.215,0.252-0.123
			c0.056,0,0.11,0,0.167,0C80.373,88.07,80.664,87.331,80.698,87.745z M80.782,87.989c0.168,0.036,0.168-0.166,0.251-0.244
			c-0.262,0.682,1.17,0.758,0.17,0.489c0.179-0.257-0.11-0.461-0.253-0.613C80.93,87.797,80.812,87.827,80.782,87.989z"/>
		<path opacity="0.4" fill-rule="evenodd" clip-rule="evenodd" fill="#FFFFFF" d="M86.508,37.466
			c0.595,0.769,1.155,1.584,1.681,2.453C87.594,39.153,87.032,38.335,86.508,37.466z"/>
		<path opacity="0.4" fill-rule="evenodd" clip-rule="evenodd" fill="#FFFFFF" d="M22.787,56.228
			c0.358-0.624,0.751-1.194,1.179-1.717C23.609,55.136,23.216,55.708,22.787,56.228z"/>
		<path opacity="0.4" fill-rule="evenodd" clip-rule="evenodd" fill="#FFFFFF" d="M20.431,59.908c0.245-0.46,0.525-0.87,0.841-1.227
			C21.027,59.142,20.746,59.55,20.431,59.908z"/>
		<path fill-rule="evenodd" clip-rule="evenodd" fill="#FFFFFF" d="M84.486,35.259c0.773,0.59,1.368,1.441,2.021,2.207
			c0.524,0.87,1.086,1.687,1.681,2.453c1.104,1.407,2.647,2.891,4.21,4.416c1.415,1.38,3.258,3.254,4.966,3.312
			c1.705,0.056,2.609-1.517,4.293-1.839c0.309,0,0.619,0,0.927,0c2.231,0.835,3.112,4.753,4.039,7.602
			c0.979,3.012,1.83,5.869,2.778,8.217c-1.959-3.146-2.843-8.713-5.134-11.404c-2.207-2.591-4.482,1.06-7.241,0.613
			c-1.368-0.223-2.782-1.53-3.955-2.576c-1.244-1.107-2.445-2.165-3.452-3.433c-1.429-1.801-2.248-4.694-3.45-6.376
			C86.016,37.283,85.028,36.269,84.486,35.259z"/>
		<path fill-rule="evenodd" clip-rule="evenodd" fill="#FFFFFF" d="M103.34,56.351c-2.039-1.22-4.092-0.905-5.891-1.839
			c-1.674-0.869-3.22-2.487-4.545-3.923c-2.773-3-4.959-6.721-6.483-11.527c1.567,4.093,3.81,6.722,6.483,9.197
			c1.219,1.13,2.621,2.438,4.039,2.698c3.026,0.555,4.838-3.27,7.154-0.735c1.743,1.904,2.95,6.155,4.039,8.829
			c0.387,0.944,0.675,2.124,1.35,2.697c0,0.042,0,0.082,0,0.123c-0.118,0.378,0.352,0.953,0.588,1.227
			c0.058,0.284,0.28,0.328,0.338,0.612c-2.444-2-4.025-5.255-6.566-7.112C103.671,56.526,103.605,56.293,103.34,56.351z"/>
		<path fill-rule="evenodd" clip-rule="evenodd" fill="#FFFFFF" d="M89.283,45.929c0.137,0.459,0.748,0.868,0.676,1.225
			C89.823,46.694,89.211,46.286,89.283,45.929z"/>
		<path fill-rule="evenodd" clip-rule="evenodd" fill="#FFFFFF" d="M103.34,56.351c0.266-0.058,0.331,0.176,0.506,0.246
			c-0.06,0.119-0.69,0.032-0.844-0.123C103.129,56.453,103.316,56.517,103.34,56.351z"/>
		<path fill-rule="evenodd" clip-rule="evenodd" fill="#FFFFFF" d="M112.684,65.181"/>
		<path fill-rule="evenodd" clip-rule="evenodd" fill="#FFFFFF" d="M91.388,82.348c1.969-1.197,4.188-3.348,6.566-2.942
			c1.454,0.247,2.854,1.869,4.63,1.595c3.043-0.473,3.618-6.263,5.301-9.075c-1.296,3.095-2.182,7.574-3.954,9.811
			c-1.545,1.946-4.206,0.86-6.397,0.735c-0.59-0.08-0.938,0.189-1.347,0.369c-2.658,1.072-5.017,2.582-7.072,4.537
			c-0.262-0.06-0.222,0.329-0.419,0.368c-1.011,1.186-1.898,2.548-2.778,3.923c-0.029,0-0.055,0-0.084,0
			c-0.867,1.061-1.806,2.208-2.946,1.962c-1.416-0.306-2.49-3.14-3.367-5.15c-1.037-2.38-2.026-4.735-2.527-6.254
			c1.669,2.97,2.773,6.758,5.558,8.095c0.386-0.054,0.928,0.122,1.179-0.124c1.195-0.55,2.02-1.636,2.779-2.819
			c0.025,0,0.056,0,0.081,0c1.199-1.73,2.472-3.351,4.042-4.537C90.942,82.763,91.123,82.494,91.388,82.348z"/>
		<path fill-rule="evenodd" clip-rule="evenodd" fill="#FFFFFF" d="M90.631,82.84c0.105-0.267,0.962-0.947,0.757-0.492
			C91.123,82.494,90.942,82.763,90.631,82.84z"/>
		<path fill-rule="evenodd" clip-rule="evenodd" fill="#FFFFFF" d="M86.508,87.377c0.271-0.502,0.58-0.951,0.924-1.351
			c-0.229,0.524-0.611,0.827-0.843,1.351C86.563,87.377,86.533,87.377,86.508,87.377z"/>
		<path fill-rule="evenodd" clip-rule="evenodd" fill="#FFFFFF" d="M85.917,91.668c0.777-0.951,1.409-2.115,2.188-3.066
			c-0.835,1.237-1.801,2.935-2.691,3.68c0.176-0.152,0.314-0.355,0.419-0.613C85.862,91.668,85.888,91.668,85.917,91.668z"/>
		<path fill-rule="evenodd" clip-rule="evenodd" fill="#FFFFFF" d="M89.114,87.377c-0.202,0.358-0.656,0.997-0.839,0.981
			c0.176-0.152,0.315-0.358,0.42-0.613C88.893,87.706,88.853,87.317,89.114,87.377z"/>
		<path fill-rule="evenodd" clip-rule="evenodd" fill="#FFFFFF" d="M67.82,63.831c0.344,0.156,1,0.486,1.011,0.981
			c-0.062-0.149-0.312-0.479-0.589-0.613c-0.819-0.394-5.312-1.033-5.39-0.245c-0.363-0.227-0.693-0.002-1.01,0.123
			c-1.447,0.568-2.229,1.938-3.113,3.311c-1.256,1.95-2.844,5.72-5.051,5.273c-2.71-0.549-4.973-8.661-7.744-4.783
			c-0.045-0.176,0.33-0.299,0.084-0.367c-1.869,1.854-2.898,6.168-5.05,7.48c-1.839,1.12-3.528-2.495-4.376-4.169
			c-0.813-1.605-1.531-3.254-2.356-4.661c-1.956-3.333-4.124-4.973-6.566-6.621c0.256,0.088,0.307-0.125,0.505-0.123
			c0.027,0,0.056,0,0.085,0c-0.02,0.176-0.251,0.043-0.254,0.246c4.441,2.51,6.301,6.338,8.923,11.404
			c0.77,1.489,2.052,4.117,3.281,4.046c2.676-0.151,4.08-7.23,6.481-8.337c2.984-1.377,4.673,6.256,7.661,5.763
			c1.525-0.252,2.844-2.922,3.787-4.415c1.207-1.903,2.266-3.489,3.704-4.415c1.884-0.574,3.251-0.164,5.725,0
			C67.705,63.675,67.712,63.824,67.82,63.831z"/>
		<path fill-rule="evenodd" clip-rule="evenodd" fill="#FFFFFF" d="M33.31,59.417c1.152,0.912,2.197,2.09,3.197,3.188
			c1.085,1.188,2.386,2.717,3.958,2.575c2.693-0.245,3.968-4.611,6.986-5.151c2.25-0.402,4.212,1.316,6.145,1.104
			c2.934-0.323,4.613-5.318,7.407-5.272c2.167,0.035,3.071,3.211,4.461,4.536c0.017,0.1,0.086,0.123,0.086,0.247
			c0.441,0.746,0.919,1.44,1.429,2.084c0.069,0.023,0.084,0.123,0.169,0.123c0.13,0.469,0.519,0.551,0.674,0.981
			c-0.108-0.007-0.115-0.156-0.253-0.123c-1.474-1.083-2.79-2.391-4.629-2.944c-0.058,0-0.113,0-0.169,0
			c-0.199-0.202-0.979-0.202-1.179,0c-0.055,0-0.111,0-0.167,0c-0.393,0.166-0.79,0.322-1.012,0.737
			c-1.295,1.137-2.171,2.886-3.113,4.537c-0.428,0.521-0.821,1.093-1.178,1.717c-0.07,0.023-0.085,0.122-0.168,0.122
			c-0.313,0.445-0.725,0.742-1.096,1.104c-0.385,0.009-0.571,0.312-1.01,0.245c-0.448-0.208-0.901-0.403-1.262-0.736
			c-0.167-0.001-0.107-0.334-0.338-0.245c-0.121-0.354-0.404-0.474-0.587-0.735c-0.51-0.526-0.87-1.27-1.432-1.717
			c-0.305-0.619-0.755-1.025-1.178-1.472c-0.167-0.001-0.108-0.334-0.337-0.245c-0.362-0.666-1.61-1.042-2.272-0.491
			c-0.68,0.278-1.104,0.928-1.6,1.472c-0.483,0.602-0.933,1.257-1.347,1.962c-0.075,0.054-0.151,0.106-0.167,0.244
			c-0.072-0.022-0.08,0.047-0.084,0.123c-0.792,0.81-1.391,1.898-2.358,2.451c-1.052,0.438-2.003-0.242-2.609-0.856
			c-0.664-0.586-1.125-1.47-1.768-2.086c-0.526-0.868-1.086-1.686-1.683-2.452c-0.315-0.196-0.374-0.762-0.756-0.858
			c-0.049-0.177-0.132-0.298-0.255-0.368c-0.209-0.141-0.28-0.488-0.589-0.491c-0.067-0.311-0.345-0.313-0.504-0.49
			c-0.321-0.188-0.559-0.494-0.925-0.613c-0.3-0.382-0.673-0.655-1.096-0.86c-0.21-0.101-0.329-0.335-0.588-0.368
			c-0.522-0.464-1.168-0.749-1.851-0.98c-0.029,0-0.058,0-0.085,0c-0.015-0.143-0.133-0.133-0.253-0.123
			c-0.202-0.073-0.383-0.176-0.671-0.122c-0.256-0.204-1.092-0.204-1.348,0c-0.056,0-0.11,0-0.168,0
			c-3.396,1.225-4.57,5.686-8.418,6.255c0-0.41,0-0.819,0-1.228c2.095-0.639,3.4-2.236,5.051-3.924
			c1.052-1.077,2.317-2.438,3.452-2.697c2.635-0.603,4.436,1.629,7.07,1.716C33.127,59.193,33.106,59.468,33.31,59.417z"/>
		<path fill-rule="evenodd" clip-rule="evenodd" fill="#FFFFFF" d="M66.978,62.728c-0.444-0.746-0.918-1.44-1.429-2.084
			c0-0.124-0.069-0.147-0.086-0.247c0.597,0.768,1.159,1.584,1.684,2.453C67.062,62.85,67.047,62.751,66.978,62.728z"/>
		<path fill-rule="evenodd" clip-rule="evenodd" fill="#FFFFFF" d="M23.966,54.511c1.073-1.067,1.58-2.104,2.693-2.33
			c1.965-0.396,4.068,1.664,5.726,0.981c1.453-0.599,2.764-4.462,3.703-6.867c0.62-1.589,2.15-6.42,3.703-6.377
			c1.041,0.03,1.84,2.457,2.273,3.802c1.636,5.079,2.398,10.837,4.713,14.47c-2.539-1.615-3.35-6.4-5.303-8.461
			c1.895,2.757,2.905,6.804,5.303,8.83c-1.805,0.865-3.984-0.015-5.809-0.246c-0.308,0-0.617,0-0.925,0
			c-2.015,0.129-3.796,0.601-5.724,0.858c-0.478,0-0.954,0-1.431,0c-2.45-0.31-4.459-2.107-7.07-1.717
			c-2.395,0.358-4.182,2.62-6.062,3.679c1.726-1.499,4.125-6.678,6.902-7.234c1.937-0.389,3.468,0.757,5.303,0.612
			c3.088-0.242,4.056-4.431,6.565-5.885c1.21-0.701,2.078-0.234,2.779,0.857c-0.142-0.646-0.846-1.295-1.516-1.348
			c-2.984-0.24-4.398,6.117-8.08,6.254c-1.49,0.055-2.672-0.744-4.125-0.735c-3.523,0.017-5.23,4.812-7.492,6.743
			c0.076-0.215,0.19-0.379,0.338-0.489c0.314-0.358,0.596-0.766,0.841-1.227c0.479-0.854,1.085-1.525,1.514-2.453
			C23.216,55.708,23.609,55.136,23.966,54.511z"/>
		<path fill-rule="evenodd" clip-rule="evenodd" fill="#FFFFFF" d="M48.46,57.21c0.173-0.037,0.165-0.332,0.337-0.369
			c-0.227,0.489-0.768,1.171-1.096,1.104C47.999,57.765,48.212,57.461,48.46,57.21z"/>
		<path fill-rule="evenodd" clip-rule="evenodd" fill="#FFFFFF" d="M49.218,56.228c0.75-1.668,1.583-4.096,2.442-6.621
			c0.763-2.249,1.587-4.831,2.861-5.642c2.273-1.445,4.239,1.313,5.891,2.576c-0.763-0.097-1.628-0.631-2.608-0.612
			C52.989,46.018,51.596,52.338,49.218,56.228z"/>
		<path fill-rule="evenodd" clip-rule="evenodd" fill="#FFFFFF" d="M50.818,53.654c1.438-3.988,3.894-8.752,8.837-7.236
			C55.487,47.05,52.879,49.954,50.818,53.654z"/>
		<path fill-rule="evenodd" clip-rule="evenodd" fill="#FFFFFF" d="M75.563,62.482c-1.967,4.241-5.425,0.552-7.321-1.839
			c-1.675-2.105-2.597-5.297-3.452-7.236c0.076,0.413,0.188,0.014,0.336,0.247c0.948,1.469,1.637,3.634,3.198,3.923
			c2,0.372,3.354-2.279,4.463-3.923c1.298-1.932,2.415-3.799,3.366-5.642c2.262-4.379,3.465-9.409,5.81-12.508
			c-2.815,4.858-3.739,16.642-7.241,21.583c-1.745,2.46-5.763,4.126-7.49,0.612c-0.174,0.238,0.177,0.662,0.336,0.859
			c0.55,0.695,1.565,1.219,2.44,1.349c4.46,0.656,6.479-5.571,7.827-10.301c1.434-5.021,2.315-10.438,4.21-13.857
			c-2.451,6.729-3.354,15.713-5.304,23.177C76.4,60.187,76.004,61.37,75.563,62.482z M64.958,53.654
			c0.574,1.414,1.352,3.18,2.104,3.923C66.263,56.414,65.688,54.92,64.958,53.654z"/>
		<path fill-rule="evenodd" clip-rule="evenodd" fill="#FFFFFF" d="M76.741,58.927c0.134,0.979-0.671,2.694-1.178,3.556
			C76.004,61.37,76.4,60.187,76.741,58.927z"/>
		<path opacity="0.4" fill-rule="evenodd" clip-rule="evenodd" fill="#FFFFFF" d="M67.062,57.578
			c-0.752-0.743-1.53-2.51-2.104-3.923C65.688,54.92,66.263,56.414,67.062,57.578z"/>
		<path fill-rule="evenodd" clip-rule="evenodd" fill="#FFFFFF" d="M83.561,38.08c-0.153-0.095,0.051-0.132,0.168-0.123
			c0.362-0.044,1.89,2.633,0.926,1.227c-0.136-0.196-0.247-0.435-0.336-0.613C84.004,38.497,83.906,38.109,83.561,38.08z"/>
		<path fill-rule="evenodd" clip-rule="evenodd" fill="#FFFFFF" d="M85.16,39.918c0.046-0.041,0.698,1.085,0.842,1.718
			C85.973,41.652,85.401,40.404,85.16,39.918z"/>
		<path opacity="0.4" fill-rule="evenodd" clip-rule="evenodd" fill="#FFFFFF" d="M20.093,60.397
			c2.262-1.93,3.969-6.726,7.492-6.743c1.453-0.009,2.635,0.79,4.125,0.735c3.682-0.137,5.096-6.494,8.08-6.254
			c0.67,0.053,1.374,0.703,1.516,1.348c-0.701-1.091-1.569-1.559-2.779-0.857c-2.509,1.454-3.477,5.644-6.565,5.885
			c-1.835,0.145-3.366-1.001-5.303-0.612c-2.777,0.556-5.176,5.736-6.902,7.234c1.879-1.059,3.667-3.321,6.062-3.679
			c2.61-0.39,4.62,1.408,7.07,1.717c0,0.04,0,0.083,0,0.122c-2.634-0.087-4.435-2.319-7.07-1.716
			c-1.135,0.259-2.399,1.621-3.452,2.697c-1.651,1.688-2.956,3.286-5.051,3.924c0-0.572,0-1.145,0-1.717
			C18.849,61.915,19.262,61.549,20.093,60.397z"/>
		<path fill-rule="evenodd" clip-rule="evenodd" fill="#FFFFFF" d="M81.539,40.041c0.123,0.309-0.32,0.838-0.336,1.349
			C81.041,41.025,81.471,40.476,81.539,40.041z"/>
		<path fill-rule="evenodd" clip-rule="evenodd" fill="#FFFFFF" d="M80.192,44.701c0.145,0.202-0.456,1.893-0.083,0.123
			C80.182,44.848,80.188,44.777,80.192,44.701z"/>
		<path fill-rule="evenodd" clip-rule="evenodd" fill="#FFFFFF" d="M87.77,45.929c0.242,0.512,1.011,2.36,1.514,3.31
			C88.963,48.838,88.108,47.115,87.77,45.929z"/>
		<path fill-rule="evenodd" clip-rule="evenodd" fill="#FFFFFF" d="M77.247,64.199c-0.219-0.137,0.035-0.683,0.084-0.858
			c1.216-4.311,2.245-8.955,3.702-13.367c0.474-1.423,1.232-3.662,2.359-3.678c1.24-0.019,2.486,2.333,3.281,3.802
			c1.844,3.402,3.501,5.661,5.808,8.583c1.355,1.716,2.729,3.685,4.462,4.047c1.915,0.401,3.487-1.51,5.471-2.331
			c-1.945,1.179-3.152,4.063-5.892,3.68c-0.641-0.251-1.104-0.761-1.684-1.104c-0.121-0.354-0.405-0.472-0.588-0.735
			c-0.728-0.741-1.28-1.732-2.021-2.453c-0.245-0.461-0.527-0.87-0.842-1.226c-0.503-0.578-0.901-1.302-1.516-1.718
			c-0.121-0.354-0.403-0.473-0.589-0.735c-0.289-0.275-0.474-0.7-0.756-0.98c-0.038-0.11-0.074-0.221-0.17-0.246
			c-0.12-0.069-0.205-0.191-0.252-0.369c-0.697-1.114-1.423-2.176-2.188-3.188c-0.477-0.576-0.928-1.181-1.599-1.472
			c-0.004-0.119-0.103-0.095-0.17-0.123c-0.262-0.195-1-0.195-1.262,0c-0.198,0.041-0.363,0.125-0.421,0.369
			c-0.029,0-0.056,0-0.084,0c-2.16,3.023-3.054,7.896-4.46,12.017C77.708,62.824,77.413,63.421,77.247,64.199z"/>
		<path fill-rule="evenodd" clip-rule="evenodd" fill="#FFFFFF" d="M77.247,64.199c0.166-0.778,0.461-1.375,0.675-2.084
			C78.396,61.322,77.113,64.942,77.247,64.199z"/>
		<path fill-rule="evenodd" clip-rule="evenodd" fill="#FFFFFF" d="M82.466,50.098c0.028,0,0.056,0,0.084,0
			c0.049-0.095-0.595,0.823-0.841,1.103c0.174-0.442,0.501-0.661,0.673-1.103C82.41,50.098,82.437,50.098,82.466,50.098z"/>
		<path fill-rule="evenodd" clip-rule="evenodd" fill="#FFFFFF" d="M82.887,49.729c0.262-0.195,1-0.195,1.262,0
			c-0.02,0.132-0.166,0.083-0.168,0.245c2.171,1.693,3.402,5.112,5.134,7.48c1.382,1.888,3.102,3.319,4.714,5.151
			c-0.859-0.504-1.418-1.45-2.272-1.962c-1.157-1.641-2.621-2.84-3.871-5.028c-1.157-2.025-2.361-5.362-4.124-5.764
			C83.318,49.797,82.488,50.124,82.887,49.729z"/>
		<path fill-rule="evenodd" clip-rule="evenodd" fill="#FFFFFF" d="M85.075,64.444c0.147-0.394,1.227-1.738,0.842-0.981
			c-0.263,0.311-0.514,0.642-0.757,0.981C85.132,64.444,85.104,64.444,85.075,64.444z"/>
		<path fill-rule="evenodd" clip-rule="evenodd" fill="#FFFFFF" d="M75.396,67.756c0.565-0.825,0.766-1.346,1.093-1.595
			c0.014-0.142-0.018-0.218-0.085-0.245c0.099-0.077,0.221-0.062,0.337-0.368c0.48-0.197-1.038,1.728-1.009,1.84
			c0.083,0.314,1.209-0.044,0.506,0.245C75.913,67.608,75.616,67.628,75.396,67.756z"/>
		<path fill-rule="evenodd" clip-rule="evenodd" fill="#FFFFFF" d="M70.008,66.406c0.027-0.166,0.212-0.102,0.336-0.122
			c-0.12-0.17-0.719-0.747-0.506-0.613c0.301,0.259,0.628,0.476,0.845,0.858C70.364,66.623,70.279,66.381,70.008,66.406z"/>
		<path fill-rule="evenodd" clip-rule="evenodd" fill="#FFFFFF" d="M68.831,66.039c0.027,0,0.057,0,0.083,0
			c0.292,0.23,0.772,0.183,1.094,0.367c0.271-0.025,0.356,0.217,0.675,0.123c0.935,1.338,3.324,3.142,4.714,1.227
			c0.22-0.128,0.517-0.147,0.842-0.123c0.143,0.28,0.641,0.044,0.926,0.123c0.671,0,1.347,0,2.02,0
			c2.612-0.158,4.543-1.313,5.892-3.312c0.029,0,0.057,0,0.085,0c0.243-0.339,0.494-0.67,0.757-0.981
			c1.345-1.656,3.279-4.532,5.639-2.82c0.854,0.512,1.413,1.458,2.272,1.962c0.118,0.357,0.463,0.39,0.675,0.613
			c0.6,0.392,1.077,0.964,1.936,0.981c3.217,0.477,4.306-3.211,6.901-4.046c0.112,0,0.226,0,0.337,0
			c1.147,0.004,1.793,0.742,2.694,1.103c-3.208-0.775-4.651,3.208-6.062,6.377c-1.162,2.614-2.153,5.211-3.62,6.744
			c-0.133-0.034-0.143,0.116-0.251,0.123c-1.527,1.464-4.185-0.822-6.146,0.123c-1.732,0.836-2.705,3.951-3.703,6.255
			c-0.801,1.848-2.3,5.826-3.871,5.885c-1.735,0.066-2.903-3.484-3.704-5.273c-0.917-2.057-1.815-4.51-2.86-6.377
			c-0.886-1.576-2.189-3.151-3.366-4.659C71.426,68.717,70.286,67.251,68.831,66.039z"/>
		<path fill-rule="evenodd" clip-rule="evenodd" fill="#FFFFFF" d="M68.831,66.039c-0.1-0.02-0.15,0.026-0.17,0.122
			c-0.266-0.319-1.49-0.317-0.337-0.367c0.313,0.121,0.221,0.262,0.59,0.122c0.096,0.023,0.047,0.123,0,0.123
			C68.888,66.039,68.858,66.039,68.831,66.039z"/>
		<path fill-rule="evenodd" clip-rule="evenodd" fill="#FFFFFF" d="M96.438,74.5c0.108-0.007,0.118-0.157,0.251-0.123
			c-0.096,0.432-0.477,0.449-0.59,0.858C95.824,74.902,96.449,74.849,96.438,74.5z"/>
		<path opacity="0.4" fill-rule="evenodd" clip-rule="evenodd" fill="#FFFFFF" d="M94.839,62.973
			c-0.418-0.49-0.125,0.15,0.168,0.246c-0.141,0.504-0.403-0.445-0.504,0c-0.212-0.223-0.557-0.256-0.675-0.613
			c-1.612-1.832-3.332-3.263-4.714-5.151c-1.731-2.369-2.963-5.787-5.134-7.48c0.002-0.161,0.148-0.112,0.168-0.245
			c0.067,0.028,0.166,0.003,0.17,0.123c1.412,1.009,2.816,3.743,4.039,5.028c0.096,0.025,0.132,0.136,0.17,0.246
			c-0.486-0.154,1.514,2.206,0.756,0.98c0.186,0.262,0.468,0.381,0.589,0.735c-0.074-0.055-0.149-0.108-0.168-0.245
			c0.904,1.131,2.207,3.03,3.367,4.537c0.405,0.529,1.897,2.174,1.18,1.104C94.434,62.5,94.718,62.619,94.839,62.973z"/>
		<path opacity="0.4" fill-rule="evenodd" clip-rule="evenodd" fill="#FFFFFF" d="M92.229,59.785
			c-0.316-0.357-0.597-0.767-0.842-1.226C91.702,58.916,91.984,59.324,92.229,59.785z"/>
		<path opacity="0.4" fill-rule="evenodd" clip-rule="evenodd" fill="#FFFFFF" d="M85.917,51.324
			c0.766,1.012,1.491,2.074,2.188,3.188C87.343,53.5,86.612,52.438,85.917,51.324z"/>
		<path fill-rule="evenodd" clip-rule="evenodd" fill="#FFFFFF" d="M59.15,48.135c0.029,0.029-0.357,0.425-0.42,0.491
			C58.153,49.218,58.637,48.474,59.15,48.135z"/>
		<path fill-rule="evenodd" clip-rule="evenodd" fill="#FFFFFF" d="M79.184,48.993c0.174-0.073-0.235,1.668-0.336,1.595
			C78.931,50.015,79.099,49.566,79.184,48.993z"/>
		<path fill-rule="evenodd" clip-rule="evenodd" fill="#FFFFFF" d="M58.224,48.993c-0.516,1.251-1.82,2.417-2.525,3.802
			C56.197,51.517,57.486,50.329,58.224,48.993z"/>
		<path fill-rule="evenodd" clip-rule="evenodd" fill="#FFFFFF" d="M89.453,49.607c0.383,0.387,1.374,1.997,1.935,2.942
			C91.006,52.16,90.052,50.497,89.453,49.607z"/>
		<path fill-rule="evenodd" clip-rule="evenodd" fill="#FFFFFF" d="M84.318,49.852c0.671,0.291,1.122,0.896,1.599,1.472
			c0.695,1.115,1.426,2.177,2.188,3.188c0.047,0.177,0.132,0.299,0.252,0.369C87.135,53.595,85.73,50.861,84.318,49.852z"/>
		<path fill-rule="evenodd" clip-rule="evenodd" fill="#FFFFFF" d="M89.283,56.106c0.758,1.225-1.242-1.134-0.756-0.98
			C88.81,55.406,88.994,55.832,89.283,56.106z"/>
		<path fill-rule="evenodd" clip-rule="evenodd" fill="#FFFFFF" d="M94.251,62.238c0.718,1.07-0.774-0.575-1.18-1.104
			c-1.16-1.506-2.463-3.406-3.367-4.537c0.019,0.137,0.094,0.19,0.168,0.245c0.614,0.416,1.013,1.14,1.516,1.718
			c0.245,0.459,0.525,0.869,0.842,1.226C92.971,60.505,93.523,61.497,94.251,62.238z"/>
		<path fill-rule="evenodd" clip-rule="evenodd" fill="#FFFFFF" d="M94.503,63.218c0.101-0.445,0.363,0.504,0.504,0
			c-0.293-0.096-0.586-0.736-0.168-0.246c0.58,0.343,1.043,0.853,1.684,1.104c0.016,0.104-0.033,0.115-0.084,0.122
			C95.58,64.183,95.103,63.61,94.503,63.218z"/>
		<path fill-rule="evenodd" clip-rule="evenodd" fill="#FFFFFF" d="M88.527,51.691c0.037-0.026,0.763,0.993,1.009,1.472
			C89.5,53.189,88.773,52.169,88.527,51.691z"/>
		<path fill-rule="evenodd" clip-rule="evenodd" fill="#FFFFFF" d="M78.343,52.795c0.129,0.333-0.359,1.834-0.508,2.574
			C77.733,55.079,78.234,53.595,78.343,52.795z"/>
		<path fill-rule="evenodd" clip-rule="evenodd" fill="#FFFFFF" d="M91.556,53.041c0.193-0.168,0.552,0.658,0.843,1.104
			c0.878,1.346,1.984,2.917,3.031,4.046C94.259,57.277,92.76,54.723,91.556,53.041z"/>
		<path fill-rule="evenodd" clip-rule="evenodd" fill="#FFFFFF" d="M54.437,54.021c-0.229,0.332-1.59,1.109-2.189,1.716
			c-0.117-0.259,0.557-0.592,0.927-0.858C53.599,54.574,54.082,54.167,54.437,54.021z"/>
		<path opacity="0.4" fill-rule="evenodd" clip-rule="evenodd" fill="#FFFFFF" d="M65.548,60.644
			c0.511,0.644,0.985,1.338,1.429,2.084C66.468,62.084,65.989,61.39,65.548,60.644z"/>
		<path opacity="0.4" fill-rule="evenodd" clip-rule="evenodd" fill="#FFFFFF" d="M28.26,59.417c0.683,0.231,1.328,0.516,1.851,0.98
			c-0.051,0.245,0.613,0.493,0.842,0.736c0.21-0.052-0.141-0.264-0.254-0.245c0-0.042,0-0.082,0-0.124
			c0.422,0.205,0.795,0.478,1.096,0.86c-0.068-0.023-0.084-0.123-0.168-0.123c0.197,0.324,1.212,1.143,1.093,0.736
			c0.159,0.177,0.438,0.179,0.504,0.49c-0.124-0.063-0.21-0.18-0.336-0.245c0.305,0.457,0.753,0.702,1.094,1.104
			c-0.03-0.162-0.147-0.192-0.169-0.368c0.123,0.069,0.206,0.191,0.255,0.368c0.583,0.987,1.301,1.783,1.935,2.698
			c-0.343-0.686-0.836-1.154-1.179-1.84c0.597,0.766,1.157,1.584,1.683,2.452c-0.195-0.082-0.223-0.407-0.419-0.49
			c0.503,0.652,1.869,2.849,2.188,2.698c0.008-0.005-0.007-0.111,0-0.122c0.606,0.614,1.557,1.295,2.609,0.856
			c0.892-0.092,1.917-1.703,2.358-2.451c0.004-0.076,0.012-0.146,0.084-0.123c1.003-1.194,2.126-2.868,3.114-3.679
			c0.662-0.551,1.91-0.174,2.272,0.491c-0.123-0.063-0.211-0.183-0.336-0.246c0.207,0.393,0.591,0.528,0.841,0.858
			c-0.036-0.107-0.074-0.219-0.168-0.245c0-0.041,0-0.081,0-0.123c0.423,0.447,0.873,0.853,1.178,1.472
			c0.139,0.366,2.204,3.044,1.432,1.717c0.184,0.262,0.466,0.381,0.587,0.735c-0.074-0.054-0.15-0.108-0.167-0.245
			c-0.176,0.264,0.409,0.46,0.504,0.735c0.122-0.055-0.01-0.108,0-0.245c0.361,0.333,0.814,0.528,1.262,0.736
			c-0.084,0-0.169,0-0.252,0c0.314,0.328,1.372,0.043,1.262-0.245c0.371-0.362,0.783-0.659,1.096-1.104
			c-0.025,0.25-0.228,0.24-0.254,0.49c0.546-0.552,1.009-1.229,1.431-1.962c-0.385,0.378-0.624,0.973-1.009,1.35
			c0.356-0.624,0.75-1.196,1.178-1.717c-0.016,0.099-0.084,0.122-0.084,0.245c1.044-1.626,2.009-3.37,3.197-4.782
			c0.222-0.416,0.619-0.571,1.012-0.737c0.311,0.205,1.203,0.205,1.515,0c1.839,0.553,3.155,1.86,4.629,2.944
			c-2.473-0.164-3.84-0.574-5.725,0c-1.438,0.925-2.497,2.511-3.704,4.415c-0.943,1.493-2.261,4.163-3.787,4.415
			c-2.988,0.493-4.677-7.14-7.661-5.763c-2.401,1.106-3.806,8.186-6.481,8.337c-1.229,0.071-2.511-2.557-3.281-4.046
			c-2.622-5.065-4.482-8.894-8.923-11.404C28.008,59.46,28.24,59.593,28.26,59.417z"/>
		<path opacity="0.4" fill-rule="evenodd" clip-rule="evenodd" fill="#FFFFFF" d="M43.494,67.021
			c0.414-0.705,0.863-1.36,1.347-1.962C44.427,65.763,43.978,66.417,43.494,67.021z"/>
		<path fill-rule="evenodd" clip-rule="evenodd" fill="#FFFFFF" d="M96.271,58.927c-0.002-0.167,0.492,0.156,0.588,0.245
			C97.131,59.419,96.545,59.17,96.271,58.927z"/>
		<path fill-rule="evenodd" clip-rule="evenodd" fill="#FFFFFF" d="M30.11,60.397c0.259,0.033,0.378,0.267,0.588,0.368
			c0,0.042,0,0.083,0,0.124c0.113-0.019,0.464,0.192,0.254,0.245C30.723,60.89,30.06,60.642,30.11,60.397z"/>
		<path fill-rule="evenodd" clip-rule="evenodd" fill="#FFFFFF" d="M32.72,62.238c0.119,0.407-0.896-0.412-1.093-0.736
			c0.083,0,0.1,0.099,0.168,0.123C32.161,61.744,32.399,62.049,32.72,62.238z"/>
		<path fill-rule="evenodd" clip-rule="evenodd" fill="#FFFFFF" d="M33.813,63.218c0.021,0.175,0.139,0.206,0.169,0.368
			c-0.341-0.402-0.789-0.647-1.094-1.104c0.125,0.065,0.212,0.182,0.336,0.245C33.533,62.73,33.604,63.077,33.813,63.218z"/>
		<path fill-rule="evenodd" clip-rule="evenodd" fill="#FFFFFF" d="M34.068,63.586c0.382,0.096,0.441,0.663,0.756,0.858
			c0.343,0.686,0.836,1.154,1.179,1.84C35.369,65.369,34.651,64.573,34.068,63.586z"/>
		<path fill-rule="evenodd" clip-rule="evenodd" fill="#FFFFFF" d="M38.275,68.982c-0.007,0.011,0.008,0.117,0,0.122
			c-0.318,0.15-1.684-2.046-2.188-2.698c0.196,0.083,0.224,0.408,0.419,0.49C37.15,67.513,37.611,68.396,38.275,68.982z"/>
		<path fill-rule="evenodd" clip-rule="evenodd" fill="#FFFFFF" d="M40.884,69.839c0.967-0.553,1.566-1.642,2.358-2.451
			C42.801,68.136,41.775,69.747,40.884,69.839z"/>
		<path fill-rule="evenodd" clip-rule="evenodd" fill="#FFFFFF" d="M43.494,67.021c0.484-0.604,0.934-1.258,1.347-1.962
			c0.496-0.544,0.92-1.194,1.6-1.472c-0.988,0.811-2.111,2.484-3.114,3.679C43.343,67.127,43.419,67.074,43.494,67.021z"/>
		<path fill-rule="evenodd" clip-rule="evenodd" fill="#FFFFFF" d="M49.05,64.322c0,0.042,0,0.082,0,0.123
			c0.094,0.026,0.132,0.137,0.168,0.245c-0.25-0.33-0.634-0.465-0.841-0.858c0.125,0.063,0.213,0.183,0.336,0.246
			C48.942,63.988,48.883,64.321,49.05,64.322z"/>
		<path fill-rule="evenodd" clip-rule="evenodd" fill="#FFFFFF" d="M50.228,65.794c0.562,0.447,0.922,1.19,1.432,1.717
			C52.431,68.838,50.367,66.16,50.228,65.794z"/>
		<path fill-rule="evenodd" clip-rule="evenodd" fill="#FFFFFF" d="M52.585,68.491c-0.01,0.137,0.122,0.19,0,0.245
			c-0.096-0.275-0.681-0.472-0.504-0.735c0.017,0.137,0.092,0.191,0.167,0.245C52.478,68.157,52.418,68.49,52.585,68.491z"/>
		<path fill-rule="evenodd" clip-rule="evenodd" fill="#FFFFFF" d="M53.847,69.228c0.438,0.066,0.625-0.236,1.01-0.245
			c0.109,0.288-0.948,0.573-1.262,0.245C53.678,69.228,53.763,69.228,53.847,69.228z"/>
		<path fill-rule="evenodd" clip-rule="evenodd" fill="#FFFFFF" d="M56.121,67.756c0.385-0.377,0.624-0.972,1.009-1.35
			c-0.422,0.733-0.884,1.41-1.431,1.962c0.026-0.25,0.229-0.24,0.254-0.49C56.036,67.878,56.051,67.779,56.121,67.756z"/>
		<path fill-rule="evenodd" clip-rule="evenodd" fill="#FFFFFF" d="M57.298,66.039c0.942-1.651,1.818-3.4,3.113-4.537
			c-1.188,1.413-2.153,3.156-3.197,4.782C57.214,66.161,57.282,66.138,57.298,66.039z"/>
		<path fill-rule="evenodd" clip-rule="evenodd" fill="#FFFFFF" d="M34.236,59.54c0.316-0.376,0.732,0.152,1.177,0
			C35.409,59.893,34.619,59.433,34.236,59.54z"/>
		<path fill-rule="evenodd" clip-rule="evenodd" fill="#FFFFFF" d="M22.872,61.625c-0.128-0.066-0.006-0.128,0.085-0.123
			c0.109,0.288-0.044,0.275,0.167,0.491c0.075-0.055,0.151-0.108,0.168-0.246c0.16,0.375-0.019,0.163-0.168,0.491
			c-0.096-0.023-0.046-0.124,0-0.123c-0.266-0.218-0.281-0.257-0.757,0.123C22.168,62.059,23.046,61.767,22.872,61.625z"/>
		<path fill-rule="evenodd" clip-rule="evenodd" fill="#FFFFFF" d="M30.278,62.482c0.076,0.055,0.151,0.108,0.169,0.245
			c-0.044,0.188-0.089,0.008-0.084-0.122c-0.156,0.098-0.253,0.577,0,0.613c-0.03,0.193-0.147-0.107-0.169,0.123
			C30.078,63.212,30.134,62.787,30.278,62.482z"/>
		<path fill-rule="evenodd" clip-rule="evenodd" fill="#FFFFFF" d="M30.953,63.463c-0.082,0.003-0.067,0.151-0.084,0.245
			c-0.252-0.08,0.081-0.262,0-0.49c0.197,0.04,0.05,0.582,0.336,0.49c-0.016,0.099-0.083,0.123-0.083,0.246
			c-0.056,0-0.112,0-0.168,0C31.092,63.71,30.945,63.799,30.953,63.463z"/>
		<path fill-rule="evenodd" clip-rule="evenodd" fill="#FFFFFF" d="M42.232,78.179c1.462-2.364,2.357-5.558,4.042-7.604
			c0.025,0,0.054,0,0.083,0c-1.882,3.037-2.724,7.453-4.293,11.404c-0.452,1.136-1.112,2.905-1.937,3.066
			c-1.584,0.31-2.899-3.413-3.535-4.905c-0.963-2.261-1.667-4.494-2.61-6.252c-1.896-3.54-6.62-6.612-10.183-6.992
			c-1.492-0.157-2.469-0.054-4.125-0.121c2.203-0.632,3.472-2.223,5.639-2.454c3.472-0.369,6.876,1.778,8.585,4.661
			c0.987,1.661,1.847,4.017,2.778,6.13c1.042,2.372,2.541,6.594,4.546,4.538c0.067-0.023,0.083-0.123,0.167-0.122
			c0.323-0.267,0.528-0.705,0.758-1.104C42.162,78.325,42.232,78.302,42.232,78.179z"/>
		<path fill-rule="evenodd" clip-rule="evenodd" fill="#FFFFFF" d="M46.273,70.575c0.314-0.441,0.47-0.431,1.093-0.489
			c-0.411,0.029-1.771,1.776-0.675,0.367c-0.054-0.366-0.179,0.116-0.335,0c0,0.042,0,0.082,0,0.122
			C46.328,70.575,46.299,70.575,46.273,70.575z"/>
		<path fill-rule="evenodd" clip-rule="evenodd" fill="#FFFFFF" d="M44.25,73.396c-0.016-0.099-0.083-0.122-0.083-0.245
			c-0.201-0.247,0.093,0.055,0.168,0.122c0.045,0.177-0.327,0.3-0.084,0.368c-0.132-0.075-0.3,0.482-0.503,0.247
			c0.014-0.141,0.082-0.07,0.082,0C44.025,73.804,44.056,73.479,44.25,73.396z"/>
		<path fill-rule="evenodd" clip-rule="evenodd" fill="#FFFFFF" d="M42.822,76.095c0.152,0.777,0.152-1.219,0.335-0.246
			c0.025,0.137-0.34,0.836-0.421,0.982C42.744,76.678,42.773,76.425,42.822,76.095z"/>
		<path fill-rule="evenodd" clip-rule="evenodd" fill="#FFFFFF" d="M42.063,78.179c-0.505,0.54-0.313-0.036,0-0.613
			c0.132,0.044-0.074,0.215,0.084,0.246c-0.016,0.138-0.084,0.068-0.084,0C41.956,77.839,41.953,78.178,42.063,78.179z"/>
		<path fill-rule="evenodd" clip-rule="evenodd" fill="#FFFFFF" d="M41.222,79.65c0.302-0.541,0.638-1.031,1.01-1.472
			c0,0.123-0.07,0.146-0.084,0.246c-0.287,0.315-0.54,0.685-0.758,1.104C41.306,79.527,41.289,79.627,41.222,79.65z"/>
		<path fill-rule="evenodd" clip-rule="evenodd" fill="#FFFFFF" d="M38.864,78.914c-0.187-0.284-0.074-0.328-0.168-0.612
			c-0.1,0.02-0.071,0.224-0.084,0.368c-0.217-0.012-0.12-0.479-0.337-0.491c0.029-0.191,0.149,0.106,0.168-0.123
			c0.096,0.023,0.046,0.123,0,0.123c0.426-0.028,0.521,1.207,0.589-0.123c0.082,0.004,0.065,0.151,0.083,0.246
			c0.072,0.021,0.08-0.048,0.086-0.123c0.325,0.109-0.486,0.374,0,0.368c-0.077,0.217-0.311,0.203-0.337,0.49
			C38.769,79.014,38.818,78.914,38.864,78.914z"/>
		<path fill-rule="evenodd" clip-rule="evenodd" fill="#FFFFFF" d="M31.541,66.039c0.016-0.139,0.086-0.068,0.086,0
			c0.259-0.123-0.094-0.333-0.168-0.368c-0.072-0.023-0.081,0.048-0.085,0.123c-0.124-0.054,0.033-0.157,0-0.367
			c0.074,0.074,0.151,0.146,0.167,0c-0.068,0.319,0.322,0.104,0.169,0.244c0.038,0.109,0.073,0.218,0.168,0.245
			c-0.002,0.12-0.102,0.095-0.168,0.123c-0.014,0.104,0.034,0.115,0.084,0.122C31.748,66.517,31.662,65.974,31.541,66.039z"/>
		<path opacity="0.4" fill-rule="evenodd" clip-rule="evenodd" fill="#FFFFFF" d="M41.389,79.528
			c0.218-0.419,0.471-0.788,0.758-1.104C41.917,78.823,41.712,79.262,41.389,79.528z"/>
		<path fill-rule="evenodd" clip-rule="evenodd" fill="#FFFFFF" d="M31.794,64.444c0.096,0.023,0.047,0.124,0,0.123
			c0.076,0.216,0.295,0.225,0.422,0.369c-0.016,0.099-0.085,0.121-0.085,0.245c0.229,0.227-0.256-0.033,0-0.245
			c-0.11,0.043-0.134,0.215-0.252,0.245c-0.074,0.107,0.223-0.482-0.252-0.492C31.648,64.557,31.792,64.607,31.794,64.444z"/>
		<path fill-rule="evenodd" clip-rule="evenodd" fill="#FFFFFF" d="M29.605,64.936c0.105-0.469,0.346,0.02,0.589-0.247
			c0.153,0.096-0.05,0.133-0.167,0.123c0.002,0.119,0.102,0.096,0.167,0.124C30.019,65.253,29.852,64.618,29.605,64.936z"/>
		<path fill-rule="evenodd" clip-rule="evenodd" fill="#FFFFFF" d="M104.771,64.689c0,0.121-0.104,0.096-0.167,0.123
			c-1.141,0.557-1.12,0.486-0.17-0.123C104.548,64.689,104.661,64.689,104.771,64.689z"/>
		<path fill-rule="evenodd" clip-rule="evenodd" fill="#FFFFFF" d="M32.72,65.671c0.015,0.105-0.033,0.116-0.083,0.123
			c0.021,0.132,0.167,0.082,0.168,0.245c0.202,0.271-0.184-0.158-0.336-0.123c0.152,0.384-0.027,0.063-0.251,0.245
			c0,0.244,0.227,0.156,0.168,0.491c0.071,0.021,0.079-0.048,0.083-0.123c0.124,0.053-0.033,0.157,0,0.367
			c-0.157-0.263-0.259-0.604-0.421-0.857c-0.154-0.259,0.146,0.278,0.338,0C32.226,65.712,32.486,65.906,32.72,65.671z"/>
		<path fill-rule="evenodd" clip-rule="evenodd" fill="#FFFFFF" d="M19.337,66.775c0.358,0.16-0.602-0.091-0.086,0.121
			c-0.071,0.36-0.21-0.158-0.42,0C18.791,66.621,19.289,66.519,19.337,66.775z"/>
		<path fill-rule="evenodd" clip-rule="evenodd" fill="#FFFFFF" d="M63.862,69.228c0.2,0.158,0.157-0.016,0.422,0.122
			c-0.148,0.081-0.352,0.567-0.084,0.245c0.234,0.423-0.6,0.004-0.338,0C63.761,69.434,63.829,69.402,63.862,69.228z"/>
		<path fill-rule="evenodd" clip-rule="evenodd" fill="#FFFFFF" d="M63.78,70.086c0.132,0.044-0.074,0.217,0.082,0.244
			c-0.064,0.272-0.293,0.308-0.419,0.492c-0.257,0.235,0.342-0.322,0.084-0.492c-0.18-0.299,0.088,0.183,0.253,0.123
			C63.678,70.292,63.747,70.261,63.78,70.086z"/>
		<path fill-rule="evenodd" clip-rule="evenodd" fill="#FFFFFF" d="M49.47,73.151c-0.122-0.055,0.009-0.107,0-0.246
			c-0.047-0.275-0.13,0.15-0.252-0.121c-0.006-0.549-0.585-1.257-0.841-1.84C48.436,71.028,49.732,72.586,49.47,73.151z"/>
		<path fill-rule="evenodd" clip-rule="evenodd" fill="#FFFFFF" d="M63.19,70.944c0.06-0.164,0.119,0.491-0.084,0.736
			c-0.097-0.024-0.047-0.124,0-0.123c-0.036-0.11-0.074-0.22-0.168-0.245C62.84,71.185,63.276,71.293,63.19,70.944z"/>
		<path fill-rule="evenodd" clip-rule="evenodd" fill="#FFFFFF" d="M60.665,75.235c0.094-0.64,1.04-1.1,1.346-1.839
			c0.195-0.136,0.676-0.992,0.59-0.735c-0.189,0.378-0.414,0.704-0.673,0.98c-0.015,0.105,0.033,0.116,0.083,0.123
			C61.679,73.992,61.054,74.698,60.665,75.235z"/>
		<path fill-rule="evenodd" clip-rule="evenodd" fill="#FFFFFF" d="M59.655,76.584c-1.083,1.125-3.279,7.277-5.723,5.887
			c-0.689-0.393-1.257-1.963-1.685-2.942c-0.531-1.217-1.036-2.188-1.345-3.434c0.973,1.811,1.732,3.933,3.197,5.026
			C57.069,81.239,57.987,78.365,59.655,76.584z"/>
		<path fill-rule="evenodd" clip-rule="evenodd" fill="#FFFFFF" d="M55.615,75.358c0.264-0.328-0.283,0.32,0,0.368
			c0.292,0.102-0.47-0.189-0.169,0.122C55.188,76.117,55.313,75.295,55.615,75.358z"/>
		<path fill-rule="evenodd" clip-rule="evenodd" fill="#FFFFFF" d="M52.585,75.48c0.14-0.194,0.565,0.233,0.758,0.368
			c-0.043,0.11-0.739,0.282-0.169,0C53.042,75.631,52.667,75.768,52.585,75.48z"/>
		<path fill-rule="evenodd" clip-rule="evenodd" fill="#FFFFFF" d="M74.722,76.707c-0.129-0.284,0.465,0.231,0.421,0.614
			c-0.376-0.009-0.106-0.281-0.251-0.49c-0.168,0.241-0.371,0.241-0.085,0C74.821,76.726,74.772,76.713,74.722,76.707z"/>
		<path fill-rule="evenodd" clip-rule="evenodd" fill="#FFFFFF" d="M41.727,77.075c0.113-0.019,0.312,0.413,0.337,0.123
			c0.097-0.352,0.097,0.196,0,0.244c-0.242-0.104-0.317,0.247-0.337,0.369c-0.023,0.289-0.224-0.141-0.337-0.124
			C41.453,77.41,41.71,77.42,41.727,77.075z"/>
		<path fill-rule="evenodd" clip-rule="evenodd" fill="#FFFFFF" d="M93.323,77.442c-0.014,0.144,0.021,0.22,0.087,0.245
			c-0.049,0.356-0.134-0.188-0.255-0.122c-0.126,0.106,0.023,0.184-0.084,0.49c-0.067-0.084-0.229-0.19-0.252,0
			c-0.134-0.041,0.072-0.215-0.085-0.244c0.021-0.316,0.145,0.168,0.337,0c-0.002-0.119-0.105-0.095-0.167-0.124
			C92.977,77.506,93.114,77.425,93.323,77.442z"/>
		<path fill-rule="evenodd" clip-rule="evenodd" fill="#FFFFFF" d="M74.47,77.934c0.134-0.144,0.301,0.328,0.505,0.245
			c0.104,0.489,0.651,1.323,1.009,1.839c0.025,0.22-0.077,0.252-0.085,0.123C75.477,79.326,75.011,78.577,74.47,77.934z"/>
		<path fill-rule="evenodd" clip-rule="evenodd" fill="#FFFFFF" d="M91.894,78.793c0.407,0.004,0.123,0.197,0.167,0.367
			c-0.103,0.05-0.245,0.14-0.422,0.368C91.384,79.76,92.138,78.932,91.894,78.793z"/>
		<path fill-rule="evenodd" clip-rule="evenodd" fill="#FFFFFF" d="M90.041,80.264c-0.002,0.119-0.103,0.096-0.169,0.122
			c0.208,0.163-0.092,0.456,0.087,0.492C89.738,81.182,89.575,80.161,90.041,80.264z"/>
		<path fill-rule="evenodd" clip-rule="evenodd" fill="#FFFFFF" d="M88.442,83.575c0.352-0.526,0.474-0.774,0.757-1.104
			c0.367-0.426-0.929,1.429-1.178,1.717C87.795,84.453,88.084,84.108,88.442,83.575z"/>
		<path fill-rule="evenodd" clip-rule="evenodd" fill="#FFFFFF" d="M87.517,84.801c-0.025,0.29-0.226-0.141-0.337-0.122
			c0.016-0.14,0.082-0.069,0.082,0c0.302,0.065,0.21-0.435,0.508-0.367c-0.045-0.739,1.228-1.775,0-0.247
			C88.077,84.419,87.253,84.538,87.517,84.801z"/>
		<path fill-rule="evenodd" clip-rule="evenodd" fill="#FFFFFF" d="M77.752,82.103c0.096,0.023,0.047,0.123,0,0.123
			c0.49,0.704,0.47,0.541,0,0.367c0.296,0.248-0.297-0.054,0-0.122C77.585,82.218,77.585,82.355,77.752,82.103z"/>
		<path fill-rule="evenodd" clip-rule="evenodd" fill="#FFFFFF" d="M80.444,87.498c-0.057,0-0.111,0-0.167,0
			c0.178,0.338-0.112,0.188-0.252,0.123c0.029-0.141,0.147-0.311,0.167-0.123c0.083-0.003,0.066-0.149,0.085-0.244
			c0.131,0.177,0.329,0.256,0.505,0.367c-0.046,0.25-0.254,0.24-0.084,0.491c0.229,0.373-0.191-0.336-0.168,0
			c-0.2-0.036,0.094-0.334,0.168-0.367C80.664,87.331,80.373,88.07,80.444,87.498z"/>
		<path fill-rule="evenodd" clip-rule="evenodd" fill="#FFFFFF" d="M80.95,87.621c0.143,0.152,0.432,0.356,0.253,0.613
			c1,0.269-0.432,0.192-0.17-0.489c-0.083,0.078-0.083,0.28-0.251,0.244C80.812,87.827,80.93,87.797,80.95,87.621z"/>
		<path fill-rule="evenodd" clip-rule="evenodd" fill="#FFFFFF" d="M27.25,59.172c0.288-0.054,0.47,0.049,0.671,0.122
			c-0.654,0.428-1.371-0.044-2.188-0.122c0.058,0,0.112,0,0.168,0C26.351,59.172,26.799,59.172,27.25,59.172z"/>
		<path fill-rule="evenodd" clip-rule="evenodd" fill="#FFFFFF" d="M33.31,59.417c-0.204,0.051-0.183-0.224-0.421-0.123
			c0-0.04,0-0.082,0-0.122c0.477,0,0.954,0,1.431,0C34.158,59.702,33.496,59.176,33.31,59.417z"/>
		<path fill-rule="evenodd" clip-rule="evenodd" fill="#FFFFFF" d="M83.729,90.196c-0.251,0.246-0.793,0.07-1.179,0.124
			C82.854,90.271,83.699,89.84,83.729,90.196z"/>
	</g>
</g>
</svg>
