<?xml version="1.0" encoding="utf-8"?>
<!-- Generator: Adobe Illustrator 16.0.0, SVG Export Plug-In . SVG Version: 6.00 Build 0)  -->
<!DOCTYPE svg PUBLIC "-//W3C//DTD SVG 1.1//EN" "http://www.w3.org/Graphics/SVG/1.1/DTD/svg11.dtd">
<svg version="1.1" id="Layer_1" xmlns="http://www.w3.org/2000/svg" xmlns:xlink="http://www.w3.org/1999/xlink" x="0px" y="0px"
	 width="130px" height="130px" viewBox="0 0 130 130" enable-background="new 0 0 130 130" xml:space="preserve">
<g>
	<circle fill="#2980DE" cx="65" cy="64.999" r="64"/>
	<g>
		<g>
			<path fill="#FFFFFF" d="M79.426,52.643l-3.522,3.527c1.606,2.247,2.772,5.504,2.772,8.86c0,2.227-0.51,4.8-1.242,6.566
				l4.368,2.488c1.343-2.604,2.162-5.927,2.162-9.057C83.964,60.475,82.097,55.916,79.426,52.643z M78.132,51.24
				c-3.212-2.996-8.001-5.095-12.69-5.292v5.286c3.518,0.154,7.021,1.524,9.215,3.484L78.132,51.24z M51.239,65.03
				c0-7.68,4.875-12.954,12.15-13.682v-5.3c-9.66,0.902-17.44,9.084-17.44,18.979c0,4.188,1.566,8.517,3.862,11.662l3.749-3.254
				C52.187,71.274,51.239,68.117,51.239,65.03z M64.957,78.748c-4.149,0-8.139-1.619-10.533-4.017l-3.705,3.212
				c3.458,3.589,8.863,6.091,14.238,6.091c6.438,0,12.489-3.488,15.928-8.385l-4.374-2.485
				C74.673,75.846,70.471,78.748,64.957,78.748z"/>
		</g>
		<g>
			<path fill="#FFFFFF" d="M58.336,46.17l-1.663-5.055c-2.201,0.763-4.264,1.805-6.141,3.109l3.228,4.226
				C55.164,47.499,56.708,46.742,58.336,46.17z M63.659,45.089v-5.323c-1.985,0.102-3.914,0.416-5.753,0.949l1.667,5.063
				C60.886,45.412,62.252,45.179,63.659,45.089z M47.627,55.064l-4.586-2.692c-2.064,3.572-3.282,7.688-3.38,12.088l5.324-0.076
				C45.092,60.996,46.036,57.825,47.627,55.064z M78.889,50.69l3.97-3.575c-2.27-2.271-4.973-4.108-7.97-5.389l-1.958,4.96
				C75.158,47.655,77.172,49.02,78.889,50.69z M44.984,65.681l-5.316,0.075c0.164,5.716,2.205,10.954,5.549,15.116l4.065-3.435
				C46.704,74.184,45.126,70.117,44.984,65.681z M83.867,58.543l5.203-1.249c-1.108-3.463-2.957-6.587-5.339-9.224l-3.95,3.559
				C81.577,53.616,82.979,55.958,83.867,58.543z M89.414,58.546l-5.171,1.238c0.456,1.675,0.72,3.428,0.72,5.247
				c0,0.679-0.034,1.352-0.101,2.014l5.221,1.028c0.12-1,0.199-2.014,0.199-3.046C90.282,62.782,89.962,60.618,89.414,58.546z
				 M64.957,85.036c-2.244,0-4.393-0.386-6.406-1.065l-1.881,4.967c2.6,0.901,5.381,1.415,8.288,1.415
				c1.785,0,3.526-0.19,5.206-0.542l-1.093-5.201C67.743,84.888,66.368,85.036,64.957,85.036z M70.329,84.285l1.091,5.203
				c6.094-1.607,11.293-5.407,14.676-10.53l-4.417-2.959C79.43,79.421,75.658,82.802,70.329,84.285z M50.125,78.422l-4.058,3.432
				c2.564,2.875,5.757,5.166,9.384,6.637l1.882-4.966C54.556,82.38,52.107,80.617,50.125,78.422z M71.721,46.221l1.951-4.948
				c-2.722-1-5.646-1.572-8.715-1.572c-0.001,0-0.001,0-0.003,0v5.324c0.002,0,0.002,0,0.003,0
				C67.336,45.025,69.605,45.46,71.721,46.221z M52.722,49.225L49.495,45c-2.26,1.749-4.218,3.862-5.78,6.266l4.584,2.69
				C49.506,52.146,51.008,50.554,52.722,49.225z M82.353,74.89l4.418,2.958c1.518-2.577,2.589-5.438,3.116-8.495l-5.217-1.026
				C84.277,70.679,83.487,72.891,82.353,74.89z"/>
		</g>
		<g>
			<path fill="#FFFFFF" d="M50.581,87.015l-4.18,5.622c1.996,1.343,4.146,2.467,6.415,3.358l2.513-6.531
				C53.655,88.804,52.066,87.985,50.581,87.015z M41.722,77.288l-6.31,3.018c1.03,1.987,2.25,3.854,3.643,5.583l5.445-4.382
				C43.446,80.198,42.514,78.787,41.722,77.288z M39.687,72.168l-6.795,1.704c0.503,1.825,1.154,3.589,1.946,5.273l6.323-3.024
				C40.568,74.854,40.072,73.537,39.687,72.168z M55.464,33.144l2.063,6.692c1.964-0.578,4.03-0.915,6.158-1.019l-0.105-7.021
				C60.772,31.913,58.053,32.375,55.464,33.144z M38.708,65.589l-7.001-0.059c0.037,2.437,0.336,4.806,0.867,7.085l6.791-1.703
				C38.971,69.197,38.746,67.415,38.708,65.589z M90.986,61.606l6.972-0.697c-0.208-1.679-0.541-3.319-0.987-4.91l-6.694,2.087
				C90.59,59.231,90.828,60.405,90.986,61.606z M54.031,96.445c2.857,0.993,5.889,1.611,9.041,1.79l0.39-7.001
				c-2.406-0.136-4.726-0.585-6.916-1.325L54.031,96.445z M56.297,40.246l-2.068-6.706c-1.051,0.359-2.079,0.768-3.079,1.225
				l2.935,6.364C54.805,40.801,55.543,40.508,56.297,40.246z M83.712,83.421l4.718,5.174c1.765-1.759,3.326-3.716,4.663-5.832
				l-6.023-3.571C86.094,80.715,84.974,82.135,83.712,83.421z M52.918,41.691l-2.935-6.364c-1.281,0.646-2.52,1.367-3.7,2.171
				l3.827,5.86C51.006,42.743,51.948,42.193,52.918,41.691z M39.366,59.146l-6.739-1.934c-0.546,2.261-0.856,4.611-0.912,7.025
				l7.002,0.059C38.765,62.529,38.985,60.807,39.366,59.146z M42.294,51.777l-5.813-3.952c-1.52,2.512-2.708,5.243-3.526,8.132
				l6.733,1.931C40.301,55.723,41.181,53.676,42.294,51.777z M44.832,48.149l-5.1-4.794c-0.919,1.072-1.773,2.197-2.553,3.379
				l5.789,3.935C43.542,49.792,44.161,48.949,44.832,48.149z M89.916,56.843l6.682-2.085c-0.844-2.598-1.996-5.056-3.418-7.331
				l-5.863,3.852C88.387,53.012,89.269,54.873,89.916,56.843z M87.743,78.085l6.019,3.568c1.97-3.402,3.354-7.185,4.014-11.213
				l-6.94-0.989C90.309,72.548,89.251,75.458,87.743,78.085z M86.626,50.18l5.848-3.842c-0.946-1.393-1.996-2.704-3.139-3.935
				l-5.012,4.91C85.15,48.219,85.932,49.167,86.626,50.18z M98.094,62.196l-6.967,0.699c0.057,0.707,0.107,1.414,0.107,2.135
				c0,1.066-0.081,2.109-0.206,3.14l6.928,0.985c0.168-1.354,0.264-2.73,0.264-4.129C98.22,64.072,98.172,63.131,98.094,62.196z
				 M49.071,44.136l-3.843-5.889c-1.671,1.234-3.22,2.623-4.631,4.14l5.109,4.803C46.736,46.077,47.861,45.057,49.071,44.136z
				 M45.352,82.485l-5.462,4.394c1.626,1.863,3.456,3.547,5.458,5.01l4.177-5.622C48,85.157,46.603,83.89,45.352,82.485z
				 M64.957,91.31c-0.069,0-0.134-0.012-0.202-0.012l-0.388,6.978c0.196,0.005,0.393,0.016,0.59,0.016
				c2.351,0,4.642-0.247,6.856-0.712l-1.423-6.84C68.637,91.109,66.82,91.31,64.957,91.31z M68.26,38.984l0.936-6.942
				c-1.39-0.178-2.802-0.28-4.238-0.28c-0.028,0-0.054,0.003-0.081,0.003l0.101,6.99C66.092,38.756,67.182,38.847,68.26,38.984z
				 M78.118,42.312l3.577-6.025c-1.348-0.788-2.753-1.482-4.212-2.077l-2.423,6.564C76.121,41.215,77.135,41.741,78.118,42.312z
				 M83.44,46.363l4.996-4.897c-1.703-1.697-3.596-3.206-5.632-4.504l-3.578,6.024C80.746,43.969,82.161,45.095,83.44,46.363z
				 M71.646,90.417l1.431,6.87c2.988-0.747,5.811-1.906,8.415-3.403l-3.568-6.015C75.974,88.979,73.869,89.834,71.646,90.417z
				 M79.033,87.197l3.573,6.021c1.743-1.094,3.378-2.341,4.883-3.729l-4.721-5.177C81.612,85.381,80.367,86.346,79.033,87.197z
				 M76.273,33.74c-1.858-0.673-3.796-1.179-5.794-1.513l-0.938,6.953c1.481,0.262,2.917,0.65,4.302,1.147L76.273,33.74z"/>
		</g>
		<path fill="#FFFFFF" d="M34.778,80.967l-8.081,4.118c0.582,1.107,1.21,2.183,1.883,3.23l7.559-5.011
			C35.657,82.544,35.201,81.766,34.778,80.967z M31.172,69.827l-8.999,1.142c0.2,1.459,0.472,2.893,0.815,4.3l8.765-2.357
			C31.515,71.899,31.319,70.871,31.172,69.827z M35.72,47.425l-7.628-4.923c-0.568,0.923-1.092,1.876-1.588,2.845l8.137,4.021
			C34.982,48.708,35.339,48.06,35.72,47.425z M34.064,50.529l-8.142-4.022c-0.422,0.886-0.807,1.793-1.167,2.711l8.443,3.328
			C33.467,51.864,33.754,51.19,34.064,50.529z M55.447,107.165c1.136,0.254,2.285,0.466,3.453,0.631l1.206-8.983
			c-0.83-0.119-1.65-0.269-2.459-0.444L55.447,107.165z M53.874,97.312l-3.241,8.473c1.162,0.409,2.344,0.778,3.549,1.088
			l2.201-8.798C55.532,97.854,54.697,97.594,53.874,97.312z M46.044,93.439l-5.263,7.394c0.562,0.382,1.135,0.748,1.714,1.102
			l4.681-7.768C46.794,93.932,46.417,93.688,46.044,93.439z M60.184,107.959c0.863,0.095,1.731,0.171,2.608,0.214l0.334-9.062
			c-0.583-0.031-1.161-0.077-1.737-0.136L60.184,107.959z M50.693,96.036l-4.065,8.111c0.912,0.428,1.844,0.823,2.79,1.188
			l3.24-8.468C51.992,96.61,51.337,96.334,50.693,96.036z M48.298,94.816l-4.68,7.767c0.606,0.346,1.221,0.678,1.845,0.994
			l4.062-8.106C49.11,95.261,48.703,95.043,48.298,94.816z M36.852,84.388L29.29,89.4c0.708,1.031,1.456,2.032,2.248,2.999
			l6.978-5.795C37.931,85.89,37.377,85.149,36.852,84.388z M32.746,53.761l-8.454-3.334c-0.356,0.995-0.671,2.008-0.957,3.037
			l8.733,2.461C32.272,55.193,32.496,54.471,32.746,53.761z M41.629,40.137l-6.039-6.784c-0.811,0.753-1.596,1.537-2.348,2.351
			l6.735,6.087C40.509,41.22,41.06,40.67,41.629,40.137z M44.589,37.65l-5.309-7.363c-0.94,0.694-1.844,1.435-2.724,2.202
			l6.036,6.779C43.238,38.708,43.9,38.163,44.589,37.65z M57.291,31.783l-1.863-8.89c-1.1,0.248-2.188,0.527-3.253,0.857
			l2.824,8.638C55.751,32.158,56.518,31.959,57.291,31.783z M97.208,76.194l8.539,3.061c0.337-0.962,0.641-1.941,0.909-2.936
			l-8.785-2.27C97.673,74.776,97.451,75.491,97.208,76.194z M78.875,96.194l3.605,8.317c1.434-0.636,2.823-1.349,4.168-2.131
			l-4.639-7.79C80.996,95.177,79.95,95.713,78.875,96.194z M73.468,98.093l2.187,8.797c1.936-0.491,3.815-1.123,5.636-1.866
			l-3.609-8.322C76.316,97.249,74.913,97.722,73.468,98.093z M72.583,31.772l2.306-8.785c-0.943-0.224-1.897-0.417-2.862-0.576
			l-1.405,8.971C71.281,31.494,71.935,31.624,72.583,31.772z M70.746,22.223c-0.823-0.11-1.651-0.196-2.487-0.259l-0.668,9.055
			c0.589,0.044,1.171,0.103,1.749,0.178L70.746,22.223z M66.298,30.941l0.667-9.065c-0.665-0.029-1.335-0.05-2.008-0.05
			c-0.029,0-0.057,0.003-0.086,0.003v9.081c0.029,0,0.057-0.002,0.086-0.002C65.408,30.907,65.854,30.923,66.298,30.941z
			 M94.501,82.109l7.722,4.761c0.558-0.949,1.085-1.918,1.571-2.91l-8.225-3.84C95.237,80.797,94.877,81.458,94.501,82.109z
			 M96.115,78.95l8.22,3.837c0.345-0.761,0.667-1.532,0.967-2.314l-8.543-3.061C96.559,77.932,96.341,78.443,96.115,78.95z
			 M98.814,60.813l9.012-1.048c-0.121-0.998-0.271-1.987-0.461-2.963l-8.893,1.819C98.609,59.344,98.723,60.076,98.814,60.813z
			 M98.205,57.354l8.893-1.819c-0.167-0.75-0.356-1.49-0.562-2.224l-8.726,2.495C97.953,56.317,98.085,56.833,98.205,57.354z
			 M96.039,50.947l8.439-3.366c-0.382-0.861-0.789-1.707-1.225-2.538l-8.036,4.215C95.506,49.814,95.779,50.375,96.039,50.947z
			 M97.44,54.562l8.735-2.497c-0.351-1.119-0.754-2.213-1.192-3.29l-8.428,3.36C96.879,52.933,97.175,53.739,97.44,54.562z
			 M98.187,72.794l8.786,2.268c0.264-1.107,0.492-2.226,0.671-3.364l-8.997-1.225C98.521,71.257,98.364,72.028,98.187,72.794z
			 M82.43,35.719l4.993-7.597c-0.951-0.581-1.933-1.115-2.931-1.623L80.394,34.6C81.085,34.952,81.766,35.322,82.43,35.719z
			 M79.229,34.036l4.104-8.109c-0.65-0.307-1.312-0.597-1.979-0.871l-3.425,8.41C78.368,33.646,78.801,33.837,79.229,34.036z
			 M85.246,37.595l5.771-7.019c-0.812-0.615-1.648-1.197-2.501-1.753l-4.989,7.586C84.113,36.789,84.687,37.182,85.246,37.595z
			 M94.595,48.123l8.043-4.22c-0.332-0.591-0.677-1.173-1.035-1.747l-7.694,4.818C94.146,47.353,94.373,47.735,94.595,48.123z"/>
	</g>
</g>
</svg>
