<?xml version="1.0" encoding="utf-8"?>
<!-- Generator: Adobe Illustrator 16.0.0, SVG Export Plug-In . SVG Version: 6.00 Build 0)  -->
<!DOCTYPE svg PUBLIC "-//W3C//DTD SVG 1.1//EN" "http://www.w3.org/Graphics/SVG/1.1/DTD/svg11.dtd">
<svg version="1.1" id="Layer_1" xmlns="http://www.w3.org/2000/svg" xmlns:xlink="http://www.w3.org/1999/xlink" x="0px" y="0px"
	 width="130px" height="130px" viewBox="0 0 130 130" enable-background="new 0 0 130 130" xml:space="preserve">
<g>
	<circle fill="#2980DE" cx="65" cy="64.999" r="64"/>
	<g>
		<rect x="22.931" y="34.888" fill="#FFFFFF" width="26.875" height="10.75"/>
		<rect x="51.606" y="34.888" fill="#FFFFFF" width="26.876" height="10.75"/>
		<rect x="80.196" y="34.888" fill="#FFFFFF" width="26.874" height="10.75"/>
		<rect x="51.606" y="47.295" opacity="0.6" fill="#FFFFFF" width="26.876" height="10.75"/>
		<rect x="80.196" y="47.295" opacity="0.6" fill="#FFFFFF" width="26.874" height="10.75"/>
		<rect x="22.931" y="47.295" fill="#FFFFFF" width="26.875" height="10.75"/>
		<rect x="51.606" y="60.027" opacity="0.6" fill="#FFFFFF" width="26.876" height="10.75"/>
		<rect x="80.196" y="60.027" opacity="0.6" fill="#FFFFFF" width="26.874" height="10.75"/>
		<rect x="22.931" y="60.027" fill="#FFFFFF" width="26.875" height="10.75"/>
		<rect x="51.606" y="72.614" opacity="0.6" fill="#FFFFFF" width="26.876" height="10.75"/>
		<rect x="80.196" y="72.614" opacity="0.6" fill="#FFFFFF" width="26.874" height="10.75"/>
		<rect x="22.931" y="72.614" fill="#FFFFFF" width="26.875" height="10.75"/>
		<rect x="51.606" y="85.488" opacity="0.6" fill="#FFFFFF" width="26.876" height="10.75"/>
		<rect x="80.196" y="85.488" opacity="0.6" fill="#FFFFFF" width="26.874" height="10.75"/>
		<rect x="22.931" y="85.488" fill="#FFFFFF" width="26.875" height="10.75"/>
		<text transform="matrix(1 0 0 1 25.2607 55.9033)" fill="#2980DE" font-family="'TimesNewRomanPSMT'" font-size="9.5109">09:00</text>
		<text transform="matrix(1 0 0 1 60.9316 54.7578)" fill="#2980DE" font-family="'TimesNewRomanPS-BoldMT'" font-size="9.5109">- -</text>
		<text transform="matrix(1 0 0 1 60.9316 67.5371)" fill="#2980DE" font-family="'TimesNewRomanPS-BoldMT'" font-size="9.5109">- -</text>
		<text transform="matrix(1 0 0 1 60.9316 80.6982)" fill="#2980DE" font-family="'TimesNewRomanPS-BoldMT'" font-size="9.5109">- -</text>
		<text transform="matrix(1 0 0 1 60.9316 93.2852)" fill="#2980DE" font-family="'TimesNewRomanPS-BoldMT'" font-size="9.5109">- -</text>
		<text transform="matrix(1 0 0 1 88.7764 54.7578)" fill="#2980DE" font-family="'TimesNewRomanPS-BoldMT'" font-size="9.5109">- -</text>
		<text transform="matrix(1 0 0 1 88.7764 67.5371)" fill="#2980DE" font-family="'TimesNewRomanPS-BoldMT'" font-size="9.5109">- -</text>
		<text transform="matrix(1 0 0 1 88.7764 80.6982)" fill="#2980DE" font-family="'TimesNewRomanPS-BoldMT'" font-size="9.5109">- -</text>
		<text transform="matrix(1 0 0 1 88.7764 93.2852)" fill="#2980DE" font-family="'TimesNewRomanPS-BoldMT'" font-size="9.5109">- -</text>
		<text transform="matrix(1 0 0 1 25.2607 68.4912)" fill="#2980DE" font-family="'TimesNewRomanPSMT'" font-size="9.5109">09:30</text>
		<text transform="matrix(1 0 0 1 25.2607 81.0781)" fill="#2980DE" font-family="'TimesNewRomanPSMT'" font-size="9.5109">10:00</text>
		<text transform="matrix(1 0 0 1 25.2607 93.8115)" fill="#2980DE" font-family="'TimesNewRomanPSMT'" font-size="9.5109">10:30</text>
		<text transform="matrix(1 0 0 1 55.873 43.1719)" fill="#2980DE" font-family="'TimesNewRomanPSMT'" font-size="9.5109">Mon</text>
		<text transform="matrix(1 0 0 1 83.5166 43.3154)" fill="#2980DE" font-family="'TimesNewRomanPSMT'" font-size="9.5109">Tues</text>
	</g>
</g>
</svg>
