<?xml version="1.0" encoding="utf-8"?>
<!-- Generator: Adobe Illustrator 16.0.0, SVG Export Plug-In . SVG Version: 6.00 Build 0)  -->
<!DOCTYPE svg PUBLIC "-//W3C//DTD SVG 1.1//EN" "http://www.w3.org/Graphics/SVG/1.1/DTD/svg11.dtd">
<svg version="1.1" id="Layer_1" xmlns="http://www.w3.org/2000/svg" xmlns:xlink="http://www.w3.org/1999/xlink" x="0px" y="0px"
	 width="130px" height="130px" viewBox="0 0 130 130" enable-background="new 0 0 130 130" xml:space="preserve">
<g>
	<circle fill="#2980DE" cx="65" cy="64.999" r="64"/>
	<g>
		<rect x="31.224" y="34.482" fill="#FFFFFF" width="19.455" height="18.552"/>
		<rect x="80.582" y="34.482" fill="#FFFFFF" width="18.194" height="22.263"/>
		<rect x="80.582" y="58.785" fill="#FFFFFF" width="18.194" height="4.268"/>
		<rect x="80.582" y="79.748" fill="#FFFFFF" width="11.709" height="15.77"/>
		<rect x="80.582" y="64.907" fill="#FFFFFF" width="4.504" height="12.8"/>
		<rect x="87.066" y="64.907" fill="#FFFFFF" width="4.865" height="12.8"/>
		<rect x="94.271" y="64.907" fill="#FFFFFF" width="4.144" height="12.8"/>
		<rect x="94.271" y="88.745" fill="#FFFFFF" width="4.144" height="6.585"/>
		<rect x="94.271" y="80.026" fill="#FFFFFF" width="4.144" height="6.585"/>
		<rect x="52.841" y="34.482" fill="#FFFFFF" width="25.579" height="28.569"/>
		<rect x="52.841" y="64.905" fill="#FFFFFF" width="14.411" height="17.623"/>
		<rect x="69.054" y="64.905" fill="#FFFFFF" width="9.367" height="17.623"/>
		<rect x="69.054" y="91.062" fill="#FFFFFF" width="9.367" height="4.267"/>
		<rect x="69.054" y="84.755" fill="#FFFFFF" width="9.367" height="4.638"/>
		<rect x="52.841" y="84.478" fill="#FFFFFF" width="6.846" height="10.76"/>
		<rect x="61.667" y="84.478" fill="#FFFFFF" width="5.585" height="10.76"/>
		<rect x="31.224" y="76.778" fill="#FFFFFF" width="8.646" height="18.552"/>
		<rect x="31.224" y="55.306" fill="#FFFFFF" width="19.455" height="8.533"/>
		<rect x="31.224" y="66.019" fill="#FFFFFF" width="8.646" height="8.534"/>
		<rect x="42.393" y="66.112" fill="#FFFFFF" width="8.646" height="8.533"/>
		<rect x="42.393" y="90.321" fill="#FFFFFF" width="8.646" height="5.009"/>
		<rect x="42.393" y="76.918" fill="#FFFFFF" width="8.646" height="11.13"/>
	</g>
</g>
</svg>
