<?xml version="1.0" encoding="utf-8"?>
<!-- Generator: Adobe Illustrator 16.0.0, SVG Export Plug-In . SVG Version: 6.00 Build 0)  -->
<!DOCTYPE svg PUBLIC "-//W3C//DTD SVG 1.1//EN" "http://www.w3.org/Graphics/SVG/1.1/DTD/svg11.dtd">
<svg version="1.1" id="Layer_1" xmlns="http://www.w3.org/2000/svg" xmlns:xlink="http://www.w3.org/1999/xlink" x="0px" y="0px"
	 width="130px" height="130px" viewBox="0 0 130 130" enable-background="new 0 0 130 130" xml:space="preserve">
<g>
	<circle fill="#2980DE" cx="65" cy="64.999" r="64"/>
	<g>
		<path opacity="0.5" fill="#FFFFFF" d="M21.144,54.369c-0.101,4.235,0.017,8.479-0.017,12.711c-0.013,1.76-0.207,3.513-0.215,5.259
			c-0.004,1.311,0.004,2.658,1.193,3.19c7.395,3.306,14.554,7.545,22.396,9.549c3.771,0.965,7.658,2.536,11.574,2.303
			c3.747-0.224,7.838-0.335,11.424-1.58c3.526-1.225,7.178-2.253,10.612-3.754c3.477-1.521,6.426-3.91,9.419-6.285
			c3.03-2.405,6.332-4.321,9.439-6.598c1.427-1.045,2.865-2.078,4.587-2.472c1.701-0.387,3.474-0.309,5.209-0.381
			c0.628-0.025,1.254-0.121,1.883-0.046l3.359-0.025c0.623-0.633,0.384-1.648,0.46-2.453c-3.053-0.271-6.149-0.04-9.176-0.627
			c-3.021-0.587-5.569-2.397-8.15-4.044c-2.725-1.737-5.501-3.321-8.141-5.209c-2.647-1.894-5.228-3.888-7.899-5.742
			c-1.291-0.899-2.585-1.879-4.06-2.413c-1.418-0.515-2.916-0.704-4.389-0.969c-3.182-0.57-6.271-1.705-9.498-1.992
			c-6.302-0.559-12.967,0.046-18.941,2.276c-6.434,2.403-12.916,4.513-18.894,8.036C22.598,53.531,21.874,53.958,21.144,54.369"/>
		<line fill="none" stroke="#2980DE" x1="18.185" y1="65.068" x2="114.901" y2="65.068"/>
		<rect x="39.409" y="59.292" fill="#FFFFFF" stroke="#2980DE" stroke-width="0.5" width="37.057" height="11.152"/>
		<ellipse fill="#2980DE" cx="53.283" cy="64.832" rx="3.425" ry="3.083"/>
	</g>
</g>
</svg>
