<?xml version="1.0" encoding="utf-8" standalone="no"?>
<!DOCTYPE svg PUBLIC "-//W3C//DTD SVG 1.1//EN"
  "http://www.w3.org/Graphics/SVG/1.1/DTD/svg11.dtd">
<svg height="252pt" version="1.1" viewBox="0 0 324 252" width="324pt" xmlns="http://www.w3.org/2000/svg" xmlns:xlink="http://www.w3.org/1999/xlink">
 <metadata>
  <rdf:RDF xmlns:cc="http://creativecommons.org/ns#" xmlns:dc="http://purl.org/dc/elements/1.1/" xmlns:rdf="http://www.w3.org/1999/02/22-rdf-syntax-ns#">
   <cc:Work>
    <dc:type rdf:resource="http://purl.org/dc/dcmitype/StillImage"/>
    <dc:date>2022-07-14T17:15:36.776356</dc:date>
    <dc:format>image/svg+xml</dc:format>
    <dc:creator>
     <cc:Agent>
      <dc:title>Matplotlib v3.4.3, https://matplotlib.org/</dc:title>
     </cc:Agent>
    </dc:creator>
   </cc:Work>
  </rdf:RDF>
 </metadata>
 <defs>
  <style type="text/css">*{stroke-linecap:butt;stroke-linejoin:round;}</style>
 </defs>
 <g id="figure_1">
  <g id="patch_1">
   <path d="M 0 252 
L 324 252 
L 324 0 
L 0 0 
z
" style="fill:#ffffff;"/>
  </g>
  <g id="axes_1">
   <g id="patch_2">
    <path d="M 41.95 211.58 
L 313.02 211.58 
L 313.02 30.96 
L 41.95 30.96 
z
" style="fill:#ffffff;"/>
   </g>
   <g id="matplotlib.axis_1">
    <g id="xtick_1">
     <g id="line2d_1">
      <path clip-path="url(#pe8c393cd16)" d="M 54.858095 211.58 
L 54.858095 30.96 
" style="fill:none;stroke:#000000;stroke-linecap:square;stroke-opacity:0.1;stroke-width:0.6;"/>
     </g>
     <g id="line2d_2">
      <defs>
       <path d="M 0 0 
L 0 4 
" id="m60da7cbeca" style="stroke:#000000;stroke-width:0.6;"/>
      </defs>
      <g>
       <use style="stroke:#000000;stroke-width:0.6;" x="54.858095" xlink:href="#m60da7cbeca" y="211.58"/>
      </g>
     </g>
     <g id="text_1">
      <!-- 0 -->
      <g transform="translate(51.608095 226.606875)scale(0.13 -0.13)">
       <defs>
        <path d="M 231 2094 
Q 231 2819 450 3342 
Q 669 3866 1031 4122 
Q 1313 4325 1613 4325 
Q 2100 4325 2488 3828 
Q 2972 3213 2972 2159 
Q 2972 1422 2759 906 
Q 2547 391 2217 158 
Q 1888 -75 1581 -75 
Q 975 -75 572 641 
Q 231 1244 231 2094 
z
M 844 2016 
Q 844 1141 1059 588 
Q 1238 122 1591 122 
Q 1759 122 1940 273 
Q 2122 425 2216 781 
Q 2359 1319 2359 2297 
Q 2359 3022 2209 3506 
Q 2097 3866 1919 4016 
Q 1791 4119 1609 4119 
Q 1397 4119 1231 3928 
Q 1006 3669 925 3112 
Q 844 2556 844 2016 
z
" id="TimesNewRomanPSMT-30" transform="scale(0.015625)"/>
       </defs>
       <use xlink:href="#TimesNewRomanPSMT-30"/>
      </g>
     </g>
    </g>
    <g id="xtick_2">
     <g id="line2d_3">
      <path clip-path="url(#pe8c393cd16)" d="M 119.398571 211.58 
L 119.398571 30.96 
" style="fill:none;stroke:#000000;stroke-linecap:square;stroke-opacity:0.1;stroke-width:0.6;"/>
     </g>
     <g id="line2d_4">
      <g>
       <use style="stroke:#000000;stroke-width:0.6;" x="119.398571" xlink:href="#m60da7cbeca" y="211.58"/>
      </g>
     </g>
     <g id="text_2">
      <!-- 10 -->
      <g transform="translate(112.898571 226.606875)scale(0.13 -0.13)">
       <defs>
        <path d="M 750 3822 
L 1781 4325 
L 1884 4325 
L 1884 747 
Q 1884 391 1914 303 
Q 1944 216 2037 169 
Q 2131 122 2419 116 
L 2419 0 
L 825 0 
L 825 116 
Q 1125 122 1212 167 
Q 1300 213 1334 289 
Q 1369 366 1369 747 
L 1369 3034 
Q 1369 3497 1338 3628 
Q 1316 3728 1258 3775 
Q 1200 3822 1119 3822 
Q 1003 3822 797 3725 
L 750 3822 
z
" id="TimesNewRomanPSMT-31" transform="scale(0.015625)"/>
       </defs>
       <use xlink:href="#TimesNewRomanPSMT-31"/>
       <use x="50" xlink:href="#TimesNewRomanPSMT-30"/>
      </g>
     </g>
    </g>
    <g id="xtick_3">
     <g id="line2d_5">
      <path clip-path="url(#pe8c393cd16)" d="M 183.939048 211.58 
L 183.939048 30.96 
" style="fill:none;stroke:#000000;stroke-linecap:square;stroke-opacity:0.1;stroke-width:0.6;"/>
     </g>
     <g id="line2d_6">
      <g>
       <use style="stroke:#000000;stroke-width:0.6;" x="183.939048" xlink:href="#m60da7cbeca" y="211.58"/>
      </g>
     </g>
     <g id="text_3">
      <!-- 20 -->
      <g transform="translate(177.439048 226.606875)scale(0.13 -0.13)">
       <defs>
        <path d="M 2934 816 
L 2638 0 
L 138 0 
L 138 116 
Q 1241 1122 1691 1759 
Q 2141 2397 2141 2925 
Q 2141 3328 1894 3587 
Q 1647 3847 1303 3847 
Q 991 3847 742 3664 
Q 494 3481 375 3128 
L 259 3128 
Q 338 3706 661 4015 
Q 984 4325 1469 4325 
Q 1984 4325 2329 3994 
Q 2675 3663 2675 3213 
Q 2675 2891 2525 2569 
Q 2294 2063 1775 1497 
Q 997 647 803 472 
L 1909 472 
Q 2247 472 2383 497 
Q 2519 522 2628 598 
Q 2738 675 2819 816 
L 2934 816 
z
" id="TimesNewRomanPSMT-32" transform="scale(0.015625)"/>
       </defs>
       <use xlink:href="#TimesNewRomanPSMT-32"/>
       <use x="50" xlink:href="#TimesNewRomanPSMT-30"/>
      </g>
     </g>
    </g>
    <g id="xtick_4">
     <g id="line2d_7">
      <path clip-path="url(#pe8c393cd16)" d="M 248.479524 211.58 
L 248.479524 30.96 
" style="fill:none;stroke:#000000;stroke-linecap:square;stroke-opacity:0.1;stroke-width:0.6;"/>
     </g>
     <g id="line2d_8">
      <g>
       <use style="stroke:#000000;stroke-width:0.6;" x="248.479524" xlink:href="#m60da7cbeca" y="211.58"/>
      </g>
     </g>
     <g id="text_4">
      <!-- 30 -->
      <g transform="translate(241.979524 226.606875)scale(0.13 -0.13)">
       <defs>
        <path d="M 325 3431 
Q 506 3859 782 4092 
Q 1059 4325 1472 4325 
Q 1981 4325 2253 3994 
Q 2459 3747 2459 3466 
Q 2459 3003 1878 2509 
Q 2269 2356 2469 2072 
Q 2669 1788 2669 1403 
Q 2669 853 2319 450 
Q 1863 -75 997 -75 
Q 569 -75 414 31 
Q 259 138 259 259 
Q 259 350 332 419 
Q 406 488 509 488 
Q 588 488 669 463 
Q 722 447 909 348 
Q 1097 250 1169 231 
Q 1284 197 1416 197 
Q 1734 197 1970 444 
Q 2206 691 2206 1028 
Q 2206 1275 2097 1509 
Q 2016 1684 1919 1775 
Q 1784 1900 1550 2001 
Q 1316 2103 1072 2103 
L 972 2103 
L 972 2197 
Q 1219 2228 1467 2375 
Q 1716 2522 1828 2728 
Q 1941 2934 1941 3181 
Q 1941 3503 1739 3701 
Q 1538 3900 1238 3900 
Q 753 3900 428 3381 
L 325 3431 
z
" id="TimesNewRomanPSMT-33" transform="scale(0.015625)"/>
       </defs>
       <use xlink:href="#TimesNewRomanPSMT-33"/>
       <use x="50" xlink:href="#TimesNewRomanPSMT-30"/>
      </g>
     </g>
    </g>
    <g id="xtick_5">
     <g id="line2d_9">
      <path clip-path="url(#pe8c393cd16)" d="M 313.02 211.58 
L 313.02 30.96 
" style="fill:none;stroke:#000000;stroke-linecap:square;stroke-opacity:0.1;stroke-width:0.6;"/>
     </g>
     <g id="line2d_10">
      <g>
       <use style="stroke:#000000;stroke-width:0.6;" x="313.02" xlink:href="#m60da7cbeca" y="211.58"/>
      </g>
     </g>
     <g id="text_5">
      <!-- 40 -->
      <g transform="translate(306.52 226.606875)scale(0.13 -0.13)">
       <defs>
        <path d="M 2978 1563 
L 2978 1119 
L 2409 1119 
L 2409 0 
L 1894 0 
L 1894 1119 
L 100 1119 
L 100 1519 
L 2066 4325 
L 2409 4325 
L 2409 1563 
L 2978 1563 
z
M 1894 1563 
L 1894 3666 
L 406 1563 
L 1894 1563 
z
" id="TimesNewRomanPSMT-34" transform="scale(0.015625)"/>
       </defs>
       <use xlink:href="#TimesNewRomanPSMT-34"/>
       <use x="50" xlink:href="#TimesNewRomanPSMT-30"/>
      </g>
     </g>
    </g>
    <g id="xtick_6">
     <g id="line2d_11">
      <defs>
       <path d="M 0 0 
L 0 2 
" id="m9bd401074b" style="stroke:#000000;stroke-width:0.48;"/>
      </defs>
      <g>
       <use style="stroke:#000000;stroke-width:0.48;" x="67.76619" xlink:href="#m9bd401074b" y="211.58"/>
      </g>
     </g>
    </g>
    <g id="xtick_7">
     <g id="line2d_12">
      <g>
       <use style="stroke:#000000;stroke-width:0.48;" x="80.674286" xlink:href="#m9bd401074b" y="211.58"/>
      </g>
     </g>
    </g>
    <g id="xtick_8">
     <g id="line2d_13">
      <g>
       <use style="stroke:#000000;stroke-width:0.48;" x="93.582381" xlink:href="#m9bd401074b" y="211.58"/>
      </g>
     </g>
    </g>
    <g id="xtick_9">
     <g id="line2d_14">
      <g>
       <use style="stroke:#000000;stroke-width:0.48;" x="106.490476" xlink:href="#m9bd401074b" y="211.58"/>
      </g>
     </g>
    </g>
    <g id="xtick_10">
     <g id="line2d_15">
      <g>
       <use style="stroke:#000000;stroke-width:0.48;" x="132.306667" xlink:href="#m9bd401074b" y="211.58"/>
      </g>
     </g>
    </g>
    <g id="xtick_11">
     <g id="line2d_16">
      <g>
       <use style="stroke:#000000;stroke-width:0.48;" x="145.214762" xlink:href="#m9bd401074b" y="211.58"/>
      </g>
     </g>
    </g>
    <g id="xtick_12">
     <g id="line2d_17">
      <g>
       <use style="stroke:#000000;stroke-width:0.48;" x="158.122857" xlink:href="#m9bd401074b" y="211.58"/>
      </g>
     </g>
    </g>
    <g id="xtick_13">
     <g id="line2d_18">
      <g>
       <use style="stroke:#000000;stroke-width:0.48;" x="171.030952" xlink:href="#m9bd401074b" y="211.58"/>
      </g>
     </g>
    </g>
    <g id="xtick_14">
     <g id="line2d_19">
      <g>
       <use style="stroke:#000000;stroke-width:0.48;" x="196.847143" xlink:href="#m9bd401074b" y="211.58"/>
      </g>
     </g>
    </g>
    <g id="xtick_15">
     <g id="line2d_20">
      <g>
       <use style="stroke:#000000;stroke-width:0.48;" x="209.755238" xlink:href="#m9bd401074b" y="211.58"/>
      </g>
     </g>
    </g>
    <g id="xtick_16">
     <g id="line2d_21">
      <g>
       <use style="stroke:#000000;stroke-width:0.48;" x="222.663333" xlink:href="#m9bd401074b" y="211.58"/>
      </g>
     </g>
    </g>
    <g id="xtick_17">
     <g id="line2d_22">
      <g>
       <use style="stroke:#000000;stroke-width:0.48;" x="235.571429" xlink:href="#m9bd401074b" y="211.58"/>
      </g>
     </g>
    </g>
    <g id="xtick_18">
     <g id="line2d_23">
      <g>
       <use style="stroke:#000000;stroke-width:0.48;" x="261.387619" xlink:href="#m9bd401074b" y="211.58"/>
      </g>
     </g>
    </g>
    <g id="xtick_19">
     <g id="line2d_24">
      <g>
       <use style="stroke:#000000;stroke-width:0.48;" x="274.295714" xlink:href="#m9bd401074b" y="211.58"/>
      </g>
     </g>
    </g>
    <g id="xtick_20">
     <g id="line2d_25">
      <g>
       <use style="stroke:#000000;stroke-width:0.48;" x="287.20381" xlink:href="#m9bd401074b" y="211.58"/>
      </g>
     </g>
    </g>
    <g id="xtick_21">
     <g id="line2d_26">
      <g>
       <use style="stroke:#000000;stroke-width:0.48;" x="300.111905" xlink:href="#m9bd401074b" y="211.58"/>
      </g>
     </g>
    </g>
    <g id="text_6">
     <!--   -->
     <g transform="translate(175.61 243.803281)scale(0.15 -0.15)">
      <defs>
       <path id="TimesNewRomanPSMT-20" transform="scale(0.015625)"/>
      </defs>
      <use xlink:href="#TimesNewRomanPSMT-20"/>
     </g>
    </g>
   </g>
   <g id="matplotlib.axis_2">
    <g id="ytick_1">
     <g id="line2d_27">
      <path clip-path="url(#pe8c393cd16)" d="M 41.95 173.554737 
L 313.02 173.554737 
" style="fill:none;stroke:#000000;stroke-linecap:square;stroke-opacity:0.1;stroke-width:0.6;"/>
     </g>
     <g id="line2d_28">
      <defs>
       <path d="M 0 0 
L -4 0 
" id="me1c98cbe9d" style="stroke:#000000;stroke-width:0.6;"/>
      </defs>
      <g>
       <use style="stroke:#000000;stroke-width:0.6;" x="41.95" xlink:href="#me1c98cbe9d" y="173.554737"/>
      </g>
     </g>
     <g id="text_7">
      <!-- 0 -->
      <g transform="translate(29.45 178.068174)scale(0.13 -0.13)">
       <use xlink:href="#TimesNewRomanPSMT-30"/>
      </g>
     </g>
    </g>
    <g id="ytick_2">
     <g id="line2d_29">
      <path clip-path="url(#pe8c393cd16)" d="M 41.95 126.023158 
L 313.02 126.023158 
" style="fill:none;stroke:#000000;stroke-linecap:square;stroke-opacity:0.1;stroke-width:0.6;"/>
     </g>
     <g id="line2d_30">
      <g>
       <use style="stroke:#000000;stroke-width:0.6;" x="41.95" xlink:href="#me1c98cbe9d" y="126.023158"/>
      </g>
     </g>
     <g id="text_8">
      <!-- 10 -->
      <g transform="translate(22.95 130.536595)scale(0.13 -0.13)">
       <use xlink:href="#TimesNewRomanPSMT-31"/>
       <use x="50" xlink:href="#TimesNewRomanPSMT-30"/>
      </g>
     </g>
    </g>
    <g id="ytick_3">
     <g id="line2d_31">
      <path clip-path="url(#pe8c393cd16)" d="M 41.95 78.491579 
L 313.02 78.491579 
" style="fill:none;stroke:#000000;stroke-linecap:square;stroke-opacity:0.1;stroke-width:0.6;"/>
     </g>
     <g id="line2d_32">
      <g>
       <use style="stroke:#000000;stroke-width:0.6;" x="41.95" xlink:href="#me1c98cbe9d" y="78.491579"/>
      </g>
     </g>
     <g id="text_9">
      <!-- 20 -->
      <g transform="translate(22.95 83.005016)scale(0.13 -0.13)">
       <use xlink:href="#TimesNewRomanPSMT-32"/>
       <use x="50" xlink:href="#TimesNewRomanPSMT-30"/>
      </g>
     </g>
    </g>
    <g id="ytick_4">
     <g id="line2d_33">
      <path clip-path="url(#pe8c393cd16)" d="M 41.95 30.96 
L 313.02 30.96 
" style="fill:none;stroke:#000000;stroke-linecap:square;stroke-opacity:0.1;stroke-width:0.6;"/>
     </g>
     <g id="line2d_34">
      <g>
       <use style="stroke:#000000;stroke-width:0.6;" x="41.95" xlink:href="#me1c98cbe9d" y="30.96"/>
      </g>
     </g>
     <g id="text_10">
      <!-- 30 -->
      <g transform="translate(22.95 35.473438)scale(0.13 -0.13)">
       <use xlink:href="#TimesNewRomanPSMT-33"/>
       <use x="50" xlink:href="#TimesNewRomanPSMT-30"/>
      </g>
     </g>
    </g>
    <g id="ytick_5">
     <g id="line2d_35">
      <defs>
       <path d="M 0 0 
L -2 0 
" id="m0b30f478aa" style="stroke:#000000;stroke-width:0.48;"/>
      </defs>
      <g>
       <use style="stroke:#000000;stroke-width:0.48;" x="41.95" xlink:href="#m0b30f478aa" y="202.073684"/>
      </g>
     </g>
    </g>
    <g id="ytick_6">
     <g id="line2d_36">
      <g>
       <use style="stroke:#000000;stroke-width:0.48;" x="41.95" xlink:href="#m0b30f478aa" y="192.567368"/>
      </g>
     </g>
    </g>
    <g id="ytick_7">
     <g id="line2d_37">
      <g>
       <use style="stroke:#000000;stroke-width:0.48;" x="41.95" xlink:href="#m0b30f478aa" y="183.061053"/>
      </g>
     </g>
    </g>
    <g id="ytick_8">
     <g id="line2d_38">
      <g>
       <use style="stroke:#000000;stroke-width:0.48;" x="41.95" xlink:href="#m0b30f478aa" y="164.048421"/>
      </g>
     </g>
    </g>
    <g id="ytick_9">
     <g id="line2d_39">
      <g>
       <use style="stroke:#000000;stroke-width:0.48;" x="41.95" xlink:href="#m0b30f478aa" y="154.542105"/>
      </g>
     </g>
    </g>
    <g id="ytick_10">
     <g id="line2d_40">
      <g>
       <use style="stroke:#000000;stroke-width:0.48;" x="41.95" xlink:href="#m0b30f478aa" y="145.035789"/>
      </g>
     </g>
    </g>
    <g id="ytick_11">
     <g id="line2d_41">
      <g>
       <use style="stroke:#000000;stroke-width:0.48;" x="41.95" xlink:href="#m0b30f478aa" y="135.529474"/>
      </g>
     </g>
    </g>
    <g id="ytick_12">
     <g id="line2d_42">
      <g>
       <use style="stroke:#000000;stroke-width:0.48;" x="41.95" xlink:href="#m0b30f478aa" y="116.516842"/>
      </g>
     </g>
    </g>
    <g id="ytick_13">
     <g id="line2d_43">
      <g>
       <use style="stroke:#000000;stroke-width:0.48;" x="41.95" xlink:href="#m0b30f478aa" y="107.010526"/>
      </g>
     </g>
    </g>
    <g id="ytick_14">
     <g id="line2d_44">
      <g>
       <use style="stroke:#000000;stroke-width:0.48;" x="41.95" xlink:href="#m0b30f478aa" y="97.504211"/>
      </g>
     </g>
    </g>
    <g id="ytick_15">
     <g id="line2d_45">
      <g>
       <use style="stroke:#000000;stroke-width:0.48;" x="41.95" xlink:href="#m0b30f478aa" y="87.997895"/>
      </g>
     </g>
    </g>
    <g id="ytick_16">
     <g id="line2d_46">
      <g>
       <use style="stroke:#000000;stroke-width:0.48;" x="41.95" xlink:href="#m0b30f478aa" y="68.985263"/>
      </g>
     </g>
    </g>
    <g id="ytick_17">
     <g id="line2d_47">
      <g>
       <use style="stroke:#000000;stroke-width:0.48;" x="41.95" xlink:href="#m0b30f478aa" y="59.478947"/>
      </g>
     </g>
    </g>
    <g id="ytick_18">
     <g id="line2d_48">
      <g>
       <use style="stroke:#000000;stroke-width:0.48;" x="41.95" xlink:href="#m0b30f478aa" y="49.972632"/>
      </g>
     </g>
    </g>
    <g id="ytick_19">
     <g id="line2d_49">
      <g>
       <use style="stroke:#000000;stroke-width:0.48;" x="41.95" xlink:href="#m0b30f478aa" y="40.466316"/>
      </g>
     </g>
    </g>
    <g id="text_11">
     <!--   -->
     <g transform="translate(15.741406 123.145)rotate(-90)scale(0.15 -0.15)">
      <use xlink:href="#TimesNewRomanPSMT-20"/>
     </g>
    </g>
   </g>
   <g id="LineCollection_1">
    <path clip-path="url(#pe8c393cd16)" d="M 54.858095 173.554737 
L 54.858095 173.554737 
" style="fill:none;stroke:#000000;"/>
    <path clip-path="url(#pe8c393cd16)" d="M 74.220238 154.542105 
L 74.220238 145.035789 
" style="fill:none;stroke:#000000;"/>
    <path clip-path="url(#pe8c393cd16)" d="M 100.036429 140.282632 
L 100.036429 130.776316 
" style="fill:none;stroke:#000000;"/>
    <path clip-path="url(#pe8c393cd16)" d="M 119.398571 133.152895 
L 119.398571 118.893421 
" style="fill:none;stroke:#000000;"/>
    <path clip-path="url(#pe8c393cd16)" d="M 145.214762 126.023158 
L 145.214762 107.010526 
" style="fill:none;stroke:#000000;"/>
    <path clip-path="url(#pe8c393cd16)" d="M 190.393095 123.646579 
L 190.393095 99.880789 
" style="fill:none;stroke:#000000;"/>
    <path clip-path="url(#pe8c393cd16)" d="M 209.755238 101.306737 
L 209.755238 84.195368 
" style="fill:none;stroke:#000000;"/>
    <path clip-path="url(#pe8c393cd16)" d="M 235.571429 97.504211 
L 235.571429 68.985263 
" style="fill:none;stroke:#000000;"/>
    <path clip-path="url(#pe8c393cd16)" d="M 267.841667 78.491579 
L 267.841667 59.478947 
" style="fill:none;stroke:#000000;"/>
    <path clip-path="url(#pe8c393cd16)" d="M 287.20381 68.985263 
L 287.20381 40.466316 
" style="fill:none;stroke:#000000;"/>
   </g>
   <g id="LineCollection_2">
    <path clip-path="url(#pe8c393cd16)" d="M 54.858095 173.554737 
L 54.858095 173.554737 
" style="fill:none;stroke:#000000;"/>
    <path clip-path="url(#pe8c393cd16)" d="M 74.220238 168.801579 
L 74.220238 159.295263 
" style="fill:none;stroke:#000000;"/>
    <path clip-path="url(#pe8c393cd16)" d="M 100.036429 154.542105 
L 100.036429 145.035789 
" style="fill:none;stroke:#000000;"/>
    <path clip-path="url(#pe8c393cd16)" d="M 119.398571 139.332 
L 119.398571 131.726947 
" style="fill:none;stroke:#000000;"/>
    <path clip-path="url(#pe8c393cd16)" d="M 145.214762 146.937053 
L 145.214762 133.628211 
" style="fill:none;stroke:#000000;"/>
    <path clip-path="url(#pe8c393cd16)" d="M 190.393095 130.776316 
L 190.393095 121.27 
" style="fill:none;stroke:#000000;"/>
    <path clip-path="url(#pe8c393cd16)" d="M 209.755238 121.27 
L 209.755238 111.763684 
" style="fill:none;stroke:#000000;"/>
    <path clip-path="url(#pe8c393cd16)" d="M 235.571429 114.140263 
L 235.571429 99.880789 
" style="fill:none;stroke:#000000;"/>
    <path clip-path="url(#pe8c393cd16)" d="M 267.841667 102.257368 
L 267.841667 92.751053 
" style="fill:none;stroke:#000000;"/>
    <path clip-path="url(#pe8c393cd16)" d="M 287.20381 87.997895 
L 287.20381 68.985263 
" style="fill:none;stroke:#000000;"/>
   </g>
   <g id="LineCollection_3">
    <path clip-path="url(#pe8c393cd16)" d="M 54.858095 173.554737 
L 54.858095 173.554737 
" style="fill:none;stroke:#000000;"/>
    <path clip-path="url(#pe8c393cd16)" d="M 74.220238 195.419263 
L 74.220238 180.209158 
" style="fill:none;stroke:#000000;"/>
    <path clip-path="url(#pe8c393cd16)" d="M 100.036429 172.604105 
L 100.036429 155.492737 
" style="fill:none;stroke:#000000;"/>
    <path clip-path="url(#pe8c393cd16)" d="M 119.398571 178.307895 
L 119.398571 168.801579 
" style="fill:none;stroke:#000000;"/>
    <path clip-path="url(#pe8c393cd16)" d="M 145.214762 171.178158 
L 145.214762 147.412368 
" style="fill:none;stroke:#000000;"/>
    <path clip-path="url(#pe8c393cd16)" d="M 190.393095 168.801579 
L 190.393095 154.542105 
" style="fill:none;stroke:#000000;"/>
    <path clip-path="url(#pe8c393cd16)" d="M 209.755238 123.646579 
L 209.755238 118.893421 
" style="fill:none;stroke:#000000;"/>
    <path clip-path="url(#pe8c393cd16)" d="M 235.571429 121.27 
L 235.571429 102.257368 
" style="fill:none;stroke:#000000;"/>
    <path clip-path="url(#pe8c393cd16)" d="M 267.841667 106.535211 
L 267.841667 88.473211 
" style="fill:none;stroke:#000000;"/>
    <path clip-path="url(#pe8c393cd16)" d="M 287.20381 78.491579 
L 287.20381 68.985263 
" style="fill:none;stroke:#000000;"/>
   </g>
   <g id="LineCollection_4">
    <path clip-path="url(#pe8c393cd16)" d="M 54.858095 173.554737 
L 54.858095 173.554737 
" style="fill:none;stroke:#000000;"/>
    <path clip-path="url(#pe8c393cd16)" d="M 74.220238 199.697105 
L 74.220238 185.437632 
" style="fill:none;stroke:#000000;"/>
    <path clip-path="url(#pe8c393cd16)" d="M 100.036429 168.801579 
L 100.036429 149.788947 
" style="fill:none;stroke:#000000;"/>
    <path clip-path="url(#pe8c393cd16)" d="M 119.398571 180.684474 
L 119.398571 161.671842 
" style="fill:none;stroke:#000000;"/>
    <path clip-path="url(#pe8c393cd16)" d="M 145.214762 154.542105 
L 145.214762 145.035789 
" style="fill:none;stroke:#000000;"/>
    <path clip-path="url(#pe8c393cd16)" d="M 190.393095 190.190789 
L 190.393095 175.931316 
" style="fill:none;stroke:#000000;"/>
    <path clip-path="url(#pe8c393cd16)" d="M 209.755238 147.412368 
L 209.755238 123.646579 
" style="fill:none;stroke:#000000;"/>
    <path clip-path="url(#pe8c393cd16)" d="M 235.571429 135.529474 
L 235.571429 116.516842 
" style="fill:none;stroke:#000000;"/>
    <path clip-path="url(#pe8c393cd16)" d="M 267.841667 116.516842 
L 267.841667 107.010526 
" style="fill:none;stroke:#000000;"/>
    <path clip-path="url(#pe8c393cd16)" d="M 287.20381 114.140263 
L 287.20381 90.374474 
" style="fill:none;stroke:#000000;"/>
   </g>
   <g id="line2d_50">
    <defs>
     <path d="M 5 0 
L -5 -0 
" id="m77184406b2" style="stroke:#000000;"/>
    </defs>
    <g clip-path="url(#pe8c393cd16)">
     <use style="stroke:#000000;" x="54.858095" xlink:href="#m77184406b2" y="173.554737"/>
     <use style="stroke:#000000;" x="74.220238" xlink:href="#m77184406b2" y="154.542105"/>
     <use style="stroke:#000000;" x="100.036429" xlink:href="#m77184406b2" y="140.282632"/>
     <use style="stroke:#000000;" x="119.398571" xlink:href="#m77184406b2" y="133.152895"/>
     <use style="stroke:#000000;" x="145.214762" xlink:href="#m77184406b2" y="126.023158"/>
     <use style="stroke:#000000;" x="190.393095" xlink:href="#m77184406b2" y="123.646579"/>
     <use style="stroke:#000000;" x="209.755238" xlink:href="#m77184406b2" y="101.306737"/>
     <use style="stroke:#000000;" x="235.571429" xlink:href="#m77184406b2" y="97.504211"/>
     <use style="stroke:#000000;" x="267.841667" xlink:href="#m77184406b2" y="78.491579"/>
     <use style="stroke:#000000;" x="287.20381" xlink:href="#m77184406b2" y="68.985263"/>
    </g>
   </g>
   <g id="line2d_51">
    <g clip-path="url(#pe8c393cd16)">
     <use style="stroke:#000000;" x="54.858095" xlink:href="#m77184406b2" y="173.554737"/>
     <use style="stroke:#000000;" x="74.220238" xlink:href="#m77184406b2" y="145.035789"/>
     <use style="stroke:#000000;" x="100.036429" xlink:href="#m77184406b2" y="130.776316"/>
     <use style="stroke:#000000;" x="119.398571" xlink:href="#m77184406b2" y="118.893421"/>
     <use style="stroke:#000000;" x="145.214762" xlink:href="#m77184406b2" y="107.010526"/>
     <use style="stroke:#000000;" x="190.393095" xlink:href="#m77184406b2" y="99.880789"/>
     <use style="stroke:#000000;" x="209.755238" xlink:href="#m77184406b2" y="84.195368"/>
     <use style="stroke:#000000;" x="235.571429" xlink:href="#m77184406b2" y="68.985263"/>
     <use style="stroke:#000000;" x="267.841667" xlink:href="#m77184406b2" y="59.478947"/>
     <use style="stroke:#000000;" x="287.20381" xlink:href="#m77184406b2" y="40.466316"/>
    </g>
   </g>
   <g id="line2d_52">
    <g clip-path="url(#pe8c393cd16)">
     <use style="stroke:#000000;" x="54.858095" xlink:href="#m77184406b2" y="173.554737"/>
     <use style="stroke:#000000;" x="74.220238" xlink:href="#m77184406b2" y="168.801579"/>
     <use style="stroke:#000000;" x="100.036429" xlink:href="#m77184406b2" y="154.542105"/>
     <use style="stroke:#000000;" x="119.398571" xlink:href="#m77184406b2" y="139.332"/>
     <use style="stroke:#000000;" x="145.214762" xlink:href="#m77184406b2" y="146.937053"/>
     <use style="stroke:#000000;" x="190.393095" xlink:href="#m77184406b2" y="130.776316"/>
     <use style="stroke:#000000;" x="209.755238" xlink:href="#m77184406b2" y="121.27"/>
     <use style="stroke:#000000;" x="235.571429" xlink:href="#m77184406b2" y="114.140263"/>
     <use style="stroke:#000000;" x="267.841667" xlink:href="#m77184406b2" y="102.257368"/>
     <use style="stroke:#000000;" x="287.20381" xlink:href="#m77184406b2" y="87.997895"/>
    </g>
   </g>
   <g id="line2d_53">
    <g clip-path="url(#pe8c393cd16)">
     <use style="stroke:#000000;" x="54.858095" xlink:href="#m77184406b2" y="173.554737"/>
     <use style="stroke:#000000;" x="74.220238" xlink:href="#m77184406b2" y="159.295263"/>
     <use style="stroke:#000000;" x="100.036429" xlink:href="#m77184406b2" y="145.035789"/>
     <use style="stroke:#000000;" x="119.398571" xlink:href="#m77184406b2" y="131.726947"/>
     <use style="stroke:#000000;" x="145.214762" xlink:href="#m77184406b2" y="133.628211"/>
     <use style="stroke:#000000;" x="190.393095" xlink:href="#m77184406b2" y="121.27"/>
     <use style="stroke:#000000;" x="209.755238" xlink:href="#m77184406b2" y="111.763684"/>
     <use style="stroke:#000000;" x="235.571429" xlink:href="#m77184406b2" y="99.880789"/>
     <use style="stroke:#000000;" x="267.841667" xlink:href="#m77184406b2" y="92.751053"/>
     <use style="stroke:#000000;" x="287.20381" xlink:href="#m77184406b2" y="68.985263"/>
    </g>
   </g>
   <g id="line2d_54">
    <g clip-path="url(#pe8c393cd16)">
     <use style="stroke:#000000;" x="54.858095" xlink:href="#m77184406b2" y="173.554737"/>
     <use style="stroke:#000000;" x="74.220238" xlink:href="#m77184406b2" y="195.419263"/>
     <use style="stroke:#000000;" x="100.036429" xlink:href="#m77184406b2" y="172.604105"/>
     <use style="stroke:#000000;" x="119.398571" xlink:href="#m77184406b2" y="178.307895"/>
     <use style="stroke:#000000;" x="145.214762" xlink:href="#m77184406b2" y="171.178158"/>
     <use style="stroke:#000000;" x="190.393095" xlink:href="#m77184406b2" y="168.801579"/>
     <use style="stroke:#000000;" x="209.755238" xlink:href="#m77184406b2" y="123.646579"/>
     <use style="stroke:#000000;" x="235.571429" xlink:href="#m77184406b2" y="121.27"/>
     <use style="stroke:#000000;" x="267.841667" xlink:href="#m77184406b2" y="106.535211"/>
     <use style="stroke:#000000;" x="287.20381" xlink:href="#m77184406b2" y="78.491579"/>
    </g>
   </g>
   <g id="line2d_55">
    <g clip-path="url(#pe8c393cd16)">
     <use style="stroke:#000000;" x="54.858095" xlink:href="#m77184406b2" y="173.554737"/>
     <use style="stroke:#000000;" x="74.220238" xlink:href="#m77184406b2" y="180.209158"/>
     <use style="stroke:#000000;" x="100.036429" xlink:href="#m77184406b2" y="155.492737"/>
     <use style="stroke:#000000;" x="119.398571" xlink:href="#m77184406b2" y="168.801579"/>
     <use style="stroke:#000000;" x="145.214762" xlink:href="#m77184406b2" y="147.412368"/>
     <use style="stroke:#000000;" x="190.393095" xlink:href="#m77184406b2" y="154.542105"/>
     <use style="stroke:#000000;" x="209.755238" xlink:href="#m77184406b2" y="118.893421"/>
     <use style="stroke:#000000;" x="235.571429" xlink:href="#m77184406b2" y="102.257368"/>
     <use style="stroke:#000000;" x="267.841667" xlink:href="#m77184406b2" y="88.473211"/>
     <use style="stroke:#000000;" x="287.20381" xlink:href="#m77184406b2" y="68.985263"/>
    </g>
   </g>
   <g id="line2d_56">
    <g clip-path="url(#pe8c393cd16)">
     <use style="stroke:#000000;" x="54.858095" xlink:href="#m77184406b2" y="173.554737"/>
     <use style="stroke:#000000;" x="74.220238" xlink:href="#m77184406b2" y="199.697105"/>
     <use style="stroke:#000000;" x="100.036429" xlink:href="#m77184406b2" y="168.801579"/>
     <use style="stroke:#000000;" x="119.398571" xlink:href="#m77184406b2" y="180.684474"/>
     <use style="stroke:#000000;" x="145.214762" xlink:href="#m77184406b2" y="154.542105"/>
     <use style="stroke:#000000;" x="190.393095" xlink:href="#m77184406b2" y="190.190789"/>
     <use style="stroke:#000000;" x="209.755238" xlink:href="#m77184406b2" y="147.412368"/>
     <use style="stroke:#000000;" x="235.571429" xlink:href="#m77184406b2" y="135.529474"/>
     <use style="stroke:#000000;" x="267.841667" xlink:href="#m77184406b2" y="116.516842"/>
     <use style="stroke:#000000;" x="287.20381" xlink:href="#m77184406b2" y="114.140263"/>
    </g>
   </g>
   <g id="line2d_57">
    <g clip-path="url(#pe8c393cd16)">
     <use style="stroke:#000000;" x="54.858095" xlink:href="#m77184406b2" y="173.554737"/>
     <use style="stroke:#000000;" x="74.220238" xlink:href="#m77184406b2" y="185.437632"/>
     <use style="stroke:#000000;" x="100.036429" xlink:href="#m77184406b2" y="149.788947"/>
     <use style="stroke:#000000;" x="119.398571" xlink:href="#m77184406b2" y="161.671842"/>
     <use style="stroke:#000000;" x="145.214762" xlink:href="#m77184406b2" y="145.035789"/>
     <use style="stroke:#000000;" x="190.393095" xlink:href="#m77184406b2" y="175.931316"/>
     <use style="stroke:#000000;" x="209.755238" xlink:href="#m77184406b2" y="123.646579"/>
     <use style="stroke:#000000;" x="235.571429" xlink:href="#m77184406b2" y="116.516842"/>
     <use style="stroke:#000000;" x="267.841667" xlink:href="#m77184406b2" y="107.010526"/>
     <use style="stroke:#000000;" x="287.20381" xlink:href="#m77184406b2" y="90.374474"/>
    </g>
   </g>
   <g id="line2d_58">
    <path clip-path="url(#pe8c393cd16)" d="M 54.858095 173.554737 
L 74.220238 149.788947 
L 100.036429 135.529474 
L 119.398571 126.023158 
L 145.214762 116.516842 
L 190.393095 111.763684 
L 209.755238 92.751053 
L 235.571429 83.244737 
L 267.841667 68.985263 
L 287.20381 54.725789 
" style="fill:none;stroke:#000000;stroke-linecap:square;"/>
    <defs>
     <path d="M 0 5 
C 1.326016 5 2.597899 4.473168 3.535534 3.535534 
C 4.473168 2.597899 5 1.326016 5 0 
C 5 -1.326016 4.473168 -2.597899 3.535534 -3.535534 
C 2.597899 -4.473168 1.326016 -5 0 -5 
C -1.326016 -5 -2.597899 -4.473168 -3.535534 -3.535534 
C -4.473168 -2.597899 -5 -1.326016 -5 0 
C -5 1.326016 -4.473168 2.597899 -3.535534 3.535534 
C -2.597899 4.473168 -1.326016 5 0 5 
z
" id="m5c2adcd677" style="stroke:#000000;"/>
    </defs>
    <g clip-path="url(#pe8c393cd16)">
     <use style="fill:#2fbe8f;stroke:#000000;" x="54.858095" xlink:href="#m5c2adcd677" y="173.554737"/>
     <use style="fill:#2fbe8f;stroke:#000000;" x="74.220238" xlink:href="#m5c2adcd677" y="149.788947"/>
     <use style="fill:#2fbe8f;stroke:#000000;" x="100.036429" xlink:href="#m5c2adcd677" y="135.529474"/>
     <use style="fill:#2fbe8f;stroke:#000000;" x="119.398571" xlink:href="#m5c2adcd677" y="126.023158"/>
     <use style="fill:#2fbe8f;stroke:#000000;" x="145.214762" xlink:href="#m5c2adcd677" y="116.516842"/>
     <use style="fill:#2fbe8f;stroke:#000000;" x="190.393095" xlink:href="#m5c2adcd677" y="111.763684"/>
     <use style="fill:#2fbe8f;stroke:#000000;" x="209.755238" xlink:href="#m5c2adcd677" y="92.751053"/>
     <use style="fill:#2fbe8f;stroke:#000000;" x="235.571429" xlink:href="#m5c2adcd677" y="83.244737"/>
     <use style="fill:#2fbe8f;stroke:#000000;" x="267.841667" xlink:href="#m5c2adcd677" y="68.985263"/>
     <use style="fill:#2fbe8f;stroke:#000000;" x="287.20381" xlink:href="#m5c2adcd677" y="54.725789"/>
    </g>
   </g>
   <g id="line2d_59">
    <path clip-path="url(#pe8c393cd16)" d="M 54.858095 173.554737 
L 74.220238 164.048421 
L 100.036429 149.788947 
L 119.398571 135.529474 
L 145.214762 140.282632 
L 190.393095 126.023158 
L 209.755238 116.516842 
L 235.571429 107.010526 
L 267.841667 97.504211 
L 287.20381 78.491579 
" style="fill:none;stroke:#000000;stroke-linecap:square;"/>
    <defs>
     <path d="M 0 5 
C 1.326016 5 2.597899 4.473168 3.535534 3.535534 
C 4.473168 2.597899 5 1.326016 5 0 
C 5 -1.326016 4.473168 -2.597899 3.535534 -3.535534 
C 2.597899 -4.473168 1.326016 -5 0 -5 
C -1.326016 -5 -2.597899 -4.473168 -3.535534 -3.535534 
C -4.473168 -2.597899 -5 -1.326016 -5 0 
C -5 1.326016 -4.473168 2.597899 -3.535534 3.535534 
C -2.597899 4.473168 -1.326016 5 0 5 
z
" id="m1e30ff7473" style="stroke:#000000;"/>
    </defs>
    <g clip-path="url(#pe8c393cd16)">
     <use style="fill:#459dff;stroke:#000000;" x="54.858095" xlink:href="#m1e30ff7473" y="173.554737"/>
     <use style="fill:#459dff;stroke:#000000;" x="74.220238" xlink:href="#m1e30ff7473" y="164.048421"/>
     <use style="fill:#459dff;stroke:#000000;" x="100.036429" xlink:href="#m1e30ff7473" y="149.788947"/>
     <use style="fill:#459dff;stroke:#000000;" x="119.398571" xlink:href="#m1e30ff7473" y="135.529474"/>
     <use style="fill:#459dff;stroke:#000000;" x="145.214762" xlink:href="#m1e30ff7473" y="140.282632"/>
     <use style="fill:#459dff;stroke:#000000;" x="190.393095" xlink:href="#m1e30ff7473" y="126.023158"/>
     <use style="fill:#459dff;stroke:#000000;" x="209.755238" xlink:href="#m1e30ff7473" y="116.516842"/>
     <use style="fill:#459dff;stroke:#000000;" x="235.571429" xlink:href="#m1e30ff7473" y="107.010526"/>
     <use style="fill:#459dff;stroke:#000000;" x="267.841667" xlink:href="#m1e30ff7473" y="97.504211"/>
     <use style="fill:#459dff;stroke:#000000;" x="287.20381" xlink:href="#m1e30ff7473" y="78.491579"/>
    </g>
   </g>
   <g id="line2d_60">
    <path clip-path="url(#pe8c393cd16)" d="M 54.858095 173.554737 
L 74.220238 187.814211 
L 100.036429 164.048421 
L 119.398571 173.554737 
L 145.214762 159.295263 
L 190.393095 161.671842 
L 209.755238 121.27 
L 235.571429 111.763684 
L 267.841667 97.504211 
L 287.20381 73.738421 
" style="fill:none;stroke:#000000;stroke-linecap:square;"/>
    <defs>
     <path d="M 0 5 
C 1.326016 5 2.597899 4.473168 3.535534 3.535534 
C 4.473168 2.597899 5 1.326016 5 0 
C 5 -1.326016 4.473168 -2.597899 3.535534 -3.535534 
C 2.597899 -4.473168 1.326016 -5 0 -5 
C -1.326016 -5 -2.597899 -4.473168 -3.535534 -3.535534 
C -4.473168 -2.597899 -5 -1.326016 -5 0 
C -5 1.326016 -4.473168 2.597899 -3.535534 3.535534 
C -2.597899 4.473168 -1.326016 5 0 5 
z
" id="m7e3d6ac098" style="stroke:#000000;"/>
    </defs>
    <g clip-path="url(#pe8c393cd16)">
     <use style="fill:#ff5b9b;stroke:#000000;" x="54.858095" xlink:href="#m7e3d6ac098" y="173.554737"/>
     <use style="fill:#ff5b9b;stroke:#000000;" x="74.220238" xlink:href="#m7e3d6ac098" y="187.814211"/>
     <use style="fill:#ff5b9b;stroke:#000000;" x="100.036429" xlink:href="#m7e3d6ac098" y="164.048421"/>
     <use style="fill:#ff5b9b;stroke:#000000;" x="119.398571" xlink:href="#m7e3d6ac098" y="173.554737"/>
     <use style="fill:#ff5b9b;stroke:#000000;" x="145.214762" xlink:href="#m7e3d6ac098" y="159.295263"/>
     <use style="fill:#ff5b9b;stroke:#000000;" x="190.393095" xlink:href="#m7e3d6ac098" y="161.671842"/>
     <use style="fill:#ff5b9b;stroke:#000000;" x="209.755238" xlink:href="#m7e3d6ac098" y="121.27"/>
     <use style="fill:#ff5b9b;stroke:#000000;" x="235.571429" xlink:href="#m7e3d6ac098" y="111.763684"/>
     <use style="fill:#ff5b9b;stroke:#000000;" x="267.841667" xlink:href="#m7e3d6ac098" y="97.504211"/>
     <use style="fill:#ff5b9b;stroke:#000000;" x="287.20381" xlink:href="#m7e3d6ac098" y="73.738421"/>
    </g>
   </g>
   <g id="line2d_61">
    <path clip-path="url(#pe8c393cd16)" d="M 54.858095 173.554737 
L 74.220238 192.567368 
L 100.036429 159.295263 
L 119.398571 171.178158 
L 145.214762 149.788947 
L 190.393095 183.061053 
L 209.755238 135.529474 
L 235.571429 126.023158 
L 267.841667 111.763684 
L 287.20381 102.257368 
" style="fill:none;stroke:#000000;stroke-linecap:square;"/>
    <defs>
     <path d="M 0 5 
C 1.326016 5 2.597899 4.473168 3.535534 3.535534 
C 4.473168 2.597899 5 1.326016 5 0 
C 5 -1.326016 4.473168 -2.597899 3.535534 -3.535534 
C 2.597899 -4.473168 1.326016 -5 0 -5 
C -1.326016 -5 -2.597899 -4.473168 -3.535534 -3.535534 
C -4.473168 -2.597899 -5 -1.326016 -5 0 
C -5 1.326016 -4.473168 2.597899 -3.535534 3.535534 
C -2.597899 4.473168 -1.326016 5 0 5 
z
" id="m5dcd5f1447" style="stroke:#000000;"/>
    </defs>
    <g clip-path="url(#pe8c393cd16)">
     <use style="fill:#ffcc37;stroke:#000000;" x="54.858095" xlink:href="#m5dcd5f1447" y="173.554737"/>
     <use style="fill:#ffcc37;stroke:#000000;" x="74.220238" xlink:href="#m5dcd5f1447" y="192.567368"/>
     <use style="fill:#ffcc37;stroke:#000000;" x="100.036429" xlink:href="#m5dcd5f1447" y="159.295263"/>
     <use style="fill:#ffcc37;stroke:#000000;" x="119.398571" xlink:href="#m5dcd5f1447" y="171.178158"/>
     <use style="fill:#ffcc37;stroke:#000000;" x="145.214762" xlink:href="#m5dcd5f1447" y="149.788947"/>
     <use style="fill:#ffcc37;stroke:#000000;" x="190.393095" xlink:href="#m5dcd5f1447" y="183.061053"/>
     <use style="fill:#ffcc37;stroke:#000000;" x="209.755238" xlink:href="#m5dcd5f1447" y="135.529474"/>
     <use style="fill:#ffcc37;stroke:#000000;" x="235.571429" xlink:href="#m5dcd5f1447" y="126.023158"/>
     <use style="fill:#ffcc37;stroke:#000000;" x="267.841667" xlink:href="#m5dcd5f1447" y="111.763684"/>
     <use style="fill:#ffcc37;stroke:#000000;" x="287.20381" xlink:href="#m5dcd5f1447" y="102.257368"/>
    </g>
   </g>
   <g id="patch_3">
    <path d="M 41.95 211.58 
L 41.95 30.96 
" style="fill:none;stroke:#000000;stroke-linecap:square;stroke-linejoin:miter;stroke-width:0.6;"/>
   </g>
   <g id="patch_4">
    <path d="M 313.02 211.58 
L 313.02 30.96 
" style="fill:none;stroke:#000000;stroke-linecap:square;stroke-linejoin:miter;stroke-width:0.6;"/>
   </g>
   <g id="patch_5">
    <path d="M 41.95 211.58 
L 313.02 211.58 
" style="fill:none;stroke:#000000;stroke-linecap:square;stroke-linejoin:miter;stroke-width:0.6;"/>
   </g>
   <g id="patch_6">
    <path d="M 41.95 30.96 
L 313.02 30.96 
" style="fill:none;stroke:#000000;stroke-linecap:square;stroke-linejoin:miter;stroke-width:0.6;"/>
   </g>
   <g id="text_12">
    <path d="M 53.375 35.685 
L 53.375 36.131875 
Q 52.359375 36.7975 51.88125 37.431875 
Q 51.21875 38.31 50.846875 39.688125 
Q 50.378125 41.3975 50.378125 44.463125 
Q 50.378125 47.35375 50.803125 48.956875 
Q 51.228125 50.556875 51.959375 51.544375 
Q 52.46875 52.225625 53.375 52.744375 
L 53.375 53.231875 
Q 51.021875 52.44125 49.384375 50.00375 
Q 47.75 47.569375 47.75 44.40375 
Q 47.75 41.27875 49.38125 38.8725 
Q 51.0125 36.46625 53.375 35.685 
z
M 59.322656 47.881875 
Q 57.653906 49.356875 56.325781 49.356875 
Q 55.544531 49.356875 55.025781 48.844375 
Q 54.510156 48.32875 54.510156 47.56 
Q 54.510156 46.513125 55.407031 45.67875 
Q 56.307031 44.844375 59.322656 43.456875 
L 59.322656 42.538125 
Q 59.322656 41.50375 59.210156 41.235 
Q 59.097656 40.96625 58.785156 40.76625 
Q 58.472656 40.56625 58.082031 40.56625 
Q 57.447656 40.56625 57.038281 40.850625 
Q 56.785156 41.025625 56.785156 41.26 
Q 56.785156 41.46625 57.057031 41.76625 
Q 57.428906 42.188125 57.428906 42.57875 
Q 57.428906 43.056875 57.072656 43.394375 
Q 56.716406 43.731875 56.138281 43.731875 
Q 55.525781 43.731875 55.110156 43.36 
Q 54.694531 42.988125 54.694531 42.49125 
Q 54.694531 41.788125 55.250781 41.1475 
Q 55.807031 40.506875 56.803906 40.16625 
Q 57.800781 39.825625 58.872656 39.825625 
Q 60.172656 39.825625 60.928906 40.37875 
Q 61.685156 40.92875 61.910156 41.5725 
Q 62.047656 41.981875 62.047656 43.456875 
L 62.047656 47.000625 
Q 62.047656 47.625625 62.094531 47.788125 
Q 62.144531 47.950625 62.241406 48.02875 
Q 62.341406 48.106875 62.466406 48.106875 
Q 62.722656 48.106875 62.985156 47.744375 
L 63.278906 47.97875 
Q 62.791406 48.700625 62.266406 49.02875 
Q 61.744531 49.356875 61.082031 49.356875 
Q 60.300781 49.356875 59.860156 48.99125 
Q 59.419531 48.6225 59.322656 47.881875 
z
M 59.322656 47.169375 
L 59.322656 44.11 
Q 58.141406 44.80375 57.566406 45.594375 
Q 57.185156 46.1225 57.185156 46.66 
Q 57.185156 47.11 57.507031 47.450625 
Q 57.750781 47.71625 58.191406 47.71625 
Q 58.678906 47.71625 59.322656 47.169375 
z
M 66.110156 46.219375 
Q 66.794531 46.219375 67.266406 46.700625 
Q 67.741406 47.17875 67.741406 47.850625 
Q 67.741406 48.525625 67.263281 49.000625 
Q 66.785156 49.4725 66.110156 49.4725 
Q 65.435156 49.4725 64.960156 49.000625 
Q 64.488281 48.525625 64.488281 47.850625 
Q 64.488281 47.17875 64.960156 46.700625 
Q 65.435156 46.219375 66.110156 46.219375 
z
M 68.853906 53.231875 
L 68.853906 52.785 
Q 69.869531 52.11 70.347656 51.475625 
Q 71.003906 50.5975 71.385156 49.22875 
Q 71.853906 47.51 71.853906 44.444375 
Q 71.853906 41.55375 71.428906 39.956875 
Q 71.003906 38.36 70.269531 37.3725 
Q 69.763281 36.688125 68.853906 36.1725 
L 68.853906 35.685 
Q 71.207031 36.475625 72.841406 38.913125 
Q 74.478906 41.3475 74.478906 44.513125 
Q 74.478906 47.625625 72.841406 50.031875 
Q 71.207031 52.44125 68.853906 53.231875 
z
" style="stroke:#ffffff;stroke-linejoin:miter;stroke-width:1.5;"/>
    <path d="M 53.375 35.685 
L 53.375 36.131875 
Q 52.359375 36.7975 51.88125 37.431875 
Q 51.21875 38.31 50.846875 39.688125 
Q 50.378125 41.3975 50.378125 44.463125 
Q 50.378125 47.35375 50.803125 48.956875 
Q 51.228125 50.556875 51.959375 51.544375 
Q 52.46875 52.225625 53.375 52.744375 
L 53.375 53.231875 
Q 51.021875 52.44125 49.384375 50.00375 
Q 47.75 47.569375 47.75 44.40375 
Q 47.75 41.27875 49.38125 38.8725 
Q 51.0125 36.46625 53.375 35.685 
z
M 59.322656 47.881875 
Q 57.653906 49.356875 56.325781 49.356875 
Q 55.544531 49.356875 55.025781 48.844375 
Q 54.510156 48.32875 54.510156 47.56 
Q 54.510156 46.513125 55.407031 45.67875 
Q 56.307031 44.844375 59.322656 43.456875 
L 59.322656 42.538125 
Q 59.322656 41.50375 59.210156 41.235 
Q 59.097656 40.96625 58.785156 40.76625 
Q 58.472656 40.56625 58.082031 40.56625 
Q 57.447656 40.56625 57.038281 40.850625 
Q 56.785156 41.025625 56.785156 41.26 
Q 56.785156 41.46625 57.057031 41.76625 
Q 57.428906 42.188125 57.428906 42.57875 
Q 57.428906 43.056875 57.072656 43.394375 
Q 56.716406 43.731875 56.138281 43.731875 
Q 55.525781 43.731875 55.110156 43.36 
Q 54.694531 42.988125 54.694531 42.49125 
Q 54.694531 41.788125 55.250781 41.1475 
Q 55.807031 40.506875 56.803906 40.16625 
Q 57.800781 39.825625 58.872656 39.825625 
Q 60.172656 39.825625 60.928906 40.37875 
Q 61.685156 40.92875 61.910156 41.5725 
Q 62.047656 41.981875 62.047656 43.456875 
L 62.047656 47.000625 
Q 62.047656 47.625625 62.094531 47.788125 
Q 62.144531 47.950625 62.241406 48.02875 
Q 62.341406 48.106875 62.466406 48.106875 
Q 62.722656 48.106875 62.985156 47.744375 
L 63.278906 47.97875 
Q 62.791406 48.700625 62.266406 49.02875 
Q 61.744531 49.356875 61.082031 49.356875 
Q 60.300781 49.356875 59.860156 48.99125 
Q 59.419531 48.6225 59.322656 47.881875 
z
M 59.322656 47.169375 
L 59.322656 44.11 
Q 58.141406 44.80375 57.566406 45.594375 
Q 57.185156 46.1225 57.185156 46.66 
Q 57.185156 47.11 57.507031 47.450625 
Q 57.750781 47.71625 58.191406 47.71625 
Q 58.678906 47.71625 59.322656 47.169375 
z
M 66.110156 46.219375 
Q 66.794531 46.219375 67.266406 46.700625 
Q 67.741406 47.17875 67.741406 47.850625 
Q 67.741406 48.525625 67.263281 49.000625 
Q 66.785156 49.4725 66.110156 49.4725 
Q 65.435156 49.4725 64.960156 49.000625 
Q 64.488281 48.525625 64.488281 47.850625 
Q 64.488281 47.17875 64.960156 46.700625 
Q 65.435156 46.219375 66.110156 46.219375 
z
M 68.853906 53.231875 
L 68.853906 52.785 
Q 69.869531 52.11 70.347656 51.475625 
Q 71.003906 50.5975 71.385156 49.22875 
Q 71.853906 47.51 71.853906 44.444375 
Q 71.853906 41.55375 71.428906 39.956875 
Q 71.003906 38.36 70.269531 37.3725 
Q 69.763281 36.688125 68.853906 36.1725 
L 68.853906 35.685 
Q 71.207031 36.475625 72.841406 38.913125 
Q 74.478906 41.3475 74.478906 44.513125 
Q 74.478906 47.625625 72.841406 50.031875 
Q 71.207031 52.44125 68.853906 53.231875 
z
"/>
   </g>
  </g>
  <g id="axes_2">
   <g id="patch_7">
    <path d="M 41.95 22.14 
L 313.02 22.14 
L 313.02 7.74 
L 41.95 7.74 
z
" style="fill:none;"/>
   </g>
   <g id="legend_1">
    <g id="patch_8">
     <path d="M 95.232031 22.14 
L 259.737969 22.14 
L 259.737969 4.914844 
L 95.232031 4.914844 
z
" style="fill:#ffffff;opacity:0.8;stroke:#000000;stroke-linejoin:miter;stroke-width:0.6;"/>
    </g>
    <g id="LineCollection_5">
     <path d="M 108.732031 17.064844 
L 108.732031 8.064844 
" style="fill:none;stroke:#000000;"/>
    </g>
    <g id="line2d_62">
     <g>
      <use style="stroke:#000000;" x="108.732031" xlink:href="#m77184406b2" y="17.064844"/>
     </g>
    </g>
    <g id="line2d_63">
     <g>
      <use style="stroke:#000000;" x="108.732031" xlink:href="#m77184406b2" y="8.064844"/>
     </g>
    </g>
    <g id="line2d_64">
     <path d="M 99.732031 12.564844 
L 117.732031 12.564844 
" style="fill:none;stroke:#000000;"/>
    </g>
    <g id="line2d_65">
     <g>
      <use style="fill:#2fbe8f;stroke:#000000;" x="108.732031" xlink:href="#m5c2adcd677" y="12.564844"/>
     </g>
    </g>
    <g id="text_13">
     <!-- A -->
     <g transform="translate(122.232031 15.714844)scale(0.09 -0.09)">
      <defs>
       <path d="M 2928 1419 
L 1288 1419 
L 1000 750 
Q 894 503 894 381 
Q 894 284 986 211 
Q 1078 138 1384 116 
L 1384 0 
L 50 0 
L 50 116 
Q 316 163 394 238 
Q 553 388 747 847 
L 2238 4334 
L 2347 4334 
L 3822 809 
Q 4000 384 4145 257 
Q 4291 131 4550 116 
L 4550 0 
L 2878 0 
L 2878 116 
Q 3131 128 3220 200 
Q 3309 272 3309 375 
Q 3309 513 3184 809 
L 2928 1419 
z
M 2841 1650 
L 2122 3363 
L 1384 1650 
L 2841 1650 
z
" id="TimesNewRomanPSMT-41" transform="scale(0.015625)"/>
      </defs>
      <use xlink:href="#TimesNewRomanPSMT-41"/>
     </g>
    </g>
    <g id="LineCollection_6">
     <path d="M 151.231719 17.064844 
L 151.231719 8.064844 
" style="fill:none;stroke:#000000;"/>
    </g>
    <g id="line2d_66">
     <g>
      <use style="stroke:#000000;" x="151.231719" xlink:href="#m77184406b2" y="17.064844"/>
     </g>
    </g>
    <g id="line2d_67">
     <g>
      <use style="stroke:#000000;" x="151.231719" xlink:href="#m77184406b2" y="8.064844"/>
     </g>
    </g>
    <g id="line2d_68">
     <path d="M 142.231719 12.564844 
L 160.231719 12.564844 
" style="fill:none;stroke:#000000;"/>
    </g>
    <g id="line2d_69">
     <g>
      <use style="fill:#459dff;stroke:#000000;" x="151.231719" xlink:href="#m1e30ff7473" y="12.564844"/>
     </g>
    </g>
    <g id="text_14">
     <!-- B -->
     <g transform="translate(164.731719 15.714844)scale(0.09 -0.09)">
      <defs>
       <path d="M 2956 2163 
Q 3397 2069 3616 1863 
Q 3919 1575 3919 1159 
Q 3919 844 3719 555 
Q 3519 266 3170 133 
Q 2822 0 2106 0 
L 106 0 
L 106 116 
L 266 116 
Q 531 116 647 284 
Q 719 394 719 750 
L 719 3488 
Q 719 3881 628 3984 
Q 506 4122 266 4122 
L 106 4122 
L 106 4238 
L 1938 4238 
Q 2450 4238 2759 4163 
Q 3228 4050 3475 3764 
Q 3722 3478 3722 3106 
Q 3722 2788 3528 2536 
Q 3334 2284 2956 2163 
z
M 1319 2331 
Q 1434 2309 1582 2298 
Q 1731 2288 1909 2288 
Q 2366 2288 2595 2386 
Q 2825 2484 2947 2687 
Q 3069 2891 3069 3131 
Q 3069 3503 2766 3765 
Q 2463 4028 1881 4028 
Q 1569 4028 1319 3959 
L 1319 2331 
z
M 1319 306 
Q 1681 222 2034 222 
Q 2600 222 2897 476 
Q 3194 731 3194 1106 
Q 3194 1353 3059 1581 
Q 2925 1809 2622 1940 
Q 2319 2072 1872 2072 
Q 1678 2072 1540 2065 
Q 1403 2059 1319 2044 
L 1319 306 
z
" id="TimesNewRomanPSMT-42" transform="scale(0.015625)"/>
      </defs>
      <use xlink:href="#TimesNewRomanPSMT-42"/>
     </g>
    </g>
    <g id="LineCollection_7">
     <path d="M 193.235 17.064844 
L 193.235 8.064844 
" style="fill:none;stroke:#000000;"/>
    </g>
    <g id="line2d_70">
     <g>
      <use style="stroke:#000000;" x="193.235" xlink:href="#m77184406b2" y="17.064844"/>
     </g>
    </g>
    <g id="line2d_71">
     <g>
      <use style="stroke:#000000;" x="193.235" xlink:href="#m77184406b2" y="8.064844"/>
     </g>
    </g>
    <g id="line2d_72">
     <path d="M 184.235 12.564844 
L 202.235 12.564844 
" style="fill:none;stroke:#000000;"/>
    </g>
    <g id="line2d_73">
     <g>
      <use style="fill:#ff5b9b;stroke:#000000;" x="193.235" xlink:href="#m7e3d6ac098" y="12.564844"/>
     </g>
    </g>
    <g id="text_15">
     <!-- C -->
     <g transform="translate(206.735 15.714844)scale(0.09 -0.09)">
      <defs>
       <path d="M 3853 4334 
L 3950 2894 
L 3853 2894 
Q 3659 3541 3300 3825 
Q 2941 4109 2438 4109 
Q 2016 4109 1675 3895 
Q 1334 3681 1139 3212 
Q 944 2744 944 2047 
Q 944 1472 1128 1050 
Q 1313 628 1683 403 
Q 2053 178 2528 178 
Q 2941 178 3256 354 
Q 3572 531 3950 1056 
L 4047 994 
Q 3728 428 3303 165 
Q 2878 -97 2294 -97 
Q 1241 -97 663 684 
Q 231 1266 231 2053 
Q 231 2688 515 3219 
Q 800 3750 1298 4042 
Q 1797 4334 2388 4334 
Q 2847 4334 3294 4109 
Q 3425 4041 3481 4041 
Q 3566 4041 3628 4100 
Q 3709 4184 3744 4334 
L 3853 4334 
z
" id="TimesNewRomanPSMT-43" transform="scale(0.015625)"/>
      </defs>
      <use xlink:href="#TimesNewRomanPSMT-43"/>
     </g>
    </g>
    <g id="LineCollection_8">
     <path d="M 235.238281 17.064844 
L 235.238281 8.064844 
" style="fill:none;stroke:#000000;"/>
    </g>
    <g id="line2d_74">
     <g>
      <use style="stroke:#000000;" x="235.238281" xlink:href="#m77184406b2" y="17.064844"/>
     </g>
    </g>
    <g id="line2d_75">
     <g>
      <use style="stroke:#000000;" x="235.238281" xlink:href="#m77184406b2" y="8.064844"/>
     </g>
    </g>
    <g id="line2d_76">
     <path d="M 226.238281 12.564844 
L 244.238281 12.564844 
" style="fill:none;stroke:#000000;"/>
    </g>
    <g id="line2d_77">
     <g>
      <use style="fill:#ffcc37;stroke:#000000;" x="235.238281" xlink:href="#m5dcd5f1447" y="12.564844"/>
     </g>
    </g>
    <g id="text_16">
     <!-- D -->
     <g transform="translate(248.738281 15.714844)scale(0.09 -0.09)">
      <defs>
       <path d="M 109 0 
L 109 116 
L 269 116 
Q 538 116 650 288 
Q 719 391 719 750 
L 719 3488 
Q 719 3884 631 3984 
Q 509 4122 269 4122 
L 109 4122 
L 109 4238 
L 1834 4238 
Q 2784 4238 3279 4022 
Q 3775 3806 4076 3303 
Q 4378 2800 4378 2141 
Q 4378 1256 3841 663 
Q 3238 0 2003 0 
L 109 0 
z
M 1319 306 
Q 1716 219 1984 219 
Q 2709 219 3187 728 
Q 3666 1238 3666 2109 
Q 3666 2988 3187 3494 
Q 2709 4000 1959 4000 
Q 1678 4000 1319 3909 
L 1319 306 
z
" id="TimesNewRomanPSMT-44" transform="scale(0.015625)"/>
      </defs>
      <use xlink:href="#TimesNewRomanPSMT-44"/>
     </g>
    </g>
   </g>
  </g>
  <g id="text_17">
   <!-- Time -->
   <g transform="translate(161.920156 243.803281)scale(0.15 -0.15)">
    <defs>
     <path d="M 3703 4238 
L 3750 3244 
L 3631 3244 
Q 3597 3506 3538 3619 
Q 3441 3800 3280 3886 
Q 3119 3972 2856 3972 
L 2259 3972 
L 2259 734 
Q 2259 344 2344 247 
Q 2463 116 2709 116 
L 2856 116 
L 2856 0 
L 1059 0 
L 1059 116 
L 1209 116 
Q 1478 116 1591 278 
Q 1659 378 1659 734 
L 1659 3972 
L 1150 3972 
Q 853 3972 728 3928 
Q 566 3869 450 3700 
Q 334 3531 313 3244 
L 194 3244 
L 244 4238 
L 3703 4238 
z
" id="TimesNewRomanPSMT-54" transform="scale(0.015625)"/>
     <path d="M 928 4444 
Q 1059 4444 1151 4351 
Q 1244 4259 1244 4128 
Q 1244 3997 1151 3903 
Q 1059 3809 928 3809 
Q 797 3809 703 3903 
Q 609 3997 609 4128 
Q 609 4259 701 4351 
Q 794 4444 928 4444 
z
M 1188 2947 
L 1188 647 
Q 1188 378 1227 289 
Q 1266 200 1342 156 
Q 1419 113 1622 113 
L 1622 0 
L 231 0 
L 231 113 
Q 441 113 512 153 
Q 584 194 626 287 
Q 669 381 669 647 
L 669 1750 
Q 669 2216 641 2353 
Q 619 2453 572 2492 
Q 525 2531 444 2531 
Q 356 2531 231 2484 
L 188 2597 
L 1050 2947 
L 1188 2947 
z
" id="TimesNewRomanPSMT-69" transform="scale(0.015625)"/>
     <path d="M 1050 2338 
Q 1363 2650 1419 2697 
Q 1559 2816 1721 2881 
Q 1884 2947 2044 2947 
Q 2313 2947 2506 2790 
Q 2700 2634 2766 2338 
Q 3088 2713 3309 2830 
Q 3531 2947 3766 2947 
Q 3994 2947 4170 2830 
Q 4347 2713 4450 2447 
Q 4519 2266 4519 1878 
L 4519 647 
Q 4519 378 4559 278 
Q 4591 209 4675 161 
Q 4759 113 4950 113 
L 4950 0 
L 3538 0 
L 3538 113 
L 3597 113 
Q 3781 113 3884 184 
Q 3956 234 3988 344 
Q 4000 397 4000 647 
L 4000 1878 
Q 4000 2228 3916 2372 
Q 3794 2572 3525 2572 
Q 3359 2572 3192 2489 
Q 3025 2406 2788 2181 
L 2781 2147 
L 2788 2013 
L 2788 647 
Q 2788 353 2820 281 
Q 2853 209 2943 161 
Q 3034 113 3253 113 
L 3253 0 
L 1806 0 
L 1806 113 
Q 2044 113 2133 169 
Q 2222 225 2256 338 
Q 2272 391 2272 647 
L 2272 1878 
Q 2272 2228 2169 2381 
Q 2031 2581 1784 2581 
Q 1616 2581 1450 2491 
Q 1191 2353 1050 2181 
L 1050 647 
Q 1050 366 1089 281 
Q 1128 197 1204 155 
Q 1281 113 1516 113 
L 1516 0 
L 100 0 
L 100 113 
Q 297 113 375 155 
Q 453 197 493 289 
Q 534 381 534 647 
L 534 1741 
Q 534 2213 506 2350 
Q 484 2453 437 2492 
Q 391 2531 309 2531 
Q 222 2531 100 2484 
L 53 2597 
L 916 2947 
L 1050 2947 
L 1050 2338 
z
" id="TimesNewRomanPSMT-6d" transform="scale(0.015625)"/>
     <path d="M 681 1784 
Q 678 1147 991 784 
Q 1303 422 1725 422 
Q 2006 422 2214 576 
Q 2422 731 2563 1106 
L 2659 1044 
Q 2594 616 2278 264 
Q 1963 -88 1488 -88 
Q 972 -88 605 314 
Q 238 716 238 1394 
Q 238 2128 614 2539 
Q 991 2950 1559 2950 
Q 2041 2950 2350 2633 
Q 2659 2316 2659 1784 
L 681 1784 
z
M 681 1966 
L 2006 1966 
Q 1991 2241 1941 2353 
Q 1863 2528 1708 2628 
Q 1553 2728 1384 2728 
Q 1125 2728 920 2526 
Q 716 2325 681 1966 
z
" id="TimesNewRomanPSMT-65" transform="scale(0.015625)"/>
    </defs>
    <use xlink:href="#TimesNewRomanPSMT-54"/>
    <use x="57.583984" xlink:href="#TimesNewRomanPSMT-69"/>
    <use x="85.367188" xlink:href="#TimesNewRomanPSMT-6d"/>
    <use x="163.150391" xlink:href="#TimesNewRomanPSMT-65"/>
   </g>
  </g>
  <g id="text_18">
   <!-- Values -->
   <g transform="translate(15.741406 141.263359)rotate(-90)scale(0.15 -0.15)">
    <defs>
     <path d="M 4544 4238 
L 4544 4122 
Q 4319 4081 4203 3978 
Q 4038 3825 3909 3509 
L 2431 -97 
L 2316 -97 
L 728 3556 
Q 606 3838 556 3900 
Q 478 3997 364 4051 
Q 250 4106 56 4122 
L 56 4238 
L 1788 4238 
L 1788 4122 
Q 1494 4094 1406 4022 
Q 1319 3950 1319 3838 
Q 1319 3681 1463 3350 
L 2541 866 
L 3541 3319 
Q 3688 3681 3688 3822 
Q 3688 3913 3597 3995 
Q 3506 4078 3291 4113 
Q 3275 4116 3238 4122 
L 3238 4238 
L 4544 4238 
z
" id="TimesNewRomanPSMT-56" transform="scale(0.015625)"/>
     <path d="M 1822 413 
Q 1381 72 1269 19 
Q 1100 -59 909 -59 
Q 613 -59 420 144 
Q 228 347 228 678 
Q 228 888 322 1041 
Q 450 1253 767 1440 
Q 1084 1628 1822 1897 
L 1822 2009 
Q 1822 2438 1686 2597 
Q 1550 2756 1291 2756 
Q 1094 2756 978 2650 
Q 859 2544 859 2406 
L 866 2225 
Q 866 2081 792 2003 
Q 719 1925 600 1925 
Q 484 1925 411 2006 
Q 338 2088 338 2228 
Q 338 2497 613 2722 
Q 888 2947 1384 2947 
Q 1766 2947 2009 2819 
Q 2194 2722 2281 2516 
Q 2338 2381 2338 1966 
L 2338 994 
Q 2338 584 2353 492 
Q 2369 400 2405 369 
Q 2441 338 2488 338 
Q 2538 338 2575 359 
Q 2641 400 2828 588 
L 2828 413 
Q 2478 -56 2159 -56 
Q 2006 -56 1915 50 
Q 1825 156 1822 413 
z
M 1822 616 
L 1822 1706 
Q 1350 1519 1213 1441 
Q 966 1303 859 1153 
Q 753 1003 753 825 
Q 753 600 887 451 
Q 1022 303 1197 303 
Q 1434 303 1822 616 
z
" id="TimesNewRomanPSMT-61" transform="scale(0.015625)"/>
     <path d="M 1184 4444 
L 1184 647 
Q 1184 378 1223 290 
Q 1263 203 1344 158 
Q 1425 113 1647 113 
L 1647 0 
L 244 0 
L 244 113 
Q 441 113 512 153 
Q 584 194 625 287 
Q 666 381 666 647 
L 666 3247 
Q 666 3731 644 3842 
Q 622 3953 573 3993 
Q 525 4034 450 4034 
Q 369 4034 244 3984 
L 191 4094 
L 1044 4444 
L 1184 4444 
z
" id="TimesNewRomanPSMT-6c" transform="scale(0.015625)"/>
     <path d="M 2709 2863 
L 2709 1128 
Q 2709 631 2732 520 
Q 2756 409 2807 365 
Q 2859 322 2928 322 
Q 3025 322 3147 375 
L 3191 266 
L 2334 -88 
L 2194 -88 
L 2194 519 
Q 1825 119 1631 15 
Q 1438 -88 1222 -88 
Q 981 -88 804 51 
Q 628 191 559 409 
Q 491 628 491 1028 
L 491 2306 
Q 491 2509 447 2587 
Q 403 2666 317 2708 
Q 231 2750 6 2747 
L 6 2863 
L 1009 2863 
L 1009 947 
Q 1009 547 1148 422 
Q 1288 297 1484 297 
Q 1619 297 1789 381 
Q 1959 466 2194 703 
L 2194 2325 
Q 2194 2569 2105 2655 
Q 2016 2741 1734 2747 
L 1734 2863 
L 2709 2863 
z
" id="TimesNewRomanPSMT-75" transform="scale(0.015625)"/>
     <path d="M 2050 2947 
L 2050 1972 
L 1947 1972 
Q 1828 2431 1642 2597 
Q 1456 2763 1169 2763 
Q 950 2763 815 2647 
Q 681 2531 681 2391 
Q 681 2216 781 2091 
Q 878 1963 1175 1819 
L 1631 1597 
Q 2266 1288 2266 781 
Q 2266 391 1970 151 
Q 1675 -88 1309 -88 
Q 1047 -88 709 6 
Q 606 38 541 38 
Q 469 38 428 -44 
L 325 -44 
L 325 978 
L 428 978 
Q 516 541 762 319 
Q 1009 97 1316 97 
Q 1531 97 1667 223 
Q 1803 350 1803 528 
Q 1803 744 1651 891 
Q 1500 1038 1047 1263 
Q 594 1488 453 1669 
Q 313 1847 313 2119 
Q 313 2472 555 2709 
Q 797 2947 1181 2947 
Q 1350 2947 1591 2875 
Q 1750 2828 1803 2828 
Q 1853 2828 1881 2850 
Q 1909 2872 1947 2947 
L 2050 2947 
z
" id="TimesNewRomanPSMT-73" transform="scale(0.015625)"/>
    </defs>
    <use xlink:href="#TimesNewRomanPSMT-56"/>
    <use x="61.091797" xlink:href="#TimesNewRomanPSMT-61"/>
    <use x="105.476562" xlink:href="#TimesNewRomanPSMT-6c"/>
    <use x="133.259766" xlink:href="#TimesNewRomanPSMT-75"/>
    <use x="183.259766" xlink:href="#TimesNewRomanPSMT-65"/>
    <use x="227.644531" xlink:href="#TimesNewRomanPSMT-73"/>
   </g>
  </g>
 </g>
 <defs>
  <clipPath id="pe8c393cd16">
   <rect height="180.62" width="271.07" x="41.95" y="30.96"/>
  </clipPath>
 </defs>
</svg>
